<svg width="48" height="48" viewBox="0 0 48 48" fill="none" xmlns="http://www.w3.org/2000/svg">
<path d="M44.2704 43.5953C44.1169 43.7476 43.9251 43.8237 43.695 43.8237C43.4648 43.8237 43.273 43.7476 43.1196 43.5953C42.9661 43.4431 42.8894 43.2529 42.8894 43.0246C42.8894 42.7962 42.9661 42.5869 43.1387 42.4347C43.2922 42.2825 43.484 42.2254 43.695 42.2254C43.9251 42.2254 44.1169 42.3015 44.2704 42.4538C44.4238 42.606 44.5005 42.7962 44.5005 43.0246C44.5197 43.2529 44.443 43.4431 44.2704 43.5953ZM43.2346 42.5489C43.1004 42.6821 43.0428 42.8343 43.0428 43.0055C43.0428 43.1958 43.1004 43.348 43.2346 43.4812C43.3689 43.6144 43.5223 43.6715 43.7141 43.6715C43.9059 43.6715 44.0594 43.6144 44.1936 43.4812C44.3279 43.348 44.3855 43.1958 44.3855 43.0055C44.3855 42.8343 44.3279 42.663 44.1936 42.5489C44.0594 42.4157 43.9059 42.3396 43.7141 42.3396C43.5223 42.3586 43.3689 42.4157 43.2346 42.5489ZM43.9635 43.4241C43.8868 43.4812 43.81 43.5002 43.7333 43.5002C43.6182 43.5002 43.5032 43.4622 43.4073 43.367C43.3114 43.2719 43.273 43.1577 43.273 43.0246C43.273 42.8914 43.3114 42.7772 43.3881 42.6821C43.4648 42.5869 43.5799 42.5489 43.7141 42.5489C43.7909 42.5489 43.8676 42.5679 43.9443 42.606C44.0402 42.663 44.1169 42.7582 44.1361 42.9104H43.9251C43.9059 42.8533 43.8868 42.7962 43.8484 42.7772C43.81 42.7582 43.7717 42.7392 43.7333 42.7392C43.6758 42.7392 43.6182 42.7582 43.5799 42.8153C43.5415 42.8723 43.5223 42.9484 43.5223 43.0436C43.5223 43.1387 43.5415 43.2148 43.5799 43.2529C43.6182 43.2909 43.6758 43.329 43.7333 43.329C43.7909 43.329 43.8292 43.3099 43.8676 43.2909L43.9251 43.1768H44.1169C44.0977 43.2909 44.0402 43.367 43.9635 43.4241ZM45.9966 34.9764C45.9966 34.9002 45.9774 34.8241 45.9774 34.748C45.9774 34.691 45.9582 34.6529 45.9582 34.6148C45.9391 34.5007 45.9199 34.4056 45.8815 34.2914C45.8048 34.0821 45.6897 33.8728 45.5363 33.7016C45.3828 33.5303 45.2102 33.3972 45.0376 33.302C44.8458 33.2069 44.654 33.1498 44.5005 33.1118C44.443 33.1118 44.4046 33.0927 44.3663 33.0927C44.5773 32.1795 44.3087 31.4755 44.1361 31.152L44.1745 31.114C44.4046 30.8857 44.5964 30.6764 44.7691 30.4671L44.8074 30.429C44.9417 30.2388 45.0184 30.0485 45.0759 29.8773C45.1143 29.725 45.1527 29.5919 45.1527 29.4587V29.3445V29.2684V29.0972C45.1335 28.8118 45.0951 28.4503 44.9033 28.0507C44.8074 27.8605 44.6732 27.6512 44.5005 27.4609C44.3279 27.2706 44.1169 27.0994 43.8676 26.9662C43.8484 26.9472 43.8292 26.9472 43.81 26.9282C43.2922 26.1861 42.7168 25.5963 42.1989 25.1587C41.9304 24.9304 41.681 24.7401 41.47 24.5879C41.2591 24.4357 41.0864 24.3215 40.9905 24.2454C40.7604 24.0742 40.5877 23.9791 40.511 23.941C40.3192 23.8268 40.185 23.7317 40.1082 23.6746C40.0507 23.6175 40.0123 23.5985 39.9932 23.5795C39.9932 23.5795 39.9932 23.5605 39.974 23.5224C39.9548 23.4653 39.9548 23.3892 39.9548 23.256C39.9548 23.0658 39.9548 22.7804 39.974 22.3999C40.0123 21.791 40.0699 20.9729 40.1466 19.8503C40.1658 19.4888 40.1658 19.1463 40.1658 18.8419C40.1466 18.3282 40.0699 17.8716 39.974 17.453C39.9548 17.3578 39.9164 17.2627 39.8973 17.1676C39.8781 17.0915 39.8589 17.0534 39.8397 17.0154C39.8205 16.9583 39.8014 16.9012 39.763 16.8251C39.7438 16.787 39.7438 16.749 39.7055 16.7109C39.6671 16.6158 39.6287 16.5207 39.5712 16.4255L39.552 16.4065L39.5328 16.3494L39.5136 16.3114C39.4177 16.1401 39.3027 15.9879 39.1876 15.8547C39.13 15.5884 39.0341 15.2078 38.8615 14.7702C38.7081 14.3897 38.5163 13.9711 38.2286 13.5525C38.1327 13.4003 38.0176 13.2671 37.9025 13.134L37.9409 13.0959C37.9984 13.0388 39.341 11.6309 40.4151 9.80433C42.3907 6.39859 41.7386 4.3247 40.8371 3.18311L40.8179 3.14506L40.7987 3.10701C39.9356 2.15568 38.7464 1.58489 37.3079 1.39463C34.2966 1.0141 30.8825 2.49816 29.981 2.91674L28.3315 1.12826C28.1781 0.976043 28.0246 0.823831 27.852 0.709673C27.6794 0.595514 27.4876 0.481355 27.2958 0.386223C26.9122 0.214984 26.4902 0.100825 26.0299 0.0437461C25.1284 -0.0704128 24.0927 0.0437461 22.9802 0.329143C21.3115 0.747726 19.451 1.58489 17.4946 2.74551C15.5382 3.90612 13.5051 5.40921 11.5295 7.1977C9.11282 9.36672 7.11807 11.6689 5.66036 13.876C4.93151 14.9605 4.33692 16.026 3.89577 17.0534C3.45463 18.0618 3.16692 19.0322 3.05184 19.9074C2.97512 20.5543 2.97512 21.1631 3.10938 21.7149C3.16692 21.9622 3.24364 22.1906 3.35872 22.4189C3.49299 22.7043 3.66561 22.9706 3.87659 23.199L5.58364 24.9684L5.77545 25.1587L5.75627 25.1777L5.69872 25.2919C5.66036 25.349 5.64118 25.406 5.60282 25.4441L5.54528 25.5582C5.5261 25.6153 5.48774 25.6724 5.46856 25.7295L5.41102 25.8436C5.39184 25.9007 5.35348 25.9578 5.3343 26.0149C5.31512 26.0529 5.29594 26.091 5.29594 26.129L5.2384 26.3003C5.21922 26.3383 5.21922 26.3764 5.20004 26.4144C5.18086 26.4715 5.16167 26.5286 5.14249 26.6047C5.14249 26.6237 5.12331 26.6428 5.12331 26.6618C5.12331 26.6808 5.10413 26.6998 5.10413 26.7189C5.08495 26.7759 5.06577 26.852 5.04659 26.9091C5.04659 26.9472 5.02741 26.9852 5.02741 27.0233C5.02741 27.0423 5.00823 27.0804 5.00823 27.0994C5.00823 27.1374 4.98905 27.1755 4.98905 27.2136C4.98905 27.2516 4.96987 27.2897 4.96987 27.3277C4.95069 27.4038 4.95069 27.4799 4.93151 27.5751C4.93151 27.5941 4.93151 27.6131 4.91233 27.6512V27.6702C4.91233 27.7273 4.89315 27.7843 4.89315 27.8224C4.89315 27.8985 4.87397 27.9936 4.87397 28.0697V29.0211C4.87397 29.0591 4.87397 29.0972 4.89315 29.1352C4.89315 29.1733 4.89315 29.2304 4.91233 29.2874V29.3445C4.91233 29.3826 4.93151 29.4396 4.93151 29.4777C4.93151 29.5158 4.95069 29.5538 4.95069 29.6109C4.95069 29.6299 4.95069 29.6489 4.96987 29.668C4.96987 29.687 4.98905 29.725 4.98905 29.7441V29.7821C4.98905 29.8202 5.00823 29.8582 5.02741 29.9343C5.02741 29.9534 5.02741 29.9534 5.04659 29.9724C5.06577 30.0104 5.06577 30.0485 5.06577 30.0675L5.08495 30.1056C5.08495 30.1246 5.08495 30.1246 5.10413 30.1436L5.12331 30.1817V30.2388C5.12331 30.2578 5.12331 30.2578 5.14249 30.2768L5.16167 30.3149C5.16167 30.3529 5.18086 30.3719 5.18086 30.41C5.20004 30.448 5.20004 30.4861 5.21922 30.5622V30.5432V30.5622C5.21922 30.5812 5.21922 30.5812 5.2384 30.6003C5.25758 30.6573 5.27676 30.6954 5.27676 30.7144C5.29594 30.7525 5.31512 30.7905 5.3343 30.8666L5.35348 30.8857C5.37266 30.9237 5.37266 30.9618 5.39184 30.9808L5.41102 31.0188C5.41102 31.0379 5.4302 31.0569 5.4302 31.0759C5.4302 31.0949 5.44938 31.133 5.46856 31.152L5.48774 31.1901C5.50692 31.2091 5.50692 31.2472 5.5261 31.2662C5.54528 31.2852 5.54528 31.3042 5.54528 31.3233C5.56446 31.3613 5.58364 31.3994 5.60282 31.4565L5.622 31.4755C5.64118 31.4945 5.64118 31.5135 5.66036 31.5326C5.67954 31.5516 5.67954 31.5896 5.69872 31.6087C5.7179 31.6277 5.73708 31.6657 5.75627 31.7228L5.77545 31.7418C5.79463 31.7609 5.79463 31.7799 5.81381 31.7989C5.83299 31.837 5.85217 31.856 5.85217 31.875C5.87135 31.8941 5.89053 31.9321 5.90971 31.9702V31.9892C5.92889 32.0082 5.92889 32.0272 5.94807 32.0463C5.96725 32.0843 5.98643 32.1034 6.00561 32.1224C6.02479 32.1414 6.04397 32.1795 6.08233 32.2365C6.10151 32.2556 6.12069 32.2746 6.12069 32.2936C6.13987 32.3317 6.15905 32.3507 6.17823 32.3697C6.19741 32.3888 6.21659 32.4268 6.23577 32.4649C6.25495 32.4839 6.27413 32.5219 6.29331 32.541C6.31249 32.579 6.33168 32.598 6.37004 32.6171L6.42758 32.6741L6.44676 32.6932C6.48512 32.7312 6.5043 32.7693 6.54266 32.8073L6.58102 32.8454L6.63856 32.9025L6.75364 33.0166L6.792 33.0547L6.84954 33.1118L6.86872 33.1308C6.90709 33.1688 6.96463 33.2069 7.00299 33.264L7.02217 33.283C7.04135 33.302 7.06053 33.302 7.07971 33.3401C7.13725 33.3972 7.19479 33.4352 7.25233 33.4923L7.29069 33.5113L7.30987 33.5303L7.34823 33.5494C7.40577 33.5874 7.44413 33.6255 7.50168 33.6635L7.52086 33.6826C7.54004 33.7016 7.55922 33.7016 7.55922 33.7016L7.59758 33.7396C7.63594 33.7777 7.6743 33.7967 7.71266 33.8348L7.75102 33.8538L7.78938 33.8918L7.80856 33.9109C7.84692 33.9299 7.90446 33.9679 7.94282 33.987C7.962 34.006 7.98118 34.025 8.01954 34.025L8.05791 34.0441L8.07709 34.0631H8.09627C8.17299 34.1011 8.23053 34.1392 8.28807 34.1772L8.32643 34.1963L8.55659 34.3104H8.57577L8.61413 34.3295L8.72922 34.3865C8.7484 34.3865 8.76758 34.4056 8.78676 34.4056C8.80594 34.4246 8.82512 34.4246 8.86348 34.4436H8.88266C8.92102 34.4626 8.95938 34.4817 8.99774 34.4817H9.01692C9.05528 34.5007 9.09364 34.5197 9.15118 34.5387H9.17036L9.20872 34.5578C9.2279 34.5578 9.24709 34.5768 9.26627 34.5768H9.28545C9.34299 34.5958 9.40053 34.6148 9.47725 34.6339H9.49643C9.59233 34.6719 9.68823 34.691 9.78413 34.71H9.80332C9.88004 34.729 9.97594 34.748 10.0527 34.7671H10.1294C10.2061 34.7861 10.2828 34.8051 10.3595 34.8051H10.4363C10.4938 34.8051 10.5322 34.8241 10.5897 34.8241C10.5897 34.8432 10.6089 34.8622 10.6089 34.8812C10.7432 35.2427 10.8774 35.6042 11.0309 35.9467C13.2941 42.1684 19.5661 47.0011 26.7204 47.8953C33.8746 48.7705 41.5276 44.052 44.6348 37.6781C44.7691 37.4308 44.8841 37.2024 44.9992 36.9551C45.3061 36.6317 45.5555 36.3082 45.7089 35.9657C45.9582 35.7564 46.0158 35.3379 45.9966 34.9764ZM6.27413 32.5029H6.29331H6.27413Z" fill="#664F44"/>
<path d="M39.8781 3.84904C39.5328 3.46851 39.1301 3.18311 38.6889 2.97382C38.6122 2.93577 38.5355 2.91674 38.4396 2.89771C38.4012 2.87869 38.3628 2.84063 38.3245 2.82161C37.9409 2.6694 37.5381 2.57426 37.1161 2.51718C35.0446 2.25081 32.6663 3.01187 31.3237 3.54461C31.2469 3.58267 31.1702 3.60169 31.0935 3.63975C30.9784 3.69683 30.8633 3.73488 30.7483 3.79196C30.5564 3.86806 30.3646 3.9632 30.1537 4.05833C30.1153 4.07736 30.0961 4.07736 30.0578 4.09638L29.6933 3.6778L29.5207 3.48753L29.3673 3.3163L29.3097 3.24019L27.9096 1.64197L27.7945 1.50878L27.641 1.33754H27.6219L27.2191 1.43268L26.7587 1.52781C26.5094 1.41365 26.2025 1.33754 25.8573 1.28046C25.1668 1.18533 24.2845 1.28046 23.2871 1.52781C22.2897 1.77515 21.1581 2.21276 19.9689 2.80258C17.5714 3.98222 14.9245 5.78974 12.3543 8.11097C11.4528 8.91008 10.6281 9.74724 9.86087 10.5654C9.11284 11.3645 8.44153 12.1826 7.82776 12.9627C6.58104 14.58 5.6412 16.1401 5.02743 17.5481C4.62464 18.4804 4.3753 19.3366 4.2794 20.0786C4.20267 20.6114 4.22186 21.087 4.31776 21.4676C4.35612 21.6007 4.39448 21.6959 4.43284 21.81C4.52874 22.0383 4.64382 22.2286 4.79727 22.3998L6.35087 24.0171L6.52349 24.1883L6.54268 24.1693C6.58104 24.1122 6.63858 24.0552 6.69612 24.0171L6.7153 23.9981L6.77284 23.941C6.8112 23.8839 6.86874 23.8459 6.9071 23.7888C6.94546 23.7507 6.96464 23.7317 7.003 23.7127C7.04136 23.6936 7.06054 23.6556 7.0989 23.6366L7.13727 23.5985C7.17563 23.5795 7.19481 23.5414 7.23317 23.5224C7.27153 23.4844 7.32907 23.4463 7.36743 23.4083C7.38661 23.3892 7.42497 23.3702 7.44415 23.3512H7.46333C7.52087 23.3131 7.55923 23.2751 7.61677 23.237C7.65513 23.218 7.67431 23.199 7.71268 23.1609C7.77022 23.1229 7.80858 23.0848 7.86612 23.0467C7.90448 23.0277 7.92366 23.0087 7.96202 22.9897C8.01956 22.9516 8.0771 22.9136 8.13464 22.8945C8.173 22.8755 8.19218 22.8565 8.23054 22.8375C8.28809 22.7994 8.34563 22.7804 8.40317 22.7423C8.44153 22.7233 8.46071 22.7043 8.49907 22.6852L8.53743 22.6662C8.59497 22.6472 8.63333 22.6091 8.69087 22.5901C8.71005 22.5711 8.74841 22.5711 8.76759 22.5521C8.80595 22.533 8.84432 22.514 8.90186 22.495L9.01694 22.4379L9.0553 22.4189L9.343 22.3047C9.38136 22.2857 9.40054 22.2857 9.43891 22.2667C9.47727 22.2476 9.49645 22.2476 9.53481 22.2286L9.57317 22.2096C9.59235 22.2096 9.61153 22.1906 9.63071 22.1906C9.66907 22.1715 9.70743 22.1715 9.76497 22.1525H9.80333C9.86087 22.1335 9.89923 22.1335 9.95677 22.1145C9.99513 22.0954 10.0527 22.0954 10.091 22.0764C10.1486 22.0574 10.2061 22.0574 10.2637 22.0383C10.2828 22.0383 10.302 22.0193 10.3404 22.0193C10.3596 22.0193 10.3979 22.0193 10.4171 22.0003C10.4746 21.9813 10.5322 21.9813 10.5897 21.9813C10.6473 21.9813 10.6856 21.9622 10.7432 21.9622C10.7815 21.9622 10.8199 21.9432 10.8582 21.9432H11.0117C11.2035 21.9432 11.4337 21.9432 11.6638 21.9622H11.7022C11.9323 21.9813 12.2009 22.0193 12.4694 22.0764C12.5269 22.0954 12.6037 22.0954 12.6612 22.1145C12.6804 22.0954 12.6804 22.0574 12.6996 22.0383C12.853 21.791 12.9873 21.5246 13.1407 21.2773C14.0038 19.8503 14.9245 18.5946 15.8643 17.491C16.1904 17.1105 16.5164 16.768 16.8425 16.4255C18.2043 15.0176 19.5661 13.9331 20.7937 13.0959C21.0622 12.9056 21.3499 12.7344 21.5992 12.5632C21.9637 12.3348 22.3089 12.1446 22.635 11.9543C22.9035 11.8021 23.1528 11.6689 23.4022 11.5548C23.805 11.3455 24.1694 11.1742 24.4955 11.041L24.7832 10.9269C24.9174 10.8698 25.0517 10.8127 25.1668 10.7747C25.0709 10.7556 24.9558 10.7556 24.8599 10.7556H24.4763C24.3804 10.7556 24.2653 10.7556 24.1694 10.7747C23.9776 10.7937 23.7666 10.8127 23.5556 10.8318C23.4789 10.8508 23.4214 10.8508 23.3446 10.8698C23.8625 10.6034 24.3804 10.4132 24.8599 10.261C25.186 10.1658 25.512 10.0897 25.8189 10.0326C26.2409 9.95654 26.6437 9.89946 27.0081 9.88043C27.2574 9.8614 27.4876 9.8614 27.6986 9.8614C27.9096 9.8614 28.1205 9.88043 28.2932 9.88043C28.9261 9.91848 29.3097 10.0136 29.3097 10.0136C29.2138 9.88043 29.0987 9.7853 28.9837 9.69016C28.7535 9.51893 28.5042 9.40477 28.274 9.30964C28.1781 9.27158 28.1014 9.25256 28.0246 9.2145C27.9671 9.19548 27.9096 9.17645 27.8712 9.17645C27.9863 9.15742 28.0822 9.1384 28.1781 9.1384C28.2932 9.11937 28.3891 9.11937 28.5042 9.10034C29.4056 9.02424 30.2112 9.10034 30.8058 9.19548C31.5155 9.32866 31.9566 9.4999 31.9566 9.4999C31.8607 9.30964 31.7073 9.1384 31.5346 8.98619C31.4196 8.89105 31.2853 8.79592 31.1702 8.71981C31.4196 8.77689 31.6305 8.83397 31.8607 8.91008C32.4361 9.08132 32.9156 9.29061 33.2992 9.46185L33.6445 9.63309C33.6828 9.65211 33.702 9.67114 33.7212 9.67114C34.0665 9.8614 34.2583 9.99459 34.2583 9.99459C34.2007 9.7853 34.0856 9.59503 33.9322 9.42379C33.8938 9.38574 33.8555 9.32866 33.8171 9.29061H33.8363C33.8555 9.29061 33.8746 9.30964 33.913 9.30964C33.9322 9.30964 33.9705 9.32866 34.0089 9.34769C34.1624 9.40477 34.3925 9.4999 34.661 9.63309C34.6802 9.63309 34.6802 9.65211 34.6994 9.65211L34.8145 9.70919C34.9104 9.76627 35.0063 9.80432 35.1022 9.88043L35.3899 10.0517C35.4474 10.0897 35.4858 10.1087 35.5433 10.1468C35.6392 10.2229 35.7543 10.299 35.8502 10.3941C35.9653 10.4893 36.0612 10.5844 36.1571 10.6795L36.2146 10.7366C36.2914 10.8127 36.3681 10.8888 36.4256 10.9649C36.5599 11.1172 36.675 11.2884 36.7901 11.4596C36.9243 11.6689 37.0202 11.9163 37.1161 12.1636C37.1161 12.1826 37.1161 12.2017 37.1353 12.2017C37.1928 12.1446 37.3079 12.0304 37.4422 11.8782C38.5546 10.5844 41.892 6.39858 39.8781 3.84904Z" fill="#132134"/>
<path d="M44.8458 35.1095C44.8458 35.1095 44.8841 34.8241 44.7307 34.5578C44.7307 34.5387 44.7115 34.5197 44.7115 34.5197L44.6923 34.5007L44.6348 34.4436C44.5964 34.4056 44.5581 34.3675 44.5005 34.3295C44.4814 34.3104 44.443 34.2914 44.4046 34.2724C44.3087 34.2343 44.2128 34.1963 44.0786 34.1772C43.9827 34.1582 43.8868 34.1582 43.7717 34.1582H43.6182V34.1963C43.6182 34.2153 43.6374 34.2343 43.6374 34.2724C43.6374 34.2914 43.6374 34.3104 43.6566 34.3104C43.6758 34.3675 43.695 34.4626 43.7141 34.5387C43.7141 34.5387 43.7141 34.5578 43.695 34.5958V34.6149C43.6374 34.748 43.484 35.0525 43.1387 35.433C43.0812 35.5091 43.0237 35.5662 42.9469 35.6423C41.9879 36.6317 39.9164 38.0206 35.5433 38.8007C34.0664 39.01 32.6855 39.029 31.5346 38.8768C29.8084 38.6675 28.5233 38.1157 27.9096 37.3737C27.852 37.3166 27.8137 37.2405 27.7561 37.1834C27.7178 37.1263 27.6986 37.0883 27.6602 37.0312C27.641 37.0122 27.641 36.9932 27.6219 36.9741C27.3725 36.5175 27.2574 36.0228 27.2574 35.5471C27.2574 34.9573 27.4492 34.4056 27.7561 33.987C28.0055 33.6445 28.3315 33.3781 28.7343 33.264C28.9261 33.2069 29.1371 33.1688 29.3481 33.1879C29.3864 33.1879 29.444 33.1879 29.5207 33.2069C29.655 33.2259 29.8659 33.2449 30.1153 33.283C30.1345 33.283 30.1728 33.283 30.192 33.302C31.0168 33.3972 32.321 33.5303 33.8938 33.4352C36.7709 33.264 40.5494 32.3697 43.9827 29.2874V29.2684C44.0019 29.002 43.9635 28.5454 43.6374 28.1839C43.5799 28.1268 43.5223 28.0697 43.4456 28.0127C43.4073 27.9746 43.3497 27.9556 43.3114 27.9175C43.2538 27.8985 43.2155 27.8605 43.1771 27.8414L43.0045 27.7273V27.7082C42.9853 27.6702 42.9661 27.6321 42.9278 27.5941C42.0455 26.2622 40.8179 25.4821 40.3192 25.1206C40.0891 24.9494 39.9356 24.8733 39.9356 24.8733C38.8807 24.2264 38.7273 24.0171 38.8232 22.2857C38.8615 21.6578 38.9191 20.8397 38.9958 19.7171C38.9958 19.5649 39.015 19.4317 39.015 19.2985V19.2034V18.7468C39.015 18.6516 38.9958 18.5565 38.9958 18.4804C38.9958 18.4423 38.9958 18.4043 38.9766 18.3662C38.9574 18.2711 38.9574 18.176 38.9382 18.0808C38.9382 18.0428 38.9191 17.9857 38.9191 17.9477C38.9191 17.8906 38.8999 17.8525 38.8807 17.7954C38.8615 17.7574 38.8615 17.7003 38.8423 17.6623C38.8232 17.6052 38.804 17.5481 38.804 17.491C38.804 17.472 38.7848 17.453 38.7848 17.4339C38.7848 17.4149 38.7656 17.3959 38.7656 17.3769V17.3578L38.7464 17.3008C38.7273 17.2627 38.7081 17.2247 38.7081 17.1866V17.1676L38.6889 17.1295L38.6697 17.0915C38.6314 17.0154 38.6122 16.9393 38.5738 16.8822L38.5546 16.8251C38.5163 16.768 38.4779 16.6919 38.4396 16.6348L38.4204 16.6158L38.4012 16.5968C38.3628 16.5587 38.3437 16.5207 38.3053 16.4826L38.2669 16.4255C38.2286 16.3685 38.1902 16.3304 38.1519 16.2924V16.1401C38.1327 16.064 38.1135 15.9689 38.0943 15.8738C38.0943 15.8547 38.0751 15.8167 38.0751 15.7977V15.7786C38.0751 15.7406 38.056 15.7216 38.056 15.6835C38.0368 15.6074 38.0176 15.5313 37.9792 15.4552C37.9792 15.4362 37.96 15.3981 37.96 15.3791L37.9025 15.2078C37.8833 15.1698 37.8833 15.1317 37.8641 15.1127C37.845 15.0556 37.8258 14.9986 37.7874 14.9415L37.7299 14.8273C37.7107 14.7702 37.6723 14.7132 37.6532 14.6561L37.5956 14.5419C37.5573 14.4848 37.5381 14.4278 37.4997 14.3707L37.4422 14.2565C37.4038 14.1994 37.3655 14.1424 37.3271 14.0663C37.3079 14.0282 37.2887 14.0092 37.2696 13.9711C37.2504 13.9521 37.2312 13.914 37.212 13.895C37.1545 13.8379 37.1161 13.7809 37.0586 13.7238L37.0202 13.7048C36.9435 13.6286 36.8859 13.5525 36.8092 13.4955L36.79 13.4764C36.7517 13.4574 36.7133 13.4194 36.6941 13.4003H36.675C36.6366 13.3813 36.6174 13.3623 36.5791 13.3433L36.5599 13.3242C36.5215 13.3052 36.464 13.2671 36.3873 13.2291C36.3681 13.2101 36.3297 13.2101 36.2914 13.191C36.1187 13.134 35.9078 13.0579 35.6392 12.9818C35.62 12.9818 35.6009 12.9817 35.5817 12.9627C35.3707 12.9056 35.1214 12.8486 34.8528 12.8105C34.7569 12.7915 34.6802 12.7915 34.5843 12.7725C34.5459 12.7725 34.5076 12.7725 34.45 12.7534H34.3925C34.1815 12.7344 33.9897 12.7154 33.7787 12.7154H33.7596C33.491 12.7154 33.2225 12.7344 32.9732 12.7915C33.0307 12.6964 33.2033 12.5822 33.3568 12.4871C33.5678 12.3729 33.7596 12.2968 33.7596 12.2968C33.6445 12.2968 33.5294 12.3158 33.4143 12.3349C33.3759 12.3349 33.3376 12.3539 33.2992 12.3539C33.28 12.3539 33.2417 12.3539 33.2225 12.3729H33.2033C33.1841 12.3729 33.165 12.3729 33.1458 12.3919C32.5512 12.5251 31.9758 12.7344 31.6497 12.8676L31.5346 12.9247H31.5155C31.4771 12.9247 31.4579 12.9247 31.4196 12.9437C31.6497 12.5061 31.995 12.2778 32.2635 12.1636C32.3018 12.1446 32.3594 12.1256 32.3978 12.1065C32.4169 12.1065 32.4169 12.1065 32.4361 12.0875C32.4745 12.0685 32.5128 12.0685 32.532 12.0495C32.5896 12.0304 32.6279 12.0304 32.6279 12.0304H32.321C31.6689 12.1065 31.0743 12.3158 30.5756 12.6012C30.2304 12.7915 29.9235 13.0008 29.655 13.2101C29.5782 13.2291 29.5207 13.2481 29.444 13.2481C28.7151 13.4003 27.8904 13.5906 27.0273 13.857C26.7012 13.9521 26.3751 14.0663 26.0491 14.1804C25.7997 14.2755 25.5312 14.3707 25.2818 14.4658C25.09 14.5419 24.9174 14.618 24.7256 14.6941C23.4022 15.284 22.0787 16.064 20.9855 17.1105L20.8704 17.2247L20.5827 17.5101L20.4676 17.6242C20.4292 17.6813 20.3717 17.7384 20.3333 17.7764C20.1223 18.0047 19.9305 18.2521 19.7387 18.5185C19.6045 18.7087 19.4702 18.918 19.3551 19.1273L19.3359 19.1463C19.0866 19.5839 18.8564 20.0406 18.6838 20.5543C18.5879 20.8016 18.5112 21.068 18.4345 21.3344C18.4153 21.4105 18.3961 21.4676 18.3769 21.5437L18.3577 21.5817C18.281 21.8671 18.2235 22.1715 18.1851 22.476C18.1851 22.533 18.1659 22.5901 18.1659 22.6662C18.1468 22.8184 18.1276 22.9706 18.1276 23.1419C18.1084 23.2941 18.1084 23.4273 18.1084 23.5795V24.1693C18.1084 24.3406 18.1084 24.5118 18.1276 24.683V24.7021C18.1276 24.8733 18.1468 25.0445 18.1659 25.2348C18.1659 25.3109 18.1851 25.387 18.1851 25.4631V25.5202C18.1851 25.5582 18.1851 25.5963 18.2043 25.6534C18.2235 25.8436 18.2618 26.0529 18.281 26.2622C18.281 26.3193 18.3002 26.3764 18.3002 26.4335C18.3386 26.6047 18.3577 26.795 18.3961 26.9662C18.3961 26.9662 18.3577 26.7379 18.3769 26.3954C18.3769 26.3193 18.3961 26.2242 18.3961 26.1481C18.4153 25.9578 18.4537 25.7295 18.5304 25.5202L18.5879 25.349C18.5879 25.3299 18.6071 25.3109 18.6263 25.2729C18.6646 25.1777 18.7222 25.0636 18.7797 24.9684C18.7989 25.0445 18.7989 25.1206 18.8181 25.1777V26.1861C18.8373 26.833 18.8948 27.6131 19.0291 28.279C19.0291 28.279 19.0482 27.0804 19.2592 26.9282C19.2592 26.9282 19.6237 29.1733 19.9497 30.0104C19.9881 30.1246 20.0456 30.2007 20.084 30.2578V30.0295L20.0456 28.7927V28.6596C20.295 29.1733 20.5827 29.687 20.9087 30.2388C21.0046 30.391 21.0814 30.5432 21.1773 30.6954C20.5635 31.2281 19.9881 32.0082 19.5661 32.9215C19.5086 33.0737 19.4318 33.2259 19.3743 33.3781C19.3359 33.4733 19.3168 33.5494 19.2784 33.6445C19.2784 33.6635 19.2592 33.7016 19.2592 33.7206C19.24 33.7777 19.2209 33.8538 19.2017 33.9109C19.2017 33.9489 19.1825 33.968 19.1825 34.006C19.1633 34.0631 19.1441 34.1392 19.125 34.1963C19.125 34.2343 19.1058 34.2533 19.1058 34.2914L19.0482 34.5768C19.0291 34.6719 19.0099 34.7671 19.0099 34.8622C19.0099 34.9002 19.0099 34.9193 18.9907 34.9573C18.9907 35.0334 18.9715 35.0905 18.9715 35.1666C18.9715 35.2047 18.9715 35.2427 18.9523 35.2808C18.9523 35.3569 18.9332 35.414 18.9332 35.4901V36.156C18.9332 36.2321 18.9332 36.3082 18.9523 36.4033V36.4604C18.9523 36.5556 18.9715 36.6507 18.9907 36.7648C18.9907 36.8029 18.9907 36.8219 19.0099 36.86C19.0099 36.9361 19.0291 36.9932 19.0482 37.0693C19.0482 37.1073 19.0674 37.1454 19.0674 37.1834C19.0866 37.2405 19.0866 37.3166 19.1058 37.3737C19.1058 37.4117 19.125 37.4498 19.125 37.4879C19.1441 37.5449 19.1633 37.602 19.1633 37.6781C19.1825 37.7162 19.1825 37.7542 19.2017 37.8113C19.2209 37.8684 19.24 37.9445 19.2592 38.0016C19.2784 38.0396 19.2784 38.0777 19.2976 38.1157C19.3168 38.1728 19.3359 38.2489 19.3551 38.306C19.3743 38.344 19.3743 38.3821 19.3935 38.4201C19.4127 38.4963 19.451 38.5724 19.4702 38.6294C19.4894 38.6675 19.4894 38.6865 19.5086 38.7246L19.7963 39.3524C19.8155 39.3905 19.8346 39.4095 19.8538 39.4476L19.9689 39.6759C19.9881 39.7139 20.0073 39.752 20.0456 39.7901C20.084 39.8471 20.1223 39.9232 20.1607 39.9803C20.1799 40.0184 20.2182 40.0564 20.2374 40.0945C20.2758 40.1516 20.3141 40.2277 20.3717 40.2847C20.41 40.3228 20.4292 40.3608 20.4676 40.4179C20.5059 40.475 20.5635 40.5511 20.6018 40.6082C20.6402 40.6462 20.6594 40.6843 20.6977 40.7414C20.7553 40.7985 20.7937 40.8746 20.8512 40.9316C20.8896 40.9697 20.9087 41.0077 20.9471 41.0458C21.0046 41.1219 21.0622 41.179 21.1389 41.2551L21.2348 41.3502C21.3307 41.4454 21.4266 41.5595 21.5225 41.6546C21.5225 41.6546 21.465 41.5785 21.3882 41.4263C21.3691 41.4073 21.3499 41.3692 21.3499 41.3312L21.2923 41.217C21.2732 41.179 21.254 41.1409 21.2348 41.0839C21.0814 40.7414 20.9471 40.2467 20.9663 39.7139L21.1389 39.9423C21.1964 40.0754 21.2923 40.2467 21.3882 40.437C21.4266 40.494 21.465 40.5701 21.4841 40.6272C21.6376 40.8936 21.791 41.198 21.9828 41.4834C22.213 41.8449 22.4432 42.1874 22.6925 42.5108C22.6925 42.5108 22.4048 41.902 22.3089 41.5024C22.2897 41.3883 22.2705 41.2931 22.2897 41.2361C22.3089 41.2551 22.3281 41.2931 22.3664 41.3122C22.3856 41.3312 22.4048 41.3693 22.4432 41.3883C22.4815 41.4454 22.5391 41.5215 22.6158 41.6166L22.6541 41.6546C22.6925 41.6927 22.7117 41.7498 22.75 41.7878C22.7884 41.8449 22.8268 41.902 22.8843 41.9591C23.2871 42.4728 23.8433 43.1577 24.2269 43.5192C24.3612 43.6334 24.4763 43.7285 24.553 43.7666L23.9968 42.7772C25.2627 43.8046 30.5181 45.1175 35.6776 43.6524C36.3105 43.4812 36.9243 43.2529 37.5381 42.9865C37.9025 42.8343 38.2669 42.644 38.6314 42.4538L38.6889 42.4157C38.9382 42.2825 39.1876 42.1303 39.4369 41.9781C39.6287 41.8639 39.8205 41.7308 39.9932 41.6166C40.3 41.4073 40.6069 41.179 40.9138 40.9316C40.933 40.9126 40.9522 40.8936 40.9714 40.8936C41.2591 40.6462 41.5468 40.3799 41.7961 40.1135C42.1414 39.752 42.4482 39.3905 42.7168 39.029L42.736 39.01C42.8127 38.9148 42.8702 38.8387 42.9278 38.7436L42.9469 38.7246C42.9661 38.6865 42.9853 38.6675 43.0045 38.6294C43.1004 38.4963 43.1771 38.3821 43.273 38.2489C43.2922 38.2109 43.3114 38.1918 43.3305 38.1538C43.3689 38.0777 43.4073 38.0206 43.4648 37.9445C43.5032 37.8874 43.5223 37.8494 43.5607 37.7923C43.5991 37.7352 43.6374 37.6781 43.6566 37.621C43.7141 37.5259 43.7717 37.4117 43.8292 37.3166L43.8868 37.2025L44.0019 36.9741L44.0594 36.86L44.0786 36.8219C44.1169 36.7268 44.1745 36.6317 44.2128 36.5365V36.5175C44.3855 36.3653 44.5005 36.2131 44.6156 36.0799C44.6348 36.0609 44.654 36.0418 44.654 36.0228C44.7691 35.6613 44.8458 35.3759 44.8458 35.1095ZM13.9846 31.4184C13.9846 31.3994 13.9846 31.3804 13.9655 31.3423C13.9079 31.0188 13.8504 30.6764 13.8312 30.3339V30.2578C13.7737 30.2768 13.7161 30.3529 13.6394 30.4481C13.6202 30.4861 13.5818 30.5242 13.5627 30.5812C13.39 30.9047 13.2366 31.3613 13.2366 31.3613C13.2558 31.2091 13.275 31.0569 13.275 30.9047V30.8476C13.2941 30.6954 13.3133 30.5242 13.3325 30.3719V30.3149C13.3517 30.1246 13.39 29.9534 13.4284 29.7821C13.4284 29.7631 13.4284 29.7441 13.4476 29.706V29.687C13.4476 29.668 13.4476 29.6489 13.4668 29.6299C13.4668 29.5919 13.4859 29.5728 13.4859 29.5348C13.5051 29.4016 13.5435 29.2684 13.5627 29.1352C13.5818 29.0211 13.601 28.9069 13.6202 28.8118V28.7737C13.6202 28.7547 13.6202 28.7357 13.6394 28.7357V28.6976C13.6394 28.6786 13.6586 28.6405 13.6586 28.6215C13.6586 28.6025 13.6586 28.5835 13.6777 28.5644C13.6777 28.5264 13.6969 28.4883 13.6969 28.4693C13.6969 28.4503 13.7161 28.4122 13.7161 28.3932C13.7161 28.3551 13.7353 28.3171 13.7353 28.2981C13.7353 28.279 13.7353 28.26 13.7545 28.241C13.7545 28.222 13.7545 28.2029 13.7736 28.2029C13.7736 28.1649 13.7928 28.1458 13.7928 28.1268V28.0697L13.7545 28.1078C13.7161 28.1268 13.6969 28.1649 13.6586 28.1839L13.6202 28.222C13.5818 28.26 13.5435 28.2981 13.5243 28.3361L13.5051 28.3551L13.39 28.5264L13.3709 28.5454C13.3709 28.5644 13.3517 28.5644 13.3517 28.5835L13.2941 28.6976V28.7357C13.275 28.7928 13.2366 28.8498 13.2174 28.9069C13.1599 29.0591 13.1023 29.2113 13.064 29.3445C13.0448 29.3826 13.0448 29.4396 13.0256 29.4587C13.0064 29.5348 12.9873 29.6109 12.9873 29.6299V29.6489V29.6299C12.9873 29.5728 12.9873 29.5348 13.0064 29.4777C13.0064 29.3826 13.0256 29.2684 13.0256 29.1733C13.0256 29.0972 13.0448 29.002 13.064 28.9259C13.064 28.9069 13.064 28.8689 13.0832 28.8498C13.0832 28.8118 13.1023 28.7737 13.1023 28.7357C13.1023 28.6976 13.1215 28.6596 13.1215 28.6215V28.5644C13.1215 28.5264 13.1407 28.4693 13.1407 28.4312V28.3361V28.2981C13.1407 28.279 13.1407 28.26 13.1599 28.241C13.1791 28.1839 13.1982 28.1078 13.1982 28.0507V28.0317C13.2174 27.9936 13.2174 27.9366 13.2366 27.8985V27.8795C13.2558 27.7843 13.2941 27.6892 13.3133 27.5941V27.556C13.3133 27.537 13.3133 27.518 13.3325 27.499C13.3709 27.3467 13.4284 27.1945 13.4668 27.0613V27.0423C13.5051 26.9282 13.5627 26.795 13.601 26.6808V26.6618C13.6202 26.6047 13.6394 26.5667 13.6586 26.5096C13.6969 26.4335 13.7161 26.3574 13.7545 26.2813C13.7545 26.2622 13.7736 26.2242 13.812 26.1481C13.8312 26.129 13.8312 26.091 13.8504 26.072C13.8696 26.0339 13.8887 25.9959 13.9079 25.9388L13.9271 25.9007L14.2532 25.3109C14.2723 25.2919 14.2723 25.2538 14.2915 25.2348V25.2158L14.3107 25.1777C14.3491 25.1206 14.3874 25.0445 14.4258 24.9875C14.4833 24.8923 14.5217 24.7972 14.5792 24.7211C14.6751 24.5498 14.7518 24.3976 14.8094 24.3215C14.8286 24.2645 14.8477 24.2454 14.8669 24.2264C14.8477 24.2264 14.7518 24.1503 14.5984 24.0552C14.4066 23.941 14.1381 23.7888 13.812 23.6366C13.6969 23.5795 13.601 23.5414 13.4859 23.4844C13.3517 23.4273 13.1982 23.3702 13.0448 23.3131C13.0064 23.2941 12.9681 23.2941 12.9297 23.2751C12.7955 23.237 12.6804 23.199 12.5461 23.1609C12.4502 23.1419 12.3543 23.1229 12.2776 23.1038C12.2009 23.0848 12.1241 23.0848 12.0474 23.0658C12.0091 23.0658 11.9707 23.0658 11.9323 23.0468C11.894 23.0468 11.8556 23.0468 11.8173 23.0277C11.7214 23.0277 11.6063 23.0087 11.5104 23.0087H11.3569C11.1268 23.0087 10.9158 23.0277 10.7048 23.0658H10.6664C10.2828 23.1229 9.9184 23.218 9.55398 23.3512C9.43889 23.3892 9.32381 23.4463 9.18955 23.5034C9.15119 23.5224 9.13201 23.5414 9.09365 23.5414L8.97857 23.5985C8.63332 23.7698 8.30726 23.9981 8.00037 24.2454H7.98119C7.71266 24.4547 7.4825 24.7021 7.27152 24.9494L7.09889 25.1777C7.02217 25.2729 6.96463 25.368 6.90709 25.4631C6.79201 25.6344 6.67693 25.8246 6.58103 26.0149C6.54266 26.091 6.5043 26.1481 6.48512 26.2242C6.48512 26.2432 6.46594 26.2432 6.46594 26.2622C6.27414 26.7189 6.1207 27.1945 6.06316 27.7082C6.04398 27.8034 6.04398 27.8985 6.0248 28.0127V28.0507C6.0248 28.1268 6.00562 28.2029 6.00562 28.2981V28.6405C6.00562 28.7166 6.00562 28.7927 6.0248 28.8689V28.964C6.0248 29.0211 6.04398 29.0781 6.04398 29.1352V29.1543C6.04398 29.1923 6.04398 29.2113 6.06316 29.2494C6.06316 29.3065 6.08234 29.3635 6.08234 29.4016C6.08234 29.4397 6.10152 29.4777 6.10152 29.5158C6.1207 29.5728 6.1207 29.6109 6.13988 29.668C6.13988 29.706 6.15906 29.7441 6.17824 29.7821V29.8012L6.19742 29.8392V29.8773L6.2166 29.9153C6.23578 29.9534 6.23578 29.9914 6.25496 30.0295C6.27414 30.0675 6.27414 30.1246 6.29332 30.1627C6.3125 30.2007 6.33168 30.2388 6.33168 30.2958L6.35086 30.3339C6.37004 30.3719 6.37004 30.391 6.38922 30.429C6.4084 30.4671 6.42758 30.5051 6.44676 30.5622L6.5043 30.6764C6.52348 30.6954 6.52348 30.7144 6.54266 30.7335C6.56184 30.7525 6.56184 30.7715 6.58103 30.7905L6.63857 30.9047C6.65775 30.9427 6.67693 30.9998 6.71529 31.0379C6.73447 31.0759 6.75365 31.114 6.77283 31.133C6.79201 31.1711 6.83037 31.2281 6.84955 31.2662C6.86873 31.3042 6.88791 31.3233 6.90709 31.3613C6.92627 31.3994 6.96463 31.4565 7.00299 31.4945C7.02217 31.5326 7.04135 31.5516 7.06053 31.5706C7.09889 31.6087 7.11807 31.6657 7.15644 31.7038C7.17562 31.7228 7.1948 31.7609 7.21398 31.7799C7.25234 31.818 7.2907 31.875 7.32906 31.9131C7.34824 31.9321 7.36742 31.9511 7.3866 31.9892C7.42496 32.0273 7.46332 32.0843 7.50168 32.1224L7.55922 32.1795C7.59758 32.2175 7.63594 32.2746 7.69348 32.3126L7.75103 32.3697L7.88529 32.5029C7.90447 32.5219 7.92365 32.541 7.94283 32.541C7.98119 32.579 8.03873 32.6171 8.09627 32.6742C8.11545 32.6932 8.13463 32.6932 8.15381 32.7122C8.21135 32.7503 8.24971 32.7883 8.30726 32.8264C8.32644 32.8454 8.34562 32.8454 8.34562 32.8644L8.51824 32.9786L8.5566 32.9976L8.72922 33.1118L8.76758 33.1308C8.82512 33.1688 8.90185 33.2069 8.95939 33.2449L8.99775 33.264C9.05529 33.302 9.13201 33.3401 9.18955 33.3591L9.22791 33.3781C9.30463 33.4162 9.36217 33.4352 9.43889 33.4733L9.45807 33.4923C9.5348 33.5303 9.61152 33.5494 9.66906 33.5874H9.68824C9.76496 33.6064 9.84168 33.6445 9.9184 33.6635H9.93758C9.97594 33.6826 10.0143 33.6826 10.0527 33.7016C10.091 33.7206 10.1294 33.7206 10.1869 33.7396H10.2061C10.2828 33.7587 10.3787 33.7777 10.4555 33.7967C10.5322 33.8157 10.6281 33.8348 10.7048 33.8348C10.9733 33.8728 11.2418 33.8918 11.5104 33.9109H11.7022C11.7981 33.9109 11.8748 33.9109 11.9707 33.8918C12.0858 33.8728 12.22 33.8728 12.3543 33.8538C12.4694 33.8348 12.5845 33.8157 12.6804 33.7967C12.853 33.7587 13.0256 33.7206 13.1791 33.6635C13.6777 33.5303 14.0997 33.3401 14.3682 33.1308C14.3682 33.1308 14.1956 32.3697 14.0614 31.6087C14.023 31.5706 14.0038 31.4945 13.9846 31.4184Z" fill="#90694C"/>
<path d="M26.2984 3.14507L26.2409 2.38401L26.6245 1.54685L26.7779 1.5088C26.5286 1.39464 26.2217 1.31853 25.8764 1.26145C25.1859 1.16632 24.3036 1.26145 23.3063 1.5088C22.3089 1.75614 21.1773 2.19375 19.9881 2.78357C17.5905 3.96321 14.9436 5.77073 12.3735 8.09196C11.472 8.89107 10.6473 9.72823 9.88004 10.5464C9.132 11.3455 8.46069 12.1636 7.84692 12.9437C6.6002 14.561 5.66036 16.1211 5.04659 17.5291C4.64381 18.4614 4.39446 19.3176 4.29856 20.0596C4.22184 20.5923 4.24102 21.068 4.33692 21.4485C4.37528 21.5817 4.41364 21.6769 4.452 21.791C4.54791 22.0193 4.66299 22.2096 4.81643 22.3808L6.37004 23.9981L6.54266 24.1693L6.56184 24.1503C6.6002 24.0932 6.65774 24.0361 6.71528 23.9981L6.73446 23.9791L6.792 23.922C6.83037 23.8649 6.88791 23.8268 6.92627 23.7698C6.96463 23.7317 6.98381 23.7127 7.02217 23.6937C7.06053 23.6746 7.07971 23.6366 7.11807 23.6176L7.15643 23.5795C7.19479 23.5605 7.21397 23.5224 7.25233 23.5034C7.29069 23.4653 7.34823 23.4273 7.38659 23.3892C7.40577 23.3702 7.44414 23.3512 7.46332 23.3322H7.4825C7.54004 23.2941 7.5784 23.2561 7.63594 23.218C7.6743 23.199 7.69348 23.1799 7.73184 23.1419C7.78938 23.1038 7.82774 23.0658 7.88528 23.0277C7.92364 23.0087 7.94282 22.9897 7.98118 22.9707C8.03873 22.9326 8.09627 22.8946 8.15381 22.8755C8.19217 22.8565 8.21135 22.8375 8.24971 22.8184C8.30725 22.7804 8.36479 22.7614 8.42233 22.7233C8.46069 22.7043 8.47987 22.6853 8.51823 22.6662L8.55659 22.6472C8.92102 21.6388 9.47725 20.5162 10.2061 19.3747C11.0884 17.9667 12.22 16.4826 13.5627 14.9986C14.4066 14.0663 15.3273 13.134 16.3246 12.2397C17.6097 11.0791 18.9332 10.0327 20.2374 9.11938C21.1197 8.51054 21.9828 7.95877 22.8268 7.48311C22.9035 7.44506 22.9802 7.38798 23.0761 7.34992C23.3063 7.21674 23.5173 7.10258 23.7474 6.98842C24.2269 6.74108 24.7064 6.51276 25.1668 6.32249L24.9366 6.05612L24.8982 6.01807L24.6105 5.69462L23.0186 3.79197L23.0377 2.42207L23.0186 2.40304L24.1502 2.06056L26.2984 3.14507Z" fill="#2F83C1"/>
<path d="M44.8458 35.1095C44.8458 35.1095 44.8842 34.8241 44.7307 34.5578C44.7307 34.5387 44.7115 34.5197 44.7115 34.5197L44.6923 34.5007L44.6348 34.4436C44.5964 34.4056 44.5581 34.3675 44.5005 34.3295C44.4814 34.3104 44.443 34.2914 44.4046 34.2724C44.3087 34.2343 44.2128 34.1963 44.0786 34.1772C43.9827 34.1582 43.8868 34.1582 43.7717 34.1582H43.6182V34.1963C43.6182 34.2153 43.6374 34.2343 43.6374 34.2724C43.6374 34.2914 43.6374 34.3104 43.6566 34.3104C43.6758 34.3675 43.695 34.4626 43.7141 34.5388C43.7141 34.5388 43.7142 34.5578 43.695 34.5958V34.6149C43.6374 34.748 43.484 35.0525 43.1387 35.433C43.0812 35.5091 43.0237 35.5662 42.9469 35.6423C41.9879 36.6317 39.9164 38.0206 35.5433 38.8007C34.0664 39.01 32.6855 39.029 31.5346 38.8768C29.8084 38.6675 28.5233 38.1157 27.9096 37.3737C27.852 37.3166 27.8137 37.2405 27.7561 37.1834C27.7178 37.1264 27.6986 37.0883 27.6602 37.0312C27.641 37.0122 27.641 36.9932 27.6219 36.9741C27.3725 36.5175 27.2574 36.0228 27.2574 35.5472C27.2574 34.9573 27.4492 34.4056 27.7561 33.987C28.0055 33.6445 28.3315 33.3781 28.7343 33.264C28.9261 33.2069 29.1371 33.1688 29.3481 33.1879C29.3864 33.1879 29.444 33.1879 29.5207 33.2069C29.655 33.2259 29.866 33.245 30.1153 33.283C30.1345 33.283 30.1728 33.283 30.192 33.302C31.0168 33.3972 32.321 33.5303 33.8938 33.4352C36.7709 33.264 40.5494 32.3697 43.9827 29.2874V29.2684C44.0019 29.002 43.9635 28.5454 43.6374 28.1839C43.5799 28.1268 43.5223 28.0697 43.4456 28.0127C43.4073 27.9746 43.3497 27.9556 43.3114 27.9175C43.2538 27.8985 43.2155 27.8605 43.1771 27.8414L43.0045 27.7273V27.7082C42.9853 27.6702 42.9661 27.6321 42.9278 27.5941C42.0455 26.2622 40.8179 25.4822 40.3192 25.1206C40.0891 24.9494 39.9356 24.8733 39.9356 24.8733C38.8807 24.2264 38.7273 24.0171 38.8232 22.2857C38.8615 21.6578 38.9191 20.8397 38.9958 19.7171C38.9958 19.5649 39.015 19.4317 39.015 19.2985V19.2034V18.7468C39.015 18.6516 38.9958 18.5565 38.9958 18.4804C38.9958 18.4424 38.9958 18.4043 38.9766 18.3662C38.9574 18.2711 38.9574 18.176 38.9382 18.0809C38.9382 18.0428 38.9191 17.9857 38.9191 17.9477C38.9191 17.8906 38.8999 17.8525 38.8807 17.7955C38.8615 17.7574 38.8615 17.7003 38.8423 17.6623C38.8232 17.6052 38.804 17.5481 38.804 17.491C38.804 17.472 38.7848 17.453 38.7848 17.4339C38.7848 17.4149 38.7656 17.3959 38.7656 17.3769V17.3578L38.7464 17.3008C38.7273 17.2627 38.7081 17.2247 38.7081 17.1866V17.1676L38.6889 17.1295L38.6697 17.0915C38.6314 17.0154 38.6122 16.9393 38.5738 16.8822L38.5546 16.8251C38.5163 16.768 38.4779 16.6919 38.4396 16.6348L38.4204 16.6158L38.4012 16.5968C38.3628 16.5587 38.3437 16.5207 38.3053 16.4826L38.2669 16.4255C38.2286 16.3685 38.1902 16.3304 38.1519 16.2924L37.9984 16.1402C37.9409 16.1021 37.8833 16.064 37.8258 16.045C37.8066 16.026 37.7874 16.026 37.7682 16.026L37.6532 15.9689C37.634 15.9689 37.6148 15.9499 37.5956 15.9499C37.5573 15.9309 37.5189 15.9309 37.4997 15.9118C37.4805 15.9118 37.4614 15.8928 37.423 15.8928C37.3846 15.8928 37.3655 15.8738 37.3271 15.8738H36.9051C36.886 15.8738 36.8668 15.8738 36.8476 15.8928C36.8284 15.8928 36.8092 15.8928 36.7901 15.9118C36.7517 15.9118 36.7133 15.9309 36.6558 15.9499H36.6174C36.5023 15.9879 36.4064 16.026 36.2914 16.064L36.253 16.0831C36.2146 16.1021 36.1763 16.1211 36.1187 16.1402L36.0612 16.1592L35.9461 16.2163L35.8886 16.2543L35.7735 16.3114L35.716 16.3494C35.6776 16.3685 35.6392 16.4065 35.6009 16.4255L35.5625 16.4446C35.5241 16.4826 35.4666 16.5017 35.4282 16.5397L35.4091 16.5587C35.3515 16.5968 35.3132 16.6348 35.2556 16.6539C35.1597 16.7109 35.0638 16.787 34.9679 16.8441C34.8912 16.9012 34.8145 16.9583 34.7186 17.0154L34.6802 17.0344C34.6035 17.0915 34.5076 17.1486 34.4309 17.1866L34.3925 17.2056C34.3158 17.2627 34.2199 17.3008 34.1432 17.3578L34.1048 17.3769C34.0281 17.434 33.9322 17.472 33.8363 17.5101L33.7979 17.5291C33.702 17.5671 33.6253 17.6052 33.5294 17.6432L33.491 17.6623C33.3951 17.7003 33.2992 17.7193 33.2033 17.7574H33.1841C33.0882 17.7764 32.9732 17.7955 32.8773 17.8145C32.7046 17.8335 32.5128 17.8525 32.3402 17.8525C32.0525 17.8525 31.7648 17.8335 31.4579 17.7955L31.1702 17.7384C31.1319 17.7384 31.0935 17.7193 31.0743 17.7193C30.825 17.6623 30.5564 17.6052 30.3071 17.5481C30.192 17.5291 30.0961 17.491 29.981 17.472C29.8084 17.434 29.6358 17.3959 29.444 17.3578C29.4056 17.3578 29.3673 17.3388 29.3481 17.3388C29.3289 17.3388 29.2905 17.3198 29.2714 17.3198C29.233 17.3198 29.1946 17.3008 29.1563 17.3008C29.1179 17.3008 29.0796 17.2817 29.0412 17.2817H29.0028C28.9645 17.2817 28.9261 17.2627 28.9069 17.2627C28.8302 17.2437 28.7535 17.2247 28.6576 17.2247C28.6384 17.2247 28.6 17.2247 28.5809 17.2056C28.5233 17.2056 28.4658 17.1866 28.4082 17.1866C28.3699 17.1866 28.3507 17.1866 28.3123 17.1676C28.2548 17.1676 28.2164 17.1486 28.1589 17.1486H27.2766C27.1807 17.1486 27.104 17.1676 27.0081 17.1676H26.9314C26.8738 17.1676 26.8163 17.1866 26.7587 17.1866H26.7396C26.7012 17.1866 26.682 17.2056 26.6437 17.2056C26.5861 17.2247 26.5286 17.2247 26.471 17.2437C26.4327 17.2437 26.3943 17.2627 26.3751 17.2627C26.3176 17.2817 26.26 17.3008 26.2025 17.3008C26.1641 17.3008 26.145 17.3198 26.1066 17.3388C26.0491 17.3578 25.9723 17.3769 25.9148 17.3959C25.8764 17.4149 25.8573 17.4149 25.8381 17.4339C25.7422 17.472 25.6463 17.5101 25.5696 17.5481C24.8407 17.9667 24.2078 18.5375 23.7282 19.1844C23.5556 19.4127 23.4022 19.641 23.2679 19.8693C23.1145 20.1167 22.9994 20.3831 22.8843 20.6494C22.8459 20.7255 22.8268 20.8016 22.7884 20.8777C22.75 21.0109 22.6925 21.1441 22.6541 21.2773C22.6541 21.2963 22.6541 21.3154 22.635 21.3154C22.5966 21.4676 22.5582 21.6198 22.5199 21.791C22.4815 21.9623 22.4623 22.1145 22.4432 22.2857C22.424 22.3808 22.424 22.4569 22.424 22.5521C22.4048 22.7994 22.4048 23.0277 22.424 23.2751V23.3322C22.424 23.3892 22.424 23.4463 22.4432 23.5224C22.4623 23.6937 22.4815 23.8649 22.5199 24.0361C22.5391 24.0932 22.5582 24.1503 22.5582 24.2264C22.5774 24.2835 22.5774 24.3406 22.5966 24.3976C22.7117 24.8352 22.8843 25.2348 23.0953 25.5773C23.8817 26.9282 25.1859 27.7463 26.145 28.1839C26.5094 28.3361 26.893 28.4883 27.2958 28.6215L27.2574 28.6596C27.1807 28.6786 27.104 28.6976 27.0081 28.7167C26.8738 28.7547 26.7012 28.8118 26.5286 28.8689C26.3368 28.9259 26.1066 29.0211 25.8764 29.1162C25.2627 29.3636 24.5722 29.7251 23.9584 30.2197C23.8817 30.2768 23.805 30.3529 23.7282 30.41C23.594 30.5242 23.4789 30.6383 23.3638 30.7715L23.3255 30.8096L23.2679 30.8666C23.2296 30.9237 23.172 30.9618 23.1337 31.0189L23.0761 31.0759C23.0186 31.152 22.961 31.2281 22.9227 31.3043C22.8651 31.3804 22.8268 31.4565 22.7692 31.5326C22.4048 32.1604 22.1938 32.9215 22.2514 33.8348V33.7967C22.2514 33.7777 22.2514 33.7587 22.2705 33.7396V33.7206C22.2705 33.7016 22.2897 33.6826 22.2897 33.6445V33.6255C22.2897 33.6065 22.3089 33.5684 22.3089 33.5303C22.3089 33.4923 22.3281 33.4733 22.3473 33.4352V33.4162C22.3664 33.3781 22.3664 33.3401 22.3856 33.302V33.283C22.4048 33.245 22.4048 33.2069 22.424 33.1688V33.1498C22.4432 33.1118 22.4623 33.0737 22.4815 33.0166L22.5007 32.9976C22.5199 32.9596 22.5391 32.9025 22.5774 32.8644C22.6158 32.7883 22.6541 32.7312 22.6925 32.6551C22.7117 32.6361 22.7309 32.5981 22.75 32.579L22.7692 32.56L22.8843 32.3888C22.9227 32.3507 22.961 32.2936 22.9994 32.2556L23.0378 32.2175C23.0761 32.1795 23.0953 32.1414 23.1337 32.1224L23.172 32.0843C23.2104 32.0463 23.2679 32.0082 23.3063 31.9512C23.3063 31.9512 22.4815 33.8157 22.846 35.2808V35.2618V35.2237V35.1666V35.0905V34.9954C22.846 34.9573 22.8459 34.9193 22.8651 34.8812C22.8651 34.8432 22.8651 34.8051 22.8843 34.7671V34.748C22.8843 34.71 22.9035 34.6529 22.9035 34.6149V34.5768C22.9227 34.5197 22.9227 34.4817 22.9419 34.4246V34.4056C22.961 34.3485 22.9802 34.2914 22.9802 34.2534C22.9802 34.2343 22.9994 34.2153 22.9994 34.1963L23.0186 34.1582C23.0378 34.1202 23.0569 34.0631 23.0761 34.025C23.0953 33.968 23.1337 33.9109 23.172 33.8538C23.172 33.8348 23.1912 33.8157 23.1912 33.8157L23.3063 33.6445C23.3063 33.6445 23.2679 34.1011 23.2679 34.6529C23.2679 34.748 23.2679 34.8242 23.2871 34.9193C23.2871 34.9764 23.2871 35.0334 23.3063 35.0905C23.3446 34.5007 23.4597 33.9489 23.6132 33.4352C23.4597 33.9489 23.3446 34.5007 23.3063 35.0905C23.2871 35.471 23.2871 35.8516 23.3255 36.2511C23.383 36.9171 23.5556 37.6401 23.8433 38.3821C23.8433 38.3821 23.5748 37.5259 23.9584 36.6697L24.0735 36.898C24.1119 37.1454 24.1502 37.5069 24.2269 37.9064C24.3037 38.5724 24.6105 40.5701 25.9915 41.9591C25.9915 41.9591 25.4737 41.2931 25.5504 40.437C25.6079 40.5511 25.6655 40.6462 25.7038 40.7414C25.934 41.179 26.3943 41.9781 26.9122 42.5489C26.9122 42.5489 26.5094 41.7688 26.6053 41.5976C26.6053 41.5976 27.9479 43.2529 28.3699 43.4051L27.8137 42.4918L27.7945 42.4728C29.7317 43.8808 32.4169 44.3945 35.716 43.4812C36.2914 43.329 36.8668 43.1197 37.4805 42.8723C37.845 42.7201 38.2094 42.5299 38.5738 42.3396L38.6314 42.3016C38.8807 42.1684 39.1301 42.0162 39.3794 41.8639C39.5712 41.7498 39.763 41.6166 39.9356 41.5024C40.2425 41.2931 40.5494 41.0648 40.8563 40.8175C40.8755 40.7985 40.8946 40.7794 40.9138 40.7794C41.2015 40.5321 41.4892 40.2657 41.7386 39.9993C42.0838 39.6378 42.3907 39.2763 42.6592 38.9148L42.6784 38.8958C42.7551 38.8007 42.8127 38.7246 42.8702 38.6294L42.8894 38.6104C42.9086 38.5724 42.9278 38.5533 42.9469 38.5153C43.0428 38.3821 43.1196 38.2679 43.2155 38.1348C43.2346 38.0967 43.2538 38.0777 43.273 38.0396C43.3114 37.9635 43.3497 37.9064 43.4073 37.8303C43.4456 37.7733 43.4648 37.7352 43.5032 37.6781C43.5415 37.621 43.5799 37.564 43.5991 37.5069C43.6566 37.4117 43.7141 37.2976 43.7717 37.2025L43.8292 37.0883L43.9443 36.86L44.0019 36.7458L44.021 36.7078C44.0594 36.6126 44.1169 36.5175 44.1553 36.4224V36.4033C44.3279 36.2511 44.443 36.0989 44.5581 35.9657C44.5773 35.9467 44.5964 35.9277 44.5964 35.9087C44.7691 35.6613 44.8458 35.3759 44.8458 35.1095ZM13.8312 30.2578C13.7737 30.2768 13.7161 30.3529 13.6394 30.4481C13.6202 30.4861 13.5819 30.5242 13.5627 30.5812C13.39 30.9047 13.2366 31.3613 13.2366 31.3613C13.2558 31.2091 13.275 31.0569 13.275 30.9047V30.8476C13.2941 30.6954 13.3133 30.5242 13.3325 30.372V30.3149C13.3517 30.1246 13.39 29.9534 13.4284 29.7821C13.4284 29.7631 13.4284 29.7441 13.4476 29.706V29.687C13.4476 29.668 13.4476 29.6489 13.4668 29.6299C13.4668 29.5919 13.4859 29.5728 13.4859 29.5348C13.5051 29.4016 13.5435 29.2684 13.5627 29.1352C13.5819 29.0211 13.601 28.9069 13.6202 28.8118V28.7737C13.6202 28.7547 13.6202 28.7357 13.6394 28.7357V28.6976C13.6394 28.6786 13.6586 28.6405 13.6586 28.6215C13.6586 28.6025 13.6586 28.5835 13.6778 28.5644C13.6778 28.5264 13.6969 28.4883 13.6969 28.4693C13.6969 28.4503 13.7161 28.4122 13.7161 28.3932C13.7161 28.3551 13.7353 28.3171 13.7353 28.2981C13.7353 28.279 13.7353 28.26 13.7545 28.241C13.7545 28.222 13.7545 28.2029 13.7737 28.2029C13.7737 28.1649 13.7928 28.1459 13.7928 28.1268V28.0698L13.7545 28.1078C13.7161 28.1268 13.6969 28.1649 13.6586 28.1839L13.6202 28.222C13.5819 28.26 13.5435 28.2981 13.5243 28.3361L13.5051 28.3551L13.39 28.5264L13.3709 28.5454C13.3709 28.5644 13.3517 28.5644 13.3517 28.5835L13.2941 28.6976V28.7357C13.275 28.7928 13.2366 28.8498 13.2174 28.9069C13.1599 29.0591 13.1023 29.2113 13.064 29.3445C13.0448 29.3826 13.0448 29.4397 13.0256 29.4587C13.0064 29.5348 12.9873 29.6109 12.9873 29.6299V29.6489V29.6299C12.9873 29.5728 12.9873 29.5348 13.0064 29.4777C13.0064 29.3826 13.0256 29.2684 13.0256 29.1733C13.0256 29.0972 13.0448 29.002 13.064 28.9259C13.064 28.9069 13.064 28.8689 13.0832 28.8498C13.0832 28.8118 13.1023 28.7737 13.1023 28.7357C13.1023 28.6976 13.1215 28.6596 13.1215 28.6215V28.5644C13.1215 28.5264 13.1407 28.4693 13.1407 28.4313V28.3361V28.2981C13.1407 28.279 13.1407 28.26 13.1599 28.241C13.1791 28.1839 13.1982 28.1078 13.1982 28.0507V28.0317C13.2174 27.9936 13.2174 27.9366 13.2366 27.8985V27.8795C13.2558 27.7844 13.2941 27.6892 13.3133 27.5941V27.556C13.3133 27.537 13.3133 27.518 13.3325 27.499C13.3709 27.3467 13.4284 27.1945 13.4668 27.0613V27.0423C13.5051 26.9282 13.5627 26.795 13.601 26.6808V26.6618C13.6202 26.6047 13.6394 26.5667 13.6586 26.5096C13.6969 26.4335 13.7161 26.3574 13.7545 26.2813C13.7545 26.2622 13.7737 26.2242 13.812 26.1481C13.8312 26.129 13.8312 26.091 13.8504 26.072C13.8696 26.0339 13.8887 25.9959 13.9079 25.9388L13.9271 25.9007C13.9079 25.8817 13.8696 25.8817 13.8504 25.8627H13.8312L13.7928 25.8437C13.6202 25.7675 13.4284 25.6914 13.2366 25.6344H13.1982C13.064 25.5963 12.9489 25.5773 12.8146 25.5583C12.7379 25.5583 12.6612 25.5392 12.5845 25.5392H12.3927C12.2968 25.5392 12.2009 25.5583 12.105 25.5583C12.0666 25.5583 12.0474 25.5583 12.0091 25.5773C11.9707 25.5773 11.9132 25.5963 11.8748 25.5963C11.8556 25.5963 11.8364 25.5963 11.8173 25.6153C11.7789 25.6153 11.7597 25.6344 11.7214 25.6344C11.6638 25.6534 11.5871 25.6724 11.5296 25.6914C11.5104 25.6914 11.472 25.7105 11.4528 25.7105C11.3761 25.7485 11.2802 25.7675 11.2035 25.8056C11.1651 25.8246 11.1459 25.8437 11.1076 25.8437L10.9925 25.9007L10.9541 25.9198C10.9158 25.9388 10.8774 25.9578 10.8391 25.9959C10.8007 26.0149 10.7623 26.0339 10.724 26.072C10.6856 26.091 10.6473 26.129 10.6089 26.1481C10.5897 26.1671 10.5514 26.1861 10.5322 26.2052C10.4746 26.2622 10.3979 26.3193 10.3404 26.3764L10.2445 26.4715C10.1869 26.5286 10.1486 26.5857 10.091 26.6428L10.0718 26.6618C10.0527 26.6998 10.0143 26.7189 9.99513 26.7569L9.93759 26.814C9.84169 26.9472 9.74578 27.0994 9.66906 27.2516C9.64988 27.2706 9.64988 27.2897 9.6307 27.3087C9.59234 27.3848 9.57316 27.4609 9.5348 27.537C9.51562 27.5751 9.51562 27.5941 9.49644 27.6321C9.47726 27.7082 9.4389 27.7844 9.41972 27.8795V27.9556C9.40054 28.0127 9.40054 28.0697 9.38136 28.1268C9.38136 28.1649 9.38136 28.1839 9.36218 28.222C9.36218 28.26 9.36218 28.279 9.343 28.3171V28.3932C9.343 28.4883 9.32382 28.5835 9.343 28.6786C9.343 28.7547 9.343 28.8308 9.36218 28.9069V28.945C9.36218 28.983 9.38136 29.0211 9.38136 29.0591C9.40054 29.2113 9.4389 29.3445 9.47726 29.4967C9.51562 29.6109 9.55398 29.706 9.59234 29.8012C9.66906 29.9914 9.76496 30.1627 9.88005 30.3339C10.1102 30.6764 10.4171 30.9808 10.7815 31.2091C10.9733 31.3423 11.2035 31.4374 11.4337 31.5135C11.6446 31.5896 11.8748 31.6467 12.1241 31.6658C12.1817 31.6658 12.2392 31.6848 12.2776 31.6848H12.5269C12.6037 31.6848 12.6804 31.6658 12.7571 31.6658C12.7955 31.6658 12.853 31.6658 12.8914 31.6467C13.0064 31.6277 13.1023 31.6087 13.2174 31.5896H13.2366C13.275 31.5706 13.3133 31.5706 13.3709 31.5516C13.5051 31.5135 13.6394 31.4565 13.7545 31.3994L13.7737 31.3804C13.812 31.3613 13.8504 31.3423 13.8696 31.3423C13.812 31.0189 13.7545 30.6764 13.7353 30.3339C13.8312 30.2958 13.8312 30.2768 13.8312 30.2578Z" fill="#FCE9CD"/>
<path d="M26.778 3.37338L26.8355 3.41144L26.778 3.37338Z" fill="#4D9ED7"/>
<path d="M43.6758 34.3294C43.6758 34.3104 43.6758 34.2914 43.6566 34.2914C43.6374 34.2533 43.6374 34.2343 43.6374 34.2153C43.5415 33.9109 43.4264 33.6825 43.3114 33.5113C43.1771 33.302 43.062 33.1878 43.062 33.1878L43.1195 32.9595C43.1387 32.8644 43.1579 32.7693 43.1579 32.6741C43.2346 31.9892 43.062 31.4564 42.9086 31.152C42.8894 31.0949 42.8702 31.0569 42.851 31.0188C42.7359 31.0949 42.64 31.171 42.525 31.2471C40.4535 32.6361 38.1327 33.5303 35.62 33.9109C33.8938 34.1772 32.0717 34.1963 30.1728 33.9679L30.2112 33.987C30.2112 33.987 29.0604 34.1392 28.7535 35.2237L28.7727 35.2427L28.6768 35.9657C28.7151 36.9551 29.1563 37.5639 29.6741 37.8874C30.2112 38.0967 30.8633 38.2489 31.5922 38.344C32.8389 38.4962 34.2966 38.4582 35.7543 38.2299C37.7107 37.9635 40.4727 36.9361 42.4482 35.6042C42.8894 35.2998 43.3113 34.9763 43.6566 34.6529L43.6758 34.6339L43.695 34.6148C43.695 34.4816 43.6758 34.4055 43.6758 34.3294Z" fill="white"/>
<path d="M39.9355 24.9303C38.8806 24.2834 38.7272 24.0741 38.8231 22.3427C38.8614 21.7149 38.919 20.8967 38.9957 19.7742C38.9957 19.6219 39.0149 19.4888 39.0149 19.3556V19.2604V18.8038C39.0149 18.7087 38.9957 18.6135 38.9957 18.5374C38.9957 18.4994 38.9957 18.4613 38.9765 18.4233C38.9573 18.3281 38.9573 18.233 38.9382 18.1379C38.9382 18.0998 38.919 18.0428 38.919 18.0047C38.919 17.9476 38.8998 17.9096 38.8806 17.8525C38.8614 17.8144 38.8614 17.7574 38.8423 17.7193C38.6888 17.491 38.5162 17.3007 38.3052 17.1295L38.2669 17.0914L38.2285 17.0724H38.2093C38.171 17.0534 38.1518 17.0343 38.1134 17.0153C38.0751 16.9963 38.0367 16.9773 38.0175 16.9582C37.7106 16.768 37.3462 16.6538 36.9818 16.5967C36.7708 16.5587 36.5598 16.5587 36.3488 16.5587C36.2529 16.5587 36.1378 16.5777 36.0419 16.5777C35.7734 16.6158 35.5049 16.6728 35.2172 16.749C35.1213 16.806 35.0254 16.8821 34.9295 16.9392C34.8528 16.9963 34.776 17.0534 34.6801 17.1105L34.6418 17.1295C34.565 17.1866 34.4691 17.2436 34.3924 17.2817L34.3541 17.3007C34.2773 17.3578 34.1814 17.3959 34.1047 17.4529L34.0664 17.472C33.9896 17.529 33.8937 17.5671 33.7978 17.6051L33.7595 17.6242C33.6636 17.6622 33.5869 17.7003 33.491 17.7383L33.4526 17.7574C33.3567 17.7954 33.2608 17.8144 33.1649 17.8525H33.1457C33.0498 17.8715 32.9347 17.8905 32.8388 17.9096C32.6662 17.9286 32.4744 17.9476 32.3018 17.9476C32.0141 17.9476 31.7264 17.9286 31.4195 17.8905L31.1318 17.8335C31.0934 17.8335 31.0551 17.8144 31.0359 17.8144C30.7865 17.7574 30.518 17.7003 30.2687 17.6432C30.1536 17.6242 30.0577 17.5861 29.9426 17.5671C29.77 17.529 29.5973 17.491 29.4055 17.4529C29.3672 17.4529 29.3288 17.4339 29.3096 17.4339C29.1562 17.4339 29.0028 17.4529 28.8685 17.472H28.8301C28.389 17.529 27.967 17.6242 27.5259 17.7764C27.5067 17.7764 27.4875 17.7954 27.4491 17.7954C27.3724 17.8144 27.3149 17.8525 27.2382 17.8715C27.1423 17.9096 27.0655 17.9476 26.9696 17.9857C26.3367 18.252 25.7421 18.6326 25.1667 19.1082C24.9365 19.2985 24.7255 19.5078 24.5146 19.7171C24.2077 20.0405 23.9391 20.383 23.6898 20.7445C23.6706 20.7635 23.6706 20.7826 23.6514 20.8016C23.5172 20.9919 23.4021 21.2011 23.3062 21.3914C23.2678 21.4675 23.2295 21.5436 23.1911 21.6007V21.6197C23.076 21.8671 22.9801 22.0954 22.9034 22.3427C22.9034 22.3618 22.9034 22.3808 22.8842 22.3808C22.865 22.4188 22.865 22.4569 22.8459 22.4949C22.8075 22.6091 22.7691 22.7233 22.75 22.8374C22.7116 22.9516 22.6924 23.0657 22.6732 23.1989C22.6732 23.218 22.6541 23.256 22.6541 23.275C22.6349 23.3511 22.6349 23.4272 22.6157 23.4843C22.5773 23.7507 22.5582 24.0171 22.539 24.2834V24.4737C22.6541 24.9113 22.8267 25.3109 23.0377 25.6533C23.8241 27.0042 25.1283 27.8224 26.0873 28.26C26.4518 28.4122 26.8354 28.5644 27.2382 28.6976L27.2573 28.7166L27.2765 28.6976C27.3341 28.6595 27.3724 28.6215 27.43 28.5834C27.4491 28.5644 27.4683 28.5644 27.4875 28.5454L27.6601 28.4312C27.6793 28.4122 27.6985 28.4122 27.7177 28.3932L27.8903 28.279C27.9095 28.26 27.9287 28.26 27.9478 28.2409C28.0054 28.2029 28.0629 28.1648 28.1396 28.1268C28.1588 28.1078 28.178 28.1078 28.1972 28.0887C28.2547 28.0507 28.3314 28.0126 28.389 27.9746C28.4082 27.9555 28.4273 27.9555 28.4465 27.9365C28.5041 27.8985 28.5808 27.8604 28.6383 27.8224C28.6575 27.8033 28.6959 27.8033 28.715 27.7843C28.7726 27.7463 28.8493 27.7082 28.9069 27.6701C28.926 27.6511 28.9644 27.6321 28.9836 27.6321C29.0411 27.594 29.1178 27.556 29.1946 27.5179C29.2329 27.4989 29.2521 27.4799 29.2905 27.4799C29.3672 27.4418 29.4247 27.4038 29.5014 27.3847C29.5398 27.3657 29.559 27.3467 29.5973 27.3467C29.6741 27.3086 29.7316 27.2896 29.8083 27.2516L29.9234 27.1945C30.0001 27.1564 30.0577 27.1374 30.1344 27.0994C30.1728 27.0803 30.2111 27.0613 30.2687 27.0423C30.3454 27.0232 30.4029 26.9852 30.4796 26.9662C30.518 26.9471 30.5755 26.9281 30.6139 26.9091C30.6906 26.8901 30.7482 26.852 30.8249 26.833C30.8824 26.814 30.9208 26.7949 30.9783 26.7759C31.055 26.7569 31.1126 26.7188 31.1893 26.6998L31.3619 26.6427C31.4195 26.6237 31.4962 26.6047 31.5537 26.5666C31.6113 26.5476 31.688 26.5286 31.7455 26.5095C31.8031 26.4905 31.8798 26.4715 31.9373 26.4525C32.0141 26.4334 32.0908 26.4144 32.1483 26.3954C32.2059 26.3763 32.2634 26.3573 32.3401 26.3383C32.4169 26.3193 32.4936 26.3002 32.5895 26.2622C32.6278 26.2432 32.6662 26.2432 32.7046 26.2241C33.0114 25.444 33.9513 23.5033 35.5432 23.2941C35.7159 23.275 35.8693 23.256 36.0228 23.256H36.1378C36.1187 23.1418 36.0995 23.0277 36.0995 22.8945C36.0419 22.0573 36.3105 21.3534 36.6749 21.3343C36.9626 21.3153 37.1928 21.7339 37.2311 21.8671C37.3462 22.1144 37.4229 22.4379 37.4421 22.7994C37.4613 23.1228 37.4229 23.4272 37.3654 23.6936C37.4037 23.7317 37.4229 23.7697 37.4613 23.7887C37.8257 24.2454 37.8832 24.8542 37.8641 25.3109C37.9983 25.2918 38.1518 25.2918 38.3052 25.2728C38.3436 25.2728 38.3819 25.2728 38.4203 25.2538H38.497C38.6696 25.2348 38.8614 25.2157 39.0532 25.2157C39.4752 25.1777 39.8972 25.1587 40.3383 25.1396C40.089 25.0064 39.9355 24.9303 39.9355 24.9303ZM43.9442 36.6506C43.2537 37.2595 42.5249 37.7542 41.796 38.1537C41.4316 38.344 41.0672 38.5152 40.7219 38.6674C39.9355 39.0099 39.1875 39.2382 38.5162 39.4095C37.0393 39.771 36.0228 39.771 36.0228 39.771C36.8283 40.2086 37.8449 40.2086 38.5354 40.1515C39.0149 40.1135 39.341 40.0183 39.341 40.0183C39.3218 40.3037 39.2834 40.5701 39.2451 40.8365C39.1875 41.1219 39.1108 41.3692 39.0149 41.5975V41.6166C38.8998 41.902 38.7464 42.1493 38.5929 42.3776C38.5737 42.3966 38.5546 42.4347 38.5354 42.4537L38.5929 42.4157C38.8423 42.2825 39.0916 42.1303 39.341 41.9781C39.5328 41.8639 39.7246 41.7307 39.8972 41.6166C40.2041 41.4073 40.511 41.1789 40.8178 40.9316C40.837 40.9126 40.8562 40.8935 40.8754 40.8935C41.1631 40.6462 41.4508 40.3798 41.7001 40.1135C42.0454 39.752 42.3523 39.3905 42.6208 39.029L42.64 39.0099C42.7167 38.9148 42.7742 38.8387 42.8318 38.7436L42.851 38.7245C42.8701 38.6865 42.8893 38.6674 42.9085 38.6294C43.0044 38.4962 43.0811 38.3821 43.177 38.2489C43.1962 38.2108 43.2154 38.1918 43.2346 38.1537C43.2729 38.0776 43.3113 38.0205 43.3688 37.9444C43.4072 37.8874 43.4264 37.8493 43.4647 37.7922C43.5031 37.7352 43.5414 37.6781 43.5606 37.621C43.6182 37.5259 43.6757 37.4117 43.7332 37.3166L43.7908 37.2024L43.9059 36.9741L43.9634 36.8599L43.9826 36.8219C44.021 36.7267 44.0785 36.6316 44.1169 36.5365C44.0401 36.5555 44.0018 36.5936 43.9442 36.6506ZM26.4518 28.983C26.26 29.0401 26.0298 29.1352 25.7996 29.2303C25.1859 29.4777 24.4954 29.8392 23.8816 30.3339C23.8049 30.3909 23.7282 30.467 23.6514 30.5241C23.5172 30.6383 23.4021 30.7524 23.287 30.8856L23.2487 30.9237L23.1911 30.9808C23.1528 31.0378 23.0952 31.0759 23.0569 31.133L22.9993 31.19C22.9418 31.2662 22.8842 31.3423 22.8459 31.4184C22.7883 31.4945 22.75 31.5706 22.6924 31.6467C22.328 32.2746 22.117 33.0356 22.1746 33.9489V33.9108C22.1746 33.8918 22.1746 33.8728 22.1937 33.8538V33.8347C22.1937 33.8157 22.2129 33.7967 22.2129 33.7586V33.7396C22.2129 33.7206 22.2321 33.6825 22.2321 33.6445C22.2321 33.6064 22.2513 33.5874 22.2705 33.5493V33.5303C22.2896 33.4922 22.2896 33.4542 22.3088 33.4161V33.3971C22.328 33.3591 22.328 33.321 22.3472 33.283V33.2639C22.3664 33.2259 22.3855 33.1878 22.4047 33.1307L22.4239 33.1117C22.4431 33.0737 22.4623 33.0166 22.5006 32.9785C22.539 32.9024 22.5773 32.8453 22.6157 32.7692C22.6349 32.7502 22.6541 32.7122 22.6732 32.6931L22.6924 32.6741L22.8075 32.5029C22.8459 32.4648 22.8842 32.4077 22.9226 32.3697L22.9609 32.3316C22.9993 32.2936 23.0185 32.2555 23.0569 32.2365L23.0952 32.1984C23.1336 32.1604 23.1911 32.1223 23.2295 32.0653C23.2295 32.0653 22.4047 33.9299 22.7691 35.3949V35.3759V35.3378V35.2807V35.2046V35.1095C22.7691 35.0714 22.7691 35.0334 22.7883 34.9953C22.7883 34.9573 22.7883 34.9192 22.8075 34.8812V34.8622C22.8075 34.8241 22.8267 34.767 22.8267 34.729V34.6909C22.8459 34.6338 22.8459 34.5958 22.865 34.5387V34.5197C22.8842 34.4626 22.9034 34.4055 22.9034 34.3675C22.9034 34.3484 22.9226 34.3294 22.9226 34.3104L22.9418 34.2723C22.9609 34.2343 22.9801 34.1772 22.9993 34.1391C23.0185 34.0821 23.0568 34.025 23.0952 33.9679C23.0952 33.9489 23.1144 33.9299 23.1144 33.9299L23.2295 33.7586C23.2295 33.7586 23.1911 34.2153 23.1911 34.767C23.1911 34.8622 23.1911 34.9383 23.2103 35.0334C23.2103 35.0905 23.2103 35.1476 23.2295 35.2046C23.2678 34.6148 23.3829 34.063 23.5364 33.5493C23.5747 33.4161 23.6323 33.2639 23.6706 33.1307C23.6706 33.1117 23.6898 33.0927 23.6898 33.0737C23.7473 32.9405 23.7857 32.8263 23.8432 32.6931C23.8624 32.6741 23.8624 32.6551 23.8816 32.617C23.9391 32.5029 23.9967 32.3697 24.0542 32.2555C24.0734 32.2365 24.0734 32.2175 24.0734 32.1984C24.2077 31.9511 24.3419 31.7228 24.4762 31.5135C24.4954 31.4945 24.4954 31.4754 24.5146 31.4564C24.5721 31.3803 24.6296 31.3042 24.6872 31.2091C24.7064 31.19 24.7064 31.171 24.7255 31.152C24.7447 31.133 24.7447 31.1139 24.7639 31.0949C24.8406 30.9998 24.8982 30.9046 24.9749 30.8095C24.9941 30.7905 24.9941 30.7715 25.0132 30.7715C25.09 30.6763 25.1667 30.5812 25.2434 30.5051C25.3393 30.3909 25.4352 30.2958 25.5311 30.1816C25.6078 30.1055 25.6654 30.0294 25.7421 29.9724L25.8188 29.8962C25.9723 29.744 26.1257 29.5918 26.2791 29.4586C26.7011 29.0781 27.0464 28.8308 27.1614 28.7547C27.0847 28.7737 27.008 28.7927 26.9121 28.8117C26.797 28.8688 26.6436 28.9259 26.4518 28.983Z" fill="#F2D2AC"/>
<path d="M37.4996 24.8542C37.4996 24.8542 37.4996 24.8162 37.4804 24.7401C37.4037 24.4737 37.1352 23.8268 36.0803 23.9219C34.9678 24.0361 34.5842 24.9303 34.4883 25.2348C34.4691 25.2918 34.4691 25.3299 34.4691 25.3299L34.5075 25.3489C34.6417 25.2348 34.9103 25.2348 35.1596 25.406C35.2747 25.4821 35.3514 25.5582 35.4281 25.6533C35.524 25.8056 35.5432 25.9578 35.4857 26.0719L35.4281 26.129C35.4281 26.129 35.4665 26.148 35.5432 26.1671C35.8501 26.2622 36.7132 26.4334 37.1735 25.8436C37.1927 25.8056 37.2119 25.7865 37.2311 25.7485C37.1352 25.7104 37.0968 25.5772 37.0968 25.406C37.0968 25.3299 37.116 25.2538 37.1352 25.1587C37.1927 24.9303 37.3653 24.7972 37.4996 24.8542ZM31.9565 32.9976C31.2276 33.1498 30.5947 33.2639 30.1152 33.34C30.1344 33.34 30.1727 33.34 30.1919 33.3591C31.0167 33.4542 32.3209 33.5874 33.8937 33.4923C36.7708 33.321 40.5493 32.4268 43.9826 29.3445V29.3255C44.0017 29.0591 43.9634 28.6025 43.6373 28.241C43.5798 28.1839 43.5222 28.1268 43.4455 28.0697C43.4263 28.0697 43.4263 28.0507 43.4072 28.0507C43.3112 27.9936 43.2345 27.9556 43.1578 27.8985L42.9852 27.7843V27.7653C42.7742 28.0697 42.5249 28.3551 42.2563 28.6215C42.1604 28.7166 42.0645 28.8117 41.9494 28.9069C41.0096 29.744 39.7821 30.467 38.4586 31.0378C36.2721 31.9892 33.817 32.617 31.9565 32.9976ZM13.7735 28.0317C13.7352 28.0507 13.716 28.0887 13.6776 28.1078L13.6393 28.1458C13.6009 28.1839 13.5626 28.2219 13.5434 28.26L13.5242 28.279L13.4091 28.4502L13.3899 28.4693C13.3899 28.4883 13.3707 28.4883 13.3707 28.5073L13.3132 28.6215V28.6595C13.294 28.7166 13.2557 28.7737 13.2365 28.8308C13.1789 28.983 13.1214 29.1352 13.083 29.2684C13.0639 29.3064 13.0639 29.3635 13.0447 29.3825C13.0255 29.4586 13.0063 29.5348 13.0063 29.5538V29.5728V29.5538C13.0063 29.4967 13.0063 29.4586 13.0255 29.4016C13.0255 29.3064 13.0447 29.1923 13.0447 29.0971C13.0447 29.021 13.0639 28.9259 13.083 28.8498C13.083 28.8308 13.083 28.7927 13.1022 28.7737C13.1022 28.7356 13.1214 28.6976 13.1214 28.6595C13.1214 28.6215 13.1406 28.5834 13.1406 28.5454V28.4883C13.1406 28.4502 13.1598 28.3932 13.1598 28.3551V28.26V28.2219C13.1598 28.2029 13.1598 28.1839 13.1789 28.1648C13.1981 28.1078 13.2173 28.0317 13.2173 27.9746V27.9556C13.2365 27.9175 13.2365 27.8604 13.2557 27.8224V27.8033C13.2748 27.7082 13.3132 27.6131 13.3324 27.5179V27.4799C13.3324 27.4609 13.3324 27.4418 13.3516 27.4228C13.3899 27.2706 13.4475 27.1184 13.4858 26.9852V26.9662C13.5242 26.852 13.5817 26.7188 13.6201 26.6047V26.5856C13.6393 26.5286 13.6585 26.4905 13.6776 26.4334C13.716 26.3573 13.7352 26.2812 13.7735 26.2051C13.7735 26.1861 13.7927 26.148 13.8311 26.0719C13.8503 26.0529 13.8503 26.0149 13.8694 25.9958C13.8886 25.9578 13.9078 25.9197 13.927 25.8626L13.9462 25.8246C13.927 25.8056 13.8886 25.8056 13.8694 25.7865H13.8503L13.8119 25.7675C13.6393 25.6914 13.4475 25.6153 13.2557 25.5582H13.2173C13.083 25.5202 12.968 25.5011 12.8337 25.4821C12.757 25.4821 12.6803 25.4631 12.6035 25.4631H12.4117C12.3158 25.4631 12.2199 25.4821 12.124 25.4821C12.0857 25.4821 12.0665 25.4821 12.0281 25.5011C11.9898 25.5011 11.9322 25.5202 11.8939 25.5202C11.8747 25.5202 11.8555 25.5202 11.8363 25.5392C11.798 25.5392 11.7788 25.5582 11.7404 25.5582C11.6829 25.5772 11.6062 25.5963 11.5486 25.6153C11.5294 25.6153 11.4911 25.6343 11.4719 25.6343C11.3952 25.6724 11.2993 25.6914 11.2226 25.7295C11.1842 25.7485 11.165 25.7675 11.1267 25.7675L11.0116 25.8246L10.9732 25.8436C10.9348 25.8626 10.8965 25.8817 10.8581 25.9197C10.8198 25.9387 10.7814 25.9578 10.743 25.9958C10.7047 26.0149 10.6663 26.0529 10.628 26.0719C10.6088 26.091 10.5704 26.11 10.5512 26.129C10.4937 26.1861 10.417 26.2432 10.3594 26.3003L10.2635 26.3954C10.206 26.4525 10.1676 26.5095 10.1101 26.5666L10.0909 26.5856C10.0717 26.6237 10.0334 26.6427 10.0142 26.6808L9.95665 26.7379C9.86075 26.871 9.76485 27.0233 9.68813 27.1755C9.66895 27.1945 9.66894 27.2135 9.64976 27.2325C9.6114 27.3087 9.59222 27.3848 9.55386 27.4609C9.53468 27.4989 9.53468 27.5179 9.5155 27.556C9.5155 27.575 9.53468 27.5941 9.53468 27.6131C9.55386 27.6892 9.57304 27.7463 9.59222 27.8224V27.8604C9.6114 27.9175 9.64977 27.9936 9.66895 28.0507C9.74567 28.241 9.82239 28.4122 9.91829 28.5644C9.93747 28.5834 9.93747 28.6025 9.95665 28.6215V28.6405L9.97583 28.6595C10.0334 28.7737 10.0909 28.8688 10.1485 28.9449C10.2444 29.0781 10.3211 29.1732 10.3786 29.2494L10.417 29.2874C10.417 29.3064 10.4362 29.3064 10.4362 29.3064L10.4745 29.3445C10.4745 29.3064 10.4553 29.2684 10.4553 29.2494C10.3978 29.002 10.3786 28.7737 10.3786 28.5263V28.4883C10.3786 28.3361 10.3786 28.1839 10.3978 28.0507L10.4553 28.2219C10.4745 28.298 10.5129 28.3741 10.5321 28.4502V28.4883C10.6471 28.8117 10.7814 29.0781 10.9157 29.2874C11.0691 29.5538 11.2034 29.725 11.2993 29.8392C11.3185 29.8582 11.3376 29.8772 11.3376 29.8963L11.376 29.9343C11.3185 29.6679 11.2801 29.4206 11.2801 29.1732V28.9259C11.2801 28.8117 11.2801 28.7166 11.2993 28.6215C11.3376 28.7927 11.3952 28.964 11.4527 29.1162V29.1352C11.6637 29.687 11.913 30.0865 12.0857 30.3339L12.1048 30.3529C12.1432 30.3909 12.1624 30.429 12.1816 30.467C12.2007 30.4861 12.2199 30.5051 12.2199 30.5241L12.2583 30.5622L12.2775 30.5812V30.5432C12.2775 30.5051 12.2583 30.467 12.2583 30.429C12.2391 30.2958 12.2199 30.1626 12.2007 30.0485C12.2007 29.9724 12.1816 29.8772 12.1816 29.8011V29.5728V29.5348V29.3825C12.1816 29.2874 12.2007 29.1732 12.2007 29.0781C12.2199 29.1352 12.2391 29.2113 12.2583 29.2684C12.2775 29.3064 12.2967 29.3635 12.3158 29.4016V29.4206L12.335 29.4396C12.3542 29.4967 12.3734 29.5538 12.3926 29.5918C12.4309 29.687 12.4693 29.7821 12.5268 29.8582C12.5844 29.9724 12.6227 30.0675 12.6803 30.1436C12.7186 30.2007 12.7378 30.2387 12.757 30.2768C12.7953 30.3339 12.8337 30.3909 12.8529 30.429C12.8912 30.467 12.9104 30.5051 12.9296 30.5432L12.9488 30.5622C12.968 30.6002 13.0063 30.6193 13.0255 30.6573C13.0447 30.6763 13.0639 30.6954 13.0639 30.7144C13.1022 30.7524 13.1214 30.7905 13.1406 30.7905L13.1598 30.8095V30.7524C13.1789 30.6002 13.1981 30.429 13.2173 30.2768V30.2197C13.2365 30.0294 13.2748 29.8582 13.3132 29.687C13.3132 29.6679 13.3132 29.6489 13.3324 29.6109V29.5918C13.3324 29.5728 13.3324 29.5538 13.3516 29.5348C13.3516 29.4967 13.3707 29.4777 13.3707 29.4396C13.3899 29.3064 13.4283 29.1732 13.4475 29.0401C13.4667 28.9259 13.4858 28.8117 13.505 28.7166V28.6786C13.505 28.6595 13.505 28.6405 13.5242 28.6405V28.6025C13.5242 28.5834 13.5434 28.5454 13.5434 28.5263C13.5434 28.5073 13.5434 28.4883 13.5626 28.4693C13.5626 28.4312 13.5817 28.3932 13.5817 28.3741C13.5817 28.3551 13.6009 28.3171 13.6009 28.298C13.6009 28.26 13.6201 28.2219 13.6201 28.2029C13.6201 28.1839 13.6201 28.1648 13.6393 28.1458C13.6393 28.1268 13.6393 28.1078 13.6585 28.1078C13.6585 28.0697 13.6776 28.0507 13.6776 28.0317V27.9746L13.7735 28.0317ZM37.0201 35.9847C37.2886 35.8896 37.5188 35.8135 37.7106 35.7374C38.075 35.5852 38.2668 35.471 38.2668 35.433C38.2476 35.3949 38.0367 35.4139 37.6531 35.5091C37.4612 35.5471 37.2311 35.5852 36.9434 35.6613C36.8091 35.6993 36.6557 35.7184 36.5022 35.7374C36.3488 35.7564 36.1762 35.7945 36.0035 35.8135C35.6583 35.8706 35.2747 35.9086 34.8527 35.9467L34.2198 36.0038C34.0088 36.0228 33.7786 36.0228 33.5485 36.0418C32.6278 36.0608 31.6112 36.0228 30.5755 35.8325C30.0385 35.7374 29.2904 35.49 28.7726 35.2046L28.7534 35.1856C29.0603 34.1011 30.2111 33.9489 30.2111 33.9489L30.1727 33.9299H30.1152C29.9426 33.9108 29.8083 33.8918 29.674 33.8728C29.5781 33.8538 29.5014 33.8538 29.4439 33.8347C29.3863 33.8347 29.3288 33.8157 29.3096 33.8157C28.6191 33.7777 28.2355 34.3484 28.1204 34.5958L28.0629 34.71C27.967 34.9383 27.8903 35.1856 27.8711 35.471C27.8327 35.9847 27.967 36.5365 28.3698 37.0122C28.6383 37.3356 29.0986 37.621 29.6932 37.8493C29.1753 37.5259 28.715 36.898 28.6958 35.9276C29.2904 36.175 29.9617 36.3272 30.4796 36.4223C31.5729 36.6316 32.647 36.6507 33.5868 36.5936C33.817 36.5745 34.0663 36.5555 34.2773 36.5365C34.5075 36.4984 34.7185 36.4794 34.9294 36.4604C35.3514 36.3843 35.7158 36.3272 36.0803 36.2511C36.2529 36.213 36.4255 36.175 36.579 36.1179C36.7516 36.0799 36.8858 36.0418 37.0201 35.9847Z" fill="#F2D2AC"/>
<path d="M36.1188 23.2751C36.6942 23.2941 37.0778 23.4653 37.3463 23.7317C37.4038 23.4844 37.4422 23.1799 37.423 22.8375C37.4038 22.476 37.3271 22.1525 37.212 21.9052C37.1737 21.753 36.9435 21.3534 36.6558 21.3724C36.2914 21.3914 36.0229 22.0954 36.0804 22.9326C36.0804 23.0468 36.0996 23.1609 36.1188 23.2751ZM37.0778 25.4251C37.0778 25.5773 37.1353 25.7105 37.212 25.7675C37.3463 25.8436 37.5189 25.6914 37.5956 25.4441C37.5956 25.4251 37.6148 25.406 37.6148 25.387C37.6724 25.1587 37.6148 24.9304 37.4806 24.8733C37.3463 24.7972 37.1737 24.9494 37.097 25.1967C37.097 25.2728 37.0778 25.349 37.0778 25.4251ZM34.4693 25.8436C34.5268 25.9388 34.6227 26.0339 34.7378 26.11C34.9871 26.2622 35.2556 26.2813 35.4091 26.1481L35.4666 26.091C35.5242 25.9768 35.505 25.8246 35.4091 25.6724C35.3515 25.5773 35.2556 25.4821 35.1406 25.4251C34.8912 25.2728 34.6227 25.2538 34.4884 25.368C34.4693 25.387 34.4501 25.406 34.4309 25.4441C34.3733 25.5392 34.3925 25.6914 34.4693 25.8436ZM44.0019 29.3255C43.9827 29.3255 43.9827 29.3255 44.0019 29.3255V29.3255ZM43.695 34.5958C43.3306 34.9383 42.9278 35.2617 42.4674 35.5662C40.4919 36.898 37.7299 37.9445 35.7735 38.1918C34.2966 38.4201 32.8581 38.4582 31.6114 38.306C30.8825 38.2108 30.2496 38.0586 29.6933 37.8493C29.0988 37.621 28.6384 37.3356 28.3699 37.0122C27.9671 36.5365 27.852 35.9657 27.8712 35.471C27.8904 35.2047 27.9479 34.9383 28.063 34.71L28.1206 34.5958C28.2548 34.3485 28.6193 33.7587 29.3097 33.8157C29.3289 33.8157 29.3865 33.8157 29.444 33.8348C29.5015 33.8348 29.5974 33.8538 29.6742 33.8728C29.8084 33.8918 29.9427 33.9109 30.1153 33.9299H30.1729C32.0717 34.1582 33.8938 34.1392 35.6201 33.8728C38.1327 33.4923 40.4535 32.598 42.525 31.2091C42.6401 31.133 42.736 31.0569 42.8511 30.9808L43.9827 29.3065C40.5494 32.4078 36.7709 33.302 33.8938 33.4733C32.3211 33.5684 31.0168 33.4542 30.192 33.3401C30.1537 33.3401 30.1345 33.3401 30.1153 33.321C29.866 33.283 29.6742 33.264 29.5207 33.2449C29.444 33.2449 29.3865 33.2259 29.3481 33.2259C29.1371 33.2069 28.9261 33.2449 28.7343 33.302C28.3507 33.4162 28.0055 33.6825 27.7561 34.025C27.4492 34.4436 27.2574 35.0144 27.2574 35.5852C27.2574 36.0609 27.3725 36.5555 27.6219 37.0122C27.6411 37.0312 27.6411 37.0502 27.6602 37.0693C27.6986 37.1263 27.7178 37.1644 27.7561 37.2215C27.7945 37.2786 27.852 37.3547 27.9096 37.4117C28.5042 38.1538 29.8084 38.6865 31.5347 38.9148C32.7047 39.067 34.0665 39.048 35.5434 38.8387C39.9165 38.0586 41.9879 36.6507 42.947 35.6803C43.0237 35.6042 43.0812 35.5471 43.1388 35.471C43.484 35.0715 43.6375 34.7671 43.695 34.6529V34.6339C43.7142 34.5958 43.7142 34.5768 43.7142 34.5768L43.695 34.5958Z" fill="#664F44"/>
<path d="M29.7892 19.5649C29.655 19.4888 29.5015 19.4317 29.3481 19.3937C29.2522 19.3746 29.1563 19.3556 29.0412 19.3366C29.0028 19.3366 28.9645 19.3366 28.9261 19.3176C28.4083 19.2795 27.9671 19.3556 27.9671 19.3556C27.8712 19.3747 27.7753 19.3937 27.6986 19.4317C27.0081 19.641 26.5286 20.0025 26.1833 20.4211C25.9148 20.7636 25.723 21.1251 25.6271 21.4866C25.6079 21.5246 25.6079 21.5437 25.6079 21.5817C25.5887 21.6769 25.5504 21.772 25.5312 21.8481C25.4737 22.1525 25.4353 22.4189 25.4353 22.6472C25.4353 22.9516 25.4545 23.1419 25.4545 23.1419C25.5696 22.8755 25.7038 22.6472 25.8381 22.4189C26.1642 21.8671 26.5094 21.4105 26.8738 21.049C27.5643 20.345 28.274 19.9645 28.811 19.7742C29.3865 19.5839 29.7892 19.5649 29.7892 19.5649ZM38.0943 18.5946L38.0751 18.5565C37.9984 18.4614 37.9025 18.3662 37.7874 18.2901C37.5189 18.1189 37.1545 18.0238 36.6558 18.1189C36.6558 18.1189 36.0612 18.2521 35.716 18.6516C35.716 18.6516 36.7517 18.214 37.8642 18.9941C37.9601 19.0702 38.0751 19.1463 38.171 19.2415C38.2669 19.3366 38.382 19.4317 38.4779 19.5649C38.4779 19.5649 38.4396 19.0893 38.1519 18.6707C38.1327 18.6326 38.1135 18.6136 38.0943 18.5946Z" fill="#E9B784"/>
<path d="M29.9234 26.1671C30.3262 26.0529 30.7482 25.9388 31.2277 25.8246C31.3044 25.4631 31.3236 25.0255 31.2661 24.5498C31.1318 23.4463 30.6331 22.5901 30.1344 22.6472C29.6357 22.7043 29.348 23.6556 29.4823 24.7591C29.559 25.3299 29.7124 25.8246 29.9234 26.1671Z" fill="#664F44"/>
<path d="M27.6411 1.2995L26.6053 1.52782L26.8163 3.39241L24.0735 2.00348L22.9419 2.34596L22.9611 2.36498L26.2985 6.13222L26.3368 6.1132L26.3752 6.09417C26.4711 6.03709 26.5862 5.96099 26.6821 5.90391C26.7204 5.88488 26.7588 5.86585 26.7971 5.8278C26.9506 5.73267 27.104 5.63754 27.2575 5.56143L25.8381 3.94418L28.1206 5.04771C28.1973 5.00966 28.2548 4.97161 28.3316 4.93356L28.1206 3.31631L29.1563 4.51497H29.1755C29.2714 4.47692 29.3481 4.41984 29.444 4.38179L29.4824 4.36276L29.5207 4.34374C29.5399 4.34374 29.5591 4.32471 29.5591 4.32471L29.6742 4.26763C29.6742 4.26763 29.6934 4.26763 29.6934 4.2486C29.8085 4.19152 29.9427 4.13444 30.0578 4.07736L27.6411 1.2995Z" fill="#FFD250"/>
<path d="M26.6244 1.58492V1.52784V1.58492ZM26.6244 1.52784L26.7779 1.48978C26.5285 1.37562 26.2216 1.29952 25.8764 1.24244C25.1859 1.14731 24.3036 1.24244 23.3062 1.48978C22.3089 1.73713 21.1772 2.17474 19.988 2.76456C17.5905 3.9442 14.9436 5.75171 12.3734 8.07294C11.472 8.87206 10.6472 9.70922 9.88 10.5274L12.9872 14.3327C13.8312 13.4194 14.7326 12.5061 15.73 11.6119C17.0534 10.4132 18.3961 9.34772 19.7195 8.43445C21.0046 7.5402 22.2897 6.77914 23.498 6.1703L22.961 3.73491L22.9802 2.365L22.961 2.34597L24.0926 2.0035L26.2984 3.12606L26.2408 2.365L26.6244 1.52784Z" fill="#4D9ED7"/>
<path d="M26.6244 1.5278L26.2408 2.36497L26.2983 3.14505L26.8354 3.41142L26.6244 1.5278ZM25.838 3.94416L28.1397 5.06673L27.2574 5.56141L25.838 3.94416ZM28.1397 3.31629L28.3506 4.93354L29.1754 4.51496L28.1397 3.31629Z" fill="#132134"/>
<path d="M36.8091 2.72649H37.2311C37.6147 2.72649 37.9791 2.78357 38.3244 2.85968C38.3435 2.85968 38.3627 2.85967 38.3819 2.8787H38.4011L38.4395 2.89773H38.4778C38.4394 2.8787 38.4011 2.84065 38.3627 2.82162C37.9791 2.66941 37.5763 2.57428 37.1544 2.5172C35.0829 2.25083 32.7045 3.01189 31.3619 3.54463C31.2852 3.58268 31.2085 3.60171 31.1317 3.63976C31.0167 3.69684 30.9016 3.73489 30.7865 3.79197C30.5947 3.86808 30.4029 3.96321 30.1919 4.05834C30.1535 4.07737 30.1344 4.07737 30.096 4.0964C29.9809 4.15348 29.8467 4.21055 29.7316 4.26763C29.7316 4.26763 29.7124 4.26763 29.7124 4.28666L29.5973 4.34374C29.5781 4.34374 29.559 4.36277 29.559 4.36277H29.4822L29.4631 4.38179C29.3672 4.41985 29.2904 4.4579 29.1945 4.51498H29.1753C29.1562 4.534 29.137 4.534 29.1178 4.55303H29.0986C29.0794 4.55303 29.0603 4.57206 29.0603 4.57206C28.926 4.64816 28.7917 4.70524 28.6575 4.78135C28.5616 4.83843 28.4657 4.87648 28.3698 4.93356H28.3506C28.2739 4.97161 28.2163 5.00967 28.1396 5.04772C27.9094 5.16188 27.6985 5.29506 27.4683 5.42825C27.4491 5.44728 27.4299 5.44728 27.3916 5.4663C27.3724 5.48533 27.3532 5.48533 27.334 5.50435C27.3149 5.52338 27.2957 5.52338 27.2765 5.54241L27.2573 5.56143C27.1039 5.65657 26.9504 5.73267 26.797 5.82781C26.7586 5.84683 26.7203 5.86586 26.6819 5.90391C26.586 5.96099 26.4709 6.0371 26.375 6.09418L26.3367 6.1132L26.2983 6.13223L25.4352 6.70302C24.9557 7.02647 24.4953 7.34992 24.035 7.6924C23.9775 7.73045 23.9199 7.78753 23.8624 7.82558C22.654 8.71983 21.5032 9.69018 20.3908 10.6796C19.2208 11.745 18.0891 12.8295 17.0342 13.9331C16.4588 14.5039 15.9601 15.0176 15.5765 15.4362C14.7709 16.2924 14.3298 16.8251 14.349 16.8441C14.349 16.8441 14.4257 16.7871 14.5599 16.6539C14.464 16.768 14.349 16.9012 14.2531 17.0154C16.0176 15.1508 17.9549 13.2481 20.0455 11.4596C21.3114 10.3751 22.6349 9.32868 23.9967 8.35833C24.5913 7.93974 25.205 7.52116 25.8188 7.1216C26.0106 6.98842 26.2216 6.87426 26.4134 6.74108C26.5093 6.684 26.6052 6.62692 26.7203 6.56984C26.7778 6.53178 26.8354 6.49373 26.8929 6.4747C27.008 6.41763 27.1039 6.34152 27.219 6.28444C27.3149 6.22736 27.4299 6.17028 27.5258 6.09418C27.5834 6.05612 27.6409 6.0371 27.6985 5.99904L28.1013 5.77073C28.178 5.73267 28.2547 5.67559 28.3314 5.63754C28.5808 5.50435 28.8301 5.37117 29.0986 5.23798C29.1178 5.21896 29.137 5.21896 29.1562 5.19993L29.2713 5.14285C29.3288 5.12383 29.3672 5.08577 29.4247 5.06675C29.4439 5.04772 29.4631 5.04772 29.4822 5.02869L29.5973 4.97161C29.5973 4.97161 29.6165 4.97161 29.6165 4.95259H29.6357C29.7508 4.89551 29.8658 4.83843 29.9617 4.80038C29.9809 4.80038 30.0001 4.78135 30.0193 4.76232L30.1344 4.70524C30.2686 4.64816 30.3837 4.59108 30.518 4.534C30.5563 4.51498 30.5947 4.49595 30.6139 4.47693C30.6331 4.47693 30.6522 4.4579 30.6714 4.4579C30.7098 4.43887 30.7481 4.41985 30.7865 4.41985C30.9399 4.36277 31.0742 4.28666 31.2276 4.22958C31.3619 4.1725 31.477 4.11542 31.6113 4.05834C32.3401 3.75392 33.0114 3.50658 33.6444 3.29728C34.8335 2.97383 35.8885 2.76454 36.8091 2.72649Z" fill="white"/>
</svg>
