<svg width="24" height="24" viewBox="0 0 24 24" fill="none" xmlns="http://www.w3.org/2000/svg">
<path d="M16.2426 6.34311L6.34309 16.2426C5.95257 16.6331 5.95257 17.2663 6.34309 17.6568C6.73362 18.0473 7.36678 18.0473 7.75731 17.6568L17.6568 7.75732C18.0473 7.36679 18.0473 6.73363 17.6568 6.34311C17.2663 5.95258 16.6331 5.95258 16.2426 6.34311Z" fill="#212529"/>
<path d="M17.6568 16.2426L7.75734 6.34309C7.36681 5.95257 6.73365 5.95257 6.34313 6.34309C5.9526 6.73362 5.9526 7.36678 6.34313 7.75731L16.2426 17.6568C16.6331 18.0473 17.2663 18.0473 17.6568 17.6568C18.0474 17.2663 18.0474 16.6331 17.6568 16.2426Z" fill="#212529"/>
</svg>
