<svg width="24" height="24" viewBox="0 0 24 24" fill="none" xmlns="http://www.w3.org/2000/svg">
<path fill-rule="evenodd" clip-rule="evenodd" d="M4.22222 5H19.7778C21.0051 5 22 5.96431 22 7.15385V16.8462C22 18.0357 21.0051 19 19.7778 19H4.22222C2.99492 19 2 18.0357 2 16.8462V7.15385C2 5.96431 2.99492 5 4.22222 5ZM18.8271 6.98116L12 10.5442L5.17286 6.98116C4.76764 6.76967 4.26225 6.91662 4.04405 7.30938C3.82585 7.70214 3.97747 8.19197 4.38269 8.40346L11.6049 12.1727C11.8516 12.3014 12.1484 12.3014 12.3951 12.1727L19.6173 8.40346C20.0225 8.19197 20.1741 7.70214 19.9559 7.30938C19.7377 6.91662 19.2324 6.76967 18.8271 6.98116Z" fill="#212529"/>
</svg>
