<svg width="24" height="24" viewBox="0 0 24 24" fill="none" xmlns="http://www.w3.org/2000/svg">
<path d="M17.1429 12C17.1429 12.2079 17.0692 12.3811 16.9219 12.5197C16.7746 12.6237 16.7009 12.6757 16.7009 12.6757L4.60212 19.7441C4.16016 20.0213 3.77344 20.0733 3.44196 19.9C3.14732 19.7268 3 19.3803 3 18.8606V5.13943C3 4.61969 3.14732 4.2732 3.44196 4.09995C3.77344 3.9267 4.16016 3.97868 4.60212 4.25587L16.7009 11.3243C16.7009 11.3243 16.7746 11.3936 16.9219 11.5322C17.0692 11.6362 17.1429 11.7921 17.1429 12Z" fill="#212529"/>
<rect x="18.4286" y="4" width="2.57143" height="16" rx="1.28571" fill="#212529"/>
</svg>
