<svg width="59" height="26" viewBox="0 0 59 26" fill="none" xmlns="http://www.w3.org/2000/svg">
<path d="M0.736023 0.400024V20H13.504V16.584H4.43202V0.400024H0.736023Z" fill="white"/>
<path d="M13.8517 12.944C13.8517 17.256 16.8477 20.392 20.9917 20.392C24.7157 20.392 26.3397 18.432 27.2917 16.976L24.2677 15.24C23.7917 16.22 22.8957 17.312 20.9357 17.312C18.9197 17.312 17.6037 15.884 17.5197 14.092H27.7957V12.72C27.7957 8.54803 24.9677 5.72002 20.9357 5.72002C16.8477 5.72002 13.8517 8.74403 13.8517 12.944ZM17.5477 11.628C17.7717 9.97603 18.9197 8.80003 20.9077 8.80003C22.7277 8.80003 23.9597 9.92003 24.1557 11.628H17.5477Z" fill="white"/>
<path d="M28.3596 9.30402L31.2156 11.152C32.0836 9.69602 33.2316 8.74403 35.0796 8.74403C36.9836 8.74403 37.9916 9.78003 37.9916 11.096V11.432L32.4196 12.048C29.8436 12.328 28.0796 13.84 28.0796 16.052C28.0796 18.712 30.1516 20.392 33.2876 20.392C36.2836 20.392 37.3196 18.936 37.6556 18.32H38.0476V20H41.5196V11.124C41.5196 7.87602 39.0556 5.72002 35.2756 5.72002C31.8876 5.72002 30.0116 7.23202 28.3596 9.30402ZM31.7756 15.856C31.7756 15.044 32.4196 14.568 33.7356 14.4L37.9916 13.896V14.12C37.9916 16.024 36.6196 17.48 34.1556 17.48C32.5876 17.48 31.7756 16.808 31.7756 15.856Z" fill="white"/>
<path d="M43.6996 25.6H47.2276V18.04H47.5636C48.2916 19.216 49.5236 20.392 51.9876 20.392C55.4596 20.392 58.3716 17.312 58.3716 13.056C58.3716 8.80003 55.4596 5.72002 51.9876 5.72002C49.5236 5.72002 48.2916 6.89602 47.5636 8.07202H47.1716V6.11203H43.6996V25.6ZM51.0356 17.256C48.8516 17.256 47.2276 15.688 47.2276 13.056C47.2276 10.424 48.8516 8.85602 51.0356 8.85602C53.1636 8.85602 54.8436 10.368 54.8436 13.056C54.8436 15.744 53.1636 17.256 51.0356 17.256Z" fill="white"/>
</svg>
