<svg xmlns="http://www.w3.org/2000/svg" xmlns:xlink="http://www.w3.org/1999/xlink" viewBox="0 0 600 525.41"><defs><style>.cls-1,.cls-3{opacity:0.49;}.cls-1{fill:url(#linear-gradient);}.cls-2{fill:url(#linear-gradient-2);}.cls-3{fill:url(#linear-gradient-3);}.cls-4,.cls-60{fill:#4c93f4;}.cls-4{opacity:0.1;}.cls-5{fill:url(#linear-gradient-4);}.cls-6{fill:url(#linear-gradient-5);}.cls-7{fill:url(#linear-gradient-6);}.cls-8{fill:url(#linear-gradient-7);}.cls-9{fill:url(#linear-gradient-8);}.cls-10{fill:url(#linear-gradient-9);}.cls-11{fill:#d6e3fa;}.cls-12{fill:url(#linear-gradient-10);}.cls-13{fill:url(#linear-gradient-11);}.cls-14{fill:url(#linear-gradient-12);}.cls-15{fill:url(#linear-gradient-13);}.cls-16{fill:#fff;}.cls-17{fill:url(#linear-gradient-14);}.cls-18{fill:url(#linear-gradient-15);}.cls-19{fill:url(#linear-gradient-16);}.cls-20{fill:url(#linear-gradient-17);}.cls-21,.cls-64{fill:none;stroke-linecap:round;stroke-linejoin:round;}.cls-21{stroke:#eb6057;}.cls-22{fill:url(#linear-gradient-18);}.cls-23{fill:url(#linear-gradient-19);}.cls-24{fill:url(#linear-gradient-20);}.cls-25{fill:url(#linear-gradient-21);}.cls-26{fill:url(#linear-gradient-22);}.cls-27{fill:url(#linear-gradient-23);}.cls-28{fill:url(#linear-gradient-24);}.cls-29{fill:url(#linear-gradient-25);}.cls-30{fill:url(#linear-gradient-26);}.cls-31{fill:url(#linear-gradient-27);}.cls-32{fill:url(#linear-gradient-28);}.cls-33{fill:url(#linear-gradient-29);}.cls-34{fill:url(#linear-gradient-30);}.cls-35{fill:url(#linear-gradient-31);}.cls-36{fill:url(#linear-gradient-32);}.cls-37{fill:url(#linear-gradient-33);}.cls-38{fill:url(#linear-gradient-34);}.cls-39{fill:url(#linear-gradient-35);}.cls-40{fill:url(#linear-gradient-36);}.cls-41{fill:url(#linear-gradient-37);}.cls-42{fill:url(#linear-gradient-38);}.cls-43{fill:url(#linear-gradient-39);}.cls-44{fill:url(#linear-gradient-40);}.cls-45{fill:url(#linear-gradient-41);}.cls-46{fill:url(#linear-gradient-42);}.cls-47{fill:url(#linear-gradient-43);}.cls-48{fill:url(#linear-gradient-44);}.cls-49{fill:url(#linear-gradient-45);}.cls-50{fill:url(#linear-gradient-46);}.cls-51{fill:url(#linear-gradient-47);}.cls-52{fill:url(#linear-gradient-48);}.cls-53{fill:url(#linear-gradient-49);}.cls-54{fill:url(#linear-gradient-50);}.cls-55{fill:url(#linear-gradient-51);}.cls-56{fill:url(#linear-gradient-52);}.cls-57{fill:url(#linear-gradient-53);}.cls-58{fill:#223762;}.cls-59{fill:url(#linear-gradient-54);}.cls-61{fill:#3769a5;}.cls-62{fill:url(#linear-gradient-55);}.cls-63{fill:url(#linear-gradient-56);}.cls-64{stroke:#124;}.cls-65{fill:url(#linear-gradient-57);}.cls-66{fill:url(#linear-gradient-58);}.cls-67{fill:url(#linear-gradient-59);}.cls-68{fill:url(#linear-gradient-60);}.cls-69{fill:url(#linear-gradient-61);}.cls-70{fill:url(#linear-gradient-62);}.cls-71{fill:#ffd46a;}.cls-72{fill:url(#linear-gradient-63);}.cls-73{fill:url(#linear-gradient-64);}.cls-74{fill:url(#linear-gradient-65);}.cls-75{fill:url(#linear-gradient-66);}.cls-76{fill:url(#linear-gradient-67);}.cls-77{fill:#83a4d6;}.cls-78{fill:url(#linear-gradient-68);}.cls-79{fill:url(#linear-gradient-69);}.cls-80{fill:url(#linear-gradient-70);}.cls-81{fill:url(#linear-gradient-71);}.cls-82{fill:url(#linear-gradient-72);}.cls-83{fill:url(#linear-gradient-73);}.cls-84{fill:url(#linear-gradient-74);}.cls-85{fill:url(#linear-gradient-75);}.cls-86{fill:url(#linear-gradient-76);}.cls-87{fill:url(#linear-gradient-77);}.cls-88{fill:url(#linear-gradient-78);}.cls-89{fill:url(#linear-gradient-79);}.cls-90{fill:url(#linear-gradient-80);}</style><linearGradient id="linear-gradient" x1="-1293.44" y1="172.58" x2="-1985.56" y2="373.61" gradientTransform="matrix(-1, -0.13, -0.14, 1.09, -1156.39, -164.42)" gradientUnits="userSpaceOnUse"><stop offset="0" stop-color="#eaf1fc"/><stop offset="1" stop-color="#c0d4f4"/></linearGradient><linearGradient id="linear-gradient-2" x1="-4825.83" y1="518.87" x2="-4244.8" y2="518.87" gradientTransform="matrix(-1, 0, 0, 1, -4244.8, 0)" gradientUnits="userSpaceOnUse"><stop offset="0" stop-color="#223762"/><stop offset="1" stop-color="#041b48"/></linearGradient><linearGradient id="linear-gradient-3" x1="569.15" y1="-152.37" x2="477.36" y2="-40.54" gradientTransform="matrix(-0.53, 0.85, 0.85, 0.53, 719.29, -348.38)" xlink:href="#linear-gradient"/><linearGradient id="linear-gradient-4" x1="-1280.49" y1="500.56" x2="-1237.34" y2="500.56" gradientTransform="matrix(-1, 0, 0, 1, -768.76, 0)" xlink:href="#linear-gradient-2"/><linearGradient id="linear-gradient-5" x1="-1534.77" y1="426.89" x2="-1528.94" y2="409.45" gradientTransform="matrix(-0.99, -0.15, -0.15, 0.99, -918.67, -152.04)" xlink:href="#linear-gradient-2"/><linearGradient id="linear-gradient-6" x1="-757.43" y1="490.79" x2="-752.58" y2="314.11" gradientTransform="translate(1262.65)" gradientUnits="userSpaceOnUse"><stop offset="0" stop-color="#3769a5"/><stop offset="1" stop-color="#08448b"/></linearGradient><linearGradient id="linear-gradient-7" x1="-757.3" y1="485.86" x2="-752.56" y2="313.26" gradientTransform="translate(1262.65)" xlink:href="#linear-gradient-2"/><linearGradient id="linear-gradient-8" x1="-760.14" y1="497.08" x2="-754.88" y2="305.43" gradientTransform="translate(1262.65)" gradientUnits="userSpaceOnUse"><stop offset="0" stop-color="#4c93f4"/><stop offset="1" stop-color="#0b63da"/></linearGradient><linearGradient id="linear-gradient-9" x1="-983.17" y1="1311.1" x2="-978.26" y2="1326.69" gradientTransform="translate(1381.02 -1118.36)" xlink:href="#linear-gradient-8"/><linearGradient id="linear-gradient-10" x1="-982.8" y1="1336.2" x2="-980.06" y2="1336.2" gradientTransform="translate(1380.08 -1118.39)" xlink:href="#linear-gradient-8"/><linearGradient id="linear-gradient-11" x1="-856.25" y1="200.23" x2="-844.97" y2="200.23" gradientTransform="translate(1262.65)" gradientUnits="userSpaceOnUse"><stop offset="0" stop-color="#f8a695"/><stop offset="1" stop-color="#e56045"/></linearGradient><linearGradient id="linear-gradient-12" x1="-872.22" y1="220.36" x2="-816.05" y2="200.8" gradientTransform="translate(1262.65)" gradientUnits="userSpaceOnUse"><stop offset="0" stop-color="#ffc063"/><stop offset="0.95" stop-color="#e44d0b"/></linearGradient><linearGradient id="linear-gradient-13" x1="-733.77" y1="190.81" x2="-784.1" y2="274.68" xlink:href="#linear-gradient-12"/><linearGradient id="linear-gradient-14" x1="-769.9" y1="148.49" x2="-771.76" y2="136.45" xlink:href="#linear-gradient-11"/><linearGradient id="linear-gradient-15" x1="-891.9" y1="303.92" x2="-908.16" y2="292.48" gradientTransform="matrix(0.99, -0.15, 0.15, 0.99, 1335.45, -318.55)" xlink:href="#linear-gradient-2"/><linearGradient id="linear-gradient-16" x1="-902.33" y1="299.18" x2="-902.07" y2="279.55" gradientTransform="matrix(0.99, -0.15, 0.15, 0.99, 1335.45, -318.55)" xlink:href="#linear-gradient-11"/><linearGradient id="linear-gradient-17" x1="-907" y1="313.57" x2="-886.78" y2="241.42" gradientTransform="matrix(0.99, -0.15, 0.15, 0.99, 1335.45, -318.55)" xlink:href="#linear-gradient-2"/><linearGradient id="linear-gradient-18" x1="-991.18" y1="219.86" x2="-987.01" y2="219.86" gradientTransform="matrix(1, -0.09, 0.09, 1, 1363.21, -106.77)" xlink:href="#linear-gradient-11"/><linearGradient id="linear-gradient-19" x1="-708.79" y1="200.23" x2="-708.79" y2="200.23" xlink:href="#linear-gradient-12"/><linearGradient id="linear-gradient-20" x1="-705.83" y1="185.82" x2="-736.67" y2="249.38" xlink:href="#linear-gradient-12"/><linearGradient id="linear-gradient-21" x1="-805.16" y1="226.18" x2="-808.17" y2="212.89" xlink:href="#linear-gradient-8"/><linearGradient id="linear-gradient-22" x1="-783.82" y1="237.04" x2="-759.76" y2="225.89" xlink:href="#linear-gradient-11"/><linearGradient id="linear-gradient-23" x1="-735.85" y1="189.27" x2="-724.77" y2="266.52" xlink:href="#linear-gradient-12"/><linearGradient id="linear-gradient-24" x1="-714.91" y1="324.89" x2="-755.1" y2="407.72" xlink:href="#linear-gradient-6"/><linearGradient id="linear-gradient-25" x1="306.94" y1="513.72" x2="323.77" y2="519.56" gradientTransform="matrix(1, 0, 0, 1, 0, 0)" xlink:href="#linear-gradient-2"/><linearGradient id="linear-gradient-26" x1="-4478.38" y1="513.72" x2="-4461.55" y2="519.56" gradientTransform="matrix(-1, 0, 0, 1, -4116.13, 0)" xlink:href="#linear-gradient-2"/><linearGradient id="linear-gradient-27" x1="303.95" y1="473.41" x2="340.59" y2="440.72" gradientTransform="matrix(1, 0, 0, 1, 0, 0)" xlink:href="#linear-gradient-2"/><linearGradient id="linear-gradient-28" x1="323.46" y1="414.64" x2="336.76" y2="402.78" gradientTransform="matrix(1, 0, 0, 1, 0, 0)" xlink:href="#linear-gradient-2"/><linearGradient id="linear-gradient-29" x1="-4445.1" y1="463.34" x2="-4445.1" y2="305.96" gradientTransform="matrix(-1, 0, 0, 1, -4244.8, 0)" xlink:href="#linear-gradient-6"/><linearGradient id="linear-gradient-30" x1="-4386.21" y1="463.34" x2="-4386.21" y2="305.96" gradientTransform="matrix(-1, 0, 0, 1, -4244.8, 0)" xlink:href="#linear-gradient-6"/><linearGradient id="linear-gradient-31" x1="-4721.04" y1="383.22" x2="-4721.04" y2="335.16" gradientTransform="matrix(-1, 0, 0, 1, -4244.8, 0)" xlink:href="#linear-gradient-6"/><linearGradient id="linear-gradient-32" x1="-4662.14" y1="383.22" x2="-4662.14" y2="335.16" gradientTransform="matrix(-1, 0, 0, 1, -4244.8, 0)" xlink:href="#linear-gradient-6"/><linearGradient id="linear-gradient-33" x1="-4385.28" y1="454.45" x2="-4385.28" y2="337.98" gradientTransform="matrix(-1, 0, 0, 1, -4244.8, 0)" gradientUnits="userSpaceOnUse"><stop offset="0" stop-color="#a7bde5"/><stop offset="1" stop-color="#2f66cb"/></linearGradient><linearGradient id="linear-gradient-34" x1="281.69" y1="543.14" x2="277.19" y2="527.32" gradientTransform="matrix(1, 0, 0, 1, 0, 0)" xlink:href="#linear-gradient-2"/><linearGradient id="linear-gradient-35" x1="189.62" y1="543.14" x2="185.12" y2="527.32" gradientTransform="matrix(1, 0, 0, 1, 0, 0)" xlink:href="#linear-gradient-2"/><linearGradient id="linear-gradient-36" x1="244.26" y1="404.97" x2="241.79" y2="396.27" gradientTransform="matrix(1, 0, 0, 1, 0, 0)" xlink:href="#linear-gradient-2"/><linearGradient id="linear-gradient-37" x1="349.58" y1="399.46" x2="347.04" y2="390.52" gradientTransform="matrix(1, 0, 0, 1, 0, 0)" xlink:href="#linear-gradient-2"/><linearGradient id="linear-gradient-38" x1="253.31" y1="309.87" x2="282.3" y2="284.62" gradientTransform="matrix(1, 0, 0, 1, 0, 0)" xlink:href="#linear-gradient-12"/><linearGradient id="linear-gradient-39" x1="177.19" y1="471.82" x2="244.75" y2="411.53" gradientTransform="matrix(1, 0, 0, 1, 0, 0)" xlink:href="#linear-gradient-6"/><linearGradient id="linear-gradient-40" x1="180.34" y1="469.68" x2="246.27" y2="410.86" gradientTransform="matrix(1, 0, 0, 1, 0, 0)" xlink:href="#linear-gradient-2"/><linearGradient id="linear-gradient-41" x1="376.89" y1="208.65" x2="289.13" y2="480.87" gradientUnits="userSpaceOnUse"><stop offset="0" stop-color="#ffc063"/><stop offset="1" stop-color="#e58f0f"/></linearGradient><linearGradient id="linear-gradient-42" x1="376.31" y1="208.52" x2="288.62" y2="480.52" gradientTransform="matrix(1, 0, 0, 1, 0, 0)" xlink:href="#linear-gradient-12"/><linearGradient id="linear-gradient-43" x1="288.01" y1="307.28" x2="402.13" y2="307.28" gradientTransform="matrix(1, 0, 0, 1, 0, 0)" xlink:href="#linear-gradient-12"/><linearGradient id="linear-gradient-44" x1="249.8" y1="454.9" x2="319.42" y2="392.78" gradientTransform="matrix(1, 0, 0, 1, 0, 0)" xlink:href="#linear-gradient-8"/><linearGradient id="linear-gradient-45" x1="388.85" y1="462.28" x2="386.04" y2="460.52" gradientTransform="matrix(1, 0, 0, 1, 0, 0)" xlink:href="#linear-gradient-6"/><linearGradient id="linear-gradient-46" x1="333.4" y1="322.45" x2="368.55" y2="309.47" gradientTransform="matrix(1, 0, 0, 1, 0, 0)" xlink:href="#linear-gradient-11"/><linearGradient id="linear-gradient-47" x1="327.09" y1="405.86" x2="324.54" y2="396.91" gradientTransform="matrix(1, 0, 0, 1, 0, 0)" xlink:href="#linear-gradient-2"/><linearGradient id="linear-gradient-48" x1="355.89" y1="249.12" x2="454.85" y2="353.34" gradientTransform="matrix(1, 0, 0, 1, 0, 0)" xlink:href="#linear-gradient-12"/><linearGradient id="linear-gradient-49" x1="309.44" y1="465.56" x2="318.56" y2="451.18" gradientTransform="matrix(1, 0, 0, 1, 0, 0)" xlink:href="#linear-gradient-6"/><linearGradient id="linear-gradient-50" x1="322.28" y1="265.03" x2="322.28" y2="251.59" gradientTransform="translate(25.02 -45.15) rotate(-1.24)" xlink:href="#linear-gradient-11"/><linearGradient id="linear-gradient-51" x1="271.26" y1="259.89" x2="268.86" y2="265.64" gradientTransform="translate(59.54 -109.87) rotate(-2.99)" xlink:href="#linear-gradient-2"/><linearGradient id="linear-gradient-52" x1="317.62" y1="243.52" x2="334.28" y2="184.07" gradientTransform="translate(25.02 -45.15) rotate(-1.24)" xlink:href="#linear-gradient-11"/><linearGradient id="linear-gradient-53" x1="286.2" y1="257.54" x2="292.08" y2="316.84" gradientTransform="translate(59.54 -109.87) rotate(-2.99)" xlink:href="#linear-gradient-2"/><linearGradient id="linear-gradient-54" x1="321.17" y1="248.77" x2="265.76" y2="317.75" gradientTransform="translate(127.73)" xlink:href="#linear-gradient-8"/><linearGradient id="linear-gradient-55" x1="-4326.39" y1="454.45" x2="-4326.39" y2="337.98" xlink:href="#linear-gradient-33"/><linearGradient id="linear-gradient-56" x1="-4327.55" y1="380.77" x2="-4282.66" y2="380.77" xlink:href="#linear-gradient-2"/><linearGradient id="linear-gradient-57" x1="-4267.46" y1="228.33" x2="-4304.98" y2="305.49" xlink:href="#linear-gradient-2"/><linearGradient id="linear-gradient-58" x1="-4342.91" y1="305.56" x2="-4318.69" y2="305.56" gradientTransform="matrix(-1, 0, 0, 1, -4244.8, 0)" xlink:href="#linear-gradient-6"/><linearGradient id="linear-gradient-59" x1="-4296.12" y1="230.66" x2="-4340.32" y2="431.28" gradientTransform="matrix(-1, 0, 0, 1, -4244.8, 0)" xlink:href="#linear-gradient-8"/><linearGradient id="linear-gradient-60" x1="-4247.04" y1="295.18" x2="-4297.89" y2="382.86" gradientTransform="matrix(-1, 0, 0, 1, -4244.8, 0)" xlink:href="#linear-gradient-6"/><linearGradient id="linear-gradient-61" x1="-4244.33" y1="448.6" x2="-4339.73" y2="491.15" gradientTransform="matrix(-1, 0, 0, 1, -4244.8, 0)" gradientUnits="userSpaceOnUse"><stop offset="0" stop-color="#ff9f5b"/><stop offset="1" stop-color="#e5670e"/></linearGradient><linearGradient id="linear-gradient-62" x1="-4251.27" y1="478.19" x2="-4266.7" y2="478.19" xlink:href="#linear-gradient-61"/><linearGradient id="linear-gradient-63" x1="-4305.61" y1="285.16" x2="-4309.59" y2="295.68" gradientTransform="matrix(-1, 0, 0, 1, -4244.8, 0)" xlink:href="#linear-gradient-8"/><linearGradient id="linear-gradient-64" x1="-2265.86" y1="1370.84" x2="-2269.83" y2="1381.36" gradientTransform="matrix(-1, 0, 0, 1, -2212.57, -1082.83)" xlink:href="#linear-gradient-8"/><linearGradient id="linear-gradient-65" x1="-2243.47" y1="1379.29" x2="-2247.45" y2="1389.82" gradientTransform="matrix(-1, 0, 0, 1, -2193.45, -1075.67)" xlink:href="#linear-gradient-8"/><linearGradient id="linear-gradient-66" x1="-3244.09" y1="1104.84" x2="-3248.06" y2="1115.37" gradientTransform="matrix(-1, 0, 0, 1, -3194.87, -793.77)" xlink:href="#linear-gradient-8"/><linearGradient id="linear-gradient-67" x1="-4411.86" y1="326.31" x2="-4896.34" y2="353.9" gradientTransform="matrix(1, 0, 0, -1, 4803.98, 665.44)" xlink:href="#linear-gradient-33"/><linearGradient id="linear-gradient-68" x1="-4663.1" y1="424.61" x2="-4663.1" y2="302.2" xlink:href="#linear-gradient-33"/><linearGradient id="linear-gradient-69" x1="-4604.21" y1="424.61" x2="-4604.21" y2="302.2" xlink:href="#linear-gradient-33"/><linearGradient id="linear-gradient-70" x1="266.47" y1="182.35" x2="170.13" y2="350.24" gradientTransform="matrix(1, 0, 0, 1, 0, 0)" xlink:href="#linear-gradient-8"/><linearGradient id="linear-gradient-71" x1="-4363.96" y1="309.46" x2="-4337.83" y2="409.42" gradientTransform="matrix(-1, 0, 0, 1, -4244.8, 0)" xlink:href="#linear-gradient-6"/><linearGradient id="linear-gradient-72" x1="-4352.25" y1="306.4" x2="-4326.12" y2="406.36" gradientTransform="matrix(-1, 0, 0, 1, -4244.8, 0)" xlink:href="#linear-gradient-8"/><linearGradient id="linear-gradient-73" x1="-4355.93" y1="292.34" x2="-4318.47" y2="435.62" gradientTransform="matrix(-1, 0, 0, 1, -4244.8, 0)" xlink:href="#linear-gradient-8"/><linearGradient id="linear-gradient-74" x1="-4893.84" y1="-695.26" x2="-4896.91" y2="-687.15" gradientTransform="matrix(0, -1, -1, 0, -576.97, -4524.09)" xlink:href="#linear-gradient-8"/><linearGradient id="linear-gradient-75" x1="-4881.8" y1="-687.78" x2="-4884.87" y2="-679.67" gradientTransform="matrix(0, -1, -1, 0, -583.49, -4509.8)" xlink:href="#linear-gradient-8"/><linearGradient id="linear-gradient-76" x1="-3382.88" y1="1094.47" x2="-3385.94" y2="1102.58" gradientTransform="matrix(-1, 0, 0, 1, -3303.64, -739.24)" xlink:href="#linear-gradient-8"/><linearGradient id="linear-gradient-77" x1="-3378.98" y1="1100.97" x2="-3382.05" y2="1109.08" gradientTransform="matrix(-1, 0, 0, 1, -3300.89, -738.25)" xlink:href="#linear-gradient-8"/><linearGradient id="linear-gradient-78" x1="-3365.61" y1="1100.99" x2="-3368.67" y2="1109.11" gradientTransform="matrix(-1, 0, 0, 1, -3296.89, -735.04)" xlink:href="#linear-gradient-8"/><linearGradient id="linear-gradient-79" x1="-4201.39" y1="459.41" x2="-4204.46" y2="467.52" gradientTransform="matrix(-1, 0, 0, 1, -4137.49, -88.06)" xlink:href="#linear-gradient-8"/><linearGradient id="linear-gradient-80" x1="374.08" y1="154.08" x2="352.33" y2="134.9" gradientTransform="matrix(1, 0, 0, 1, 0, 0)" xlink:href="#linear-gradient-2"/></defs><title>Asset 13</title><g id="Layer_2" data-name="Layer 2"><g id="Layer_1-2" data-name="Layer 1"><g id="_13" data-name="13"><path class="cls-1" d="M468.47,121.66c-124.28.75-200-97-259.12-115.83C120.53-22.42,3.39,50.69,78.94,252.91S193.62,506.57,329.69,523.82c108.88,13.81,204.76-65.32,243-128.47C632.4,296.56,592.74,120.91,468.47,121.66Z"/><polygon class="cls-2" points="0 524.04 581.03 524.04 541.16 513.7 36.78 513.7 0 524.04"/><path class="cls-3" d="M290.05,4.79s73.29,11.62,93.13,12.46,49.54,2,47.52,34.47-6.6,38.56-35.5,40.93c-23.36,1.92-112.29-56-118-68.83S275.8,8.64,279.4,6.22,290.05,4.79,290.05,4.79Z"/><path class="cls-4" d="M120.78,356.68V245.87H188V103.36l34.22-27.67,36,29.09V245.87h84.63V133.05h30.59l53.83,43.52h78v90.75H598.9c4.28,44.66-4.22,91.58-26.27,128a228.27,228.27,0,0,1-13.22,19.4H150.55C140.55,398,130.77,378.81,120.78,356.68Z"/><path class="cls-5" d="M506.78,485.94l5,28s-17.42.41-21.22,1-21.62,0-21.62,0-.71,0,0-3.09,13.42-6.18,16.63-6.89h0a5,5,0,0,0,3.81-3.94l1.53-8.17Z"/><path class="cls-6" d="M538.1,474.82l11.73,12.63s-12.37,19-14.93,21.13-14.42,7.53-17.37,6.76-3.34-3.8-1.49-6.81,7.89-8.54,9-10.7-.13-15-.13-15Z"/><path class="cls-7" d="M471.72,282.26l2.49,102.29s49.12,102.34,50.15,103.94,7.06,2.4,14.08-.8,6.27-7.48,6.27-7.48L513.87,373.13l30.86-94.94Z"/><path class="cls-8" d="M471.72,282.26l2.49,102.29,11.69,24.34a25.6,25.6,0,0,0,9.17-2.81c14.29-7.27,13,12.54,20.06,29.08,4.79,11.29,18.69,35.78,27,50.19,3-2.62,2.55-5.15,2.55-5.15L513.87,373.13l30.86-94.94Z"/><path class="cls-9" d="M546.54,266.5s2.33.23,3.1,17.78-.42,38-11.25,50.31-45.58,57.88-45.58,57.88l16.54,92.81s-.9,4.87-7.71,7.81S490,494.9,490,494.9s-29.76-95.36-25.73-114.2,26-111.27,26-111.27Z"/><path class="cls-10" d="M396.48,184.67h6.24a1.18,1.18,0,0,1,1.18,1.18v25.1a0,0,0,0,1,0,0h-8.6a0,0,0,0,1,0,0v-25.1a1.18,1.18,0,0,1,1.18-1.18Z" transform="translate(9.68 -18.45) rotate(2.68)"/><polygon class="cls-11" points="394.69 210.73 397.35 216.35 400.09 216.51 403.28 211.13 394.69 210.73"/><rect class="cls-12" x="397.29" y="216.42" width="2.74" height="2.8" transform="translate(10.61 -18.39) rotate(2.68)"/><path class="cls-13" d="M415.61,197.46a19.94,19.94,0,0,0-4.51-6.2c-3.48-3.48-14.86-1.32-16.83,1.13s-.28,2.73,1.5,3.29,7.8-.28,7.8-.28l-.3,13.83a14.32,14.32,0,0,0,7.26-.66c4-1.3,3.48,2.44,3.48,2.44Z"/><path class="cls-14" d="M474.18,152.61s-22.3,62.44-22.33,62.63l0,.19-35.54-18.62s-4.7,4.32-6.39,8.84l-1.69,4.51s25.39,20.12,39.3,25.95,38.22-24.26,38.22-24.26Z"/><path class="cls-15" d="M513.87,149.33s25.82,3.48,31.84,10.37,6.14,15.29,6.14,26.58-5.64,40.62-4.14,62.8,4.14,33.85,4.14,33.85-15.8,16.92-44,12.79-41.09-11.89-41.09-11.89,7.5-53,7.75-61-9.36-21.9-9.07-30.93,2.86-31.84,6.27-36.18l3.42-4.34Z"/><path class="cls-16" d="M479.55,147.46a13.06,13.06,0,0,0-4.42,3.94c-2.44,3.1,1.82,8.12,8.52,7.05a7.89,7.89,0,0,0,5-2.55,8.19,8.19,0,0,0,3.32,6.24c2.57,2.12,6.4,4.48,13.79-1.44s8.14-11.38,8.14-11.38L505.72,148Z"/><path class="cls-17" d="M480.49,132.61l-.94,14.84s2.81,5,10.93,5.15S505.72,148,505.72,148l-4.62-14.39Z"/><path class="cls-18" d="M452.42,79.7s-6,8.85-.69,28.28c3,11.12,7.7,19.45,9.26,28.74s5.72,10.1,10.24,10.69,20.44-6,26.6-6,13.8,1.48,19.35-2.41c3.12-2.19,4.69-26.93,4.69-26.93l-19.2-37.7L491.23,68Z"/><path class="cls-19" d="M456.6,103.94c2.22,10.65,5,23.49,11.22,34.13s28.94,9.66,35-.49,6.47-24.95,6.47-24.95,7.78-.65,8.88-6.71-.67-14.58-4.52-15.72S507,93.54,507,93.54s-.41-11.3-9.38-17.07-38.75,1.26-40.2,3S454.39,93.29,456.6,103.94Z"/><path class="cls-20" d="M454.23,73.65s-2.67,4.64-2.36,13.55S458,99,467.65,99.86s16.4-2.73,22-2.48,9.34,13.72,9.37,27.71,6.29,15.07,11.76,16,26.65-13.2,13.88-38.78C514.12,81.35,516.81,71.25,499,64s-33,.56-38,3.75S454.23,73.65,454.23,73.65Z"/><path class="cls-21" d="M465.44,113.08s1.13,13.15,1.13,16,3.93.23,5.14,0"/><path class="cls-22" d="M395.06,196.88s3.07.09,4.39,4.13.4,9.69-1.81,9.61-4.94-1.93-5.91-7.35S395.06,196.88,395.06,196.88Z"/><path class="cls-23" d="M553.86,200.23"/><path class="cls-24" d="M537.26,184.57s.63,13.16,0,15.17-41.36,25.94-41.36,25.94l3.9,13.93s25.55-2.76,31.13-4.14,9.72,5.64,4.7,12.41-17.93,8.27-17,15.17-8,12.79-18.11,15.92c-7,2.19-23.93,3.89-33.48,4.71l0,.14s12.88,7.75,41.09,11.89,44-12.79,44-12.79-2.63-11.66-4.14-33.85c-1.49-21.92,4-50.8,4.13-62.37Z"/><path class="cls-25" d="M491.68,260.18s-5.91-42.31-17.24-50.21-14.53,6.54-14.53,6.54H428.12s3.2-14.44,14.53-6.54,17.24,50.21,17.24,50.21Z"/><path class="cls-16" d="M437.45,207.69h-2c-5.54.87-7.3,8.82-7.3,8.82H459.9s1.76-7.94,7.3-8.82Z"/><path class="cls-16" d="M467.21,207.69h2A6.8,6.8,0,0,0,467.21,207.69Z"/><path class="cls-16" d="M435.43,207.69h2A6.8,6.8,0,0,0,435.43,207.69Z"/><path class="cls-26" d="M496.57,226.39s-2.35-2.08-7.9-2.13l-5.55-.05,1,3.17s.76,1.4-3.76,1.9-6.77-2.44-9.59-.94-2.95,4.64,1.19,9,9.9,6.71,17.3,6.21a14.69,14.69,0,0,0,11-6.27Z"/><path class="cls-27" d="M540.28,159.36a7.4,7.4,0,0,1,8.83,3.56,337.67,337.67,0,0,1,14.57,31.55c9.4,23.27-14.63,29.15-33.22,36.43a171,171,0,0,1-30.87,8.71s-4-5.37-3.94-9.65l0-4.28,47.65-24s-11.19-8.36-13.4-21.46,4.52-19,10.33-20.9Z"/><path class="cls-28" d="M543.57,327c-8.59,1.35-18.89,3.71-23.34,7.65C512,342,497.1,378.11,487.13,384s-18.05,11.57-10.34,17.21,6.77,34.41,9.4,49.08c1.94,10.82,14.31,30,20.67,39.38a9.67,9.67,0,0,0,2.64-4.43L493,392.47s34.74-45.52,45.58-57.88A36.1,36.1,0,0,0,543.57,327Z"/><polygon class="cls-29" points="328.31 504.14 251.68 513.71 334.6 513.71 334.6 504.14 328.31 504.14"/><polygon class="cls-30" points="340.88 504.14 417.51 513.71 334.6 513.71 334.6 504.14 340.88 504.14"/><rect class="cls-31" x="328.31" y="388.03" width="12.55" height="116.11"/><rect class="cls-32" x="323.07" y="394" width="23.03" height="21.45"/><polygon class="cls-33" points="217.65 513.7 229.57 513.7 182.96 339.73 171.04 339.73 217.65 513.7"/><polygon class="cls-34" points="124.07 513.7 112.14 513.7 158.75 339.73 170.68 339.73 124.07 513.7"/><polygon class="cls-35" points="493.58 513.7 505.51 513.7 458.89 339.73 446.97 339.73 493.58 513.7"/><polygon class="cls-36" points="400 513.7 388.08 513.7 434.69 339.73 446.61 339.73 400 513.7"/><polygon class="cls-37" points="157.83 513.7 169.75 513.7 123.14 339.73 111.21 339.73 157.83 513.7"/><path class="cls-38" d="M301,495s1.87,8.53,2,11.81a24.28,24.28,0,0,1-1,6.87H248.61s-7,.38-8.77-2.31.95-5.53,8.07-8.36c11.75-4.68,31.33-8,31.33-8l2.34-11.34Z"/><path class="cls-39" d="M208.92,495s1.87,8.53,2,11.81a24.28,24.28,0,0,1-1,6.87H156.54s-7,.38-8.77-2.31.95-5.53,8.07-8.36c11.75-4.68,31.33-8,31.33-8l2.34-11.34Z"/><rect class="cls-40" x="224.82" y="377.8" width="26.86" height="12.05"/><path class="cls-41" d="M429.47,239.45H318c-2.71,0-4.92,2.64-4.93,5.93h0v.19a415.71,415.71,0,0,1-3,43.48,275.5,275.5,0,0,1-6.26,34.49c-2.87,11.2-6.65,21.5-11.33,29.16A69.07,69.07,0,0,1,272,374c-8.26,5.46-17.57,8.76-26.89,8.76a38.84,38.84,0,0,1-18.23-4.53c-2.49-1.3-5.38.08-6.46,3.1s.07,6.52,2.56,7.82a47.33,47.33,0,0,0,19.64,5.44l.14.07H354.47L404,364.78l16.28-27.93,10-75.27Z"/><path class="cls-42" d="M314.25,225.06,261.47,302.3l-57.64,11.63,3.25,15.19s64.44-.35,70.4-1.75,53-62.78,53-62.78Z"/><path class="cls-43" d="M275.62,348.41c-17.19,2.46-26.07,4.21-33.55,13.68s-56.39,125.56-56.39,125.56,7,5.93,15.66,6.65l8.7.72,61.73-105.93Z"/><path class="cls-44" d="M248.08,372.26c1.93,17.19-2.48,36.83-4.4,46.82s-35.06,41.39-42.43,58a89.63,89.63,0,0,0-5.51,16,24.37,24.37,0,0,0,5.58,1.17l8.7.72,61.73-105.93,3.86-40.68c-10.49,1.5-17.88,2.75-23.76,5.64A29.69,29.69,0,0,0,248.08,372.26Z"/><path class="cls-45" d="M370.31,208.07s19.79,5.87,29.06,17-11.76,141.16-11.76,141.16l-6.61-.76-93-10.62s12.48-117.6,22.48-127.43,26.33-16.05,26.33-16.05Z"/><path class="cls-46" d="M301,353.55a5.42,5.42,0,0,1,4.82,3.29l11.54,1.32A5.41,5.41,0,0,1,328,359.37l10.93,1.25c0-.18,0-.35,0-.53a5.44,5.44,0,1,1,10.61,1.73l11.64,1.33a5.38,5.38,0,0,1-.52-2.43,5.44,5.44,0,1,1,9.72,3.48l10.84,1.24,3.32.38a5.41,5.41,0,0,1,4.84-9.5c.5-3.3,1.11-7.3,1.78-11.84a5.43,5.43,0,1,1,1.23-8.47c5.59-39.13,13.6-103.31,7.21-111s-17.79-12.84-24.25-15.32a5.4,5.4,0,0,1-10-1.17l-12.15,1.2a5.38,5.38,0,0,1-8,.79l-8.18.81s-16.33,6.22-26.33,16.05a6,6,0,0,0-.68.85,5.39,5.39,0,0,1-1.31,2.41,81.66,81.66,0,0,0-4,13.12,5.42,5.42,0,1,1-2.29,10.52c-.8,4-1.59,8.33-2.37,12.83a5.42,5.42,0,1,1-1.19,7.09c-5.93,36.46-10.61,80.61-10.61,80.61l8.28.95A5.43,5.43,0,0,1,301,353.55Zm90.79-129.46a5.44,5.44,0,1,1-5.59,5.28A5.44,5.44,0,0,1,391.82,224.09Zm-.65,22.17a5.44,5.44,0,1,1-5.59,5.28A5.44,5.44,0,0,1,391.17,246.26Zm-.65,22.17a5.44,5.44,0,1,1-5.59,5.28A5.44,5.44,0,0,1,390.53,268.43Zm-.65,22.17a5.44,5.44,0,1,1-5.59,5.28A5.44,5.44,0,0,1,389.88,290.59Zm-.65,22.17a5.44,5.44,0,1,1-5.59,5.28A5.44,5.44,0,0,1,389.24,312.76Zm-19.15-89.3a5.44,5.44,0,1,1-5.59,5.28A5.44,5.44,0,0,1,370.08,223.46Zm-.65,22.17a5.44,5.44,0,1,1-5.59,5.28A5.44,5.44,0,0,1,369.44,245.63Zm-.65,22.17a5.44,5.44,0,1,1-5.59,5.28A5.44,5.44,0,0,1,368.79,267.79ZM368.15,290a5.44,5.44,0,1,1-5.59,5.28A5.44,5.44,0,0,1,368.15,290Zm-.65,22.17a5.44,5.44,0,1,1-5.59,5.28A5.44,5.44,0,0,1,367.5,312.13Zm-.63,21.59a5.44,5.44,0,1,1-5.59,5.28A5.44,5.44,0,0,1,366.87,333.72ZM348.35,222.83a5.44,5.44,0,1,1-5.59,5.28A5.44,5.44,0,0,1,348.35,222.83ZM347.7,245a5.44,5.44,0,1,1-5.59,5.28A5.44,5.44,0,0,1,347.7,245Zm-.65,22.17a5.44,5.44,0,1,1-5.59,5.28A5.44,5.44,0,0,1,347.06,267.16Zm-.65,22.17a5.44,5.44,0,1,1-5.59,5.28A5.44,5.44,0,0,1,346.41,289.33Zm-.65,22.17a5.44,5.44,0,1,1-5.59,5.28A5.44,5.44,0,0,1,345.76,311.49Zm-.63,21.59a5.44,5.44,0,1,1-5.59,5.28A5.44,5.44,0,0,1,345.14,333.08ZM326.61,222.19a5.44,5.44,0,1,1-5.59,5.28A5.44,5.44,0,0,1,326.61,222.19ZM326,244.36a5.44,5.44,0,1,1-5.59,5.28A5.44,5.44,0,0,1,326,244.36Zm-.65,22.17a5.44,5.44,0,1,1-5.59,5.28A5.44,5.44,0,0,1,325.32,266.53Zm-.65,22.17a5.44,5.44,0,1,1-5.59,5.28A5.44,5.44,0,0,1,324.67,288.69ZM324,310.86a5.44,5.44,0,1,1-5.59,5.28A5.44,5.44,0,0,1,324,310.86Zm-.63,21.59a5.44,5.44,0,1,1-5.59,5.28A5.44,5.44,0,0,1,323.4,332.45Zm-20.46-44.39a5.44,5.44,0,1,1-5.59,5.28A5.44,5.44,0,0,1,302.94,288.06Zm-.65,22.17a5.44,5.44,0,1,1-5.59,5.28A5.44,5.44,0,0,1,302.29,310.23Zm-.63,21.59a5.44,5.44,0,1,1-5.59,5.28A5.44,5.44,0,0,1,301.66,331.82Z"/><path class="cls-47" d="M373.34,248.34s6.44,11.69,6.09,20.1c-1.61,39.16-89.45,69-89.45,69l-2,17.39,99.61,11.37,14.52-94.15Z"/><path class="cls-48" d="M385.31,366s-80.58-35.25-112.78-19.65C248.35,358,278.84,494,278.84,494s9.09,4.21,16.29,3.51l7.2-.7,5.19-118.82,48.58,10.62,26.83-10.17Z"/><path class="cls-49" d="M383,378.4,385.34,366a389.29,389.29,0,0,0-37.25-13.58c-1.36,3.32-3.22,7-5.29,8.72-4.2,3.45-43.13-3.45-53.83,0s-2.28,10.87,3.86,19.44-8.07,27.15-3.86,50.65l4.21,23.5,1.42,42.82.56,0,7.2-.7,5.19-118.82,48.58,10.62Z"/><path class="cls-50" d="M353.77,311.06a48.15,48.15,0,0,0-14.48-.53c-7.58,1-11.88,7.86-11.88,7.86s22.22,6.17,25.57,6.26,8.48-2.78,8.48-2.78Z"/><rect class="cls-51" x="307.48" y="377.8" width="26.86" height="12.61"/><path class="cls-52" d="M400,225.93s29.16,56.5,28.16,65.81-67.89,31.55-67.89,31.55-7.49-11.53-7.8-13.2c-.44-2.35,46.64-28,46.64-28s-24.9-24.42-26.66-37.29S382.53,223,390,223,400,225.93,400,225.93Z"/><path class="cls-53" d="M422.45,245.37v.19a415.74,415.74,0,0,1-3,43.48,275.5,275.5,0,0,1-6.26,34.49c-2.87,11.2-6.65,21.5-11.33,29.16A69.07,69.07,0,0,1,381.36,374c-8.26,5.46-17.57,8.76-26.89,8.76a38.84,38.84,0,0,1-18.23-4.53c-2.49-1.3-5.38.08-6.46,3.1s.07,6.52,2.56,7.82a47.23,47.23,0,0,0,22.12,5.51c11.24,0,22.09-3.93,31.6-10.21a79.67,79.67,0,0,0,23.7-24.73c5.82-9.56,10-21.42,13.11-33.86,4.68-18.65,7-38.66,8.18-54.1s1.22-26.26,1.22-26.39c0-3.29-2.18-6-4.89-6s-4.92,2.64-4.93,5.93Z"/><path class="cls-16" d="M342.26,208.07l-5.44,3.3s-1.52,1.67,3.45,6.22,11.5,4,18.4.88,11.64-10.4,11.64-10.4L366,207Z"/><path class="cls-54" d="M338.74,191.07l3.52,17s2.53,3.22,9.66,3.3S366,207,366,207l.21-17.31Z"/><path class="cls-55" d="M329.33,129.64s-1.58,24.29-1.86,32.79,10.21,10.67,10.21,10.67l15.4-16.1-6.8-25.38Z"/><path class="cls-56" d="M329.41,158.64c.5,9.57,1.18,21.13,5.19,31.24s23.92,12.31,30.58,4.28,9-20.86,9-20.86,6.86.48,8.64-4.65,1.37-12.79-1.83-14.3-6.25,2-6.25,2,1.16-9.9-5.88-16.13-33.93-4.11-35.42-2.83S328.91,149.07,329.41,158.64Z"/><path class="cls-57" d="M370.17,168.91s2.56-12.29,1.63-17.84-4-9.23-10.36-11.46-24.6-.09-28.68-1.27-6.42-3.14-5-11.21,13.06-19.4,29.55-17.7,24.31,9.13,29.72,14.12,2.06,18.61.58,30-5.47,27-8.86,32.45-10.86,4.22-10.86,4.22l6.14-18s2.74,1.22,5.91-2.51,4.43-10.32,2.6-13.5-6.92-2.43-8.54,1.66S370.17,168.91,370.17,168.91Z"/><polygon class="cls-58" points="428.52 325.7 377.82 325.7 392 257.79 442.7 257.79 428.52 325.7"/><polygon class="cls-59" points="432.97 325.7 381.35 325.7 395.78 257.79 447.4 257.79 432.97 325.7"/><polygon class="cls-58" points="421.15 278.9 438.31 325.7 411.2 325.7 418.43 278.9 421.15 278.9"/><polygon class="cls-60" points="418.43 278.9 435.6 325.7 408.48 325.7 418.43 278.9"/><polygon class="cls-61" points="330.52 320.89 355.02 325.63 343.9 325.7 330.52 325.7 330.52 320.89"/><polygon class="cls-60" points="330.97 321.44 354.83 325.63 354.83 322.24 330.97 318.05 330.97 321.44"/><path class="cls-58" d="M252,318c-1.54,0-2.79,1.71-2.79,3.83s1.25,3.83,2.79,3.83H331.1V318Z"/><polygon class="cls-62" points="64.24 513.7 52.32 513.7 98.93 339.73 110.86 339.73 64.24 513.7"/><path class="cls-63" d="M81.47,377.8c3.81,27.15-1.09,52.46-11.79,69.81-15.06-13.73-26.73-36.72-30.54-63.87s1.09-52.46,11.79-69.81C66,327.66,77.66,350.65,81.47,377.8Z"/><path class="cls-64" d="M47.18,373.47A320.5,320.5,0,0,1,58,411.11c5.05,22.21,3.78,48.63,3.78,48.63"/><path class="cls-64" d="M75,366.22s-3,25.49-6.78,45.13-6.28,45.59-6.28,45.59"/><path class="cls-64" d="M81.08,409S75,425.61,70.56,436.36s-8.61,21.82-8.61,21.82"/><path class="cls-65" d="M57.2,268.11c2.5,18.28-.86,35.3-8.1,46.94-10.1-9.28-17.9-24.77-20.4-43s.86-35.3,8.1-46.94C46.9,234.34,54.71,249.83,57.2,268.11Z"/><path class="cls-66" d="M77.08,310.23c-1-21.26-2.37-59.64-3.18-82,14.75,18.27,24.22,46.25,24.22,77.66,0,31.05-9.25,58.74-23.71,77C76,361.45,78,329.59,77.08,310.23Z"/><path class="cls-67" d="M48.43,305.88c0-31.87,9.73-60.22,24.85-78.46.21.26.42.54.63.8.81,22.37,2.23,60.75,3.18,82C78,329.59,76,361.45,74.41,382.9c-.38.48-.75,1-1.13,1.45C58.15,366.1,48.43,337.75,48.43,305.88Z"/><path class="cls-68" d="M46.19,340.11c8.23,18.17,10,36.84,6.11,51.15-13.33-6.49-26.2-20.14-34.44-38.31s-10-36.84-6.11-51.15C25.08,308.29,38,321.94,46.19,340.11Z"/><polygon class="cls-69" points="34.45 513.63 89.15 513.63 97.27 442.74 26.33 442.74 34.45 513.63"/><polygon class="cls-70" points="97.27 442.74 89.15 513.63 68.22 513.63 74.28 442.74 97.27 442.74"/><rect class="cls-71" x="23.56" y="440.72" width="76.48" height="17.47" transform="translate(123.6 898.9) rotate(-180)"/><ellipse class="cls-72" cx="72.18" cy="315.26" rx="2.82" ry="5.02"/><ellipse class="cls-73" cx="65.68" cy="320.81" rx="2.82" ry="5.02" transform="translate(-207.61 140.4) rotate(-45)"/><ellipse class="cls-74" cx="66.59" cy="347.48" rx="3.87" ry="6.89" transform="translate(-226.2 148.86) rotate(-45)"/><ellipse class="cls-75" cx="68.18" cy="361.24" rx="3.87" ry="6.89" transform="translate(-146.13 62.55) rotate(-24.97)"/><rect class="cls-76" x="52.32" y="325.7" width="454.55" height="14.03" transform="translate(559.19 665.44) rotate(-180)"/><rect class="cls-61" x="423.23" y="325.7" width="83.64" height="14.03" transform="translate(930.09 665.44) rotate(-180)"/><rect class="cls-77" x="52.32" y="335.17" width="454.55" height="4.56" transform="translate(559.19 674.91) rotate(-180)"/><rect class="cls-58" x="423.63" y="335.17" width="83.24" height="4.56" transform="translate(930.49 674.91) rotate(-180)"/><polygon class="cls-78" points="435.65 513.7 447.57 513.7 400.96 339.73 389.04 339.73 435.65 513.7"/><polygon class="cls-79" points="342.07 513.7 330.14 513.7 376.75 339.73 388.68 339.73 342.07 513.7"/><path class="cls-61" d="M208.86,322.25H275.3a0,0,0,0,1,0,0v3.45a0,0,0,0,1,0,0h-64a2.4,2.4,0,0,1-2.4-2.4v-1A0,0,0,0,1,208.86,322.25Z" transform="translate(484.16 647.96) rotate(-180)"/><path class="cls-58" d="M162.22,300.06h155a4.92,4.92,0,0,0,5-5.46l-8.71-99.52a6.08,6.08,0,0,0-5.94-5.46h-155a4.92,4.92,0,0,0-5,5.46l8.71,99.52A6.08,6.08,0,0,0,162.22,300.06Z"/><path class="cls-80" d="M157.94,300.06h155a4.92,4.92,0,0,0,5-5.46l-8.71-99.52a6.08,6.08,0,0,0-5.94-5.46h-155a4.92,4.92,0,0,0-5,5.46L152,294.6A6.08,6.08,0,0,0,157.94,300.06Z"/><path class="cls-60" d="M162.63,325.7a1.28,1.28,0,0,1-1.06-2,19.5,19.5,0,0,1,31.73,0,1.28,1.28,0,0,1-1.06,2Z"/><path class="cls-58" d="M179.74,322.69a26.81,26.81,0,0,0-4.74-7,19.69,19.69,0,0,1,2.42-.15,19.48,19.48,0,0,1,15.86,8.16,1.28,1.28,0,0,1-1.06,2H178.68C179.71,325.7,180.34,323.95,179.74,322.69Z"/><path class="cls-81" d="M114.44,376.07c-8.73,22-23.21,38.95-38.66,47.41,21.38-24.16,43-108.43,43-108.43C124.21,331.8,123.17,354.05,114.44,376.07Z"/><path class="cls-82" d="M80.11,362.46c8.73-22,23.21-38.95,38.66-47.41,0,0-21.59,84.27-43,108.43C70.34,406.74,71.38,384.48,80.11,362.46Z"/><path class="cls-83" d="M80.11,362.46c8.73-22,23.21-38.95,38.66-47.41,0,0-21.59,84.27-43,108.43C70.34,406.74,71.38,384.48,80.11,362.46Z"/><ellipse class="cls-84" cx="95.08" cy="378.52" rx="3.88" ry="2.17" transform="translate(-290.78 319.96) rotate(-67.27)"/><ellipse class="cls-85" cx="81.08" cy="380.77" rx="3.88" ry="2.17" transform="translate(-301.44 308.43) rotate(-67.27)"/><ellipse class="cls-86" cx="88.79" cy="380.53" rx="2.17" ry="3.88" transform="translate(-137.59 62.04) rotate(-22.27)"/><ellipse class="cls-87" cx="87.65" cy="388.03" rx="2.17" ry="3.88" transform="translate(-140.51 62.16) rotate(-22.27)"/><ellipse class="cls-88" cx="81.5" cy="399.78" rx="2.98" ry="5.32" transform="translate(-145.43 60.71) rotate(-22.27)"/><ellipse class="cls-89" cx="78.52" cy="410.05" rx="2.98" ry="5.32" transform="matrix(1, -0.04, 0.04, 1, -15.98, 3.39)"/><polygon class="cls-61" points="226.1 325.7 187.63 325.7 216.75 238.56 243.69 238.56 226.1 325.7"/><polygon class="cls-58" points="223.07 325.7 184.6 325.7 213.72 238.56 240.66 238.56 223.07 325.7"/><path class="cls-11" d="M228.33,215.57a9.62,9.62,0,0,1-.37-2.74,5.72,5.72,0,0,0-2.9.33c-3.57,1.4-5.44,6-4.18,10.29s5.18,6.63,8.74,5.24c2.81-1.1,4.54-4.19,4.54-7.55A7.45,7.45,0,0,1,228.33,215.57Z"/><path class="cls-21" d="M338.36,162.11s-2.16,12.22-1.76,15.26,8.27.82,8.27.82"/><path class="cls-90" d="M370.31,128.91c-8.59-3.33-34.55,4.38-38.23.78-1.14-1.12-2-3.74-2.71-6.83a14.47,14.47,0,0,0-1.61,4.33c-1.42,8.07.92,10,5,11.21s22.33-1,28.68,1.27,9.43,5.91,10.36,11.46S370.17,169,370.17,169,378.91,132.24,370.31,128.91Z"/><ellipse class="cls-60" cx="331.1" cy="321.88" rx="2.79" ry="3.83"/><path class="cls-21" d="M375.35,161.4s2.32-1.56,3.09.53.69,4.11-2,5.39a1.89,1.89,0,0,1-2.39-.78"/></g></g></g></svg>