<svg width="120" height="72" viewBox="0 0 120 72" fill="none" xmlns="http://www.w3.org/2000/svg">
<path fill-rule="evenodd" clip-rule="evenodd" d="M106.651 9.86652C106.749 11.7224 106.75 13.5809 106.809 15.4382C106.865 17.2407 107.018 19.0392 107.061 20.8417C107.106 22.7719 107.148 24.7034 107.187 26.6336C107.226 28.5719 107.243 30.5075 107.348 32.4448C107.444 34.211 107.532 35.9755 107.588 37.7447C107.647 39.564 107.661 41.3848 107.674 43.2055C107.686 44.9202 107.69 46.6359 107.7 48.3502C107.705 49.1361 107.709 49.9232 107.714 50.7088C107.719 51.6317 107.733 52.5859 107.912 53.4948C108.006 53.8293 108.175 54.1209 108.421 54.3672C108.79 54.7372 109.298 54.9473 109.82 54.9473C110.651 54.9473 111.559 54.3493 111.729 53.4948C111.801 53.1291 111.803 52.8447 111.773 52.4919C111.759 52.3238 111.75 52.1545 111.74 51.9849C111.713 51.541 111.713 51.0953 111.716 50.65C111.719 49.7468 111.726 48.8432 111.73 47.94C111.739 46.0783 111.741 44.2185 111.737 42.3568C111.731 40.4575 111.703 38.5586 111.636 36.6607C111.57 34.8242 111.443 32.9923 111.371 31.1575C111.298 29.3142 111.293 27.4669 111.244 25.6221C111.198 23.8224 111.172 22.021 111.104 20.2214C111.038 18.472 110.901 16.7254 110.839 14.976C110.78 13.2728 110.776 11.5682 110.686 9.86652C110.657 9.3215 110.487 8.83278 110.095 8.44052C109.718 8.06403 109.201 7.84961 108.668 7.84961C107.612 7.84961 106.593 8.76717 106.651 9.86652Z" fill="#2C2C2C"/>
<path fill-rule="evenodd" clip-rule="evenodd" d="M64.4242 9.86652C64.5221 11.7224 64.5236 13.5809 64.5824 15.4382C64.6387 17.2407 64.7911 19.0392 64.8349 20.8417C64.8797 22.7719 64.9217 24.7034 64.9608 26.6336C64.9999 28.5719 65.0168 30.5075 65.1219 32.4448C65.2173 34.211 65.3055 35.9755 65.3615 37.7447C65.4203 39.564 65.4343 41.3848 65.4472 43.2055C65.4598 44.9202 65.4637 46.6359 65.4737 48.3502C65.478 49.1361 65.482 49.9232 65.4877 50.7088C65.492 51.6317 65.506 52.5859 65.6854 53.4948C65.779 53.8293 65.9487 54.1209 66.194 54.3672C66.5638 54.7372 67.071 54.9473 67.5937 54.9473C68.4244 54.9473 69.3326 54.3493 69.502 53.4948C69.5748 53.1291 69.5762 52.8447 69.5468 52.4919C69.5328 52.3238 69.5231 52.1545 69.5134 51.9849C69.4865 51.541 69.4865 51.0953 69.4894 50.65C69.4923 49.7468 69.4991 48.8432 69.5034 47.94C69.512 46.0783 69.5145 44.2185 69.5106 42.3568C69.5048 40.4575 69.4768 38.5586 69.4094 36.6607C69.3438 34.8242 69.2161 32.9923 69.1447 31.1575C69.0719 29.3142 69.0661 27.4669 69.0173 25.6221C68.9711 23.8224 68.9456 22.021 68.8771 20.2214C68.8111 18.472 68.6741 16.7254 68.6124 14.976C68.5535 13.2728 68.5492 11.5682 68.4596 9.86652C68.4302 9.3215 68.2605 8.83278 67.8684 8.44052C67.4914 8.06403 66.9742 7.84961 66.4419 7.84961C65.3855 7.84961 64.3668 8.76717 64.4242 9.86652Z" fill="#2C2C2C"/>
<path fill-rule="evenodd" clip-rule="evenodd" d="M85.9711 9.52912C85.9711 11.3402 85.9252 13.1469 85.878 14.9554C85.8308 16.7945 85.8212 18.6336 85.8088 20.4712C85.8017 21.3967 85.8017 22.3218 85.8269 23.2455C85.8532 24.1918 85.9324 25.1381 85.9973 26.0816C86.1195 27.8854 86.2374 29.6925 86.3038 31.4993C86.372 33.3326 86.4164 35.1648 86.4942 36.9971C86.5745 38.9106 86.6828 40.8226 86.7645 42.7365C86.8437 44.5586 86.9477 46.3808 87.0294 48.203C87.1114 50.045 87.056 51.8956 87.3015 53.7249C87.4432 54.7737 87.7983 55.9766 88.9802 56.2447C89.8223 56.4359 90.7713 56.1394 91.2014 55.3311C91.2109 55.3114 91.222 55.293 91.2319 55.2733C91.5721 54.6321 91.5789 53.873 91.2262 53.2638C91.2099 53.1887 91.195 53.1129 91.1815 53.0363C91.1104 52.3326 91.0966 51.6264 91.093 50.9183C91.0888 50.0338 91.0721 49.1493 91.0444 48.2663C90.9876 46.4653 90.8906 44.6668 90.821 42.8669C90.7475 40.9646 90.6434 39.0637 90.5603 37.1613C90.4797 35.3039 90.4257 33.4465 90.3465 31.5891C90.2691 29.764 90.1302 27.9415 89.9914 26.1222C89.9207 25.1971 89.8291 24.2705 89.7946 23.3425C89.7598 22.4368 89.746 21.5315 89.7431 20.6243C89.7388 18.7712 89.7307 16.9192 89.7612 15.0676C89.7903 13.2734 89.8262 11.4807 89.8262 9.68762V9.52912C89.8262 8.46635 88.9497 7.57898 87.8995 7.57898C86.8479 7.57898 85.9711 8.46635 85.9711 9.52912Z" fill="#2C2C2C"/>
<path fill-rule="evenodd" clip-rule="evenodd" d="M46.6833 8.19284C46.1508 8.33947 45.7732 8.67493 45.4711 9.12448C44.4157 10.692 43.3713 12.2706 42.3606 13.8689C41.3668 15.4421 40.4591 17.0597 39.6274 18.7248C38.8139 20.351 38.024 21.9868 37.2188 23.6173C36.3981 25.281 35.6361 26.973 34.8574 28.6564C34.0592 30.3845 33.2622 32.114 32.4945 33.8561C31.7662 35.5115 31.0422 37.1685 30.2745 38.8072C29.524 40.4079 28.7577 41.9991 28.0323 43.6127C27.6561 44.4481 27.2717 45.2807 26.9221 46.1287C26.8244 46.3676 26.7388 46.6108 26.669 46.8593C26.6454 46.9459 26.6243 47.0338 26.6046 47.1222C26.5237 47.4837 26.4844 47.9086 26.5978 48.2705C26.7446 48.7398 27.0495 49.3127 27.5359 49.518C27.5455 49.5233 27.557 49.5276 27.5681 49.5319C27.8784 49.7122 28.2127 49.803 28.572 49.8044C28.931 49.803 29.2667 49.7122 29.577 49.5319C29.8762 49.356 30.1138 49.1171 30.2913 48.8181C30.4205 48.5981 30.5171 48.3249 30.5558 48.0463C30.6252 47.8178 30.7083 47.5918 30.7967 47.37C32.1814 44.2264 33.7171 41.1529 35.1047 38.0107C35.8416 36.3455 36.5645 34.6747 37.3222 33.0178C38.0856 31.3512 38.8572 29.6874 39.6149 28.0194C40.2777 26.5592 41.0017 25.1315 41.695 23.6856C42.3857 22.2468 43.0875 20.812 43.8201 19.394C44.5513 17.9788 45.4096 16.6266 46.2624 15.2826C47.1418 13.8982 48.0605 12.532 48.976 11.1712C49.5941 10.2535 49.1564 8.92778 48.2477 8.39669C47.9359 8.21466 47.5788 8.12024 47.2202 8.12024C47.0398 8.12024 46.8587 8.1442 46.6833 8.19284Z" fill="#2C2C2C"/>
<path fill-rule="evenodd" clip-rule="evenodd" d="M110.717 56.7501C110.87 56.7898 111.019 56.8349 111.168 56.886C111.4 57.0002 111.62 57.1261 111.834 57.2707C111.989 57.4109 112.134 57.5547 112.276 57.7093C112.566 58.1279 112.808 58.569 113.023 59.0316C113.165 59.4273 113.271 59.8273 113.349 60.2391C113.382 60.6549 113.382 61.0652 113.348 61.4799C113.217 62.1522 113 62.7879 112.751 63.4212C112.529 63.8867 112.288 64.336 111.999 64.7625C111.823 64.9625 111.637 65.1468 111.437 65.3214C111.16 65.5035 110.877 65.663 110.579 65.8058C110.052 65.9986 109.516 66.1403 108.963 66.2398C108.44 66.2863 107.924 66.2834 107.396 66.243C107.061 66.1886 106.733 66.1206 106.407 66.0176C106.315 65.9682 106.225 65.916 106.137 65.8602C105.881 65.6276 105.65 65.3772 105.427 65.1117C105.053 64.5954 104.711 64.0509 104.435 63.4774C104.293 63.0785 104.192 62.6767 104.11 62.2613C104.081 61.9693 104.062 61.677 104.069 61.3819C104.077 61.0645 104.099 60.7518 104.132 60.4384C104.231 59.9669 104.36 59.5186 104.523 59.0696C104.64 58.8298 104.767 58.6012 104.916 58.3783C105.129 58.1311 105.354 57.8964 105.596 57.6792C105.755 57.5737 105.918 57.4789 106.087 57.3905C106.221 57.3454 106.356 57.305 106.496 57.2703C106.771 57.202 107.031 57.1204 107.289 57.0184C107.501 57.1937 107.751 57.325 108.02 57.3987C108.561 57.5483 109.049 57.4395 109.542 57.2005C109.767 57.0914 109.992 56.9812 110.219 56.875C110.363 56.8259 110.506 56.7844 110.654 56.7494C110.675 56.7494 110.696 56.7494 110.717 56.7501ZM110.391 52.8052C110.055 52.8457 109.757 52.8947 109.434 52.9755C109.122 53.0539 108.8 53.2049 108.512 53.3333C108.41 53.3791 108.309 53.426 108.208 53.4739C107.68 52.9483 106.888 52.7233 106.116 52.9072C105.705 53.0049 105.302 53.0525 104.901 53.1895C104.071 53.4703 103.392 53.9258 102.719 54.4807C102.204 54.9043 101.756 55.48 101.376 56.0166C100.927 56.647 100.651 57.3694 100.384 58.0921C100.224 58.5282 100.135 58.9823 100.052 59.4366C99.9486 60.0166 99.8898 60.6245 99.8801 61.2144C99.8719 61.681 99.9052 62.1354 99.9654 62.5994C100.045 63.2126 100.142 63.8094 100.348 64.3951C100.861 65.8655 101.722 67.1678 102.749 68.3321C103.56 69.2501 104.645 69.854 105.831 70.1306C106.248 70.2272 106.685 70.258 107.11 70.3138C107.656 70.385 108.204 70.3893 108.753 70.3556C110.018 70.2776 111.233 69.9531 112.391 69.4472C113.01 69.175 113.548 68.8337 114.08 68.4147C114.674 67.9435 115.125 67.3915 115.568 66.7779C116.114 66.0205 116.444 65.1217 116.8 64.2652C117.236 63.2087 117.431 62.0599 117.47 60.9221C117.494 60.2291 117.362 59.5107 117.217 58.837C117.084 58.2152 116.819 57.6309 116.562 57.0538C116.339 56.5547 116.057 56.0825 115.742 55.6367C115.514 55.3165 115.259 55.0134 114.995 54.7226C114.676 54.373 114.26 54.0993 113.881 53.821C113.37 53.4453 112.728 53.2203 112.135 53.0135C111.718 52.8675 111.245 52.782 110.789 52.782C110.654 52.782 110.521 52.7895 110.391 52.8052Z" fill="#2C2C2C"/>
<path fill-rule="evenodd" clip-rule="evenodd" d="M89.8196 57.2801C89.9773 57.3131 90.1311 57.3533 90.2852 57.4036C90.4651 57.4976 90.6368 57.6017 90.806 57.7152C91.3686 58.2001 91.8471 58.7533 92.3223 59.3244C92.716 59.8528 93.0918 60.3848 93.3892 60.9778C93.5695 61.4696 93.6992 61.9693 93.7919 62.4862C93.831 62.9334 93.8418 63.3742 93.8091 63.8208C93.7534 64.09 93.6802 64.3499 93.59 64.6084C93.4474 64.8869 93.2865 65.15 93.1083 65.4067C92.7365 65.8403 92.3288 66.2316 91.8902 66.5956C91.4753 66.8896 91.0489 67.1473 90.5923 67.3717C90.1178 67.5443 89.6389 67.6743 89.1407 67.7705C88.5609 67.8265 87.9836 67.8322 87.4031 67.7805C87.1686 67.7339 86.9426 67.6757 86.7181 67.6007C86.5654 67.5199 86.4189 67.4323 86.2752 67.3376C86.0783 67.161 85.8969 66.9754 85.7252 66.7761C85.4971 66.4384 85.2988 66.0898 85.1228 65.7229C84.908 65.1403 84.7582 64.5498 84.6551 63.9389C84.5858 63.2098 84.5793 62.4775 84.6465 61.7492C84.7122 61.4071 84.7995 61.0794 84.9152 60.7542C85.1465 60.3033 85.421 59.8847 85.7159 59.4759C85.9569 59.2034 86.2116 58.945 86.4623 58.6826C86.7975 58.5943 87.0877 58.4126 87.3701 58.1728C87.5087 58.054 87.647 57.9363 87.7868 57.82C87.9517 57.7105 88.1176 57.6132 88.2919 57.5253C88.6015 57.4258 88.9122 57.3515 89.2301 57.2934C89.4277 57.2805 89.6217 57.2754 89.8196 57.2801ZM89.0484 53.3803C88.6748 53.4252 88.313 53.4855 87.9452 53.5612C87.2296 53.7084 86.5169 54.0139 85.9023 54.4023C85.8696 54.4228 85.8376 54.4436 85.8057 54.4647C85.1372 54.3553 84.4234 54.5437 83.9363 55.0599C83.6205 55.3937 83.2865 55.7093 82.9836 56.0542C82.5206 56.5816 82.1064 57.1523 81.7221 57.7367C81.3546 58.2963 81.0977 58.9076 80.8492 59.5261C80.6135 60.1177 80.5291 60.7725 80.459 61.4007C80.3775 62.1329 80.3735 62.8688 80.4224 63.6022C80.5923 66.1221 81.5101 68.8057 83.5099 70.4591C84.0724 70.9233 84.6393 71.2557 85.3157 71.5249C85.8757 71.7492 86.4228 71.839 87.0206 71.9187C88.3662 72.0996 89.7399 71.9678 91.0507 71.6286C91.7551 71.4463 92.4355 71.1336 93.0795 70.8026C93.7139 70.4774 94.275 70.0158 94.8307 69.5757C95.2755 69.2236 95.6728 68.8172 96.0474 68.3936C96.5482 67.8286 96.9818 67.1933 97.2961 66.5076C97.5655 65.9214 97.7677 65.3353 97.8701 64.7003C97.984 63.9838 98.0145 63.2996 97.9545 62.5773C97.8324 61.1049 97.4211 59.6579 96.6523 58.3904C96.2579 57.741 95.75 57.1577 95.2798 56.5618C94.7901 55.9394 94.2262 55.3629 93.6212 54.8539C93.1471 54.4558 92.6445 54.1079 92.0777 53.8599C91.7662 53.7238 91.4702 53.6047 91.1459 53.5092C90.7672 53.3972 90.3559 53.3789 89.9644 53.3354C89.8872 53.3265 89.8099 53.3232 89.732 53.3232C89.5031 53.3232 89.2722 53.3538 89.0484 53.3803Z" fill="#2C2C2C"/>
<path fill-rule="evenodd" clip-rule="evenodd" d="M69.1694 57.1914C69.4012 57.2354 69.6259 57.2902 69.8509 57.3612C70.0994 57.4827 70.3335 57.621 70.5639 57.7762C71.0335 58.1753 71.4538 58.6166 71.8491 59.086C72.0929 59.4225 72.3096 59.7665 72.4984 60.1346C72.5926 60.4021 72.6639 60.6718 72.719 60.9493C72.7447 61.3587 72.7324 61.7599 72.6944 62.1678C72.5397 63.0358 72.2849 63.8748 71.9596 64.6967C71.7592 65.1223 71.5357 65.5299 71.2668 65.9172C71.0567 66.1507 70.8357 66.3649 70.5962 66.5678C70.1962 66.8336 69.7839 67.0578 69.3476 67.2582C68.627 67.524 67.8915 67.7209 67.1331 67.8538C66.7813 67.8815 66.4378 67.884 66.0878 67.8588C65.8248 67.8037 65.5712 67.7344 65.3168 67.6488C64.8157 67.4107 64.3447 67.1328 63.8925 66.8148C63.5183 66.5007 63.1762 66.1656 62.8545 65.7993C62.5578 65.3892 62.2994 64.9649 62.0788 64.5108C61.9165 64.0667 61.7951 63.6168 61.7096 63.1524C61.6791 62.7981 61.6723 62.451 61.6947 62.0974C61.7502 61.8512 61.8186 61.6138 61.9031 61.3775C62.0817 61.0382 62.2842 60.7191 62.5041 60.4039C62.5538 60.3442 62.6034 60.2852 62.6545 60.2266C63.0378 59.7782 63.2911 59.323 63.2911 58.7193C63.2911 58.4841 63.2509 58.2517 63.1744 58.0321C63.3201 58.1174 63.4781 58.1845 63.6436 58.2293C64.0922 58.3501 64.7248 58.3238 65.1157 58.0392C65.4541 57.7933 65.7857 57.5655 66.1531 57.379C66.3864 57.3083 66.6183 57.2532 66.8578 57.2102C67.6223 57.1388 68.4034 57.126 69.1694 57.1914ZM68.2121 53.335C67.3204 53.3545 66.4302 53.4323 65.557 53.6182C64.6712 53.8072 63.9027 54.283 63.1864 54.8036C62.769 55.1063 62.452 55.4129 62.3089 55.9239C62.2146 56.259 62.2194 56.6154 62.3175 56.9473C61.4864 56.421 60.2708 56.4562 59.5817 57.2134C59.1585 57.6782 58.7621 58.171 58.4295 58.7054C57.7306 59.834 57.419 61.1359 57.3878 62.4446C57.3737 63.0263 57.4969 63.6371 57.5904 64.2074C57.6683 64.6864 57.8168 65.1511 57.9867 65.6038C58.4665 66.8834 59.2038 68.0023 60.1378 69.0114C60.861 69.7928 61.7755 70.4328 62.7023 70.9601C63.9237 71.6555 65.2896 71.9888 66.6951 71.9998C67.3262 72.0051 67.9759 71.8733 68.5944 71.7596C69.2085 71.6473 69.8103 71.4558 70.3976 71.2475C71.7393 70.7742 72.9705 70.0675 73.9868 69.0793C74.8531 68.2354 75.4147 67.1584 75.8647 66.0618C76.0969 65.4926 76.298 64.918 76.4621 64.3282C76.6603 63.6175 76.7636 62.8873 76.8415 62.1575C76.8936 61.6785 76.8824 61.2052 76.8302 60.7276C76.7875 60.3375 76.7212 59.9573 76.6346 59.5742C76.5527 59.2175 76.3969 58.8845 76.2527 58.5498C75.7686 57.4341 74.9719 56.4832 74.1197 55.6169C73.7262 55.2186 73.2705 54.848 72.8063 54.5317C72.257 54.154 71.6853 53.896 71.0599 53.6573C70.481 53.4366 69.8244 53.3922 69.2114 53.3407C69.0657 53.3279 68.9194 53.3232 68.7723 53.3232C68.5857 53.3232 68.3987 53.3303 68.2121 53.335Z" fill="#2C2C2C"/>
<path fill-rule="evenodd" clip-rule="evenodd" d="M25.9228 50.2871C26.2418 50.3499 26.5499 50.4357 26.8559 50.5455C27.5618 50.894 28.1991 51.3253 28.8252 51.7955C29.1879 52.0939 29.5304 52.4028 29.8411 52.7514C29.9914 52.9763 30.1225 53.2072 30.241 53.4494C30.417 53.9582 30.543 54.4735 30.6359 55.0029C30.6818 55.4763 30.6915 55.9437 30.6586 56.4207C30.5806 56.8191 30.4726 57.2049 30.3353 57.5889C30.0654 58.1583 29.7435 58.6935 29.3761 59.2081C28.8852 59.8028 28.3494 60.339 27.754 60.8302C27.0785 61.3159 26.3707 61.7374 25.616 62.0853C24.9856 62.322 24.3451 62.4974 23.6836 62.6179C23.2801 62.6511 22.8827 62.6544 22.4806 62.623C22.2519 62.5757 22.029 62.5194 21.8061 62.4494C21.6525 62.3711 21.5044 62.2863 21.3585 62.1921C21.0991 61.9615 20.8621 61.7161 20.6367 61.452C20.4036 61.1178 20.1995 60.7714 20.021 60.4044C19.7721 59.7263 19.6143 59.0298 19.495 58.3182C19.4687 58.0187 19.4575 57.726 19.473 57.4261C19.5145 57.2497 19.5612 57.0754 19.611 56.9003C19.702 56.5817 19.7104 56.2569 19.6504 55.948C19.671 55.8971 19.6908 55.8452 19.71 55.7925C19.8379 55.4345 19.9705 55.0769 20.1034 54.7192C20.4401 53.9704 20.8086 53.2538 21.2869 52.5818C21.6283 52.1805 21.9986 51.815 22.4029 51.4769C22.8541 51.1546 23.3234 50.8746 23.8238 50.6342C24.2143 50.4888 24.6092 50.3704 25.0178 50.2885C25.3202 50.2658 25.6193 50.2661 25.9228 50.2871ZM22.9726 46.7834C20.6992 47.6123 18.8224 49.2489 17.5662 51.3015C16.9058 52.3797 16.4669 53.5977 16.0435 54.7831C16.0348 54.8073 16.0272 54.8318 16.02 54.8567C15.7805 55.1108 15.6132 55.4204 15.4961 55.7683C15.4355 55.9476 15.3776 56.1266 15.3253 56.3096C15.3097 56.3691 15.2956 56.4294 15.2801 56.4889C15.2378 56.7903 15.197 57.0909 15.1573 57.3922C15.1504 57.77 15.1786 58.1269 15.2277 58.5004C15.3068 59.0951 15.4073 59.6732 15.5312 60.2597C15.7657 61.3617 16.2357 62.4599 16.8534 63.4017C17.5818 64.511 18.5583 65.5175 19.7494 66.1252C20.9322 66.7296 22.3064 66.9202 23.6204 66.8397C25.1446 66.7452 26.5741 66.2688 27.9513 65.6387C29.1623 65.0848 30.2616 64.2631 31.2565 63.3862C31.6825 63.0098 32.0593 62.5797 32.4191 62.1401C32.9159 61.5339 33.3591 60.8995 33.7457 60.2174C34.0759 59.6321 34.3288 58.9908 34.5405 58.355C34.7547 57.7137 34.8324 57.0259 34.8945 56.3561C34.9581 55.6853 34.8664 55.017 34.7746 54.3544C34.6687 53.5962 34.4993 52.8673 34.2244 52.1513C33.9856 51.5281 33.6976 50.9503 33.2912 50.4202C32.9159 49.9298 32.5322 49.5098 32.0622 49.1106C31.3935 48.5441 30.6579 48.0125 29.9115 47.5502C28.8447 46.8891 27.6464 46.4705 26.4032 46.328C26.1518 46.2995 25.9004 46.2858 25.65 46.2858C24.7374 46.2858 23.835 46.4684 22.9726 46.7834Z" fill="#2C2C2C"/>
<path fill-rule="evenodd" clip-rule="evenodd" d="M78.1445 0.0392327C76.279 0.0520658 74.4181 0.0791988 72.5526 0.151064C68.8331 0.291129 65.1078 0.257029 61.3858 0.252629C57.6184 0.249696 53.8524 0.336961 50.085 0.391594C48.7442 0.410294 47.4044 0.41176 46.0647 0.477392C44.7098 0.544858 43.3574 0.655223 42.0022 0.736622C40.7556 0.811054 39.5087 0.888419 38.2618 0.967251C37.6011 1.01015 36.9389 1.04168 36.2768 1.07468C35.9885 1.08898 35.6992 1.10182 35.411 1.12198C34.9359 1.15352 34.4339 1.17515 33.9812 1.32988C33.4695 1.50441 33.0452 1.79664 32.7681 2.28063C32.504 2.73896 32.3986 3.35935 32.563 3.87341C32.7332 4.40066 33.0186 4.83736 33.4965 5.12225C33.824 5.31842 34.2342 5.42181 34.6124 5.41301C34.7679 5.40935 34.9205 5.38808 35.0677 5.35142C36.6201 5.24508 38.1772 5.20292 39.7307 5.09659C41.5509 4.97192 43.3729 4.88026 45.1934 4.76439C47.0276 4.64669 48.8622 4.64266 50.6979 4.61406C52.5745 4.58399 54.4483 4.55393 56.3236 4.51066C58.7667 4.45346 61.2112 4.45493 63.6558 4.45493C64.9912 4.4564 66.3266 4.4564 67.6621 4.4465C69.5006 4.4333 71.3395 4.38746 73.178 4.31597C75.0954 4.24153 77.0116 4.23163 78.9319 4.21293C80.8377 4.1957 82.7453 4.16857 84.6529 4.18433C86.5084 4.2001 88.3638 4.27747 90.2196 4.33466C92.0218 4.3904 93.8265 4.45493 95.6273 4.55099C97.5194 4.65256 99.4087 4.79739 101.299 4.91766C104.059 5.09512 106.822 5.20255 109.583 5.33565C112.26 5.46471 114.959 5.43905 117.619 5.11932C117.798 5.09512 117.978 5.07092 118.157 5.04635C118.5 4.94772 118.798 4.77136 119.051 4.51506C119.427 4.13117 119.642 3.60281 119.642 3.05685C119.642 2.51273 119.427 1.98437 119.051 1.60047C118.709 1.25251 118.121 0.935719 117.619 0.995851C115.711 1.22501 113.806 1.28955 111.886 1.27085C110.085 1.25398 108.29 1.14912 106.492 1.06772C104.565 0.978985 102.638 0.877053 100.71 0.745422C98.8113 0.617824 96.912 0.463093 95.0101 0.377294C91.2877 0.211197 87.5642 0.0476659 83.8361 0.00623323C83.4406 0.0018333 83.0447 0 82.6492 0C81.1483 0 79.6462 0.0267662 78.1445 0.0392327Z" fill="#2C2C2C"/>
<path fill-rule="evenodd" clip-rule="evenodd" d="M4.64704 36.8437C4.30023 37.1839 4.02001 37.7318 4.06295 38.2269C4.17358 39.5348 4.72237 40.7746 5.29809 41.9443C6.01173 43.3918 7.06782 44.6926 8.17267 45.8681C9.24586 47.01 10.5294 47.9081 11.8686 48.7223C12.7981 49.2885 14.0732 48.9233 14.6151 48.0155C15.1792 47.0699 14.824 45.8863 13.8956 45.3215C13.3891 45.0131 12.8847 44.6997 12.4017 44.3577C11.5404 43.6527 10.7743 42.8617 10.0705 42.0068C9.63962 41.4292 9.24768 40.8345 8.90159 40.2027C8.77131 39.9664 8.65777 39.7226 8.54823 39.4774C8.32478 38.8937 8.14938 38.3072 7.97906 37.7068C7.74179 36.8672 6.94408 36.2708 6.05576 36.2708C5.5299 36.2708 5.01823 36.4785 4.64704 36.8437Z" fill="#2C2C2C"/>
<path fill-rule="evenodd" clip-rule="evenodd" d="M0.556891 47.6667C-0.201484 48.4289 -0.169605 49.6469 0.556891 50.4149C1.42153 51.3284 2.5908 51.9419 3.64105 52.6148C4.32468 53.053 5.04268 53.4091 5.82443 53.6373C6.65188 53.879 7.55265 53.8958 8.40489 53.8345C9.45514 53.7594 10.5068 53.5647 11.5418 53.3713C12.026 53.2823 12.4826 52.8722 12.7235 52.4592C12.9906 52.0003 13.0625 51.4413 12.9226 50.9293C12.7869 50.433 12.4564 50.0019 12.0151 49.7416C11.5266 49.455 11.031 49.4411 10.4916 49.5415C9.98221 49.6359 9.47001 49.7267 8.95711 49.8039C8.3684 49.873 7.78395 49.9121 7.19276 49.8705C6.96996 49.8242 6.75424 49.7669 6.53711 49.6967C5.80672 49.3354 5.13477 48.8501 4.4437 48.4189C3.91237 48.0882 3.4016 47.7389 2.89932 47.3622C2.59788 47.1867 2.27271 47.0977 1.92381 47.0977C1.41338 47.0977 0.918191 47.3035 0.556891 47.6667Z" fill="#2C2C2C"/>
<path fill-rule="evenodd" clip-rule="evenodd" d="M26.6872 59.6453L26.7066 59.6891C26.7 59.6745 26.6934 59.6599 26.6872 59.6453ZM22.7344 59.4909C22.7329 60.4987 23.1155 61.4984 23.9538 62.1477C24.405 62.4954 24.8838 62.7767 25.4098 63.0062C26.2881 63.3908 27.178 63.7452 28.0823 64.0714C28.5552 64.2424 29.1843 64.1159 29.6055 63.8825C30.0468 63.6377 30.3781 63.2316 30.5142 62.7632C30.6543 62.2795 30.5813 61.7526 30.315 61.3204C30.0354 60.8683 29.6326 60.6399 29.1326 60.4594C28.8424 60.3544 28.5545 60.2473 28.265 60.1402C27.6949 59.9075 27.123 59.6683 26.5955 59.3595C26.5371 58.9123 26.3985 58.528 26.043 58.1921C25.682 57.8486 25.1846 57.6542 24.6732 57.6542C23.6156 57.6542 22.7369 58.4898 22.7344 59.4909Z" fill="#2C2C2C"/>
<path fill-rule="evenodd" clip-rule="evenodd" d="M26.5273 56.5715C26.5273 57.6043 27.3893 58.4662 28.4221 58.4662C29.4548 58.4662 30.3168 57.6043 30.3168 56.5715C30.3168 55.5387 29.4548 54.6768 28.4221 54.6768C27.3893 54.6768 26.5273 55.5387 26.5273 56.5715Z" fill="#2C2C2C"/>
</svg>
