<svg width="60" height="78" viewBox="0 0 60 78" fill="none" xmlns="http://www.w3.org/2000/svg">
<path fill-rule="evenodd" clip-rule="evenodd" d="M7.92362 53.7892C7.67474 53.2113 7.44255 52.6262 7.23492 52.0319C7.11079 51.6759 6.97283 51.3228 6.86968 50.9615C6.73856 50.5061 6.60769 50.051 6.47671 49.5967C6.04417 48.09 5.68288 46.5582 5.29991 45.0373C5.08982 44.2056 4.89003 43.374 4.69955 42.5365C4.53539 41.8136 4.39718 41.0823 4.34019 40.3428C4.29162 39.7166 4.28507 39.0887 4.28361 38.4614C4.28373 38.0869 4.55437 37.6799 4.83194 37.4432C4.69331 36.8009 5.01701 36.1166 5.64072 35.7883C6.25334 35.4651 6.98639 35.5174 7.59911 35.8407C7.59139 35.8357 7.58366 35.8307 7.57594 35.8257C7.58918 35.8334 7.60203 35.8414 7.61528 35.8492C7.70856 35.8997 7.7988 35.9559 7.88592 36.0183C8.19533 36.2178 8.49436 36.4282 8.7991 36.6332C9.50802 37.0847 10.225 37.5262 10.8903 38.0276C11.5161 38.4973 12.11 38.9955 12.6539 39.5384C13.227 40.1088 13.786 40.6887 14.3701 41.2527C14.9992 41.8591 15.6365 42.4593 16.2735 43.0595C16.883 43.6351 17.481 44.2206 18.0825 44.8011C18.5258 45.228 18.9813 45.6423 19.4429 46.0519C19.5285 45.9761 19.6244 45.9109 19.733 45.8577C19.9649 45.7444 20.2209 45.7058 20.4671 45.7427C20.5908 45.719 20.7142 45.6939 20.8376 45.6629C21.4487 45.4144 22.0205 45.0594 22.5955 44.7201C23.1273 44.4069 23.6467 44.0699 24.1656 43.7318C24.7128 43.3445 25.2512 42.9416 25.7635 42.4982C26.1723 42.1436 26.5909 41.7881 26.9707 41.3945C27.3336 41.0173 27.697 40.6415 28.0599 40.2646C28.6056 39.6984 29.1298 39.1094 29.6559 38.52C30.6234 37.4129 31.598 36.3146 32.5915 35.235C32.6581 35.1628 32.7394 35.1037 32.8287 35.0569C33.1589 34.4489 33.8358 34.0365 34.5479 34.1239C34.5649 34.126 34.5815 34.1284 34.5981 34.131C35.3099 34.24 36.0332 34.3337 36.7363 34.4908C37.3718 34.6326 38.0072 34.7743 38.6418 34.9233C39.9589 35.234 41.277 35.5341 42.6004 35.8215C45.1816 36.3838 47.8011 36.8076 50.3498 37.5139C51.1044 37.7233 51.868 37.9192 52.5943 38.214C53.1039 38.4206 53.604 38.6566 54.0691 38.9528C54.514 39.2346 54.8958 39.6398 55.1191 40.1231C55.3943 40.722 55.4673 41.361 55.4365 42.0148C55.4055 42.6687 55.2785 43.3192 55.1215 43.9541C54.9686 44.5728 54.8184 45.1961 54.6272 45.8039C54.5109 46.1744 54.3944 46.5437 54.2781 46.9141C54.0317 47.698 53.7754 48.4721 53.5001 49.2451C52.9214 50.8645 52.305 52.4673 51.6618 54.0634C51.3623 54.8082 51.0476 55.5486 50.7321 56.288C50.6545 56.469 50.5763 56.6496 50.4981 56.8303C50.5412 56.8549 50.5843 56.8802 50.6274 56.9049C50.8601 57.0382 51.1607 57.4875 51.2629 57.7239C51.5582 58.4117 51.4559 59.2047 51.0283 59.81C50.7862 60.1536 50.443 60.4002 50.0576 60.524C50.1109 61.0015 50.1664 61.4787 50.2182 61.9565C50.3074 62.7862 50.3783 63.6185 50.4221 64.4524C50.4467 64.912 50.4692 65.3707 50.4864 65.8311C50.5116 66.4629 50.6032 67.1539 50.3235 67.746C50.1422 68.1287 49.9046 68.4312 49.5103 68.6095C49.1737 68.7618 48.792 68.7869 48.4418 68.6821C48.2627 68.8507 48.0481 68.9654 47.8116 68.9956C46.2591 69.1922 44.7332 69.693 43.2074 70.0922C42.3729 70.31 41.5381 70.53 40.7041 70.7516C40.026 70.9321 39.3548 71.1493 38.6823 71.3609C38.0549 71.5962 37.4278 71.8308 36.8076 72.0945C36.1789 72.3625 35.5537 72.6424 34.9284 72.9209C34.2244 73.2341 33.52 73.5438 32.8154 73.8534C32.432 74.0214 32.045 74.1845 31.6668 74.3725C31.6539 74.3944 31.6404 74.4157 31.6267 74.4366C31.3979 74.7797 31.1087 74.9366 30.7611 75.0411C30.6396 75.0784 30.5298 75.1058 30.4051 75.1131C30.1617 75.1576 29.9282 75.129 29.7037 75.0269C29.6835 75.0135 29.6632 75 29.6429 74.9866C29.4832 75.026 29.3176 75.037 29.1521 75.015C28.6669 74.9508 28.2221 74.6994 27.7672 74.5236C27.4233 74.3907 27.0724 74.2821 26.722 74.1709C26.0561 73.9602 25.3766 73.7861 24.7159 73.5569C23.7937 73.2365 22.8921 72.8563 22.0383 72.3599C21.4721 72.031 20.9188 71.6791 20.3698 71.3184C19.8151 70.9533 19.2614 70.5882 18.7071 70.2234C18.2371 69.94 17.7705 69.65 17.2772 69.4173C16.5523 69.0759 15.8005 68.8543 15.0385 68.6341C14.6876 68.5334 14.3796 68.1185 14.2464 67.766C14.1222 67.4373 14.1003 67.0665 14.1792 66.7179C14.0353 66.7417 13.8886 66.7446 13.7394 66.7269C13.4088 66.6411 13.1903 66.596 12.906 66.3971C12.7631 66.3036 12.6386 66.1886 12.5335 66.0503C12.3331 65.8231 12.1963 65.5516 12.0439 65.2906C11.9341 65.1003 11.8286 64.9031 11.738 64.7027C11.5162 64.2115 11.3388 63.7064 11.1771 63.1918C10.8286 62.0873 10.5557 60.9578 10.2614 59.8369C10.1435 59.4327 10.0305 59.0256 9.89 58.6301C9.84576 58.5047 9.80145 58.3794 9.75708 58.2541C9.68912 58.2736 9.62108 58.2928 9.55267 58.3118C9.40069 58.3334 9.24737 58.3402 9.09324 58.3312C8.96006 58.3288 8.8309 58.3245 8.7004 58.2986C8.44612 58.2469 8.19708 58.1783 7.94732 58.1104C7.13191 57.8899 6.25747 57.3452 6.12398 56.4371C6.05399 55.9664 6.23087 55.4856 6.5254 55.1235C6.62552 54.9995 6.73159 54.8822 6.84057 54.767C7.10717 54.4844 7.38898 54.2172 7.66947 53.9488C7.73999 53.8814 7.82766 53.8285 7.92362 53.7892ZM22.085 48.2575C22.6781 48.7372 23.2772 49.2161 23.9027 49.6618C24.2402 49.6762 24.5745 49.6687 24.9103 49.6444C25.1672 49.6066 25.4226 49.5587 25.6631 49.4822C25.9139 49.4026 26.1592 49.3175 26.4039 49.2288C27.4247 48.7837 28.397 48.2826 29.3552 47.746C30.4153 47.1501 31.4822 46.5663 32.5563 45.9898C33.4343 45.5179 34.343 45.0878 35.2337 44.6348C35.91 44.2918 36.5861 43.9484 37.2608 43.605C38.3642 43.0438 39.4144 42.3912 40.4144 41.7034C41.3755 41.0126 42.3018 40.286 43.2217 39.5538C42.8388 39.4736 42.4561 39.3923 42.0737 39.309C40.7364 39.017 39.4033 38.7115 38.0725 38.3966C37.4753 38.2562 36.8776 38.1009 36.2756 37.9898C35.5749 37.8603 34.8723 37.7442 34.1679 37.6346C34.1331 37.6293 34.0985 37.6229 34.0643 37.6157C33.755 37.952 33.4469 38.2892 33.1387 38.6274C32.3108 39.5622 31.4882 40.502 30.6571 41.4329C30.2693 41.8676 29.8747 42.289 29.4721 42.7072C28.7834 43.4226 28.0986 44.1282 27.3477 44.7667C26.0224 45.896 24.5634 46.8325 23.0885 47.6938C22.7589 47.8864 22.4283 48.0914 22.085 48.2575ZM49.1336 40.8225C49.143 40.9612 49.1508 41.0999 49.1565 41.2388C49.187 41.993 49.2184 42.7475 49.2474 43.5024C49.3036 44.9307 49.4114 46.3539 49.5042 47.7797C49.5479 48.4415 49.5813 49.1036 49.6075 49.7659C49.8519 49.1047 50.0887 48.4407 50.3246 47.7766C50.7905 46.4671 51.2162 45.1404 51.5855 43.8C51.7537 43.1367 51.902 42.4636 51.9522 41.7812C51.0914 41.3711 50.1756 41.1065 49.2575 40.8525C49.2162 40.8425 49.1749 40.8325 49.1336 40.8225ZM46.7038 56.8531C46.6756 56.1052 46.6575 55.357 46.6553 54.6063C46.6512 53.3415 46.6376 52.0774 46.6143 50.8133C46.5275 48.9523 46.3924 47.0972 46.2918 45.2371C46.2396 44.2759 46.207 43.3138 46.1671 42.3514C46.1564 42.0851 46.1423 41.8195 46.1249 41.5543C45.9264 41.7128 45.7277 41.871 45.5278 42.0276C44.3871 42.9208 43.2546 43.823 42.0296 44.6298C41.1655 45.1984 40.2732 45.7602 39.3353 46.2368C38.9104 46.4534 38.4866 46.6693 38.0616 46.8847C36.5187 47.6691 34.9668 48.4397 33.4463 49.2544C32.7313 49.6392 32.0308 50.0425 31.3198 50.4319C30.5953 50.8296 29.875 51.2596 29.1071 51.5966C28.2799 51.9579 27.445 52.3246 26.5493 52.5547C25.7317 52.765 24.8412 52.8337 23.9753 52.8253C23.4733 52.8202 22.9861 52.7735 22.518 52.5627C22.0801 52.3659 21.6809 52.1052 21.3032 51.8267C20.9631 51.5764 20.6249 51.3242 20.2917 51.0663C19.6089 50.5373 18.9347 49.9988 18.2691 49.4531C17.6288 48.9295 16.9939 48.4 16.3938 47.8417C15.7729 47.2636 15.16 46.6804 14.5473 46.095C13.3198 44.9225 12.0528 43.778 10.8631 42.575C10.2959 42.0012 9.73514 41.4234 9.09724 40.9071C8.56633 40.4766 8.01734 40.0801 7.44409 39.6983C7.43326 39.6914 7.42242 39.6845 7.41159 39.6775C7.42613 39.909 7.44703 40.1401 7.47865 40.3705C7.56284 40.9865 7.67887 41.5905 7.81747 42.1949C7.98874 42.9485 8.17017 43.6964 8.36019 44.4442C8.71008 45.824 9.06794 47.2019 9.42696 48.5796C9.54211 48.9994 9.65264 49.4242 9.79632 49.8333C9.97831 50.348 10.1357 50.8791 10.3469 51.3815C10.5656 51.8987 10.7755 52.4214 11.0045 52.9338C11.2327 53.4452 11.4723 53.9525 11.6863 54.4699C12.1292 55.5374 12.5845 56.6053 12.9203 57.7141C13.2674 58.8602 13.5801 60.0137 13.8821 61.1723C14.0342 61.699 14.1941 62.2208 14.3757 62.739C14.5287 63.1774 14.7352 63.5928 14.9611 63.9967C15.1278 64.1389 15.2634 64.3105 15.3607 64.5398C15.4817 64.8233 15.5152 65.1386 15.4615 65.4404C15.5826 65.422 15.7056 65.4202 15.8309 65.435C15.9594 65.4711 16.0888 65.5064 16.2173 65.5425C17.049 65.7817 17.876 66.0188 18.6575 66.4193C19.2481 66.7228 19.83 67.065 20.3917 67.4304C21.1156 67.9006 21.8395 68.3703 22.5651 68.839C23.6318 69.4774 24.742 70.0475 25.9203 70.3991C26.3469 70.5263 26.7733 70.6546 27.2016 70.7761C27.673 70.9111 28.1454 71.0459 28.6124 71.1986C28.8349 71.2711 29.0593 71.3427 29.275 71.4361C29.5055 71.5345 29.7278 71.6647 29.9603 71.7532C30.0131 71.7733 30.0639 71.797 30.1125 71.8239C30.1483 71.8015 30.1842 71.7804 30.2199 71.7609C30.3815 71.6732 30.5438 71.5891 30.7077 71.5072C31.0209 71.3501 31.3401 71.209 31.6581 71.0693C32.8682 70.5331 34.0722 69.9756 35.2869 69.457C35.9872 69.1582 36.6856 68.8747 37.3935 68.6073C38.1573 68.3197 38.9301 68.0839 39.7025 67.8414C40.3395 67.6411 40.9875 67.4921 41.6293 67.3208C42.2475 67.1567 42.8667 67.0041 43.484 66.8365C44.7856 66.4843 46.0889 66.084 47.4137 65.9098C47.3758 64.8758 47.3185 63.8411 47.2105 62.8129C47.132 62.0751 47.0512 61.3376 46.9689 60.6008C46.9163 60.1218 46.8584 59.6399 46.8206 59.1584C46.6239 58.9115 46.4869 58.6219 46.4664 58.3215C46.4495 58.1163 46.4451 57.9089 46.4511 57.7016C46.4898 57.5524 46.5289 57.4021 46.5688 57.2521C46.598 57.1221 46.64 56.9962 46.6946 56.8742C46.6977 56.8672 46.7008 56.8601 46.7038 56.8531ZM36.0149 3.31732C36.0483 3.32142 36.0813 3.32517 36.1147 3.32927C37.1587 3.45746 38.182 3.67452 39.1913 3.97544C40.3468 4.31924 41.4435 4.77863 42.5134 5.3274C43.7205 5.94563 44.8465 6.69458 45.8222 7.64053C46.7127 8.50494 47.4891 9.46705 48.0486 10.5808C48.5656 11.6098 48.9039 12.7623 49.0204 13.9093C49.2547 16.2202 49.028 18.5382 48.3686 20.7645C48.0092 21.9769 47.4933 23.1051 46.8566 24.1969C46.3935 24.9902 45.8924 25.7727 45.3086 26.4834C44.9805 26.8821 44.6525 27.282 44.3247 27.6804C44.0645 27.9972 43.7587 28.2843 43.4779 28.5829C42.1092 30.0358 40.5968 31.2977 38.8412 32.2592C37.86 32.7978 36.8331 33.2497 35.771 33.6041C34.6853 33.9661 33.5713 34.3043 32.4384 34.4813C31.7507 34.5892 31.0645 34.6456 30.3682 34.6457C29.8079 34.6465 29.2373 34.6235 28.6878 34.5056C28.082 34.3758 27.4637 34.2324 26.8904 33.9949C26.3526 33.7725 25.8363 33.5026 25.3412 33.1952C24.7961 32.8565 24.2949 32.4739 23.8297 32.0308C23.4184 31.6402 23.0061 31.218 22.7077 30.7304C22.1808 29.8698 21.7623 28.9885 21.4702 28.0209C21.1772 27.0483 20.894 26.0731 20.6224 25.0936C20.2876 23.8923 20.0302 22.6597 19.9886 21.4113C19.9444 20.0965 20.1424 18.7874 20.6044 17.5516C20.8605 16.8674 21.1787 16.2237 21.5232 15.5818C21.7458 15.1702 21.9864 14.7297 22.267 14.3517C22.5796 13.932 22.9227 13.5568 23.3152 13.2082C24.0506 12.5554 25.2699 12.7809 25.8466 13.519C26.1397 13.8942 26.273 14.376 26.215 14.8484C26.174 15.1718 26.0564 15.4627 25.8599 15.7224C25.3392 16.2876 24.9191 16.9111 24.5297 17.5657C24.1941 18.2081 23.9155 18.86 23.7011 19.5509C23.5827 20.0867 23.5146 20.6238 23.4964 21.1735C23.5711 22.698 23.9676 24.1694 24.3622 25.6387C24.6592 26.6638 24.9569 27.6869 25.4533 28.6374C25.6486 28.932 25.865 29.2054 26.1046 29.4675C26.5096 29.8343 26.9414 30.1579 27.405 30.4456C27.8661 30.6863 28.336 30.8807 28.8327 31.0368C29.3908 31.1598 29.9492 31.2244 30.5207 31.2401C31.5613 31.1859 32.5763 30.9944 33.5812 30.7244C35.0124 30.291 36.3929 29.7378 37.6929 28.9995C38.74 28.3404 39.6861 27.5596 40.5785 26.7042C41.0018 26.2597 41.4336 25.8217 41.8226 25.3487C42.1052 25.0045 42.3882 24.6606 42.6707 24.3176C43.1691 23.7099 43.6022 23.0382 44.0041 22.3599C44.5256 21.4042 44.9386 20.4096 45.2414 19.3626C45.5439 18.107 45.7085 16.8313 45.7231 15.5394C45.6956 14.7406 45.6079 13.9533 45.4231 13.1746C45.2577 12.6636 45.0477 12.1804 44.7895 11.7086C44.4282 11.1591 44.0237 10.6529 43.5709 10.1769C43.0692 9.70065 42.5287 9.24399 41.9381 8.88767C41.7527 8.77564 41.5666 8.66414 41.3809 8.55238C40.97 8.3388 40.5623 8.12713 40.1389 7.94063C39.3084 7.57733 38.4696 7.26627 37.5986 7.01742C36.4961 6.75092 35.3619 6.58981 34.2272 6.56561C33.8291 6.55674 33.4298 6.54741 33.0303 6.5393C31.1929 6.56734 29.3245 6.59741 27.538 7.03615C26.9968 7.20948 26.4859 7.42747 25.9837 7.6967C24.8815 8.40107 23.9161 9.29184 22.9704 10.1924C22.6073 10.5852 22.2812 10.9949 22.0031 11.4526C21.9731 11.5065 21.9434 11.5601 21.9143 11.6138C21.8034 11.8803 21.6343 12.1024 21.4079 12.2814C21.2875 12.3522 21.1669 12.4239 21.0461 12.4956C20.6436 12.6699 20.1778 12.6728 19.7718 12.505C19.3779 12.3437 19.0584 12.028 18.8899 11.638C18.7315 11.271 18.6795 10.7272 18.8806 10.3625C19.2522 9.6854 19.6238 8.99998 20.1474 8.42588C20.5101 8.02901 20.8915 7.65507 21.2786 7.28304C21.82 6.76161 22.3825 6.24369 22.9766 5.78288C23.6634 5.25283 24.3935 4.74963 25.185 4.3851C25.9675 4.02563 26.8154 3.75822 27.663 3.60126C28.8025 3.39119 29.9535 3.31983 31.1086 3.26312C32.0025 3.2202 32.8976 3.19559 33.7915 3.21023C34.5331 3.22188 35.2764 3.23034 36.0149 3.31732Z" fill="black"/>
</svg>
