<svg width="90" height="72" viewBox="0 0 90 72" fill="none" xmlns="http://www.w3.org/2000/svg">
<path d="M43.9344 44.9032C50.9893 44.9032 56.7085 37.3209 56.7085 27.9677C56.7085 18.6145 50.9893 11.0322 43.9344 11.0322C36.8794 11.0322 31.1602 18.6145 31.1602 27.9677C31.1602 37.3209 36.8794 44.9032 43.9344 44.9032Z" fill="white"/>
<path fill-rule="evenodd" clip-rule="evenodd" d="M37.4231 72L32.3203 51.8958L61.159 50.129V72H37.4231Z" fill="white"/>
<path fill-rule="evenodd" clip-rule="evenodd" d="M57.3325 18.5141C57.3386 18.5331 57.3445 18.5523 57.3506 18.5715C57.3445 18.5523 57.3384 18.5331 57.3325 18.5141ZM46.134 12.6055C46.1943 12.6188 46.2548 12.6321 46.3155 12.6456C46.255 12.6323 46.1943 12.6191 46.134 12.6055ZM44.0223 10.2294C43.5134 10.2383 43.0034 10.2625 42.4973 10.3125C42.0651 10.3557 41.6348 10.4139 41.204 10.468C40.7833 10.5199 40.3572 10.5485 39.9392 10.6201C39.3084 10.7289 38.6907 10.9066 38.0979 11.147C37.4983 11.3905 36.955 11.7723 36.4116 12.1155C36.0519 12.3434 35.6881 12.6001 35.3677 12.8805C34.6428 13.5151 33.9897 14.2322 33.3719 14.9708C33.0975 15.2986 32.8679 15.6486 32.6437 16.0116C32.3964 16.4129 32.1686 16.8259 31.9654 17.2517C31.7933 17.6119 31.6248 17.9747 31.4805 18.3478C31.2947 18.8269 31.1849 19.3324 31.1112 19.84C31.0583 20.2028 31.042 20.5678 31.0211 20.9327C30.9933 21.4186 31.3469 21.8551 31.8421 21.8949C32.3218 21.9335 32.777 21.5619 32.8069 21.0759C32.8218 20.836 32.8299 20.5927 32.8617 20.3548C32.8847 20.1844 32.9137 20.0158 32.9468 19.8474C33.0394 19.4872 33.1622 19.1449 33.3204 18.8059C33.446 18.5366 33.5786 18.2703 33.7141 18.0058C33.9723 17.5319 34.2576 17.0764 34.5682 16.6339C34.7465 16.3811 34.9578 16.1534 35.1664 15.9263C35.323 15.7559 35.48 15.586 35.6369 15.4164C35.95 15.0893 36.2739 14.7808 36.6203 14.489C36.9323 14.2269 37.2731 14.0025 37.6135 13.7786C37.7816 13.6758 37.9489 13.5726 38.121 13.4765C38.5042 13.2638 38.8854 13.0747 39.2963 12.9255C39.6336 12.8311 39.9699 12.7503 40.3173 12.6934C40.6681 12.6352 41.0252 12.6089 41.3788 12.569C42.0653 12.4915 42.7481 12.4024 43.4375 12.3567C43.9205 12.3423 44.3976 12.3544 44.8799 12.4062C45.3837 12.4601 45.8821 12.5555 46.3775 12.6593C47.2137 12.8449 48.0479 13.0423 48.8749 13.267C49.3084 13.3847 49.7278 13.5354 50.1546 13.6753C50.3849 13.7509 50.6147 13.8267 50.8416 13.9111C50.9997 13.9703 51.1523 14.0426 51.3034 14.1182C51.7155 14.3473 52.106 14.5999 52.4891 14.8762C52.828 15.1213 53.1451 15.4005 53.4555 15.682C53.5831 15.8107 53.7068 15.9412 53.8285 16.0758C53.9574 16.2181 54.067 16.3828 54.1763 16.5417C54.4761 17.0345 54.7515 17.5418 55.0365 18.043C55.3481 18.5918 55.5649 19.1878 55.7885 19.777C55.9342 20.1616 56.4083 20.367 56.7951 20.2967C57.0316 20.2535 57.2463 20.1177 57.3853 19.9223C57.5207 19.7324 57.6027 19.4512 57.5424 19.2203C57.476 18.9667 57.3984 18.7179 57.3183 18.4691C57.242 18.2252 57.1669 17.9805 57.079 17.7409C57.0079 17.5463 56.9102 17.3624 56.8142 17.1794C56.6142 16.7955 56.4056 16.415 56.1929 16.0386C55.9389 15.5877 55.6733 15.1229 55.3272 14.735C54.9796 14.345 54.5887 13.9983 54.1957 13.6556C53.8624 13.3644 53.5074 13.1042 53.1423 12.8543C52.9749 12.7401 52.7987 12.6387 52.6246 12.5352C52.3788 12.3892 52.122 12.2494 51.8618 12.1304C51.4595 11.9467 51.0415 11.8095 50.6289 11.6519C50.2366 11.5033 49.8478 11.3512 49.4427 11.2377C48.4976 10.9721 47.545 10.7471 46.5857 10.5389C45.785 10.3661 44.9628 10.2284 44.1411 10.2284C44.1015 10.2284 44.0618 10.2287 44.0223 10.2294Z" fill="#2C2C2C"/>
<path fill-rule="evenodd" clip-rule="evenodd" d="M54.8804 35.5658C54.579 36.0302 54.4441 36.5822 54.2483 37.0959C54.074 37.5547 53.9 38.0105 53.6848 38.4521C53.4099 38.9579 53.1428 39.4712 52.8473 39.9646C52.5887 40.3956 52.2509 40.7845 51.9118 41.157C51.7219 41.3547 51.5279 41.5474 51.34 41.7467C51.1113 41.9896 50.8947 42.2436 50.6716 42.4921C50.0821 43.1128 49.4783 43.7174 48.7798 44.2166C48.6264 44.2989 48.4689 44.3621 48.3052 44.4188C48.0702 44.4852 47.8338 44.5432 47.595 44.5951C47.3617 44.6458 47.1201 44.6641 46.8806 44.6802C46.1349 44.6954 45.3898 44.6158 44.646 44.5634C43.9146 44.5124 43.1857 44.4659 42.4639 44.3351C41.8794 44.1828 41.3093 43.9818 40.7297 43.8119C40.1682 43.6477 39.5861 43.5347 39.0501 43.2977C38.7167 43.0912 38.4139 42.8372 38.1225 42.5746C37.4156 41.9011 36.7531 41.1812 36.2042 40.3722C36.0447 40.1134 35.8855 39.8543 35.7178 39.6003C35.5899 39.4072 35.4578 39.2171 35.3289 39.0247C35.1104 38.6408 34.933 38.2403 34.7478 37.8393C34.5303 37.3689 34.3236 36.8957 34.1265 36.4167C33.9401 35.9639 33.3596 35.7835 32.9314 35.9828C32.716 36.0828 32.5473 36.266 32.4666 36.489C32.382 36.7208 32.4051 36.9499 32.4965 37.1749C32.7316 37.7528 32.972 38.3285 33.2146 38.9043C33.3182 39.1503 33.4165 39.4057 33.5473 39.6396C33.7028 39.9172 33.8723 40.1856 34.0443 40.4532C34.2597 40.8025 34.4574 41.162 34.6739 41.5101C34.9245 41.9116 35.2023 42.2927 35.4888 42.6692C36.0308 43.3801 36.6609 44.0275 37.3404 44.6081C37.719 44.9324 38.1425 45.2115 38.616 45.381C39.0211 45.5271 39.4344 45.6454 39.8484 45.7642C40.2635 45.884 40.6735 46.0198 41.086 46.1488C41.588 46.3056 42.1002 46.4307 42.6219 46.5056C43.4923 46.6307 44.3818 46.6421 45.2597 46.68C46.2124 46.7211 47.1709 46.7597 48.1024 46.5198C48.5591 46.4023 49.0136 46.2563 49.443 46.0616C49.7372 45.9279 50.0095 45.717 50.2656 45.5189C50.4255 45.3947 50.5853 45.2669 50.7363 45.1324C51.424 44.5188 52.0344 43.8254 52.6319 43.1266C52.6751 43.0759 52.7195 43.0263 52.7642 42.9768C53.1895 42.5315 53.605 42.0832 53.9739 41.5886C54.1413 41.3635 54.2965 41.1338 54.4387 40.8925C54.6033 40.6127 54.7497 40.3228 54.9056 40.0383C55.2308 39.4449 55.5511 38.8557 55.787 38.2197C55.8912 37.9379 55.9956 37.6554 56.0979 37.3722C56.1961 37.1011 56.2772 36.8213 56.3952 36.5577C56.459 36.4353 56.5083 36.3167 56.5213 36.1618C56.5551 35.7618 56.3059 35.3779 55.9285 35.2408C55.831 35.2053 55.7268 35.188 55.6219 35.188C55.3327 35.188 55.0407 35.3198 54.8804 35.5658Z" fill="#2C2C2C"/>
<path fill-rule="evenodd" clip-rule="evenodd" d="M60.4804 50.6877H60.4809C60.4897 50.7126 60.4977 50.7377 60.5047 50.7633C60.4965 50.7381 60.4885 50.713 60.4804 50.6877ZM53.1264 48.206C52.2551 48.2264 51.3857 48.2971 50.5165 48.3487C48.7787 48.4264 47.0341 48.3913 45.2948 48.3715C44.3255 48.3608 43.3567 48.3554 42.3873 48.3722C41.8283 48.3824 41.2693 48.4257 40.7126 48.4682C40.2783 48.502 39.8467 48.5669 39.4138 48.6101C38.7705 48.6738 38.1259 48.7253 37.4818 48.776C37.2894 48.7829 37.0981 48.7862 36.9046 48.7838C36.6512 48.7805 36.3964 48.7473 36.1444 48.7203C35.6072 48.6622 35.0726 48.631 34.5328 48.6155C34.2509 48.608 33.9908 48.6736 33.7698 48.8568C33.5517 49.0373 33.4129 49.3035 33.3899 49.586C33.3451 50.1408 33.7848 50.7057 34.3626 50.7261C34.6777 50.7368 34.9913 50.7524 35.305 50.7808C35.5794 50.8052 35.8524 50.8484 36.1254 50.8856C36.4011 50.9227 36.6755 50.9443 36.954 50.9524C37.3326 50.9633 37.7147 50.9329 38.0928 50.9059C38.6693 50.8659 39.2459 50.8213 39.8217 50.768C40.1266 50.7396 40.4301 50.701 40.7343 50.6706C41.004 50.6441 41.2737 50.6256 41.5439 50.6069C43.3553 50.5481 45.1647 50.624 46.9764 50.6538C47.8746 50.6687 48.7744 50.6882 49.672 50.6619C50.6117 50.6343 51.5482 50.5595 52.4865 50.5062C53.1446 50.4779 53.8028 50.459 54.4617 50.4483C55.1838 50.4362 55.9053 50.4057 56.6275 50.3936C57.3496 50.3813 58.0643 50.3876 58.7832 50.4638C59.1158 50.499 59.4464 50.549 59.7769 50.6017C60.0066 50.6382 60.2369 50.6607 60.4672 50.6862C60.5206 50.9415 60.5433 51.1982 60.5591 51.4579C60.548 51.932 60.5225 52.3996 60.4877 52.8724C60.4571 53.288 60.4124 53.7023 60.3881 54.1179C60.3292 55.1459 60.2763 56.1737 60.2296 57.2029C60.1443 59.0952 60.0569 60.9873 59.9492 62.8783C59.8768 64.1537 59.7209 65.4216 59.5501 66.6873C59.4797 66.7411 59.4173 66.8051 59.3657 66.8776C59.2161 67.0878 59.1923 67.308 59.2147 67.5561C59.2338 67.7739 59.2518 67.9921 59.2698 68.2101C59.2669 68.3345 59.261 68.4696 59.2832 68.5833C59.3082 68.7118 59.3462 68.8353 59.3942 68.9576C59.5196 69.2741 59.8678 69.4882 60.1977 69.5145C60.3678 69.5273 60.531 69.4983 60.6862 69.4267C60.8975 69.328 61.1306 69.1159 61.1882 68.88C61.3359 68.2786 61.4252 67.6689 61.5215 67.0581C61.5851 66.6506 61.6536 66.2423 61.7017 65.8335C61.8087 64.9218 61.9178 64.0089 61.9639 63.0918C62.0574 61.2036 62.1238 59.3154 62.1888 57.4259C62.2383 55.9872 62.2978 54.5511 62.4015 53.1143C62.4225 52.8203 62.4537 52.5222 62.4584 52.2276C62.4618 52.0323 62.4651 51.8372 62.4679 51.6418C62.4719 51.4302 62.4495 51.2147 62.4381 51.0038C62.4299 50.8503 62.4103 50.699 62.3919 50.5464C62.3737 50.3922 62.3371 50.2402 62.2931 50.0915C62.26 49.9671 62.2173 49.8462 62.1651 49.7286C62.1047 49.5812 61.995 49.4468 61.8996 49.3198C61.7539 49.1258 61.5194 48.9433 61.2905 48.8575C61.1096 48.7899 60.9199 48.7568 60.7308 48.7175C60.6386 48.6987 60.5463 48.6809 60.4542 48.6627C60.057 48.5667 59.6608 48.4655 59.256 48.4013C58.8286 48.3343 58.4011 48.2871 57.9695 48.2634C57.5806 48.2418 57.1897 48.2492 56.8002 48.2432C56.385 48.2357 55.9696 48.2183 55.5537 48.2087C55.1205 48.1985 54.6871 48.193 54.2539 48.193C53.8779 48.193 53.5021 48.1971 53.1264 48.206Z" fill="#2C2C2C"/>
<path fill-rule="evenodd" clip-rule="evenodd" d="M36.8965 70.6634C36.8938 70.6552 36.8913 70.6471 36.8887 70.6388C36.8913 70.6471 36.8941 70.6554 36.8967 70.6637C36.8965 70.6637 36.8965 70.6635 36.8965 70.6634ZM32.161 49.2332C31.8934 49.2818 31.7058 49.4541 31.5372 49.6515C31.43 49.7771 31.3298 49.9082 31.2295 50.0394C30.9586 50.3928 31.0684 50.9267 31.4227 51.1781C31.4957 51.23 31.5736 51.2675 31.6536 51.2919C31.6879 51.9839 31.7316 52.6744 31.823 53.3623C31.9423 54.2563 32.1381 55.1397 32.348 56.0161C32.5668 56.9332 32.8039 57.8462 33.0242 58.7633C33.1515 59.2904 33.2782 59.8181 33.4049 60.3459C33.5174 60.8156 33.6013 61.2948 33.699 61.7678C33.7869 62.1957 33.8445 62.6282 33.9095 63.0593C33.9727 63.4762 34.0315 63.8906 34.0783 64.3094C34.2172 65.5551 34.337 66.8026 34.4543 68.0506C34.5065 68.6062 34.5762 69.1598 34.6522 69.7132C34.6893 69.9821 34.7321 70.2599 34.7991 70.5234C34.852 70.7303 34.9156 70.9324 34.9848 71.1344C35.0403 71.2972 35.1433 71.4398 35.2449 71.577C35.3634 71.7372 35.5639 71.8467 35.7408 71.9216C36.0361 72.0474 36.4081 71.9637 36.6492 71.7642C36.7774 71.6574 36.8702 71.5256 36.9277 71.3696C36.9453 71.2884 36.9629 71.208 36.9805 71.1277C36.9902 71.0064 36.9767 70.8895 36.9406 70.7763C36.8462 70.3103 36.8058 69.8362 36.7569 69.3638C36.7082 68.8989 36.6615 68.4332 36.6154 67.9683C36.524 67.0424 36.4291 66.1173 36.3301 65.1921C36.2312 64.2669 36.0958 63.3486 35.942 62.4315C35.8709 62.0104 35.7963 61.5976 35.7014 61.1812C35.6012 60.7386 35.5098 60.2926 35.3932 59.8541C35.007 58.4057 34.5972 56.9642 34.2056 55.5174C34.058 54.9721 33.9286 54.4233 33.8107 53.8705C33.6345 53.0365 33.5221 52.1938 33.4456 51.3457C33.4286 51.1578 33.4116 50.9693 33.3941 50.7814C33.3757 50.5772 33.3473 50.3752 33.3039 50.1752C33.2417 49.8887 33.1027 49.5703 32.8554 49.3953C32.7005 49.2858 32.4994 49.2207 32.3051 49.2207C32.2564 49.2207 32.2082 49.2247 32.161 49.2332Z" fill="#2C2C2C"/>
<path fill-rule="evenodd" clip-rule="evenodd" d="M31.3723 50.4281C31.0315 50.9383 30.6772 51.4445 30.3716 51.977C30.0471 52.5434 29.7504 53.1454 29.5039 53.7503C29.2965 54.2598 29.0886 54.7694 28.8806 55.2789C28.5594 56.0663 28.2533 56.8604 27.9288 57.647C27.569 58.5207 27.2065 59.3931 26.8529 60.2705C26.6748 60.713 26.485 61.1529 26.3177 61.5996C26.1226 62.12 25.9281 62.6404 25.733 63.1608C25.5225 63.7231 25.3307 64.2928 25.1267 64.8577C24.8789 65.5443 24.6213 66.2261 24.3537 66.906C24.2393 67.1967 24.1248 67.4871 24.015 67.7806C23.9094 68.0617 23.8362 68.3577 23.7637 68.6489C23.6803 68.9841 23.5971 69.3193 23.5083 69.6525C23.4216 69.9768 23.3071 70.3101 23.3693 70.6493C23.4358 71.0135 23.702 71.3109 24.0388 71.4501C24.2651 71.5434 24.4838 71.5434 24.7223 71.5102C25.1423 71.4521 25.4682 71.0623 25.5013 70.6514C25.5121 70.5178 25.4937 70.3836 25.4493 70.2583C25.5575 69.945 25.6619 69.6307 25.7603 69.3125C25.8836 68.9098 26.0502 68.5321 26.2297 68.1522C26.4221 67.7461 26.6125 67.3392 26.7825 66.923C26.9829 66.433 27.1694 65.9396 27.3529 65.4436C27.6829 64.5542 27.9836 63.6527 28.3034 62.7593C28.59 61.9591 28.8955 61.1657 29.2023 60.3737C29.638 59.2513 30.0702 58.1281 30.4937 57.0008C30.6732 56.5218 30.8548 56.044 31.0376 55.5668C31.351 54.7502 31.6618 53.9395 32.0521 53.1558C32.3473 52.6206 32.6945 52.1137 33.0313 51.6047C33.3362 51.1431 33.2549 50.5173 32.7917 50.1888C32.6179 50.0656 32.4087 50.0052 32.2001 50.0052C31.8787 50.0052 31.5589 50.149 31.3723 50.4281Z" fill="#2C2C2C"/>
<path fill-rule="evenodd" clip-rule="evenodd" d="M63.2415 53.9963C63.2554 54.0183 63.2692 54.0404 63.2831 54.0624C63.2691 54.0404 63.2552 54.0183 63.2415 53.9963ZM62.1738 51.2903C61.8142 51.4547 61.6216 51.8107 61.5065 52.1689C61.3501 52.6541 61.5722 53.1887 62.0668 53.3678C62.2953 53.451 62.5509 53.4351 62.7706 53.3399C62.9753 53.5944 63.1549 53.8685 63.3331 54.1428C63.9994 55.2196 64.5415 56.3644 65.0781 57.5098C65.4839 58.3761 65.8579 59.2567 66.2318 60.1366C66.5854 60.9672 66.9113 61.8106 67.2446 62.6486C67.5929 63.5257 67.9451 64.4009 68.2812 65.2821C68.4409 65.7006 68.5837 66.1242 68.7217 66.55C68.858 67.0246 68.9871 67.5007 69.1062 67.9806C69.1693 68.2333 69.2337 68.4847 69.3081 68.7342C69.3644 68.92 69.426 69.1004 69.5039 69.2781C69.5635 69.4132 69.6333 69.5416 69.6903 69.6783C69.8563 70.0783 70.3298 70.2985 70.7458 70.2229C70.9937 70.1776 71.2186 70.0357 71.365 69.8302C71.5228 69.6085 71.5622 69.3585 71.5289 69.0944C71.4748 68.6605 71.4002 68.2266 71.3277 67.7955C71.2512 67.3427 71.1603 66.8939 71.0438 66.4491C70.7918 65.4841 70.4645 64.5319 70.0845 63.6094C69.3502 61.8247 68.5934 60.0508 67.7805 58.3005C67.5467 57.797 67.2982 57.301 67.0549 56.8016C66.9546 56.596 66.8476 56.394 66.7432 56.1907C66.6227 55.9547 66.5096 55.7135 66.3788 55.4831C65.8728 54.589 65.3721 53.6922 64.7984 52.8387C64.6066 52.5528 64.4087 52.273 64.1865 52.0095C64.0457 51.8426 63.879 51.6972 63.713 51.5566C63.5504 51.4201 63.3357 51.3289 63.1419 51.2471C63.024 51.1971 62.8818 51.1769 62.7543 51.1722C62.7365 51.1715 62.7186 51.1711 62.7013 51.1711C62.5141 51.1711 62.3485 51.2106 62.1738 51.2903Z" fill="#2C2C2C"/>
<path fill-rule="evenodd" clip-rule="evenodd" d="M33.7701 26.1934C33.7004 26.215 33.6251 26.2319 33.558 26.2596C33.4836 26.2901 33.4193 26.3299 33.3515 26.3738C33.2485 26.4408 33.1489 26.5143 33.054 26.5928C32.941 26.6868 32.8272 26.7807 32.7139 26.8747C32.5473 27.0131 32.3841 27.1563 32.2195 27.297C32.0277 27.4611 31.8353 27.6246 31.6428 27.7883C31.475 27.9302 31.317 28.0815 31.143 28.216C30.9939 28.3303 30.9533 28.5492 31.0305 28.7154C31.0773 28.8154 31.1633 28.8938 31.2675 28.9317C31.3603 28.9654 31.5006 28.9735 31.5887 28.9182C31.792 28.7898 31.9904 28.6587 32.1808 28.5108C32.3501 28.3789 32.51 28.2336 32.6685 28.0883C32.8447 27.9274 33.0202 27.7667 33.195 27.6051C33.2795 27.5272 33.3648 27.448 33.4517 27.3705C33.5618 27.3864 33.6768 27.361 33.7587 27.2807C33.8128 27.2279 33.8671 27.1746 33.9212 27.1226C34.014 27.0328 34.1184 26.9503 34.1793 26.8354C34.2226 26.7738 34.2478 26.7049 34.2538 26.6299C34.2592 26.5582 34.2471 26.4894 34.2165 26.4238C34.186 26.3582 34.1414 26.305 34.0825 26.2622C34.0199 26.2186 33.9278 26.183 33.8431 26.183C33.8178 26.183 33.793 26.1861 33.7701 26.1934Z" fill="#2C2C2C"/>
<path fill-rule="evenodd" clip-rule="evenodd" d="M33.6629 29.4229C33.6357 29.4406 33.6085 29.4577 33.5809 29.475C33.6083 29.4577 33.6355 29.4402 33.6629 29.4229ZM34.0424 28.1207C33.4068 28.4626 32.7795 28.816 32.2077 29.2581C32.0044 29.4155 31.9862 29.7285 32.1461 29.921C32.2268 30.0182 32.3452 30.0798 32.4713 30.0899C32.6014 30.1001 32.7063 30.0554 32.8107 29.9824C33.0559 29.811 33.3077 29.6489 33.5606 29.488C33.8534 29.3148 34.1494 29.1501 34.4481 28.9883C34.5625 28.9269 34.6506 28.843 34.6961 28.7181C34.7394 28.5998 34.734 28.4667 34.6804 28.3526C34.6029 28.1865 34.4198 28.0726 34.2366 28.0726C34.17 28.0726 34.1038 28.0877 34.0424 28.1207Z" fill="#2C2C2C"/>
<path fill-rule="evenodd" clip-rule="evenodd" d="M34.6266 30.1236C34.4749 30.1825 34.3238 30.242 34.1727 30.3013C33.9322 30.396 33.714 30.5257 33.4993 30.6677C33.4126 30.7252 33.3611 30.8501 33.3529 30.9494C33.3441 31.0549 33.3781 31.161 33.4457 31.2428C33.5156 31.3265 33.6186 31.38 33.7282 31.3886C33.8427 31.3975 33.9294 31.357 34.0217 31.2954C34.042 31.2828 34.0619 31.2696 34.0819 31.2565C34.3618 31.0906 34.6688 30.9793 34.9714 30.8617C35.1795 30.7812 35.2588 30.5115 35.1693 30.321C35.1238 30.2229 35.0399 30.1467 34.939 30.1101C34.894 30.0939 34.85 30.0868 34.8065 30.0868C34.7461 30.0868 34.6868 30.1005 34.6266 30.1236Z" fill="#2C2C2C"/>
<path fill-rule="evenodd" clip-rule="evenodd" d="M45.7939 12.9039C45.7329 13.3478 45.697 13.794 45.6753 14.2419C45.6503 14.7381 45.6219 15.2334 45.5907 15.7294C45.5359 16.6079 45.4417 17.4851 45.4375 18.3663C45.4368 18.4805 45.4592 18.5826 45.5345 18.6733C45.6077 18.761 45.7154 18.8165 45.8298 18.8258C46.0622 18.8449 46.2708 18.6665 46.2904 18.4347C46.3636 17.5622 46.4321 16.6884 46.4795 15.8138C46.5058 15.326 46.5303 14.8374 46.5506 14.3494C46.5697 13.8885 46.6 13.4304 46.6618 12.9728C46.693 12.7383 46.489 12.5242 46.2627 12.5058C46.2502 12.5048 46.2381 12.5043 46.2258 12.5043C45.9973 12.5043 45.8243 12.6813 45.7939 12.9039Z" fill="#2C2C2C"/>
<path fill-rule="evenodd" clip-rule="evenodd" d="M43.3777 12.4764C43.3147 13.4698 43.3005 14.4659 43.2618 15.4607C43.2442 15.9304 43.1968 16.3994 43.1595 16.8685C43.1196 17.3698 43.0837 17.8714 43.0572 18.3734C43.0355 18.7964 43.039 19.2208 42.9942 19.6419C42.9746 19.827 43.0973 20.0074 43.27 20.0704C43.3742 20.1081 43.4915 20.1028 43.5924 20.0562C43.6847 20.013 43.7842 19.9216 43.8099 19.8189C43.8749 19.5628 43.915 19.3101 43.9325 19.0466C43.9481 18.8092 43.9637 18.572 43.9786 18.3341C44.0092 17.8646 44.0451 17.3949 44.0822 16.9252C44.1188 16.4527 44.1609 15.9797 44.1737 15.5067C44.188 14.9896 44.1994 14.4727 44.2076 13.9558C44.215 13.486 44.2334 13.0163 44.2625 12.5466C44.2768 12.3069 44.0999 12.0899 43.8553 12.0702C43.8439 12.0693 43.8328 12.069 43.8217 12.069C43.5967 12.069 43.3924 12.2472 43.3777 12.4764Z" fill="#2C2C2C"/>
<path fill-rule="evenodd" clip-rule="evenodd" d="M40.1464 34.4092C40.126 34.4166 40.1053 34.4233 40.0844 34.429C40.105 34.4225 40.1256 34.4157 40.1464 34.4092ZM50.7393 21.135C51.5782 21.2025 52.4117 21.3012 53.2531 21.3403C54.0433 21.3767 54.8361 21.3753 55.6268 21.3788C56.0341 21.3802 56.4406 21.3767 56.8479 21.3721C57.2074 21.3684 57.5577 21.4042 57.9089 21.4689C58.0814 21.5114 58.251 21.5584 58.4156 21.626C58.5694 21.718 58.7168 21.8191 58.856 21.9322C58.9605 22.0394 59.0564 22.1511 59.1457 22.2728C59.2481 22.4543 59.3336 22.6403 59.4059 22.8358C59.5726 23.4618 59.6246 24.0975 59.6637 24.7411C59.688 25.4413 59.7044 26.1409 59.6897 26.8414C59.6741 27.5687 59.5875 28.2912 59.5084 29.0138C59.4272 29.7567 59.3487 30.4995 59.2602 31.2417C59.1771 31.9394 59.1154 32.6449 58.9961 33.3382C58.9795 33.3925 58.9605 33.4452 58.9388 33.4977C58.878 33.5932 58.8133 33.6851 58.7428 33.7742C58.6969 33.8164 58.6494 33.8561 58.5997 33.8938C58.504 33.9427 58.407 33.9847 58.3059 34.0228C57.8132 34.1602 57.3047 34.2283 56.7944 34.2638C56.0225 34.2836 55.2626 34.1813 54.4991 34.08C53.9128 34.0017 53.3262 33.9355 52.7357 33.8895C52.1694 33.8456 51.5998 33.8125 51.0316 33.8165C50.4692 33.8202 49.9115 33.8833 49.3517 33.9235C49.2194 33.9199 49.0907 33.9078 48.9603 33.8871C48.8867 33.8677 48.8138 33.8463 48.7417 33.8208C48.7326 33.8145 48.7234 33.8077 48.7142 33.8011C48.6875 33.7693 48.6621 33.7372 48.6373 33.7042C48.4136 33.3046 48.251 32.879 48.0923 32.4497C47.9673 32.1107 47.8691 31.7603 47.7204 31.4306C47.5702 31.0965 47.3922 30.7797 47.2055 30.4644C46.9823 30.0882 46.7395 29.7202 46.4513 29.3893C46.2937 29.209 46.115 29.0456 45.9344 28.8888C45.7593 28.7368 45.5503 28.6425 45.3453 28.5363C45.3034 28.5242 45.2615 28.5121 45.2189 28.4998C45.0781 28.4485 44.9333 28.4276 44.7859 28.4378C44.5255 28.4357 44.4016 28.4696 44.1582 28.5532C43.6554 28.7241 43.2651 29.1327 42.9452 29.5385C42.8072 29.7134 42.6867 29.9093 42.5724 30.1003C42.1725 30.7659 41.8231 31.4552 41.4701 32.1453C41.2656 32.5255 41.058 32.9039 40.8548 33.2851C40.6555 33.6589 40.4565 34.0356 40.1983 34.3728C40.177 34.376 40.1557 34.3786 40.1343 34.381C39.8309 34.3836 39.5275 34.368 39.2246 34.3568C38.8524 34.344 38.4811 34.3379 38.1097 34.3393C37.3203 34.3412 36.5301 34.3454 35.7408 34.348C35.3349 34.35 34.929 34.3521 34.5231 34.3635C34.1099 34.3751 33.6986 34.3893 33.2852 34.369C32.9118 34.3514 32.5418 34.3028 32.171 34.2568C31.8421 34.2162 31.5093 34.1982 31.1804 34.1528C31.0635 34.1156 30.9525 34.0689 30.842 34.0172C30.782 33.9775 30.726 33.9355 30.6715 33.8905C30.5795 33.7916 30.494 33.6895 30.4143 33.58C30.1965 33.2045 30.024 32.8052 29.8728 32.3982C29.7841 32.0604 29.7178 31.724 29.6681 31.376C29.6148 30.9965 29.595 30.6102 29.5647 30.2279C29.5356 29.8661 29.4774 29.5115 29.4192 29.153C29.3659 28.8219 29.3344 28.4889 29.312 28.1548C29.2913 27.322 29.3744 26.4927 29.4151 25.6615C29.4367 25.2112 29.4875 24.7681 29.5552 24.3224C29.6194 23.899 29.7175 23.4696 29.7323 23.0414C29.7325 23.0372 29.7327 23.0331 29.7327 23.0289C29.8385 23.0111 29.9441 22.9935 30.0503 22.9772C30.4732 22.9117 30.8999 22.8685 31.3254 22.8267C32.1487 22.7456 32.9747 22.6875 33.798 22.6052C34.5941 22.5255 35.3775 22.385 36.1568 22.2067C36.5423 22.1182 36.93 22.042 37.3229 21.9946C37.6958 21.9495 38.0692 21.9227 38.4439 21.9014C39.3177 21.8674 40.1904 21.8297 41.0625 21.761C41.8939 21.6955 42.7239 21.6105 43.5539 21.5389C44.3867 21.4673 45.2161 21.3667 46.0475 21.2863C46.8294 21.2106 47.6133 21.1586 48.3982 21.1162C49.1801 21.087 49.9581 21.0728 50.7393 21.135ZM48.8758 18.9308C47.8786 18.9741 46.8801 19.0341 45.8864 19.1335C44.7561 19.2469 43.6291 19.3867 42.4979 19.4953C41.467 19.5949 40.4406 19.7072 39.4071 19.769C38.4507 19.8099 37.4849 19.8295 36.5411 19.9985C36.1182 20.0741 35.7043 20.1842 35.2842 20.2727C34.8465 20.3645 34.4067 20.4496 33.963 20.5091C33.0531 20.6313 32.14 20.7252 31.2287 20.8339C30.7714 20.8885 30.3161 20.9594 29.8622 21.037C29.4558 21.1067 29.0599 21.2147 28.6507 21.2694C28.6209 21.2728 28.5918 21.2768 28.562 21.281C28.0856 21.3413 27.7571 21.8158 27.7789 22.2748C27.6475 22.4439 27.5756 22.6453 27.5453 22.8664C27.4899 23.271 27.4121 23.6727 27.3593 24.078C27.3004 24.525 27.249 24.97 27.2301 25.4205C27.1896 26.3753 27.1321 27.3262 27.1978 28.2804C27.2281 28.7241 27.2837 29.1651 27.3567 29.6033C27.427 30.0255 27.4778 30.444 27.515 30.8702C27.5548 31.3314 27.5921 31.7961 27.6887 32.2499C27.7983 32.7651 27.9519 33.2763 28.1786 33.7531C28.272 33.9489 28.3679 34.1421 28.4742 34.3312C28.5871 34.5317 28.711 34.7269 28.8455 34.9133C28.9842 35.105 29.1695 35.2746 29.3462 35.4291C29.4672 35.536 29.585 35.6304 29.7242 35.7142C29.8671 35.7993 30.0233 35.8695 30.1734 35.9438C30.4534 36.0816 30.7525 36.1627 31.0623 36.2092C31.4831 36.2726 31.9066 36.3151 32.3274 36.3834C32.7589 36.4522 33.1891 36.4968 33.6262 36.5117C34.078 36.5279 34.5333 36.4982 34.9858 36.4954C35.2239 36.4942 35.462 36.4948 35.7008 36.4948C35.8861 36.4954 36.0716 36.4954 36.2576 36.4948C37.1228 36.4929 37.9893 36.4787 38.8545 36.4975C39.374 36.5089 39.8975 36.5454 40.4158 36.4908C40.6817 36.4631 40.9475 36.3881 41.1789 36.2545C41.3276 36.1687 41.4488 36.0862 41.5718 35.9721C41.6895 35.8627 41.7992 35.731 41.9027 35.6062C42.0468 35.4319 42.1739 35.2414 42.2957 35.0517C42.5575 34.6458 42.7781 34.2122 43.0114 33.7902C43.2592 33.3421 43.4965 32.8894 43.732 32.4351C43.8793 32.1629 44.0305 31.8927 44.1845 31.6239C44.3549 31.3262 44.5312 31.0302 44.7381 30.7569C44.887 30.9364 45.0218 31.1269 45.1522 31.3214C45.3983 31.7257 45.6289 32.1389 45.8012 32.5808C46.0054 33.1048 46.1881 33.6315 46.4195 34.1441C46.7563 34.8896 47.2874 35.6122 48.11 35.8472C48.4259 35.937 48.7534 36.0059 49.0813 36.0302C49.4216 36.0558 49.7794 35.9958 50.119 35.9619C50.337 35.9402 50.5545 35.9222 50.7731 35.908C51.689 35.898 52.6063 35.9547 53.5183 36.0335C53.9756 36.0734 54.4316 36.1281 54.8876 36.178C55.0978 36.201 55.3089 36.2152 55.5193 36.2328C56.0665 36.2787 56.6145 36.2591 57.161 36.2119C57.4356 36.1882 57.7117 36.145 57.9824 36.0958C58.2989 36.0384 58.6108 35.9492 58.9144 35.8446C59.0491 35.7986 59.1783 35.7493 59.3075 35.6912C59.4821 35.6136 59.6429 35.4967 59.8 35.3901C60.0246 35.236 60.2071 35.0032 60.3689 34.7871C60.5311 34.5689 60.6584 34.321 60.7653 34.0726C60.8533 33.8679 60.8849 33.6281 60.9236 33.412C60.948 33.2763 60.9708 33.1406 60.9932 33.0049C61.1354 32.1479 61.249 31.2849 61.3544 30.4224C61.4126 29.9498 61.4682 29.4771 61.5229 29.0043C61.573 28.5809 61.6277 28.1548 61.6549 27.7293C61.7143 26.7852 61.7015 25.8439 61.671 24.8991C61.6556 24.3928 61.6372 23.8774 61.5723 23.3743C61.5534 23.2291 61.535 23.0839 61.5108 22.9394C61.4552 22.6145 61.3551 22.304 61.2543 21.9913C61.1719 21.7353 61.0467 21.4964 60.9073 21.268C60.7362 20.9859 60.5521 20.7359 60.3209 20.5009C59.804 19.9769 59.1667 19.604 58.4498 19.4325C58.1574 19.3624 57.8653 19.3003 57.5676 19.2571C57.3458 19.2246 57.1184 19.2211 56.8945 19.2158C56.0218 19.1941 55.1485 19.2057 54.2759 19.1867C53.3627 19.1672 52.4569 19.103 51.5477 19.0131C51.0817 18.9666 50.6169 18.9329 50.1488 18.9118C50.0248 18.9063 49.9006 18.9041 49.7761 18.9041C49.4757 18.9041 49.1742 18.9175 48.8758 18.9308Z" fill="#2C2C2C"/>
<path fill-rule="evenodd" clip-rule="evenodd" d="M25.9302 27.1965C25.8599 27.4147 25.7908 27.6294 25.7368 27.8523C25.6623 28.1569 25.5934 28.4688 25.5771 28.7822C25.5669 28.9806 25.5832 29.1874 25.63 29.3805C25.6921 29.6364 25.8118 29.8464 25.9789 30.0483C26.0845 30.1747 26.3145 30.3448 26.4754 30.3894C26.5885 30.4225 26.7028 30.4494 26.8185 30.4698C26.9281 30.4643 27.0382 30.4589 27.1478 30.4529C27.3042 30.4441 27.5484 30.3111 27.6674 30.2205C27.8494 30.0814 27.9685 29.9147 28.0605 29.7079C28.1734 29.4554 28.2106 29.1623 28.2174 28.8882C28.2283 28.4871 28.1788 28.0786 28.0037 27.7145C27.9581 27.6204 27.8992 27.5383 27.8303 27.4688C27.7981 27.0864 27.5661 26.7471 27.1898 26.6103C27.0848 26.5723 26.9743 26.5541 26.864 26.554C26.4607 26.554 26.0587 26.7968 25.9302 27.1965Z" fill="#2C2C2C"/>
<path fill-rule="evenodd" clip-rule="evenodd" d="M41.9257 20.1432C41.9137 20.1439 41.9016 20.1446 41.8897 20.1451C41.9016 20.1444 41.9137 20.1437 41.9257 20.1432ZM24.1874 19.5253C24.2107 19.5305 24.2344 19.5357 24.2579 19.5409C24.2344 19.5357 24.2107 19.5307 24.1874 19.5253ZM88.8206 0.00850745C88.7024 0.0295156 88.5585 0.104694 88.4972 0.214596C88.3817 0.420858 88.2595 0.62087 88.1305 0.819667C88.0183 0.992593 87.8833 1.15337 87.755 1.31397C87.6179 1.4862 87.4639 1.64767 87.3161 1.81052C87.1854 1.95602 87.0526 2.09943 86.9202 2.24301C86.6329 2.55015 86.3476 2.86041 86.0511 3.15869C85.7074 3.50524 85.3575 3.84241 84.9943 4.16795C84.284 4.80549 83.5674 5.43678 82.832 6.04515C81.3672 7.25581 79.8701 8.42845 78.3474 9.56445C78.17 9.69693 77.9834 9.81881 77.8014 9.94521C77.4238 10.1808 77.0449 10.4117 76.6618 10.638C76.2484 10.8822 75.8346 11.125 75.4233 11.3712C74.6419 11.8391 73.8653 12.3165 73.0544 12.7303C71.3512 13.5998 69.5899 14.354 67.787 14.9901C66.7855 15.3441 65.7731 15.6725 64.763 16.0006C63.7309 16.3367 62.6988 16.6716 61.6657 17.004C59.8699 17.5479 58.0529 18.0231 56.2332 18.4761C55.3303 18.7006 54.4159 18.8714 53.4976 19.0173C52.5298 19.1713 51.562 19.3279 50.5924 19.469C49.1601 19.6765 47.7129 19.7687 46.2684 19.8467C45.5201 19.8868 44.774 19.9586 44.0263 20.0116C43.3545 20.0595 42.6822 20.1021 42.0097 20.1387C41.1355 20.1771 40.2605 20.1852 39.3858 20.1878C38.4491 20.1899 37.5131 20.1804 36.5772 20.1533C36.1267 20.1397 35.6763 20.1241 35.2265 20.1085C34.749 20.0909 34.2722 20.0712 33.7968 20.0224C32.8244 19.9227 31.8568 19.7748 30.8869 19.6508C30.3764 19.5857 29.8626 19.551 29.35 19.5015C29.034 19.4709 28.722 19.4324 28.4073 19.3897C28.1625 19.356 27.9195 19.3027 27.6766 19.2553C26.9939 19.0956 26.3171 18.9187 25.6392 18.7398C24.9437 18.5567 24.2348 18.4257 23.5305 18.2809C23.3382 18.2346 23.1451 18.1905 22.9557 18.1349C22.7003 18.0603 22.447 17.9823 22.1931 17.9009C21.7806 17.7695 21.3626 17.6542 20.9432 17.5462C20.5075 17.4344 20.0686 17.3265 19.6425 17.1828C19.1982 17.0335 18.7613 16.8708 18.325 16.6979C17.8618 16.514 17.4006 16.3275 16.9333 16.1532C16.4895 15.9878 16.0485 15.8188 15.6109 15.6398C14.7661 15.2947 13.9052 14.9873 13.0779 14.6002C12.8541 14.4953 12.6316 14.3885 12.4091 14.2798C11.8939 14.0031 11.3858 13.7145 10.8677 13.4444C10.3932 13.1975 9.90927 12.9678 9.43282 12.724C9.15415 12.5714 8.87892 12.4148 8.60941 12.246C8.3022 12.0535 8.0097 11.8391 7.712 11.6323C7.11505 11.2178 6.51672 10.8055 5.92773 10.3796C5.35585 9.96656 4.81353 9.51358 4.24096 9.10193C3.94776 8.89028 3.65076 8.6835 3.35428 8.47654C3.06315 8.27462 2.79156 8.04996 2.52688 7.81591C2.41503 7.70914 2.30301 7.60184 2.19945 7.48707C2.07187 7.34592 1.95034 7.20147 1.82932 7.0551C1.71591 6.91742 1.59576 6.78512 1.47492 6.65352C1.3361 6.50403 1.17809 6.37121 1.04169 6.21964C0.97064 6.09845 0.879015 6.00522 0.742787 5.95573C0.605004 5.90556 0.451143 5.91233 0.318718 5.97396C0.185776 6.03647 0.0817033 6.15036 0.0317417 6.28874C-0.022369 6.43788 -0.00127792 6.57018 0.0498938 6.71463C0.143766 6.97836 0.367297 7.16969 0.557117 7.36571C0.698185 7.51086 0.834758 7.6607 0.964416 7.81609C1.09131 7.96853 1.2163 8.12392 1.35391 8.26768C1.54304 8.46508 1.73891 8.65433 1.9429 8.83663C2.28053 9.13995 2.64997 9.40038 3.022 9.65873C3.41565 9.9327 3.80324 10.2141 4.18478 10.5058C4.54281 10.7784 4.896 11.0578 5.26198 11.3196C5.65234 11.5984 6.0446 11.8731 6.44031 12.1429C6.8037 12.3912 7.16363 12.6435 7.52754 12.889C7.91461 13.1487 8.30895 13.3895 8.71884 13.61C9.39496 13.9732 10.0917 14.2972 10.7761 14.6448C11.1834 14.8681 11.5858 15.1064 12.0042 15.3096C12.408 15.5056 12.8126 15.7021 13.2271 15.8751C13.664 16.0562 14.105 16.2272 14.546 16.398C15.0147 16.5784 15.478 16.773 15.946 16.9555C16.3868 17.1271 16.8346 17.2817 17.2756 17.454C17.6903 17.6154 18.1002 17.7918 18.5175 17.9457C18.9402 18.1018 19.3657 18.2509 19.7999 18.3697C20.2658 18.4964 20.7338 18.6159 21.2004 18.7398C21.4321 18.8016 21.6617 18.877 21.8899 18.9501C22.1573 19.035 22.4247 19.1157 22.6943 19.1951C22.9515 19.2702 23.2176 19.3246 23.4803 19.3801C23.7628 19.4397 24.0462 19.4987 24.3295 19.5571C24.7574 19.6531 25.1823 19.7557 25.6062 19.8704C26.018 19.9824 26.4293 20.1003 26.8454 20.1967C27.3329 20.3106 27.8225 20.4326 28.3188 20.5005C28.5505 20.5325 28.7808 20.5663 29.0138 20.5887C29.2799 20.6144 29.5459 20.6389 29.812 20.6613C30.7614 20.7427 31.7048 20.8776 32.6489 21.0044C32.8671 21.0342 33.0851 21.0608 33.3032 21.0893C33.5221 21.117 33.7456 21.142 33.9657 21.1558C34.4344 21.1842 34.9017 21.2066 35.371 21.2209C36.3367 21.2506 37.301 21.279 38.2667 21.2872C39.169 21.2954 40.0717 21.2872 40.9726 21.2669C42.8068 21.2256 44.6335 21.0417 46.4622 20.915C46.9187 20.883 47.3772 20.8695 47.8345 20.837C48.3038 20.8037 48.7723 20.763 49.241 20.7189C50.2048 20.6286 51.1617 20.4937 52.1179 20.3446C52.9936 20.2083 53.8729 20.08 54.744 19.9145C55.2162 19.825 55.6902 19.7362 56.1575 19.6189C56.6673 19.4907 57.1766 19.3605 57.6857 19.2268C58.5812 18.993 59.476 18.7554 60.3688 18.5106C61.275 18.2624 62.171 17.9769 63.0632 17.6826C64.871 17.0864 66.6874 16.5189 68.4817 15.8832C69.3705 15.5693 70.241 15.2078 71.11 14.8443C71.9758 14.4821 72.8179 14.0684 73.6539 13.6425C74.078 13.4268 74.4885 13.1839 74.8991 12.944C75.2895 12.7153 75.6759 12.4794 76.0642 12.2467C76.4625 12.0094 76.8637 11.7767 77.2634 11.542C77.4546 11.4295 77.647 11.3182 77.8355 11.201C78.0637 11.0592 78.2986 10.9243 78.5195 10.7709C78.9099 10.5003 79.2954 10.2263 79.6723 9.93739C80.0843 9.6221 80.4953 9.30541 80.9054 8.98734C81.6476 8.41074 82.3789 7.82286 83.1048 7.22664C83.826 6.63459 84.5222 6.01737 85.2192 5.39754C85.5852 5.072 85.9458 4.74229 86.299 4.40252C86.6178 4.09677 86.9176 3.77054 87.2201 3.4476C87.6112 3.03056 88.0041 2.60936 88.3742 2.17339C88.549 1.96782 88.7193 1.76156 88.8746 1.54124C89.04 1.30529 89.1852 1.0577 89.3258 0.806124C89.3953 0.68129 89.4378 0.564617 89.4115 0.418775C89.3878 0.289253 89.3135 0.171191 89.2061 0.0946236C89.1197 0.0329881 89.0158 0 88.9112 0C88.8808 0 88.8507 0.00295156 88.8206 0.00850745Z" fill="#2C2C2C"/>
<path fill-rule="evenodd" clip-rule="evenodd" d="M32.2804 39.4496C31.3823 39.5767 30.4844 39.7032 29.598 39.8976C28.7183 40.0907 27.8458 40.3187 26.9784 40.5587C26.575 40.6705 26.1737 40.7936 25.7737 40.9161C25.311 41.0566 24.8493 41.1985 24.3913 41.3547C23.9405 41.5086 23.4939 41.6748 23.0473 41.8403C22.6582 41.9849 22.2684 42.1261 21.8814 42.2761C21.0334 42.605 20.1916 42.9529 19.3524 43.3047C18.9389 43.4783 18.5335 43.6725 18.1283 43.8657C17.7358 44.0521 17.342 44.2349 16.9508 44.4247C16.117 44.8303 15.3097 45.2869 14.4815 45.7033C14.1154 45.8871 13.7459 46.0653 13.3864 46.2625C12.9473 46.5025 12.5123 46.7488 12.0757 46.993C11.3266 47.4119 10.5666 47.8075 9.83919 48.2643C9.4345 48.5178 9.03934 48.7815 8.64886 49.0567C8.28003 49.3163 7.92333 49.5934 7.56611 49.8672C7.23384 50.1216 6.90625 50.3799 6.57952 50.6408C6.2391 50.9132 5.91428 51.2065 5.58599 51.4937C5.30379 51.7406 5.02227 51.9876 4.74682 52.2424C4.45994 52.5081 4.19332 52.7974 3.93138 53.0873C3.70946 53.3321 3.50989 53.5978 3.31292 53.8622C3.20534 54.0068 3.10053 54.1536 2.99555 54.2994C2.94271 54.3721 2.89541 54.4461 2.84933 54.5228C2.78506 54.6297 2.73777 54.7361 2.7194 54.8598C2.7052 54.9588 2.70936 55.0475 2.72824 55.1451C2.78038 55.4074 3.03556 55.589 3.30339 55.5405C3.55251 55.4955 3.70548 55.281 3.70617 55.0435C3.85637 54.8134 4.02355 54.5934 4.18587 54.3714C4.35236 54.1448 4.52559 53.9249 4.71096 53.7136C5.07788 53.3315 5.45953 52.9683 5.86075 52.6218C6.32018 52.225 6.77563 51.8233 7.24199 51.4339C7.46252 51.249 7.69466 51.0754 7.92264 50.8991C8.14335 50.7289 8.36319 50.5588 8.58528 50.3912C9.07589 50.0213 9.57119 49.6628 10.0848 49.3237C10.4441 49.1018 10.8062 48.8851 11.173 48.6745C11.5439 48.462 11.9234 48.2649 12.2976 48.0584C12.6813 47.8473 13.0583 47.6253 13.442 47.4133C13.8589 47.1839 14.2798 46.9633 14.7055 46.7495C15.4944 46.3532 16.2686 45.9294 17.0536 45.5265C17.4719 45.3112 17.9023 45.1175 18.3272 44.9143C18.7319 44.7219 19.1345 44.5261 19.5434 44.3433C20.0433 44.1192 20.5537 43.9167 21.0611 43.7096C21.5396 43.5144 22.0167 43.3147 22.5005 43.1344C22.9993 42.9481 23.4981 42.7624 23.9973 42.5796C24.5287 42.3858 25.0626 42.2041 25.6019 42.0326L25.4761 42.0729C26.3442 41.8093 27.2111 41.5456 28.0896 41.3188C28.9341 41.101 29.7847 40.8816 30.6454 40.7383C31.5882 40.581 32.5349 40.4578 33.4796 40.318C33.7398 40.2792 33.9996 40.2388 34.2593 40.1976C34.2098 40.1547 34.1628 40.1101 34.1204 40.0576C34.0223 39.9352 33.929 39.8324 33.8572 39.6998C33.8559 39.6965 33.8538 39.6931 33.8517 39.6903C33.8098 39.648 33.7665 39.6077 33.7211 39.5679C33.6196 39.4947 33.5182 39.4206 33.4241 39.338C33.407 39.323 33.39 39.307 33.3734 39.2903C33.0092 39.345 32.6451 39.3983 32.2804 39.4496Z" fill="#2C2C2C"/>
<path fill-rule="evenodd" clip-rule="evenodd" d="M53.0103 39.9876C52.9178 40.1241 52.8232 40.27 52.707 40.3855C52.6866 40.4058 52.6658 40.4251 52.6445 40.444C52.6758 40.4502 52.7073 40.4564 52.7388 40.4625C53.2386 40.5618 53.7393 40.6591 54.2391 40.7563C54.7702 40.8597 55.299 40.9699 55.8281 41.0833C57.5973 41.5008 59.3653 41.925 61.1198 42.4047C61.9857 42.6418 62.8444 42.9058 63.7084 43.149C64.6064 43.4023 65.496 43.6805 66.3865 43.959C66.8289 44.0975 67.2721 44.2332 67.7133 44.3764C68.1192 44.5075 68.5185 44.6621 68.9158 44.8182C69.3265 44.9796 69.7366 45.143 70.1527 45.291C70.5688 45.4389 70.9869 45.5788 71.4051 45.7213C72.2327 46.0037 73.0604 46.2942 73.8756 46.6124C74.3087 46.7812 74.7403 46.952 75.1673 47.1351C75.5964 47.319 76.0232 47.5054 76.4563 47.6783C76.8868 47.8506 77.3191 48.0174 77.7589 48.1639C78.1716 48.3017 78.5871 48.4314 79.0012 48.5646C79.9145 48.8584 80.8198 49.1745 81.7352 49.4616C82.1474 49.5906 82.556 49.7277 82.9572 49.8865C83.3612 50.0459 83.7687 50.2007 84.1653 50.3776C84.9887 50.7451 85.8008 51.1376 86.6154 51.5219C86.7567 51.5888 86.8971 51.6564 87.037 51.7245C87.12 51.7698 87.2004 51.8164 87.2815 51.8663C87.4187 51.9509 87.5382 52.0609 87.6599 52.1657C87.7571 52.2494 87.918 52.2724 88.0395 52.2501C88.1672 52.2271 88.2834 52.1536 88.3585 52.0474C88.4361 51.9379 88.4672 51.7996 88.4429 51.6678C88.4178 51.53 88.3429 51.4375 88.2409 51.3489C88.1463 51.2673 88.051 51.1876 87.9531 51.1105C87.868 51.043 87.7692 50.9889 87.676 50.9335C87.4882 50.8234 87.2897 50.7288 87.0937 50.6342C86.862 50.5215 86.6302 50.4101 86.3973 50.2992C86.0284 50.1235 85.6616 49.942 85.2899 49.7709C84.8766 49.5812 84.4624 49.39 84.0381 49.2245C83.6044 49.055 83.1708 48.8874 82.7329 48.7294C82.331 48.5841 81.9156 48.4747 81.5102 48.3396C81.036 48.1809 80.5618 48.0207 80.0881 47.8606C79.2511 47.577 78.4012 47.3337 77.5711 47.0305C76.6873 46.7082 75.8275 46.3251 74.9579 45.9672C74.1357 45.6295 73.2961 45.3329 72.459 45.0337C71.6322 44.7385 70.7945 44.4771 69.9757 44.1596C69.575 44.0043 69.1771 43.8388 68.7738 43.6907C68.3381 43.5306 67.9023 43.3753 67.4592 43.2375C66.5729 42.9625 65.6899 42.6755 64.8009 42.4093C64.3909 42.2864 63.9781 42.1722 63.5666 42.0526C63.135 41.927 62.704 41.798 62.2716 41.6723C61.3995 41.4183 60.5252 41.1698 59.6443 40.9462C58.7593 40.7212 57.8723 40.499 56.9846 40.2856C56.0612 40.0639 55.1356 39.8572 54.2033 39.6755C53.879 39.6127 53.5546 39.5484 53.2303 39.4839C53.1852 39.662 53.1151 39.8332 53.0103 39.9876Z" fill="#2C2C2C"/>
<path fill-rule="evenodd" clip-rule="evenodd" d="M38.3858 39.6955C38.3652 39.6987 38.3448 39.7014 38.3242 39.7045C38.3827 39.7014 38.4414 39.6988 38.5 39.6959C38.4941 39.6897 38.4883 39.6838 38.4825 39.6774C38.4507 39.6848 38.4182 39.6909 38.3858 39.6955Z" fill="#2C2C2C"/>
<path fill-rule="evenodd" clip-rule="evenodd" d="M20.5221 42.863C20.5219 42.8747 20.5218 42.8866 20.5218 42.8983C20.5218 42.8866 20.5219 42.8747 20.5221 42.863ZM20.129 19.867C20.1288 19.8769 20.1289 19.887 20.1289 19.8969C20.1289 19.887 20.1288 19.877 20.129 19.867ZM20.4493 18.0857C20.3472 18.099 20.253 18.1537 20.1895 18.2355C20.1186 18.3274 20.1035 18.4262 20.1069 18.5394C20.1207 18.9668 20.1285 19.3939 20.129 19.8216C20.1123 20.7363 20.104 21.6513 20.0811 22.5655C20.069 23.0237 20.0582 23.4812 20.0543 23.9398C20.0497 24.4241 20.0738 24.9113 20.0983 25.3946C20.1473 26.3579 20.1956 27.3213 20.2573 28.2841C20.2847 28.7204 20.3236 29.1554 20.3582 29.5907C20.3748 29.7997 20.3916 30.008 20.404 30.2172C20.4172 30.4442 20.4367 30.6713 20.4426 30.8984C20.4672 31.8929 20.4824 32.8875 20.5091 33.8813C20.5321 34.749 20.5837 35.6156 20.6018 36.483C20.6103 36.8983 20.6282 37.3134 20.6272 37.7289C20.6264 38.1039 20.6258 38.4796 20.6249 38.8553C20.6111 39.492 20.5983 40.1287 20.5744 40.7656C20.5496 41.4448 20.5268 42.1235 20.5224 42.8039C20.5213 42.8644 20.518 42.923 20.5097 42.9819C20.507 42.9882 20.5042 42.9943 20.5015 43.0007C20.4278 43.1673 20.4837 43.3732 20.6208 43.4845C20.7054 43.5527 20.8145 43.5844 20.9216 43.5699C21.0149 43.5574 21.1335 43.5029 21.1852 43.4171C21.1957 43.3988 21.2067 43.3813 21.217 43.3639C21.2561 43.3155 21.2802 43.2618 21.291 43.201C21.3136 43.1195 21.3294 43.046 21.3381 42.9618C21.3459 42.8879 21.3466 42.8124 21.3499 42.7375C21.3559 42.6099 21.3608 42.483 21.3662 42.3552C21.3749 42.1405 21.3848 41.926 21.395 41.7113C21.4171 41.2407 21.4348 40.7707 21.4499 40.2997C21.4659 39.8172 21.4798 39.3339 21.4793 38.8512C21.4787 38.4196 21.4862 37.9872 21.4755 37.5555C21.4642 37.0976 21.4581 36.639 21.4398 36.1812C21.4209 35.7028 21.4024 35.225 21.3829 34.7464C21.342 33.7487 21.3124 32.7507 21.2948 31.752C21.2871 31.3362 21.2787 30.9196 21.2551 30.5048C21.2268 30.024 21.1915 29.5439 21.1531 29.0637C21.0777 28.1248 21.0256 27.1852 20.9772 26.2444C20.9385 25.4843 20.9005 24.7247 20.8832 23.9631C20.8874 23.4811 20.8983 22.9993 20.9076 22.517C20.9169 22.0045 20.9161 21.4914 20.917 20.9785L20.9171 21.087C20.9197 20.6536 20.9285 20.2198 20.9236 19.786C20.9188 19.3354 20.9058 18.8856 20.8904 18.4352C20.887 18.3348 20.8182 18.2298 20.7445 18.1697C20.6805 18.1173 20.6012 18.0869 20.5202 18.0826C20.4966 18.0814 20.4728 18.0825 20.4493 18.0857Z" fill="#2C2C2C"/>
<path fill-rule="evenodd" clip-rule="evenodd" d="M2.52782 50.9056C2.52784 50.9095 2.52785 50.9135 2.52787 50.9175C2.52785 50.9135 2.52784 50.9095 2.52782 50.9056ZM2.83782 26.5317C2.83806 26.5337 2.83799 26.5356 2.83793 26.5375C2.83784 26.5356 2.83791 26.5337 2.83782 26.5317ZM2.14398 7.26101C2.12517 7.4377 2.10823 7.61379 2.09173 7.79056C2.07919 7.92436 2.05885 8.06104 2.05479 8.19497C2.04639 8.47077 2.0374 8.74588 2.02887 9.02101C2.02439 9.14932 2.03434 9.27928 2.03838 9.4064C2.04424 9.60079 2.05073 9.79455 2.05661 9.98828C2.06391 10.2252 2.07736 10.4624 2.08961 10.699C2.11567 11.1933 2.14299 11.6869 2.16242 12.1812C2.18228 12.6985 2.19918 13.217 2.23295 13.7335C2.26988 14.296 2.30868 14.8585 2.3487 15.4211C2.3858 15.9435 2.40308 16.4686 2.41841 16.9922C2.4353 17.5461 2.45328 18.0996 2.47125 18.6536C2.47855 18.8771 2.49602 19.1009 2.50872 19.3244C2.52441 19.5991 2.54012 19.8733 2.55582 20.1479C2.58624 20.6894 2.62575 21.2314 2.66113 21.7724C2.69587 22.3096 2.71994 22.8478 2.74929 23.3848C2.77849 23.9129 2.78818 24.4434 2.80719 24.9717C2.82586 25.4791 2.82796 25.9884 2.83705 26.4963C2.84112 27.4837 2.84287 28.4711 2.8184 29.4588C2.79057 30.5691 2.75717 31.68 2.7352 32.7906C2.69479 34.8616 2.69831 36.9329 2.67843 39.0033C2.66847 40.0479 2.65667 41.0924 2.62682 42.1369C2.61168 42.6763 2.59576 43.2162 2.58122 43.7561C2.56676 44.3071 2.54378 44.8592 2.53671 45.4104C2.51739 46.9791 2.49931 48.5478 2.51809 50.1158C2.51764 50.0758 2.51717 50.0363 2.51687 49.9964C2.51723 50.0035 2.51701 50.0099 2.51722 50.017L2.51858 50.1371C2.52165 50.4026 2.52485 50.6685 2.52788 50.9348C2.528 50.9844 2.52662 51.0329 2.53003 51.0807C2.53034 51.1028 2.53048 51.1253 2.53078 51.1476C2.53169 51.2275 2.53429 51.3077 2.53563 51.3883C2.54497 51.8272 2.55383 52.2668 2.57087 52.7061C2.58799 53.1342 2.60308 53.5631 2.62545 53.9908C2.65035 54.4698 2.67154 54.949 2.73018 55.4245C2.75772 55.6512 2.96472 55.812 3.17433 55.7787C3.39544 55.7431 3.52456 55.529 3.50725 55.3007C3.48044 54.9469 3.46987 54.5918 3.45697 54.2372C3.44417 53.8794 3.43077 53.5216 3.42167 53.164C3.40459 52.4743 3.39245 51.7843 3.38231 51.0948C3.38231 51.0946 3.38232 51.0944 3.38248 51.0941C3.3868 51.0545 3.38618 51.0148 3.38104 50.9765C3.36192 48.9631 3.35569 46.9473 3.40843 44.9338C3.46426 42.8008 3.52485 40.6686 3.53615 38.5346C3.5478 36.391 3.5625 34.2481 3.60651 32.105C3.62753 31.0924 3.67426 30.0808 3.68495 29.0685C3.69072 28.5236 3.6971 27.9788 3.69318 27.4331C3.69001 26.8704 3.68371 26.3091 3.67081 25.7469C3.64687 24.6888 3.60727 23.6327 3.54545 22.5774C3.48389 21.5277 3.40733 20.4795 3.34575 19.4305C3.32873 19.1409 3.31171 18.8513 3.29466 18.5624C3.27853 18.2825 3.27695 18.0012 3.26805 17.7217C3.25243 17.2373 3.24889 16.7516 3.22494 16.2676C3.19603 15.6958 3.16477 15.1252 3.12627 14.5543C3.09259 14.0531 3.06261 13.5516 3.04098 13.0497C3.01023 12.3584 2.98269 11.6679 2.94532 10.9765C2.92838 10.667 2.90915 10.3567 2.89113 10.047C2.87204 9.72399 2.8661 9.39948 2.85474 9.07593C2.86137 8.81527 2.8677 8.55476 2.87401 8.29458C2.87694 8.1753 2.89441 8.05471 2.90517 7.93636C2.92145 7.74407 2.93972 7.55184 2.95908 7.35965C2.98357 7.12191 2.82323 6.90082 2.59954 6.87369C2.58879 6.87249 2.57818 6.87162 2.5674 6.87125C2.35844 6.86395 2.16792 7.03481 2.14398 7.26101Z" fill="#2C2C2C"/>
<path fill-rule="evenodd" clip-rule="evenodd" d="M65.3001 15.9589C65.2392 16.0157 65.1906 16.0848 65.141 16.1538C65.0817 16.2364 65.022 16.3182 64.9627 16.4001C64.8376 16.5713 64.8957 16.846 65.0471 16.9678C65.1206 17.0266 65.2122 17.0524 65.3013 17.0395C65.3009 17.29 65.2947 17.5407 65.2923 17.7907C65.2906 17.9884 65.2888 18.1853 65.2869 18.3821C65.2822 18.8904 65.2774 19.398 65.2738 19.9061C65.2666 20.8948 65.2571 21.8828 65.2583 22.8714C65.2588 23.8717 65.2702 24.8711 65.2851 25.8707C65.3019 26.9413 65.3127 28.0117 65.3217 29.0823C65.3294 30.0014 65.3444 30.9202 65.3474 31.8392C65.3509 32.874 65.3528 33.9086 65.3528 34.9426C65.3522 36.9416 65.3372 38.9413 65.3731 40.9396C65.3791 41.2895 65.3923 41.6386 65.4036 41.9879C65.4096 42.1692 65.4174 42.352 65.431 42.5332C65.4376 42.6254 65.4454 42.7167 65.4568 42.8087C65.4627 42.858 65.4718 42.9062 65.4825 42.9542C65.4957 43.0159 65.5148 43.0746 65.5393 43.1316C65.5759 43.2229 65.6356 43.2804 65.7021 43.3419C65.8457 43.476 66.0753 43.4489 66.2123 43.3202C66.3673 43.1751 66.403 42.9277 66.3142 42.7335C66.2913 42.5956 66.2895 42.4507 66.2835 42.3116C66.2851 42.3447 66.2867 42.3782 66.2883 42.4114C66.2255 40.4518 66.2308 38.4905 66.2284 36.5302C66.2261 34.5265 66.2267 32.522 66.2004 30.519C66.1866 29.4829 66.1759 28.4476 66.1609 27.4115C66.1465 26.3816 66.1197 25.351 66.0975 24.3211C66.0765 23.3289 66.0765 22.3363 66.0724 21.3435C66.0676 20.3467 66.0639 19.3498 66.0604 18.353C66.0586 17.9877 66.0561 17.6228 66.0538 17.2575C66.0526 17.0193 66.0485 16.7818 66.031 16.5443C66.0275 16.4963 66.0234 16.4481 66.0191 16.4001C66.0119 16.3182 65.9832 16.2404 65.9587 16.164C65.9336 16.1172 65.9079 16.0718 65.8803 16.0273C65.8439 15.9677 65.7463 15.9 65.6883 15.8763C65.6488 15.86 65.6071 15.8522 65.565 15.8522C65.4698 15.8522 65.3731 15.8917 65.3001 15.9589Z" fill="#2C2C2C"/>
<path fill-rule="evenodd" clip-rule="evenodd" d="M87.6609 51.9915C87.6609 51.9918 87.6608 51.9923 87.6608 51.9929C87.66 51.9965 87.6592 52.0005 87.6584 52.0041C87.6592 52 87.6601 51.9956 87.6609 51.9915ZM86.804 2.92517C86.7621 3.56199 86.7277 4.19812 86.7013 4.83546C86.6792 5.37354 86.6744 5.91282 86.6657 6.45159C86.6486 7.54576 86.6509 8.64063 86.6461 9.73497C86.638 11.8665 86.6097 13.9996 86.6731 16.1299C86.7063 17.2429 86.7492 18.3548 86.7769 19.468C86.804 20.5642 86.807 21.6612 86.8095 22.7576C86.8114 23.8273 86.8255 24.8959 86.8463 25.9651C86.8574 26.5335 86.8733 27.1027 86.8868 27.6718C86.8997 28.209 86.9004 28.7471 86.9065 29.285C86.912 29.8203 86.9004 30.3549 86.893 30.8902C86.8856 31.4221 86.8585 31.9539 86.8378 32.4852C86.8169 33.024 86.7978 33.5619 86.7782 34.1007C86.7566 34.6772 86.7573 35.2551 86.7473 35.8317C86.7395 36.2939 86.7511 36.7561 86.7573 37.2183C86.7621 37.5883 86.7676 37.9585 86.7727 38.3287C86.775 38.4966 86.7763 38.6643 86.7867 38.8322L86.9084 40.85C86.9367 41.3192 86.9845 41.7853 87.0293 42.2529C87.1043 43.0325 87.1891 43.81 87.2751 44.5883C87.3168 44.9658 87.355 45.3442 87.3943 45.7218C87.4127 45.9025 87.4189 46.0851 87.4311 46.2665C87.4431 46.4401 87.4549 46.6131 87.467 46.7865C87.4757 47.1983 87.4851 47.6101 87.4933 48.0226C87.5024 48.4631 87.4895 48.9058 87.4876 49.3468C87.4859 49.7557 87.4815 50.1643 87.4852 50.5725C87.4871 50.7883 87.4865 51.0035 87.4914 51.2187C87.5005 51.6024 87.4852 52.0017 87.5601 52.3773C87.5939 52.545 87.6922 52.6851 87.8415 52.7447C87.9835 52.8015 88.1573 52.7745 88.2716 52.6628C88.3145 52.6234 88.3532 52.5801 88.3883 52.5328C88.4172 52.4814 88.4411 52.4273 88.4602 52.371C88.4737 52.3116 88.4847 52.252 88.4933 52.1917C88.505 52.1174 88.5143 52.0429 88.524 51.9691C88.5427 51.8274 88.4869 51.6919 88.3954 51.5977C88.3861 50.6132 88.3985 49.6287 88.406 48.6452C88.4105 48.0766 88.4012 47.5096 88.3919 46.9412C88.3877 46.6868 88.3693 46.4337 88.3538 46.1799C88.3391 45.9377 88.3306 45.6934 88.3065 45.4517C88.1978 44.3555 88.0719 43.2612 87.9626 42.1642C87.9152 41.6885 87.8617 41.2142 87.8311 40.7364L87.7002 38.6859C87.6999 38.6814 87.6998 38.6771 87.6994 38.6726C87.6903 38.0904 87.6809 37.5074 87.6713 36.9252C87.6677 36.6911 87.6641 36.4562 87.6597 36.2222C87.6567 36.0075 87.6671 35.7917 87.6702 35.5765C87.6787 35.0419 87.6818 34.5066 87.7015 33.972C87.7218 33.4192 87.7421 32.8664 87.7628 32.3134C87.7844 31.7483 87.8047 31.186 87.8108 30.6209C87.8139 30.3231 87.8176 30.0261 87.8207 29.7283C87.8231 29.4894 87.8139 29.2492 87.8108 29.0096C87.8034 28.4933 87.7973 27.9769 87.7837 27.46C87.769 26.9146 87.7537 26.3684 87.7414 25.8223C87.7292 25.2708 87.715 24.7193 87.7106 24.1671C87.7064 23.6143 87.7021 23.0613 87.6996 22.5085C87.6941 21.3927 87.6774 20.2774 87.6455 19.1622C87.613 18.0504 87.5645 16.9392 87.5269 15.8274C87.4926 14.7947 87.4914 13.76 87.4882 12.7266C87.4808 10.5511 87.4656 8.37471 87.4815 6.19849C87.4852 5.71585 87.4901 5.23339 87.5068 4.75092C87.5265 4.16486 87.5571 3.58018 87.5945 2.99481C87.61 2.75799 87.4483 2.54352 87.2309 2.52464C87.2206 2.52377 87.2105 2.52325 87.2001 2.52325C86.9985 2.52325 86.8191 2.69909 86.804 2.92517Z" fill="#2C2C2C"/>
</svg>
