<svg width="100%" height="96px" viewBox="0 0 100 100" version="1.1" xmlns="http://www.w3.org/2000/svg" xmlns:xlink="http://www.w3.org/1999/xlink" preserveAspectRatio="none">
  <path fill="#ffffff" d="M0,-2.13162821e-14 C16.6666667,66.6666667 33.3333333,100 50,100 C66.6666667,100 83.3333333,66.6666667 100,-2.13162821e-14 L100,100 L0,100 L0,-2.13162821e-14 Z"></path>
  <path fill="#ffffff" d="M0,2.13162821e-14 C11.1107835,33.3333333 19.4438711,50 24.9992629,50 C33.3328419,50 41.666421,5.09814413e-13 50,5.09814413e-13 C58.333579,5.09814413e-13 66.6671581,50 75.0007371,50 C80.5561289,50 88.8892165,33.3333333 100,2.13162821e-14 L100,100 L0,100 L0,2.13162821e-14 Z" fill-opacity="0.1"></path>
  <path fill="#ffffff" d="M0,2.13162821e-14 C44.4442806,66.6666667 69.4442806,100 75,100 C80.5553918,100 88.8887251,66.6666667 100,2.13162821e-14 L100,100 L0,100 L0,2.13162821e-14 Z" fill-opacity="0.1"></path>
  <path fill="#ffffff" d="M0,-2.13162821e-14 C44.4442806,66.6666667 69.4442806,100 75,100 C80.5553918,100 88.8887251,66.6666667 100,-2.13162821e-14 L100,100 L0,100 L0,-2.13162821e-14 Z" fill-opacity="0.1" transform="translate(50.000000, 50.000000) scale(-1, 1) translate(-50.000000, -50.000000) "></path>
</svg>