<svg width="24" height="24" viewBox="0 0 24 24" fill="none" xmlns="http://www.w3.org/2000/svg">
<path d="M14.8517 18.1136C14.9506 18.2121 15 18.3402 15 18.4977C15 18.6356 14.9506 18.7538 14.8517 18.8523C14.7331 18.9508 14.6045 19 14.4661 19C14.3277 19 14.209 18.9508 14.1102 18.8523L8.14831 12.8841C8.04944 12.7659 8 12.6379 8 12.5C8 12.3621 8.04944 12.2341 8.14831 12.1159L14.1102 6.14773C14.209 6.04924 14.3277 6 14.4661 6C14.6045 6 14.7331 6.04924 14.8517 6.14773C14.9506 6.24621 15 6.37424 15 6.53182C15 6.6697 14.9506 6.78788 14.8517 6.88636L9.42373 12.5L14.8517 18.1136Z" fill="#212529"/>
</svg>
