<svg width="48" height="48" viewBox="0 0 48 48" fill="none" xmlns="http://www.w3.org/2000/svg">
<path d="M43.3125 0H4.6875C2.09867 0 0 2.09867 0 4.6875V43.3125C0 45.9013 2.09867 48 4.6875 48H43.3125C45.9013 48 48 45.9013 48 43.3125V4.6875C48 2.09867 45.9013 0 43.3125 0Z" fill="#0091E6"/>
<path d="M39.51 6.24002H29.37C28.1274 6.24002 27.12 7.24738 27.12 8.49002V24.99C27.12 26.2327 28.1274 27.24 29.37 27.24H39.51C40.7526 27.24 41.76 26.2327 41.76 24.99V8.49002C41.76 7.24738 40.7526 6.24002 39.51 6.24002Z" fill="white"/>
<path d="M18.63 6.24002H8.48999C7.24735 6.24002 6.23999 7.24738 6.23999 8.49002V36.99C6.23999 38.2327 7.24735 39.24 8.48999 39.24H18.63C19.8726 39.24 20.88 38.2327 20.88 36.99V8.49002C20.88 7.24738 19.8726 6.24002 18.63 6.24002Z" fill="white"/>
</svg>
