<?xml version="1.0" encoding="UTF-8"?>
<svg width="596px" height="623px" viewBox="0 0 596 623" version="1.1" xmlns="http://www.w3.org/2000/svg" xmlns:xlink="http://www.w3.org/1999/xlink">
    <!-- Generator: Sketch 52.2 (67145) - http://www.bohemiancoding.com/sketch -->
    <title>9_work</title>
    <desc>Created with Sketch.</desc>
    <defs>
        <linearGradient x1="-148.662233%" y1="-92.8672664%" x2="-162.537924%" y2="-102.861724%" id="linearGradient-1">
            <stop stop-color="#EAF1FC" offset="0%"></stop>
            <stop stop-color="#C0D4F4" offset="100%"></stop>
        </linearGradient>
        <linearGradient x1="-1.45561645%" y1="51.4574669%" x2="101.273567%" y2="49.6937618%" id="linearGradient-2">
            <stop stop-color="#223762" offset="0%"></stop>
            <stop stop-color="#041B48" offset="100%"></stop>
        </linearGradient>
        <linearGradient x1="105.837733%" y1="1.73213301%" x2="2.53408893%" y2="90.5527834%" id="linearGradient-3">
            <stop stop-color="#223762" offset="0%"></stop>
            <stop stop-color="#041B48" offset="100%"></stop>
        </linearGradient>
        <linearGradient x1="2.69327162%" y1="51.6855245%" x2="76.0716483%" y2="49.9826626%" id="linearGradient-4">
            <stop stop-color="#3769A5" offset="0%"></stop>
            <stop stop-color="#08448B" offset="100%"></stop>
        </linearGradient>
        <linearGradient x1="65.5707674%" y1="0.546085696%" x2="1.37197598%" y2="131.444467%" id="linearGradient-5">
            <stop stop-color="#4C93F4" offset="0%"></stop>
            <stop stop-color="#0B63DA" offset="100%"></stop>
        </linearGradient>
        <linearGradient x1="99.109269%" y1="-9.01272749%" x2="15.2747007%" y2="91.7603998%" id="linearGradient-6">
            <stop stop-color="#3769A5" offset="0%"></stop>
            <stop stop-color="#08448B" offset="100%"></stop>
        </linearGradient>
        <linearGradient x1="252.033133%" y1="-249.535865%" x2="181.400602%" y2="-144.810127%" id="linearGradient-7">
            <stop stop-color="#4C93F4" offset="0%"></stop>
            <stop stop-color="#0B63DA" offset="100%"></stop>
        </linearGradient>
        <linearGradient x1="376.540084%" y1="270.105422%" x2="271.814346%" y2="199.472892%" id="linearGradient-8">
            <stop stop-color="#4C93F4" offset="0%"></stop>
            <stop stop-color="#0B63DA" offset="100%"></stop>
        </linearGradient>
        <linearGradient x1="368.111931%" y1="264.254386%" x2="291.789668%" y2="212.828947%" id="linearGradient-9">
            <stop stop-color="#4C93F4" offset="0%"></stop>
            <stop stop-color="#0B63DA" offset="100%"></stop>
        </linearGradient>
        <linearGradient x1="413.96064%" y1="295.120614%" x2="337.638376%" y2="243.695175%" id="linearGradient-10">
            <stop stop-color="#4C93F4" offset="0%"></stop>
            <stop stop-color="#0B63DA" offset="100%"></stop>
        </linearGradient>
        <linearGradient x1="1.31968905%" y1="-5.31421294%" x2="65.97433%" y2="88.0480513%" id="linearGradient-11">
            <stop stop-color="#3769A5" offset="0%"></stop>
            <stop stop-color="#08448B" offset="100%"></stop>
        </linearGradient>
        <linearGradient x1="19.2856852%" y1="-9.26201797%" x2="83.9418743%" y2="84.1043025%" id="linearGradient-12">
            <stop stop-color="#4C93F4" offset="0%"></stop>
            <stop stop-color="#0B63DA" offset="100%"></stop>
        </linearGradient>
        <linearGradient x1="10.1918059%" y1="-22.3924115%" x2="102.865465%" y2="111.43443%" id="linearGradient-13">
            <stop stop-color="#4C93F4" offset="0%"></stop>
            <stop stop-color="#0B63DA" offset="100%"></stop>
        </linearGradient>
        <linearGradient x1="251.65692%" y1="-249.562363%" x2="181.189084%" y2="-144.803063%" id="linearGradient-14">
            <stop stop-color="#4C93F4" offset="0%"></stop>
            <stop stop-color="#0B63DA" offset="100%"></stop>
        </linearGradient>
        <linearGradient x1="251.65692%" y1="-249.507659%" x2="181.189084%" y2="-144.803063%" id="linearGradient-15">
            <stop stop-color="#4C93F4" offset="0%"></stop>
            <stop stop-color="#0B63DA" offset="100%"></stop>
        </linearGradient>
        <linearGradient x1="376.531729%" y1="269.785575%" x2="271.827133%" y2="199.317739%" id="linearGradient-16">
            <stop stop-color="#4C93F4" offset="0%"></stop>
            <stop stop-color="#0B63DA" offset="100%"></stop>
        </linearGradient>
        <linearGradient x1="376.531729%" y1="269.688109%" x2="271.827133%" y2="199.220273%" id="linearGradient-17">
            <stop stop-color="#4C93F4" offset="0%"></stop>
            <stop stop-color="#0B63DA" offset="100%"></stop>
        </linearGradient>
        <linearGradient x1="368.181818%" y1="264.438122%" x2="291.826156%" y2="212.944523%" id="linearGradient-18">
            <stop stop-color="#4C93F4" offset="0%"></stop>
            <stop stop-color="#0B63DA" offset="100%"></stop>
        </linearGradient>
        <linearGradient x1="295.305832%" y1="-313.995215%" x2="243.883357%" y2="-237.639553%" id="linearGradient-19">
            <stop stop-color="#4C93F4" offset="0%"></stop>
            <stop stop-color="#0B63DA" offset="100%"></stop>
        </linearGradient>
        <linearGradient x1="3.52941176%" y1="61.8663817%" x2="40.5572755%" y2="44.7286851%" id="linearGradient-20">
            <stop stop-color="#FFC063" offset="0%"></stop>
            <stop stop-color="#E44D0B" offset="95%"></stop>
        </linearGradient>
        <linearGradient x1="61.5781863%" y1="-23.8223419%" x2="26.2342491%" y2="164.356214%" id="linearGradient-21">
            <stop stop-color="#FFC063" offset="0%"></stop>
            <stop stop-color="#E44D0B" offset="95%"></stop>
        </linearGradient>
        <linearGradient x1="-402.809407%" y1="967.351666%" x2="-436.460984%" y2="1032.55356%" id="linearGradient-22">
            <stop stop-color="#EAF1FC" offset="0%"></stop>
            <stop stop-color="#C0D4F4" offset="100%"></stop>
        </linearGradient>
        <linearGradient x1="37.1134021%" y1="96.0419735%" x2="69.6612666%" y2="-20.1215022%" id="linearGradient-23">
            <stop stop-color="#223762" offset="0%"></stop>
            <stop stop-color="#041B48" offset="100%"></stop>
        </linearGradient>
        <linearGradient x1="46.3347638%" y1="102.422213%" x2="71.7628967%" y2="-23.6116581%" id="linearGradient-24">
            <stop stop-color="#4C93F4" offset="0%"></stop>
            <stop stop-color="#0B63DA" offset="100%"></stop>
        </linearGradient>
        <linearGradient x1="37.0949926%" y1="96.0419735%" x2="69.6612666%" y2="-20.1215022%" id="linearGradient-25">
            <stop stop-color="#223762" offset="0%"></stop>
            <stop stop-color="#041B48" offset="100%"></stop>
        </linearGradient>
        <linearGradient x1="42.3084406%" y1="97.3747108%" x2="76.0312219%" y2="-13.842716%" id="linearGradient-26">
            <stop stop-color="#4C93F4" offset="0%"></stop>
            <stop stop-color="#0B63DA" offset="100%"></stop>
        </linearGradient>
        <linearGradient x1="37.0872747%" y1="96.0199893%" x2="69.6412636%" y2="-20.1320721%" id="linearGradient-27">
            <stop stop-color="#223762" offset="0%"></stop>
            <stop stop-color="#041B48" offset="100%"></stop>
        </linearGradient>
        <linearGradient x1="31.8640185%" y1="22.3852649%" x2="83.9630575%" y2="171.24237%" id="linearGradient-28">
            <stop stop-color="#FFC063" offset="0%"></stop>
            <stop stop-color="#E44D0B" offset="95%"></stop>
        </linearGradient>
        <linearGradient x1="29.0835651%" y1="45.3712278%" x2="132.124867%" y2="92.1159907%" id="linearGradient-29">
            <stop stop-color="#F8A695" offset="0%"></stop>
            <stop stop-color="#E56045" offset="100%"></stop>
        </linearGradient>
        <linearGradient x1="-82.7854708%" y1="31.9291815%" x2="106.810248%" y2="52.0585102%" id="linearGradient-30">
            <stop stop-color="#F8A695" offset="0%"></stop>
            <stop stop-color="#E56045" offset="100%"></stop>
        </linearGradient>
        <linearGradient x1="-18.3135062%" y1="36.1382%" x2="-7.69629737%" y2="37.7557065%" id="linearGradient-31">
            <stop stop-color="#FFC063" offset="0%"></stop>
            <stop stop-color="#E44D0B" offset="95%"></stop>
        </linearGradient>
        <linearGradient x1="107.608945%" y1="-8.20377354%" x2="-29.9549401%" y2="141.059709%" id="linearGradient-32">
            <stop stop-color="#FFC063" offset="0%"></stop>
            <stop stop-color="#E58F0F" offset="100%"></stop>
        </linearGradient>
        <linearGradient x1="-67.2547925%" y1="21.5600011%" x2="-21.4055651%" y2="31.7642429%" id="linearGradient-33">
            <stop stop-color="#FFC063" offset="0%"></stop>
            <stop stop-color="#E44D0B" offset="95%"></stop>
        </linearGradient>
        <linearGradient x1="57.5488893%" y1="104.450737%" x2="55.1120182%" y2="43.4223787%" id="linearGradient-34">
            <stop stop-color="#F8A695" offset="0%"></stop>
            <stop stop-color="#E56045" offset="100%"></stop>
        </linearGradient>
        <linearGradient x1="62.3435337%" y1="12.7864587%" x2="54.6749926%" y2="26.4666002%" id="linearGradient-35">
            <stop stop-color="#223762" offset="0%"></stop>
            <stop stop-color="#041B48" offset="100%"></stop>
        </linearGradient>
        <linearGradient x1="37.3500758%" y1="87.3742193%" x2="62.4143617%" y2="-8.39349148%" id="linearGradient-36">
            <stop stop-color="#F8A695" offset="0%"></stop>
            <stop stop-color="#E56045" offset="100%"></stop>
        </linearGradient>
        <linearGradient x1="50.1757236%" y1="28.5029747%" x2="66.7338337%" y2="101.180064%" id="linearGradient-37">
            <stop stop-color="#223762" offset="0%"></stop>
            <stop stop-color="#041B48" offset="100%"></stop>
        </linearGradient>
        <linearGradient x1="100.6195%" y1="66.7935975%" x2="53.3848853%" y2="25.4452432%" id="linearGradient-38">
            <stop stop-color="#223762" offset="0%"></stop>
            <stop stop-color="#041B48" offset="100%"></stop>
        </linearGradient>
        <linearGradient x1="-31.9791283%" y1="94.734649%" x2="-14.5192548%" y2="85.2103347%" id="linearGradient-39">
            <stop stop-color="#F8A695" offset="0%"></stop>
            <stop stop-color="#E56045" offset="100%"></stop>
        </linearGradient>
        <linearGradient x1="49.0181932%" y1="92.2378883%" x2="54.442122%" y2="-14.9475961%" id="linearGradient-40">
            <stop stop-color="#4C93F4" offset="0%"></stop>
            <stop stop-color="#0B63DA" offset="100%"></stop>
        </linearGradient>
        <linearGradient x1="70.1338859%" y1="-89.6168224%" x2="64.4788014%" y2="-29.317757%" id="linearGradient-41">
            <stop stop-color="#4C93F4" offset="0%"></stop>
            <stop stop-color="#0B63DA" offset="100%"></stop>
        </linearGradient>
        <linearGradient x1="71.0558688%" y1="-244.986408%" x2="66.5094823%" y2="-157.28932%" id="linearGradient-42">
            <stop stop-color="#4C93F4" offset="0%"></stop>
            <stop stop-color="#0B63DA" offset="100%"></stop>
        </linearGradient>
        <linearGradient x1="28.0603965%" y1="34.2717415%" x2="66.4489494%" y2="48.7383196%" id="linearGradient-43">
            <stop stop-color="#F8A695" offset="0%"></stop>
            <stop stop-color="#E56045" offset="100%"></stop>
        </linearGradient>
        <linearGradient x1="-13.8589084%" y1="-20.7898687%" x2="107.500771%" y2="100.58126%" id="linearGradient-44">
            <stop stop-color="#FFC063" offset="0%"></stop>
            <stop stop-color="#E44D0B" offset="95%"></stop>
        </linearGradient>
        <linearGradient x1="141.331602%" y1="-77.5085959%" x2="-10.3437831%" y2="196.749243%" id="linearGradient-45">
            <stop stop-color="#FFC063" offset="0%"></stop>
            <stop stop-color="#E58F0F" offset="100%"></stop>
        </linearGradient>
    </defs>
    <g id="Page-1" stroke="none" stroke-width="1" fill="none" fill-rule="evenodd">
        <g id="9_work">
            <path d="M128.59,465.33 C129.38,338.09 26.4,260.54 6.59,200 C-23.17,109.09 53.83,-10.85 266.82,66.5 C479.81,143.85 534,183.92 552.17,323.23 C566.71,434.71 483.37,532.88 416.86,572 C312.8,633.18 127.8,592.57 128.59,465.33 Z" id="Path" fill="url(#linearGradient-1)" opacity="0.49"></path>
            <path d="M106.83,382.06 C101.62,446.51 127.83,506.37 160.42,546.13 C198.98,512.13 226.5,456.62 231.71,392.13 C236.92,327.64 218.66,268.49 186.06,228.73 C147.49,262.79 112,317.61 106.83,382.06 Z" id="Path" fill="url(#linearGradient-2)"></path>
            <path d="M131,135.15 C129.48,190.42 141.4,239.96 161.16,272.15 C182.66,241.08 197.29,192.27 198.81,137 C200.33,81.73 188.44,32.21 168.68,0 C147.18,31.07 132.55,79.88 131,135.15 Z" id="Path" fill="url(#linearGradient-3)"></path>
            <path d="M90,228 C86.82,177.88 80.36,87.52 76.55,34.86 C46.61,81.45 31.55,149.48 39.55,223.16 C47.49,296 76.24,358.54 114.81,397.71 C105.58,347.81 92.9,273.61 90,228 Z" id="Path" fill="url(#linearGradient-4)"></path>
            <path d="M156.1,210.48 C148,135.75 117.93,71.74 77.82,32.82 C77.38,33.48 76.98,34.19 76.55,34.82 C80.36,87.52 86.82,177.88 90,228 C92.9,273.62 105.58,347.82 114.81,397.72 C115.81,398.72 116.81,399.83 117.81,400.83 C148.65,354.18 164.22,285.21 156.1,210.48 Z" id="Path" fill="url(#linearGradient-5)"></path>
            <path d="M162,261.48 C153.44,307.75 160,351.48 177,382.06 C203.85,359.64 225.58,321.06 234.14,274.82 C242.7,228.58 236.14,184.82 219.14,154.24 C192.32,176.66 170.59,215.21 162,261.48 Z" id="Path" fill="url(#linearGradient-6)"></path>
            <ellipse id="Oval" fill="url(#linearGradient-7)" transform="translate(102.778348, 238.513463) rotate(-6.210000) translate(-102.778348, -238.513463) " cx="102.778348" cy="238.513463" rx="6.64" ry="11.85"></ellipse>
            <ellipse id="Oval" fill="url(#linearGradient-8)" transform="translate(119.451402, 249.880847) rotate(-51.210000) translate(-119.451402, -249.880847) " cx="119.451402" cy="249.880847" rx="11.85" ry="6.64"></ellipse>
            <ellipse id="Oval" fill="url(#linearGradient-9)" transform="translate(124.104444, 312.658269) rotate(-51.210000) translate(-124.104444, -312.658269) " cx="124.104444" cy="312.658269" rx="16.26" ry="9.12"></ellipse>
            <ellipse id="Oval" fill="url(#linearGradient-10)" transform="translate(123.899767, 345.318504) rotate(-71.240000) translate(-123.899767, -345.318504) " cx="123.899767" cy="345.318504" rx="16.26" ry="9.12"></ellipse>
            <path d="M27.05,391.23 C52.26,441.1 89.91,477.76 128,494.34 C72.6,442.16 3.85,248.82 3.85,248.82 C-5.37,289.32 1.84,341.37 27.05,391.23 Z" id="Path" fill="url(#linearGradient-11)"></path>
            <path d="M104.8,351.92 C79.58,302.06 41.93,265.4 3.85,248.82 C3.85,248.82 72.6,442.17 128,494.34 C137.22,453.84 130,401.78 104.8,351.92 Z" id="Path" fill="url(#linearGradient-12)"></path>
            <path d="M104.8,351.92 C79.58,302.06 41.93,265.4 3.85,248.82 C3.85,248.82 72.6,442.17 128,494.34 C137.22,453.84 130,401.78 104.8,351.92 Z" id="Path" fill="url(#linearGradient-13)"></path>
            <ellipse id="Oval" fill="url(#linearGradient-14)" transform="translate(73.037997, 392.870274) rotate(-27.930000) translate(-73.037997, -392.870274) " cx="73.037997" cy="392.870274" rx="5.13" ry="9.14"></ellipse>
            <ellipse id="Oval" fill="url(#linearGradient-15)" transform="translate(106.409011, 395.144443) rotate(-27.930000) translate(-106.409011, -395.144443) " cx="106.409011" cy="395.144443" rx="5.13" ry="9.14"></ellipse>
            <ellipse id="Oval" fill="url(#linearGradient-16)" transform="translate(88.249708, 396.266979) rotate(-72.930000) translate(-88.249708, -396.266979) " cx="88.2497078" cy="396.266979" rx="9.14" ry="5.13"></ellipse>
            <ellipse id="Oval" fill="url(#linearGradient-17)" transform="translate(93.880100, 411.782300) rotate(-73.191308) translate(-93.880100, -411.782300) " cx="93.8801" cy="411.7823" rx="9.16601199" ry="5.14459972"></ellipse>
            <ellipse id="Oval" fill="url(#linearGradient-18)" transform="translate(109.519939, 439.919939) rotate(-72.930000) translate(-109.519939, -439.919939) " cx="109.519939" cy="439.919939" rx="12.54" ry="7.03"></ellipse>
            <ellipse id="Oval" fill="url(#linearGradient-19)" transform="translate(118.688974, 463.362277) rotate(-2.960000) translate(-118.688974, -463.362277) " cx="118.688974" cy="463.362277" rx="7.03" ry="12.54"></ellipse>
            <path d="M259.27,269.42 L221.27,269.42 C218.392596,269.42 216.06,271.752596 216.06,274.63 L216.06,298.05 C216.06,300.927404 218.392596,303.26 221.27,303.26 L229.57,303.26 L237.37,314 L240.25,314 L251,303.26 L259.3,303.26 C262.177404,303.26 264.51,300.927404 264.51,298.05 L264.51,274.63 C264.510023,273.243009 263.956998,271.913258 262.973435,270.935326 C261.989872,269.957395 260.656968,269.412013 259.27,269.42 Z" id="Path" fill="url(#linearGradient-20)"></path>
            <path d="M256.39,269.42 L218.39,269.42 C215.512596,269.42 213.18,271.752596 213.18,274.63 L213.18,298.05 C213.18,300.927404 215.512596,303.26 218.39,303.26 L226.69,303.26 L237.37,314 L248.08,303.29 L256.38,303.29 C259.257404,303.29 261.59,300.957404 261.59,298.08 L261.59,274.63 C261.590005,271.756497 259.263498,269.425515 256.39,269.42 Z" id="Path" fill="url(#linearGradient-21)"></path>
            <path d="M448.45,109.5 C451.51,120.03 440.26,128.64 431.13,122.82 C409.56,109.06 366.29,86.71 332.88,78.27 C286,66.42 325,9.71 362.12,6.27 C399.24,2.83 443,91.42 448.29,109 L448.45,109.5 Z" id="Path" fill="url(#linearGradient-22)" opacity="0.49"></path>
            <rect id="Rectangle" fill="url(#linearGradient-23)" opacity="0.45" x="452.38" y="266.86" width="54.32" height="54.32"></rect>
            <path d="M436.15,313 L444.43,310.58 C452.71,308.16 452.43,290.98 452.43,290.98 L452.43,262.22 L506.7,262.22 L506.7,291 C506.7,291 507.03,308.19 498.7,310.6 L490.47,313 L436.15,313 Z" id="Path" fill="url(#linearGradient-24)"></path>
            <rect id="Rectangle" fill="url(#linearGradient-25)" opacity="0.45" transform="translate(564.477699, 355.751543) rotate(7.130000) translate(-564.477699, -355.751543) " x="537.317699" y="328.591543" width="54.32" height="54.32"></rect>
            <path d="M519.06,369.18 L527.58,367.81 C536.1,366.44 537.9,349.35 537.9,349.35 L541.47,320.84 L595.37,327.58 L591.8,356.09 C591.8,356.09 590,373.18 581.48,374.55 L573,375.93 L519.06,369.18 Z" id="Path" fill="url(#linearGradient-26)"></path>
            <rect id="Rectangle" fill="url(#linearGradient-27)" opacity="0.45" transform="translate(491.239914, 208.567014) rotate(-17.490000) translate(-491.239914, -208.567014) " x="463.224914" y="180.552014" width="56.03" height="56.03"></rect>
            <path d="M454.42,240.67 L461.82,235.73 C469.22,230.79 463.57,213.98 463.57,213.98 L454.66,185.71 L508.09,168.87 L517,197.14 C517,197.14 522.65,213.94 515.25,218.89 L507.85,223.83 L454.42,240.67 Z" id="Path" fill="url(#linearGradient-28)"></path>
            <g id="Group" transform="translate(112.000000, 129.000000)">
                <path d="M62.7,249 C62.7,249 64.7,228.3 57.54,218.65 C50.38,209 40.96,205.95 38.73,203.65 C36.5,201.35 12.33,177.4 7.24,175.48 C5.32,174.76 -1.76,173.15 1.88,183.69 C5.52,194.23 24.56,203.83 23.62,207.04 C22.68,210.25 13.04,212.93 9.55,222.66 C6.06,232.39 4.55,242.28 15.04,245.19 C25.53,248.1 47.29,264.8 47.29,264.8 L62.7,249 Z" id="Path" fill="url(#linearGradient-29)"></path>
                <path d="M47.48,257.05 C47.48,257.05 36.87,249.58 36.87,245.36 C36.87,241.14 41,220.78 41,220.78 C41,220.78 35.06,237.78 23,245.7 C22,246.32 21.14,246.86 20.25,247.36 C30.93,252.59 45.65,263.76 46.85,264.67 L47.2,260.23 L47.48,257.05 Z" id="Path" fill="url(#linearGradient-30)"></path>
                <path d="M185.27,202.93 L133.13,300.62 L65.91,233.56 C65.91,233.56 48.1,245.67 45.14,256.76 L42.14,267.85 C42.14,267.85 119.96,344.54 130.83,351.17 C141.7,357.8 203.76,314 203.76,314 L185.27,202.93 Z" id="Path" fill="url(#linearGradient-31)"></path>
                <path d="M278,188.67 C278,188.67 328,206.39 340,218.85 C352,231.31 332.9,352.79 332.94,376.57 C332.98,400.35 336.27,485.85 336.27,485.85 C336.27,485.85 258.39,501.12 217.79,488.9 C176.61,476.51 167.5,472.9 167.5,472.9 C167.5,472.9 166.13,319.9 166.81,292.56 C167.49,265.22 175.55,214.43 185.23,202.88 C194.91,191.33 224.41,189.88 224.41,189.88 L278,188.67 Z" id="Path" fill="url(#linearGradient-32)"></path>
                <path d="M207,322.64 C207,322.64 239.16,360.52 263.58,378.33 C288,396.14 289.11,426.33 281.49,443.53 C273.87,460.73 207.12,458.28 188.49,463.75 C181.208373,465.990015 174.221784,469.095539 167.68,473 C168.97,473.49 179.53,477.37 217.82,488.9 C258.41,501.12 336.3,485.85 336.3,485.85 C336.3,485.85 333,400.35 333,376.57 C333,368.96 334.94,351.34 337.21,330.5 L207,322.64 Z" id="Path" fill="url(#linearGradient-33)"></path>
                <path d="M224.24,189.05 L212.52,191.35 C212.52,191.35 211.39,199.76 221.09,208.23 C230.79,216.7 243.22,215.4 256.27,209.06 C269.32,202.72 278,188.67 278,188.67 L269.66,186.78 L224.24,189.05 Z" id="Path" fill="#FFFFFF"></path>
                <path d="M217,157.68 L224.45,190 C224.45,190 229.45,196 243.04,195.86 C256.63,195.72 269.67,186.86 269.67,186.86 L269.28,153.8 L217,157.68 Z" id="Path" fill="url(#linearGradient-34)"></path>
                <path d="M196.16,40.82 C196.16,40.82 194.26,87.27 194.11,103.5 C193.96,119.73 214.11,123.4 214.11,123.4 L242.75,92 L228.61,43.8 L196.16,40.82 Z" id="Path" fill="url(#linearGradient-35)"></path>
                <path d="M197.64,96.19 C199.03,114.44 200.87,136.48 208.98,155.6 C217.09,174.72 255.21,178 267.55,162.37 C279.89,146.74 283.75,122.12 283.75,122.12 C283.75,122.12 296.88,122.72 300.02,112.85 C303.16,102.98 302.02,88.37 295.88,85.63 C289.74,82.89 284,89.75 284,89.75 C284,89.75 285.77,70.75 272,59.23 C258.23,47.71 207,52.95 204.25,55.45 C201.5,57.95 196.25,77.94 197.64,96.19 Z" id="Path" fill="url(#linearGradient-36)"></path>
                <path d="M275.95,113.92 C275.95,113.92 280.27,90.34 278.24,79.78 C276.21,69.22 270.18,62.34 257.94,58.38 C245.7,54.42 210.94,59.38 203.12,57.28 C195.3,55.18 190.72,51.58 193.06,36.11 C195.4,20.64 217.06,-1.52 248.66,0.96 C280.26,3.44 295.5,17.27 306.05,26.56 C316.6,35.85 310.84,61.99 308.54,83.89 C306.24,105.79 299.34,135.69 293.11,146.26 C286.88,156.83 272.57,154.81 272.57,154.81 L283.46,120.07 C283.46,120.07 288.75,122.27 294.62,115.01 C300.49,107.75 302.62,95.11 298.97,89.11 C295.32,83.11 285.66,84.79 282.74,92.66 C279.82,100.53 275.95,113.92 275.95,113.92 Z" id="Path" fill="url(#linearGradient-37)"></path>
                <path d="M214.9,102.4 C214.9,102.4 211.34,125.84 212.23,131.62 C213.12,137.4 228.06,132.8 228.06,132.8" id="Path" stroke="#EB6057" stroke-linecap="round" stroke-linejoin="round"></path>
                <path d="M274.38,37.54 C257.82,31.54 208.62,47.54 201.38,40.79 C199.15,38.71 197.38,33.79 195.89,27.88 C194.494094,30.485351 193.52512,33.2977395 193.02,36.21 C190.68,51.69 195.24,55.32 203.08,57.38 C210.92,59.44 245.66,54.52 257.9,58.48 C270.14,62.44 276.17,69.32 278.2,79.88 C280.23,90.44 275.95,114 275.95,114 C275.95,114 290.94,43.51 274.38,37.54 Z" id="Path" fill="url(#linearGradient-38)"></path>
                <path d="M285.49,99.34 C285.49,99.34 289.84,96.25 291.42,100.21 C293,104.17 292.93,108.02 287.93,110.6 C285.14,112.04 283.33,109.22 283.33,109.22" id="Path" stroke="#EB6057" stroke-linecap="round" stroke-linejoin="round"></path>
                <path d="M204.07,284.63 C204.07,284.63 197.76,273.4 191.58,268.63 C185.4,263.86 172.79,264.56 172.79,264.56 L177.89,281.56 L204.07,284.63 Z" id="Path" fill="url(#linearGradient-39)"></path>
                <path d="M190.09,336 L178.63,215.63 C178.231835,212.20514 175.45848,209.545069 172.02,209.29 L87.26,205.49 C85.9703976,205.418815 84.6996814,205.82459 83.69,206.63 L79,209.78 L82,213.7 L93.22,331.65 C93.6181655,335.07486 96.3915202,337.734931 99.83,337.99 L181.32,341.64 L183.2,344.06 L187.78,340.95 L187.95,340.83 L188.12,340.71 C189.55201,339.590139 190.298274,337.805925 190.09,336 Z" id="Path" fill="#223762"></path>
                <path d="M179.6,345.22 L94.84,341.42 C91.4015202,341.164931 88.6281655,338.50486 88.23,335.08 L76.78,214.72 C76.5739931,213.188245 77.0695535,211.645249 78.1289371,210.519896 C79.1883207,209.394543 80.6986062,208.806788 82.24,208.92 L167,212.72 C170.43848,212.975069 173.211835,215.63514 173.61,219.06 L185.06,339.42 C185.266007,340.951755 184.770446,342.494751 183.711063,343.620104 C182.651679,344.745457 181.141394,345.333212 179.6,345.22 Z" id="Path" fill="url(#linearGradient-40)"></path>
                <path d="M128.6,253 C128.165998,251.804734 127.916474,250.550366 127.86,249.28 C126.444224,249.071533 124.998951,249.212284 123.65,249.69 C118.55,251.54 116.17,257.75 118.33,263.57 C120.49,269.39 126.33,272.57 131.47,270.76 C135.47,269.31 137.77,265.14 137.52,260.6 C133.383061,259.883185 129.964635,256.970625 128.6,253 Z" id="Path" fill="#D6E3FA"></path>
                <polygon id="Path" fill="url(#linearGradient-41)" points="147.92 324.31 117.13 322.93 116.55 316.82 147.34 318.2"></polygon>
                <polygon id="Path" fill="url(#linearGradient-42)" points="152.31 329.13 113.62 327.39 113.29 323.98 151.99 325.71"></polygon>
                <path d="M212.94,291.34 C212.94,291.34 193.5,276.17 185.13,272 C176.76,267.83 152.73,267.75 147.9,270.33 C143.07,272.91 143.43,287.83 145.11,293.06 C146.79,298.29 165.29,306.79 176.35,310.06 C187.41,313.33 209.69,319.95 209.69,319.95 L212.94,291.34 Z" id="Path" fill="url(#linearGradient-43)"></path>
                <path d="M288.69,258.06 C288.69,258.06 283.2,294.88 277.57,298.29 C271.94,301.7 240.44,298.97 240.44,298.97 L286.71,345.11 C286.71,345.11 318.81,344.35 319.94,343.58 C321.07,342.81 324.16,292.25 324.16,292.25 L288.69,258.06 Z" id="Path" fill="url(#linearGradient-44)"></path>
                <path d="M294.41,226.18 C294.41,226.18 305.09,211.01 321.86,212.49 C325.01,212.77 327.77,213.14 330.16,213.56 C338.339674,214.987021 344.458799,221.860162 344.93,230.15 C346.7,260.76 350.8,340.15 346.84,357.04 C346.686667,357.706667 346.516667,358.356667 346.33,358.99 C340.24,379.68 315.65,388.46 297.2,377.29 L203.5,320.54 C203.5,320.54 197.66,301.07 204.73,293.02 L211.81,285.02 C211.81,285.02 286.37,321.95 293.41,323.19 C300.45,324.43 280.63,272.19 284.58,253.09 C288.53,233.99 294.41,226.18 294.41,226.18 Z" id="Path" fill="url(#linearGradient-45)"></path>
            </g>
        </g>
    </g>
</svg>