<?xml version="1.0" encoding="UTF-8"?>
<svg width="600px" height="546px" viewBox="0 0 600 546" version="1.1" xmlns="http://www.w3.org/2000/svg" xmlns:xlink="http://www.w3.org/1999/xlink">
    <!-- Generator: Sketch 52.2 (67145) - http://www.bohemiancoding.com/sketch -->
    <title>12_work</title>
    <desc>Created with Sketch.</desc>
    <defs>
        <linearGradient x1="46.3743878%" y1="9.3109966%" x2="51.8657527%" y2="53.7819485%" id="linearGradient-1">
            <stop stop-color="#EAF1FC" offset="0%"></stop>
            <stop stop-color="#C0D4F4" offset="100%"></stop>
        </linearGradient>
        <linearGradient x1="72.9734813%" y1="7.1515107%" x2="39.2890728%" y2="69.9768714%" id="linearGradient-2">
            <stop stop-color="#4C93F4" offset="0%"></stop>
            <stop stop-color="#0B63DA" offset="100%"></stop>
        </linearGradient>
        <linearGradient x1="-0.199226999%" y1="50.0052738%" x2="100.199227%" y2="50.0052738%" id="linearGradient-3">
            <stop stop-color="#4C93F4" offset="0%"></stop>
            <stop stop-color="#0B63DA" offset="100%"></stop>
        </linearGradient>
        <linearGradient x1="-0.20228769%" y1="49.9979271%" x2="100.169186%" y2="49.9979271%" id="linearGradient-4">
            <stop stop-color="#4C93F4" offset="0%"></stop>
            <stop stop-color="#0B63DA" offset="100%"></stop>
        </linearGradient>
        <linearGradient x1="108.64487%" y1="58.4737364%" x2="47.9386745%" y2="50.0693756%" id="linearGradient-5">
            <stop stop-color="#FFC063" offset="0%"></stop>
            <stop stop-color="#E44D0B" offset="95%"></stop>
        </linearGradient>
        <linearGradient x1="48.9162179%" y1="67.6597846%" x2="69.4427062%" y2="27.8728191%" id="linearGradient-6">
            <stop stop-color="#223762" offset="0%"></stop>
            <stop stop-color="#041B48" offset="100%"></stop>
        </linearGradient>
        <linearGradient x1="-0.0230893558%" y1="50.0713267%" x2="100%" y2="50.0713267%" id="linearGradient-7">
            <stop stop-color="#223762" offset="0%"></stop>
            <stop stop-color="#041B48" offset="100%"></stop>
        </linearGradient>
        <linearGradient x1="45.11895%" y1="77.6708147%" x2="76.3272003%" y2="27.3335434%" id="linearGradient-8">
            <stop stop-color="#3769A5" offset="0%"></stop>
            <stop stop-color="#08448B" offset="100%"></stop>
        </linearGradient>
        <linearGradient x1="107.584824%" y1="110.701631%" x2="35.6575511%" y2="33.8328979%" id="linearGradient-9">
            <stop stop-color="#223762" offset="0%"></stop>
            <stop stop-color="#041B48" offset="100%"></stop>
        </linearGradient>
        <linearGradient x1="-0.0273724344%" y1="49.9924139%" x2="99.955173%" y2="49.9924139%" id="linearGradient-10">
            <stop stop-color="#4C93F4" offset="0%"></stop>
            <stop stop-color="#0B63DA" offset="100%"></stop>
        </linearGradient>
        <linearGradient x1="223.262841%" y1="111.178063%" x2="28.9934181%" y2="32.8703467%" id="linearGradient-11">
            <stop stop-color="#3769A5" offset="0%"></stop>
            <stop stop-color="#08448B" offset="100%"></stop>
        </linearGradient>
        <linearGradient x1="3.01432387%" y1="47.4186182%" x2="95.9725227%" y2="52.9215892%" id="linearGradient-12">
            <stop stop-color="#223762" offset="0%"></stop>
            <stop stop-color="#041B48" offset="100%"></stop>
        </linearGradient>
        <linearGradient x1="113.159865%" y1="1.87361213%" x2="-17.4423884%" y2="88.871817%" id="linearGradient-13">
            <stop stop-color="#223762" offset="0%"></stop>
            <stop stop-color="#041B48" offset="100%"></stop>
        </linearGradient>
        <linearGradient x1="1.78472273e-13%" y1="49.9975422%" x2="100%" y2="49.9975422%" id="linearGradient-14">
            <stop stop-color="#3769A5" offset="0%"></stop>
            <stop stop-color="#08448B" offset="100%"></stop>
        </linearGradient>
        <linearGradient x1="89.9662311%" y1="2.06405349%" x2="-63.1211674%" y2="129.909395%" id="linearGradient-15">
            <stop stop-color="#4C93F4" offset="0%"></stop>
            <stop stop-color="#0B63DA" offset="100%"></stop>
        </linearGradient>
        <linearGradient x1="110.086251%" y1="-8.29554722%" x2="7.35896207%" y2="91.2952037%" id="linearGradient-16">
            <stop stop-color="#3769A5" offset="0%"></stop>
            <stop stop-color="#08448B" offset="100%"></stop>
        </linearGradient>
        <linearGradient x1="137.78135%" y1="8.25825826%" x2="3.30117899%" y2="68.2861433%" id="linearGradient-17">
            <stop stop-color="#FF9F5B" offset="0%"></stop>
            <stop stop-color="#E5670E" offset="100%"></stop>
        </linearGradient>
        <linearGradient x1="312.562157%" y1="50%" x2="259.434703%" y2="50%" id="linearGradient-18">
            <stop stop-color="#FF9F5B" offset="0%"></stop>
            <stop stop-color="#E5670E" offset="100%"></stop>
        </linearGradient>
        <linearGradient x1="252.027027%" y1="-249.394856%" x2="181.351351%" y2="-144.704992%" id="linearGradient-19">
            <stop stop-color="#4C93F4" offset="0%"></stop>
            <stop stop-color="#0B63DA" offset="100%"></stop>
        </linearGradient>
        <linearGradient x1="376.323752%" y1="270.27027%" x2="271.633888%" y2="199.594595%" id="linearGradient-20">
            <stop stop-color="#4C93F4" offset="0%"></stop>
            <stop stop-color="#0B63DA" offset="100%"></stop>
        </linearGradient>
        <linearGradient x1="367.971334%" y1="264.468504%" x2="291.675854%" y2="213.090551%" id="linearGradient-21">
            <stop stop-color="#4C93F4" offset="0%"></stop>
            <stop stop-color="#0B63DA" offset="100%"></stop>
        </linearGradient>
        <linearGradient x1="413.781698%" y1="295.374016%" x2="337.486218%" y2="243.897638%" id="linearGradient-22">
            <stop stop-color="#4C93F4" offset="0%"></stop>
            <stop stop-color="#0B63DA" offset="100%"></stop>
        </linearGradient>
        <linearGradient x1="6.36018094%" y1="-5.15391628%" x2="62.7738633%" y2="87.0275577%" id="linearGradient-23">
            <stop stop-color="#3769A5" offset="0%"></stop>
            <stop stop-color="#08448B" offset="100%"></stop>
        </linearGradient>
        <linearGradient x1="24.408255%" y1="-7.97279293%" x2="80.8082311%" y2="84.2156931%" id="linearGradient-24">
            <stop stop-color="#4C93F4" offset="0%"></stop>
            <stop stop-color="#0B63DA" offset="100%"></stop>
        </linearGradient>
        <linearGradient x1="16.4636717%" y1="-20.9382231%" x2="97.321146%" y2="111.205385%" id="linearGradient-25">
            <stop stop-color="#4C93F4" offset="0%"></stop>
            <stop stop-color="#0B63DA" offset="100%"></stop>
        </linearGradient>
        <linearGradient x1="251.573427%" y1="-249.313725%" x2="181.118881%" y2="-144.705882%" id="linearGradient-26">
            <stop stop-color="#4C93F4" offset="0%"></stop>
            <stop stop-color="#0B63DA" offset="100%"></stop>
        </linearGradient>
        <linearGradient x1="376.27451%" y1="269.755245%" x2="271.568627%" y2="199.300699%" id="linearGradient-27">
            <stop stop-color="#4C93F4" offset="0%"></stop>
            <stop stop-color="#0B63DA" offset="100%"></stop>
        </linearGradient>
        <linearGradient x1="376.27451%" y1="269.93007%" x2="271.568627%" y2="199.300699%" id="linearGradient-28">
            <stop stop-color="#4C93F4" offset="0%"></stop>
            <stop stop-color="#0B63DA" offset="100%"></stop>
        </linearGradient>
        <linearGradient x1="368.240343%" y1="264.413265%" x2="291.845494%" y2="213.010204%" id="linearGradient-29">
            <stop stop-color="#4C93F4" offset="0%"></stop>
            <stop stop-color="#0B63DA" offset="100%"></stop>
        </linearGradient>
        <linearGradient x1="414.091559%" y1="295.153061%" x2="337.76824%" y2="243.75%" id="linearGradient-30">
            <stop stop-color="#4C93F4" offset="0%"></stop>
            <stop stop-color="#0B63DA" offset="100%"></stop>
        </linearGradient>
        <linearGradient x1="29.7018349%" y1="30.7172362%" x2="86.8119266%" y2="90.0488171%" id="linearGradient-31">
            <stop stop-color="#4C93F4" offset="0%"></stop>
            <stop stop-color="#0B63DA" offset="100%"></stop>
        </linearGradient>
        <linearGradient x1="-4.08945459e-12%" y1="50%" x2="99.6402878%" y2="50%" id="linearGradient-32">
            <stop stop-color="#4C93F4" offset="0%"></stop>
            <stop stop-color="#0B63DA" offset="100%"></stop>
        </linearGradient>
        <linearGradient x1="44.8005004%" y1="35.6685148%" x2="68.6918414%" y2="87.0441144%" id="linearGradient-33">
            <stop stop-color="#F8A695" offset="0%"></stop>
            <stop stop-color="#E56045" offset="100%"></stop>
        </linearGradient>
        <linearGradient x1="34.1309664%" y1="90.2442909%" x2="59.4443434%" y2="-14.9320221%" id="linearGradient-34">
            <stop stop-color="#FFC063" offset="0%"></stop>
            <stop stop-color="#E44D0B" offset="95%"></stop>
        </linearGradient>
        <linearGradient x1="108.715216%" y1="85.3499351%" x2="-19.9723893%" y2="28.1805035%" id="linearGradient-35">
            <stop stop-color="#F8A695" offset="0%"></stop>
            <stop stop-color="#E56045" offset="100%"></stop>
        </linearGradient>
        <linearGradient x1="58.6153088%" y1="73.4119857%" x2="45.5203975%" y2="27.9986782%" id="linearGradient-36">
            <stop stop-color="#F8A695" offset="0%"></stop>
            <stop stop-color="#E56045" offset="100%"></stop>
        </linearGradient>
        <linearGradient x1="96.9318639%" y1="188.698018%" x2="45.3125478%" y2="15.7385539%" id="linearGradient-37">
            <stop stop-color="#FFC063" offset="0%"></stop>
            <stop stop-color="#E44D0B" offset="95%"></stop>
        </linearGradient>
        <linearGradient x1="41.3507991%" y1="31.894178%" x2="66.6095693%" y2="86.4961089%" id="linearGradient-38">
            <stop stop-color="#223762" offset="0%"></stop>
            <stop stop-color="#041B48" offset="100%"></stop>
        </linearGradient>
        <linearGradient x1="92.463571%" y1="18.3820241%" x2="52.592273%" y2="53.5729992%" id="linearGradient-39">
            <stop stop-color="#223762" offset="0%"></stop>
            <stop stop-color="#041B48" offset="100%"></stop>
        </linearGradient>
        <linearGradient x1="85.7071434%" y1="85.0907308%" x2="54.655296%" y2="48.8278568%" id="linearGradient-40">
            <stop stop-color="#FFC063" offset="0%"></stop>
            <stop stop-color="#E44D0B" offset="95%"></stop>
        </linearGradient>
        <linearGradient x1="37.0914619%" y1="96.0222954%" x2="69.6478338%" y2="-20.1165442%" id="linearGradient-41">
            <stop stop-color="#223762" offset="0%"></stop>
            <stop stop-color="#041B48" offset="100%"></stop>
        </linearGradient>
        <linearGradient x1="46.33124%" y1="102.52306%" x2="71.7500214%" y2="-23.6299512%" id="linearGradient-42">
            <stop stop-color="#4C93F4" offset="0%"></stop>
            <stop stop-color="#0B63DA" offset="100%"></stop>
        </linearGradient>
        <linearGradient x1="37.0661262%" y1="96.0476311%" x2="69.6224981%" y2="-20.1165442%" id="linearGradient-43">
            <stop stop-color="#223762" offset="0%"></stop>
            <stop stop-color="#041B48" offset="100%"></stop>
        </linearGradient>
        <linearGradient x1="43.4158896%" y1="98.9106595%" x2="74.8177247%" y2="-16.5289113%" id="linearGradient-44">
            <stop stop-color="#4C93F4" offset="0%"></stop>
            <stop stop-color="#0B63DA" offset="100%"></stop>
        </linearGradient>
        <linearGradient x1="46.5764277%" y1="96.4525452%" x2="78.2009721%" y2="-18.3799672%" id="linearGradient-45">
            <stop stop-color="#4C93F4" offset="0%"></stop>
            <stop stop-color="#0B63DA" offset="100%"></stop>
        </linearGradient>
        <linearGradient x1="37.0780299%" y1="96.0431655%" x2="69.6458218%" y2="-20.1162147%" id="linearGradient-46">
            <stop stop-color="#223762" offset="0%"></stop>
            <stop stop-color="#041B48" offset="100%"></stop>
        </linearGradient>
        <linearGradient x1="49.9987185%" y1="10.278436%" x2="49.9987185%" y2="224.377962%" id="linearGradient-47">
            <stop stop-color="#FFC063" offset="0%"></stop>
            <stop stop-color="#E44D0B" offset="95%"></stop>
        </linearGradient>
        <linearGradient x1="37.520904%" y1="94.1860968%" x2="70.0768362%" y2="-21.636462%" id="linearGradient-48">
            <stop stop-color="#223762" offset="0%"></stop>
            <stop stop-color="#041B48" offset="100%"></stop>
        </linearGradient>
        <linearGradient x1="53.3759846%" y1="14.0210944%" x2="34.970853%" y2="208.723187%" id="linearGradient-49">
            <stop stop-color="#FFC063" offset="0%"></stop>
            <stop stop-color="#E44D0B" offset="95%"></stop>
        </linearGradient>
        <linearGradient x1="100%" y1="49.9659168%" x2="-0.00172971477%" y2="49.9659168%" id="linearGradient-50">
            <stop stop-color="#223762" offset="0%"></stop>
            <stop stop-color="#041B48" offset="100%"></stop>
        </linearGradient>
        <linearGradient x1="-0.927815921%" y1="50.0165508%" x2="100.927816%" y2="50.0165508%" id="linearGradient-51">
            <stop stop-color="#4C93F4" offset="0%"></stop>
            <stop stop-color="#0B63DA" offset="100%"></stop>
        </linearGradient>
        <linearGradient x1="-0.919624793%" y1="49.9718943%" x2="100.919625%" y2="49.9718943%" id="linearGradient-52">
            <stop stop-color="#4C93F4" offset="0%"></stop>
            <stop stop-color="#0B63DA" offset="100%"></stop>
        </linearGradient>
        <linearGradient x1="-3.5161744%" y1="50%" x2="103.586498%" y2="50%" id="linearGradient-53">
            <stop stop-color="#4C93F4" offset="0%"></stop>
            <stop stop-color="#0B63DA" offset="100%"></stop>
        </linearGradient>
        <linearGradient x1="-3.5161744%" y1="50%" x2="103.516174%" y2="50%" id="linearGradient-54">
            <stop stop-color="#4C93F4" offset="0%"></stop>
            <stop stop-color="#0B63DA" offset="100%"></stop>
        </linearGradient>
        <linearGradient x1="-3.58649789%" y1="50%" x2="103.516174%" y2="50%" id="linearGradient-55">
            <stop stop-color="#4C93F4" offset="0%"></stop>
            <stop stop-color="#0B63DA" offset="100%"></stop>
        </linearGradient>
        <linearGradient x1="-0.942684766%" y1="50%" x2="100.942685%" y2="50%" id="linearGradient-56">
            <stop stop-color="#4C93F4" offset="0%"></stop>
            <stop stop-color="#0B63DA" offset="100%"></stop>
        </linearGradient>
        <linearGradient x1="55.4322698%" y1="29.3413404%" x2="-3.86763902%" y2="158.835869%" id="linearGradient-57">
            <stop stop-color="#FFC063" offset="0%"></stop>
            <stop stop-color="#E44D0B" offset="95%"></stop>
        </linearGradient>
        <linearGradient x1="-2.10172341%" y1="50%" x2="102.101723%" y2="50%" id="linearGradient-58">
            <stop stop-color="#4C93F4" offset="0%"></stop>
            <stop stop-color="#0B63DA" offset="100%"></stop>
        </linearGradient>
        <linearGradient x1="-1.88465888%" y1="50%" x2="101.884659%" y2="50%" id="linearGradient-59">
            <stop stop-color="#4C93F4" offset="0%"></stop>
            <stop stop-color="#0B63DA" offset="100%"></stop>
        </linearGradient>
        <linearGradient x1="-2.13857998%" y1="50%" x2="102.13858%" y2="50%" id="linearGradient-60">
            <stop stop-color="#4C93F4" offset="0%"></stop>
            <stop stop-color="#0B63DA" offset="100%"></stop>
        </linearGradient>
        <linearGradient x1="-2.23613596%" y1="50%" x2="102.236136%" y2="50%" id="linearGradient-61">
            <stop stop-color="#4C93F4" offset="0%"></stop>
            <stop stop-color="#0B63DA" offset="100%"></stop>
        </linearGradient>
        <linearGradient x1="-2.78862242%" y1="50%" x2="102.788622%" y2="50%" id="linearGradient-62">
            <stop stop-color="#4C93F4" offset="0%"></stop>
            <stop stop-color="#0B63DA" offset="100%"></stop>
        </linearGradient>
        <linearGradient x1="-1.83688464%" y1="50%" x2="101.836885%" y2="50%" id="linearGradient-63">
            <stop stop-color="#4C93F4" offset="0%"></stop>
            <stop stop-color="#0B63DA" offset="100%"></stop>
        </linearGradient>
    </defs>
    <g id="Page-1" stroke="none" stroke-width="1" fill="none" fill-rule="evenodd">
        <g id="12_work">
            <path d="M164.76,89 C295.38,107.63 389.08,15.66 454,4.36 C551.47,-12.64 664.19,81.1 555.7,282.97 C447.21,484.84 398.7,533.33 253.05,531.97 C136.54,530.86 47.05,433.87 15.93,361.97 C-32.78,249.44 34.15,70.38 164.76,89 Z" id="Path" fill="url(#linearGradient-1)" opacity="0.49"></path>
            <rect id="Rectangle" fill="#223762" x="122.82" y="44.31" width="376.76" height="272.39"></rect>
            <rect id="Rectangle" fill="url(#linearGradient-2)" x="118.48" y="44.31" width="372.19" height="272.39"></rect>
            <rect id="Rectangle" fill="#FFFFFF" x="124.48" y="50.17" width="360.2" height="260.65"></rect>
            <polygon id="Path" fill="#D6E3FA" opacity="0.34" points="124.48 50.17 484.68 310.82 122.36 310.82"></polygon>
            <path d="M159.19,90.61 C159.19,90.61 228.35,88.83 250.82,107.77 C273.29,126.71 279.31,180.77 289.9,217.29 C304.34,267.16 377.34,286.75 410.16,269.02" id="Path" stroke="url(#linearGradient-3)" stroke-linecap="round"></path>
            <path d="M149.31,65.62 C149.31,65.62 151.85,238.11 149.31,263.15 L146.77,288.15 C146.77,288.15 377.3,292.76 398,292.25 L418.66,291.74" id="Path" stroke="url(#linearGradient-4)" stroke-linecap="round"></path>
            <path d="M92.07,212.7 C92.07,212.7 81.07,261.01 80.72,270.35 C80.37,279.69 108.88,313.6 108.88,313.6 L122.36,249.77 L92.07,212.7 Z" id="Path" fill="url(#linearGradient-5)"></path>
            <path d="M52.25,464.89 L38.31,475.41 C38.31,475.41 47.31,496.54 49.46,499.14 C51.61,501.74 62.52,509.2 65.6,509 C68.68,508.8 69.6,505.8 68.3,502.47 C67,499.14 61.94,492.55 61.24,490.2 C60.54,487.85 64,475.24 64,475.24 L52.25,464.89 Z" id="Path" fill="url(#linearGradient-6)"></path>
            <path d="M134.28,501.42 L129.68,522.76 C129.68,522.76 146.92,530.18 150.77,530.76 C154.62,531.34 172.67,530.76 172.67,530.76 C172.67,530.76 173.39,530.76 172.67,527.63 C171.95,524.5 159.07,521.37 155.82,520.63 C153.842431,520.200646 152.318656,518.621605 151.96,516.63 L150.41,508.35 L134.28,501.42 Z" id="Path" fill="url(#linearGradient-7)"></path>
            <path d="M94.44,319.16 C94.44,319.16 91.1,338.66 92.89,349 C94.68,359.34 102.38,413 102.38,413 L49.67,463.11 C49.67,463.11 52.08,472.45 58.82,474.95 C65.56,477.45 66.4,477.12 66.4,477.12 C66.4,477.12 122.85,434.23 128.14,426.05 C133.43,417.87 135,323.84 135,323.84 L94.44,319.16 Z" id="Path" fill="url(#linearGradient-8)"></path>
            <path d="M99.47,216.9 C100.357174,217.509974 101.275046,218.074048 102.22,218.59 C101.774717,218.989886 101.630394,219.627309 101.86,220.18 C109.86,236.64 104.48,291.76 101.54,316.69 L174.39,316.69 C172.21,296.57 168.09,255.91 170,252.1 C171.11,249.88 171.17,245.38 170.89,241.02 C170.52,235.38 169.58,229.95 169.58,229.95 C170.79,225.8 222.39,216.33 227.38,207.18 C232.37,198.03 248.77,140.4 248.77,140.4 L247.67,139.75 C249.67,136.62 253.67,129.63 252.36,126.48 C252.199569,126.08994 251.998457,125.717883 251.76,125.37 L257.81,124.37 L262.81,120.52 L265.61,120.05 L265.15,117.31 L262.38,117.78 L256.38,115.78 L255.48,115.93 C255.640326,115.718013 255.718476,115.455145 255.7,115.19 C255.36,113.7 255.7,112.45 252.39,112.33 C250.34,112.26 245.57,114.87 241.8,118.24 L231.91,119.92 C231.439114,120.00064 231.019601,120.265167 230.743875,120.65531 C230.468149,121.045454 230.35883,121.529205 230.44,122 L231.3,127 C231.38064,127.470886 231.645167,127.890399 232.03531,128.166125 C232.425454,128.441851 232.909205,128.55117 233.38,128.47 L236.24,127.99 C235.950907,131.149145 236.038186,134.33145 236.5,137.47 C235.72,137.65 235.22,137.81 235.22,137.81 L210.96,193.81 C210.56,194.72 186.34,198.93 185.36,199.12 L150.26,207 L146.87,207.48 C148.634685,202.652795 149.724964,197.605209 150.11,192.48 C152.26,191.78 153.73,191.2 154.51,187.23 C154.87,185.39 154.66,181.83 154.58,177.62 C155.8,177.72 157.58,177.62 157.43,176.06 C157.22,174.06 155.59,167.42 155.12,165.57 C155.22,164.9 155.33,164.23 155.47,163.57 C155.827015,161.333196 155.613764,159.042467 154.85,156.91 C155.732738,155.83928 156.450653,154.642755 156.98,153.36 C159.98,146.36 148.93,128.72 129.56,130.71 C120.81,131.61 114.37,133.8 109.31,140.27 C107.276272,142.794621 105.594281,145.583361 104.31,148.56 C98.59,161.29 107.77,163.36 99.31,180.76 C91.08,197.76 94.9,213.73 99.47,216.9 Z" id="Path" fill="url(#linearGradient-9)" opacity="0.09"></path>
            <path d="M105.89,312.1 C104.000831,322.960599 103.17027,333.978925 103.41,345 C103.89,362.52 147.17,420.34 147.17,420.34 L133.17,502.94 C133.17,502.94 136.37,507.67 144.08,508.75 L151.78,509.83 C151.78,509.83 174.89,428.62 175.37,414.1 C175.85,399.58 162.1,317.2 162.1,317.2 L105.89,312.1 Z" id="Path" fill="url(#linearGradient-10)"></path>
            <path d="M118.47,340.54 C124.47,340.09 146.88,333.75 163.96,328.71 C162.83,321.71 162.08,317.21 162.08,317.21 L105.87,312.11 C103.981477,322.967314 103.150918,333.982259 103.39,345 C103.87,362.52 147.15,420.34 147.15,420.34 L133.15,502.94 C135.033207,505.307717 137.588354,507.050655 140.48,507.94 C144.68,497.87 151.19,481.1 152.38,471.42 C154.16,456.94 149.08,441.19 151.38,428.48 C153.68,415.77 165.62,414.48 165.18,409.17 C164.74,403.86 155.46,405.87 145.55,401.55 C135.64,397.23 115.82,364.96 111.55,356.33 C107.28,347.7 108.39,341.3 118.47,340.54 Z" id="Path" fill="url(#linearGradient-11)"></path>
            <path d="M489,348.61 C479.81,383.47 484,417.75 498,442.78 C522.51,427.9 543.07,400.15 552.26,365.29 C561.45,330.43 557.26,296.15 543.26,271.12 C518.73,286 498.16,313.75 489,348.61 Z" id="Path" fill="url(#linearGradient-12)"></path>
            <path d="M525.56,347.21 C519.798203,363.406907 515.032635,379.941121 511.29,396.72 C504.64,425.94 506.29,460.72 506.29,460.72" id="Path" stroke="#112244" stroke-linecap="round" stroke-linejoin="round"></path>
            <path d="M486.81,337.17 C486.81,337.17 490.81,370.69 495.72,396.52 C500.63,422.35 503.98,456.52 503.98,456.52" id="Path" stroke="#112244" stroke-linecap="round" stroke-linejoin="round"></path>
            <path d="M478.82,393.45 C478.82,393.45 486.82,415.28 492.66,429.45 C498.5,443.62 504,458.13 504,458.13" id="Path" stroke="#112244" stroke-linecap="round" stroke-linejoin="round"></path>
            <path d="M512.41,214.55 C508.24,245.09 511.86,273.27 520.87,292.32 C534.66,276.39 545.71,250.22 549.87,219.68 C554.03,189.14 550.42,160.96 541.41,141.91 C527.63,157.83 516.58,184 512.41,214.55 Z" id="Path" fill="url(#linearGradient-13)"></path>
            <path d="M484.07,263.54 C485.33,235.54 487.19,185.1 488.26,155.68 C468.86,179.68 456.41,216.5 456.41,257.82 C456.41,298.66 468.58,335.08 487.6,359.11 C485.48,330.89 482.93,289 484.07,263.54 Z" id="Path" fill="url(#linearGradient-14)"></path>
            <path d="M521.76,257.82 C521.76,215.91 508.97,178.62 489.08,154.62 C488.8,154.96 488.53,155.33 488.26,155.67 C487.19,185.09 485.33,235.57 484.07,263.53 C482.93,288.99 485.48,330.89 487.59,359.1 C488.09,359.73 488.59,360.39 489.08,361.01 C509,337 521.76,299.73 521.76,257.82 Z" id="Path" fill="url(#linearGradient-15)"></path>
            <path d="M522,286.44 C514.47,311.57 515.44,336.23 523,354.19 C539.23,343.38 553.61,323.32 561.14,298.19 C568.67,273.06 567.7,248.4 560.14,230.44 C543.88,241.25 529.51,261.31 522,286.44 Z" id="Path" fill="url(#linearGradient-16)"></path>
            <polygon id="Path" fill="url(#linearGradient-17)" points="540.14 531.06 468.2 531.06 457.52 437.82 550.82 437.82"></polygon>
            <polygon id="Path" fill="url(#linearGradient-18)" points="457.52 437.82 468.2 531.06 495.73 531.06 487.76 437.82"></polygon>
            <rect id="Rectangle" fill="#FFD46A" x="453.87" y="435.16" width="100.59" height="22.98"></rect>
            <ellipse id="Oval" fill="url(#linearGradient-19)" cx="490.52" cy="270.14" rx="3.7" ry="6.61"></ellipse>
            <ellipse id="Oval" fill="url(#linearGradient-20)" transform="translate(499.072558, 277.450995) rotate(-45.000000) translate(-499.072558, -277.450995) " cx="499.072558" cy="277.450995" rx="6.61" ry="3.7"></ellipse>
            <ellipse id="Oval" fill="url(#linearGradient-21)" transform="translate(497.869335, 312.524829) rotate(-45.000000) translate(-497.869335, -312.524829) " cx="497.869335" cy="312.524829" rx="9.07" ry="5.08"></ellipse>
            <ellipse id="Oval" fill="url(#linearGradient-22)" transform="translate(495.780271, 330.605373) rotate(-65.030000) translate(-495.780271, -330.605373) " cx="495.780271" cy="330.605373" rx="9.07" ry="5.08"></ellipse>
            <path d="M434.94,350.13 C446.42,379.13 465.47,401.35 485.78,412.49 C457.65,380.72 429.26,269.88 429.26,269.88 C422.09,291.9 423.46,321.17 434.94,350.13 Z" id="Path" fill="url(#linearGradient-23)"></path>
            <path d="M480.1,332.23 C468.62,303.23 449.57,281.01 429.26,269.87 C429.26,269.87 457.66,380.71 485.78,412.48 C492.95,390.46 491.57,361.19 480.1,332.23 Z" id="Path" fill="url(#linearGradient-24)"></path>
            <path d="M480.1,332.23 C468.62,303.23 449.57,281.01 429.26,269.87 C429.26,269.87 457.66,380.71 485.78,412.48 C492.95,390.46 491.57,361.19 480.1,332.23 Z" id="Path" fill="url(#linearGradient-25)"></path>
            <ellipse id="Oval" fill="url(#linearGradient-26)" transform="translate(460.413237, 353.350018) rotate(-22.730000) translate(-460.413237, -353.350018) " cx="460.413237" cy="353.350018" rx="2.86" ry="5.1"></ellipse>
            <ellipse id="Oval" fill="url(#linearGradient-26)" transform="translate(478.817152, 356.306711) rotate(-22.730000) translate(-478.817152, -356.306711) " cx="478.817152" cy="356.306711" rx="2.86" ry="5.1"></ellipse>
            <ellipse id="Oval" fill="url(#linearGradient-27)" transform="translate(468.667998, 355.992818) rotate(-67.730000) translate(-468.667998, -355.992818) " cx="468.667998" cy="355.992818" rx="5.1" ry="2.86"></ellipse>
            <ellipse id="Oval" fill="url(#linearGradient-28)" transform="translate(470.161727, 365.847577) rotate(-67.730000) translate(-470.161727, -365.847577) " cx="470.161727" cy="365.847577" rx="5.1" ry="2.86"></ellipse>
            <ellipse id="Oval" fill="url(#linearGradient-29)" transform="translate(478.267463, 381.314461) rotate(-67.730000) translate(-478.267463, -381.314461) " cx="478.267463" cy="381.314461" rx="6.99" ry="3.92"></ellipse>
            <ellipse id="Oval" fill="url(#linearGradient-30)" transform="translate(482.164514, 394.800151) rotate(-87.760000) translate(-482.164514, -394.800151) " cx="482.164514" cy="394.800151" rx="6.99" ry="3.92"></ellipse>
            <path d="M231.569626,104.431071 L237.929626,104.431071 C238.581322,104.431071 239.109626,104.959375 239.109626,105.611071 L239.109626,131.061071 L230.389626,131.061071 L230.389626,105.621071 C230.389626,105.308116 230.513947,105.007978 230.73524,104.786685 C230.956533,104.565392 231.256671,104.441071 231.569626,104.441071 L231.569626,104.431071 Z" id="Path" fill="url(#linearGradient-31)" transform="translate(234.749626, 117.746071) rotate(-99.620000) translate(-234.749626, -117.746071) "></path>
            <polygon id="Path" fill="#D6E3FA" points="248.61 119.81 253.6 115.96 253.17 113.22 247.15 111.22"></polygon>
            <rect id="Rectangle" fill="url(#linearGradient-32)" transform="translate(254.776486, 114.351603) rotate(-99.620000) translate(-254.776486, -114.351603) " x="253.386486" y="112.931603" width="2.78" height="2.84"></rect>
            <path d="M227.61,135.2 C227.61,135.2 225.78,126.2 227.61,120.34 C229.44,114.48 239.84,107.65 243.15,107.77 C246.46,107.89 246.15,109.14 246.46,110.63 C246.77,112.12 239.03,117.83 238.57,118.86 C238.11,119.89 241.43,117.86 243.14,121.95 C244.85,126.04 237.43,136.79 237.43,136.79 L227.61,135.2 Z" id="Path" fill="url(#linearGradient-33)"></path>
            <path d="M141,202.4 L176.09,194.57 C177.09,194.38 201.29,190.17 201.69,189.26 L225.95,133.26 C225.95,133.26 231.82,131.26 235.66,133.56 L239.5,135.82 C239.5,135.82 223.11,193.46 218.11,202.6 C213.11,211.74 161.52,221.22 160.31,225.37 C160.31,225.37 163.31,242.37 160.73,247.49 C158.15,252.61 166.36,323.22 166.36,323.22 C166.36,323.22 140.87,330.22 120.21,329.37 C99.55,328.52 90.7,324.51 90.7,324.51 C90.7,324.51 102.99,237.06 92.6,215.56 C89.59,209.33 141,202.4 141,202.4 Z" id="Path" fill="url(#linearGradient-34)"></path>
            <path d="M145.76,160.48 C145.76,160.48 147.95,169.14 148.19,171.48 C148.43,173.82 144.25,172.89 144.25,172.89 L145.76,160.48 Z" id="Path" fill="url(#linearGradient-35)"></path>
            <path d="M146.23,159 C147.99,150.43 137.11,137.67 135.23,136.89 C133.35,136.11 105.05,140.39 99.35,147.46 C93.65,154.53 97.35,162.94 97.35,162.94 C97.35,162.94 100.8,161.24 97.88,163.3 C94.96,165.36 91.41,171.62 92.12,175.57 C93.02,180.57 102.22,177.67 102.22,177.67 C102.22,177.67 107.89,188.39 116.8,193.91 L117.24,194.15 L116.64,199.15 C120.497346,201.612089 125.111104,202.605822 129.64,201.95 C137.49,200.75 137.64,199.07 137.64,199.07 L137.39,189.26 C141.47,186.99 144.08,188.43 145.23,182.62 C146,178.9 144.38,168 146.23,159 Z" id="Path" fill="url(#linearGradient-36)"></path>
            <path d="M140.77,202.44 C136.83,202.98 89.77,209.6 92.66,215.61 C94.15,218.7 95.17,223.15 95.84,228.5 C109.66,234.89 136.67,239.35 140.77,202.44 Z" id="Path" fill="url(#linearGradient-37)"></path>
            <path d="M147.74,148.78 C144.74,155.78 139.13,155.59 139.55,158.86 C149.25,234.44 102.46,218.04 90.94,210.04 C86.47,206.93 82.73,191.31 90.79,174.69 C99.04,157.69 90.06,155.64 95.66,143.19 C101.26,130.74 108.8,127.31 120.31,126.13 C139.68,124.15 150.69,141.75 147.74,148.78 Z" id="Path" fill="url(#linearGradient-38)"></path>
            <path d="M131.84,198.11 C127.17,202.96 119.89,203.9 115.04,202.44 C110.19,200.98 105.7,195.87 108.13,183.36 C110.56,170.85 106.45,154.79 108.13,147.7 C109.81,140.61 117.13,132.76 128.48,130.15 C131.110003,129.601865 133.81063,129.476961 136.48,129.78 C131.529943,127.032294 125.84519,125.899538 120.22,126.54 C108.45,127.75 100.76,131.23 95.02,143.99 C89.28,156.75 98.48,158.79 90.02,176.19 C81.78,193.19 85.6,209.19 90.17,212.33 C100.31,219.38 137.24,232.8 140.91,186.92 C138.130366,190.841103 135.100746,194.57886 131.84,198.11 Z" id="Path" fill="url(#linearGradient-39)"></path>
            <path d="M218.18,202.64 C223.18,193.49 239.57,135.86 239.57,135.86 L237.3,134.53 C237.3,134.53 219.98,190.12 214.9,195.53 C209.82,200.94 153,212.34 147.32,217.3 C141.64,222.26 161.69,236.48 161.69,236.48 C161.32,230.84 160.38,225.41 160.38,225.41 C161.59,221.26 213.18,211.79 218.18,202.64 Z" id="Path" fill="url(#linearGradient-40)"></path>
            <rect id="Rectangle" fill="url(#linearGradient-41)" opacity="0.45" x="359.54" y="72.51" width="39.47" height="39.47"></rect>
            <path d="M347.74,106 L353.74,104.24 C359.74,102.48 359.52,90 359.52,90 L359.52,69.14 L399,69.14 L399,90 C399,90 399.24,102.49 393.22,104.24 L387.22,106 L347.74,106 Z" id="Path" fill="url(#linearGradient-42)"></path>
            <rect id="Rectangle" fill="url(#linearGradient-43)" opacity="0.45" transform="translate(429.123338, 152.528862) rotate(-2.670000) translate(-429.123338, -152.528862) " x="409.388338" y="132.793862" width="39.47" height="39.47"></rect>
            <path d="M393.63,163.47 L399.78,162.25 C405.93,161.03 406.78,148.57 406.78,148.57 L408.61,127.77 L447.92,131.22 L446.09,152 C446.09,152 445.24,164.46 439.09,165.68 L432.94,166.9 L393.63,163.47 Z" id="Path" fill="url(#linearGradient-44)"></path>
            <path d="M242.85,448.19 L247.5,447.19 C252.15,446.19 252.82,436.54 252.82,436.54 L254.24,420.37 L284,423 L282.58,439.17 C282.58,439.17 281.91,448.86 277.26,449.82 L272.61,450.82 L242.85,448.19 Z" id="Path" fill="url(#linearGradient-45)"></path>
            <rect id="Rectangle" fill="url(#linearGradient-46)" opacity="0.45" x="302.22" y="114.17" width="36.14" height="36.14"></rect>
            <path d="M291.42,144.85 L296.93,143.24 C302.44,141.63 302.22,130.24 302.22,130.24 L302.22,111.09 L338.36,111.09 L338.36,130.2 C338.36,130.2 338.58,141.63 333.07,143.2 L327.56,144.81 L291.42,144.85 Z" id="Path" fill="url(#linearGradient-47)"></path>
            <rect id="Rectangle" fill="url(#linearGradient-48)" opacity="0.45" transform="translate(234.637124, 250.278582) rotate(0.860000) translate(-234.637124, -250.278582) " x="216.937124" y="231.793582" width="35.4" height="36.97"></rect>
            <path d="M201.7,259.45 L207.37,258.57 C213.04,257.69 214.31,246.32 214.31,246.32 L216.79,227.32 L252.62,232 L250.14,251 C250.14,251 248.88,262.37 243.2,263.25 L237.53,264.13 L201.7,259.45 Z" id="Path" fill="url(#linearGradient-49)"></path>
            <polygon id="Path" fill="url(#linearGradient-50)" points="1.32 545.73 579.45 545.73 539.77 531.06 37.92 531.06"></polygon>
            <polyline id="Path" stroke="url(#linearGradient-51)" stroke-linecap="round" points="262.88 107.77 281.94 77.56 316.77 77.56"></polyline>
            <polyline id="Path" stroke="url(#linearGradient-52)" stroke-linecap="round" points="323.1 243.47 344.94 225.68 377.47 225.68"></polyline>
            <circle id="Oval" stroke="url(#linearGradient-53)" stroke-linecap="round" cx="180.05" cy="90.93" r="7.11"></circle>
            <circle id="Oval" stroke="url(#linearGradient-54)" stroke-linecap="round" cx="262.88" cy="124.85" r="7.11"></circle>
            <circle id="Oval" stroke="url(#linearGradient-53)" stroke-linecap="round" cx="284.67" cy="193.72" r="7.11"></circle>
            <circle id="Oval" stroke="url(#linearGradient-55)" stroke-linecap="round" cx="314.89" cy="252.74" r="7.11"></circle>
            <polyline id="Path" stroke="url(#linearGradient-56)" stroke-linecap="round" points="277.56 204.09 262.88 221.11 224.52 221.11"></polyline>
            <path d="M333.31,393.47 L338.69,395.28 C344.07,397.09 349.04,388.86 349.04,388.86 L357.66,375.29 L388.16,394.67 L379.54,408.24 C379.54,408.24 374.54,416.47 369.19,414.66 L363.81,412.85 L333.31,393.47 Z" id="Path" fill="url(#linearGradient-57)"></path>
            <path d="M364.89,76.45 L392.33,76.45" id="Path" stroke="#FFFFFF" stroke-linecap="round"></path>
            <path d="M364.89,83.81 L386.42,84.65" id="Path" stroke="#FFFFFF" stroke-linecap="round"></path>
            <path d="M364.89,92.24 L386.42,92.24" id="Path" stroke="#FFFFFF" stroke-linecap="round"></path>
            <path d="M308.46,119.14 L328.68,119.81" id="Path" stroke="#FFFFFF" stroke-linecap="round"></path>
            <path d="M308.46,127.76 L331.73,127.76" id="Path" stroke="#FFFFFF" stroke-linecap="round"></path>
            <path d="M428,139 C418.66,138.24 416.95,143 416.38,147.39 C415.81,151.78 421.27,157.93 427.56,156.08 C433.85,154.23 435.44,151.77 435.06,146.63 C434.68,141.49 430.87,140.15 430.87,140.15" id="Path" stroke="#FFFFFF" stroke-linecap="round"></path>
            <path d="M425.67,147.34 L439.78,142.67" id="Path" stroke="#FFFFFF" stroke-linecap="round"></path>
            <path d="M220.45,236.48 L242.81,239.44" id="Path" stroke="#FFFFFF" stroke-linecap="round"></path>
            <path d="M220.45,246.55 L236.64,247.82" id="Path" stroke="#FFFFFF" stroke-linecap="round"></path>
            <path d="M218.67,252.74 L242.81,253.92" id="Path" stroke="#FFFFFF" stroke-linecap="round"></path>
            <path d="M284.67,63.88 L308.46,62.1" id="Path" stroke="url(#linearGradient-58)" stroke-linecap="round"></path>
            <path d="M284.67,70.23 L311.2,70.23" id="Path" stroke="url(#linearGradient-59)" stroke-linecap="round"></path>
            <path d="M346.72,213.78 L370.1,213.78" id="Path" stroke="url(#linearGradient-60)" stroke-linecap="round"></path>
            <path d="M347.74,219.74 L370.1,219.74" id="Path" stroke="url(#linearGradient-61)" stroke-linecap="round"></path>
            <path d="M228.55,213.78 L246.48,213.78" id="Path" stroke="url(#linearGradient-62)" stroke-linecap="round"></path>
            <path d="M228.55,208.69 L255.77,208.69" id="Path" stroke="url(#linearGradient-63)" stroke-linecap="round"></path>
            <ellipse id="Oval" fill="#FFD46A" cx="307.77" cy="6.65" rx="6.16" ry="6.65"></ellipse>
            <ellipse id="Oval" fill="#FFD46A" cx="516.8" cy="126.38" rx="6.16" ry="6.65"></ellipse>
            <ellipse id="Oval" fill="#FFD46A" cx="80.72" cy="126.38" rx="6.16" ry="6.65"></ellipse>
            <ellipse id="Oval" fill="#FFD46A" cx="192.93" cy="354.35" rx="6.16" ry="6.65"></ellipse>
        </g>
    </g>
</svg>