<svg width="72" height="72" viewBox="0 0 72 72" fill="none" xmlns="http://www.w3.org/2000/svg">
<rect width="72" height="72" fill="#F35555"/>
<path opacity="0.3" fill-rule="evenodd" clip-rule="evenodd" d="M24 20H48L52 25H20L24 20Z" fill="white"/>
<path fill-rule="evenodd" clip-rule="evenodd" d="M22 24H50C52.2091 24 54 25.7909 54 28L54 46C54 48.2092 52.2091 50 50 50C46.961 50 44.961 50 44 50C42 50 41 46 36 46C31 46 31 50 28 50C26.6277 50 24.6277 50 22 50V50C19.7909 50.0001 18 48.2092 18 46C18 46 18 46 18 46V28C18 25.7909 19.7909 24 22 24ZM28 40C30.2091 40 32 38.2091 32 36C32 33.7909 30.2091 32 28 32C25.7909 32 24 33.7909 24 36C24 38.2091 25.7909 40 28 40ZM44 40C46.2091 40 48 38.2091 48 36C48 33.7909 46.2091 32 44 32C41.7909 32 40 33.7909 40 36C40 38.2091 41.7909 40 44 40Z" fill="white"/>
</svg>
