<svg width="580" height="266" viewBox="0 0 580 266" fill="none" xmlns="http://www.w3.org/2000/svg">
<path fill-rule="evenodd" clip-rule="evenodd" d="M56 189.614L189.817 69.8824L216.581 83.9684L309.548 5.0867L344.763 45.9362L381.387 16.3555L533.516 207.925L580 234.689H56V189.614Z" fill="white"/>
<path d="M0 235L56 189V234.495L0 235Z" fill="white"/>
<path fill-rule="evenodd" clip-rule="evenodd" d="M272.797 225.825C271.322 225.649 269.943 225.387 268.712 224.542C268.282 224.246 267.807 224.468 267.816 225.091C267.823 225.584 267.518 226.59 268.264 226.401C269.765 226.018 271.315 226.574 272.797 225.825ZM345.211 224.285C345.172 223.661 345.166 223.001 344.251 223.041C343.108 223.095 342.518 223.719 342.443 224.832C342.401 225.449 342.598 226.088 343.317 225.961C344.215 225.804 345.311 225.666 345.211 224.285ZM344.283 229.989C343.58 230.045 342.96 229.751 342.649 230.256C342.242 230.918 343.125 231.125 343.307 231.609C343.439 231.966 343.737 232.261 343.911 232.607C344.122 233.031 344.394 233.279 344.804 232.91C345.199 232.555 346.303 232.873 345.869 231.683C345.534 230.759 345.852 229.313 344.283 229.989ZM357.232 229.769C355.712 228.86 354.464 227.581 352.601 228.491C351.992 228.789 351.687 228.98 352.284 229.648C353.235 230.716 354.993 230.827 357.232 229.769ZM263.093 219.083C258.419 221.588 253.182 222.495 248.933 225.66C250.31 225.87 251.645 225.801 252.972 225.888C254.461 225.987 255.8 225.881 257.075 224.905C258.543 223.781 260.081 222.636 261.771 221.947C263.265 221.338 263.558 220.579 263.093 219.083ZM370.599 209.847C370.679 212.56 369.445 214.755 367.228 215.349C365.67 215.767 364.251 216.544 362.632 216.862C360.954 217.193 360.452 218.84 361.603 219.907C363.475 221.648 363.036 223.634 362.362 225.605C361.734 227.449 360.199 228.601 358.386 229.83C359.006 229.83 359.368 229.928 359.642 229.815C363.468 228.245 367.59 229.328 371.476 228.494C374.437 227.857 377.402 227.745 380.322 228.27C383.844 228.903 387.372 229.566 390.825 230.556C391.559 230.766 391.684 231.194 391.677 231.778C391.657 233.074 391.557 234.368 391.574 235.661C391.592 236.806 390.956 236.877 390.158 236.581C387.285 235.509 384.256 235.015 381.334 234.131C377.282 232.906 373.104 232.785 368.974 233.21C366.077 233.51 363.129 233.234 360.274 233.981C357.501 234.706 354.497 234.651 352.135 236.708C351.229 237.498 350.029 237.092 349.153 236.51C348.051 235.781 346.909 235.598 345.645 235.544C338.446 235.24 331.248 234.902 324.053 234.538C323.108 234.489 322.172 234.23 321.234 234.06C318.592 233.581 316.145 234.364 313.697 235.195C312.109 235.734 310.512 236.261 308.891 236.674C307.331 237.07 307.051 236.736 307.378 235.147C307.758 233.297 307.659 233.143 305.732 233.023C299.957 232.668 294.159 233.128 288.387 232.531C285.153 232.197 281.914 231.886 278.67 231.711C276.653 231.603 274.623 231.772 272.598 231.81C272.151 231.817 271.685 231.872 271.263 231.768C270.802 231.654 270.381 231.127 269.893 231.621C269.378 232.147 269.514 232.821 269.803 233.357C270.403 234.465 270.626 235.588 269.482 236.341C268.455 237.02 267.138 236.957 266.12 236.287C264.786 235.408 263.503 234.41 263.372 232.544C263.305 231.617 261.173 231.13 259.732 231.07C256.574 230.944 254.426 233.082 251.835 234.21C250.435 234.819 249.162 236.032 247.567 234.655C246.632 235.057 246.154 235.191 245.926 234.488C245.74 233.917 245.856 233.39 246.368 232.979C246.975 232.493 247.853 232.373 248.264 231.53C247.095 230.785 245.773 230.928 244.478 230.878C236.264 230.561 228.057 229.927 219.833 230.1C215.91 230.182 211.994 230.676 208.083 231.048C207.502 231.103 206.777 231.363 206.425 231.783C205.024 233.459 203.424 233.555 201.596 232.676C199.662 231.747 197.722 232.585 195.788 232.679C195.004 232.717 194.216 232.982 193.447 232.927C190.178 232.689 186.915 233.133 183.711 233.457C180.275 233.803 176.862 233.336 173.482 233.75C169.823 234.198 166.146 234.382 162.489 234.958C159.274 235.465 156.088 236.115 152.908 236.742C148.558 237.598 144.108 238.167 140.003 240.015C139.239 240.359 138.422 240.686 137.799 241.219C136.885 242.007 136.099 242.229 135.183 241.311C134.883 241.01 134.514 240.95 134.099 241.098C129.115 242.873 123.879 243.728 118.829 245.24C113.963 246.698 109.172 248.41 104.36 250.049C97.4382 252.408 90.8516 255.52 84.3326 258.819C78.8996 261.571 68.6273 261.749 63.0436 264.183C61.9533 264.659 60.6292 265.035 59.3094 265C57.9275 264.962 56.3922 263.939 56.1668 262.826C55.9442 261.721 56.9824 260.316 58.4445 259.905C63.021 258.617 71.8862 258.788 76.0683 256.57C78.1615 255.462 80.3618 254.367 82.6014 253.429C85.3074 252.297 87.9316 250.819 90.6262 249.647C94.2971 248.05 97.9848 246.45 101.787 245.11C107.056 243.253 112.505 242.017 117.755 240.109C121.1 238.892 124.521 237.944 128.047 237.278C130.698 236.777 133.221 235.609 135.817 234.788C138.361 233.983 140.62 232.535 143.119 231.635C143.562 231.476 143.946 231.241 143.974 230.704C143.998 230.201 143.797 229.863 143.283 229.693C141.422 229.07 141.795 227.294 141.671 225.994C141.591 225.156 142.69 224.53 143.635 224.147C144.991 223.596 145.048 222.954 143.962 221.937C142.174 220.262 142.446 218.482 144.701 217.586C150.512 215.277 156.018 212.387 161.292 209.041C161.71 208.777 162.261 208.66 162.237 208.002C162.217 207.51 162.223 207.02 161.487 207.421C158.777 208.903 155.708 209.33 152.834 210.334C152.098 210.592 151.31 210.677 150.51 210.513C149.341 210.277 148.203 210.251 147.042 210.723C146.4 210.984 145.567 211.136 145.172 210.198C144.833 209.394 145.326 208.854 145.929 208.571C147.946 207.626 149.087 205.669 150.843 204.431C152.755 203.083 154.832 202.036 156.949 201.052C158.618 200.276 160.253 199.419 161.913 198.619C162.237 198.463 162.562 198.351 162.376 197.905C162.209 197.498 161.84 197.542 161.514 197.615C160.693 197.799 159.875 198.001 159.063 198.226C156.884 198.832 154.102 197.751 153.319 195.946C152.775 194.692 152.939 193.581 154.326 193.04C157.893 191.644 161.38 190.025 165.178 189.273C168.512 188.612 168.522 188.563 170.197 191.551C170.438 191.982 170.655 192.362 171.139 192.386C174.347 192.547 175.599 194.682 175.883 197.429C176.066 199.185 176.919 199.257 178.224 199.046C181.04 198.591 183.498 200.815 183.415 203.707C183.393 204.442 183.052 204.763 182.353 204.99C180.505 205.592 178.692 206.303 176.865 206.962C176.543 207.079 176.24 207.205 176.035 207.73C179.646 207.806 178.793 211.078 179.867 213.012C180.051 213.345 179.822 213.77 179.501 213.848C177.922 214.218 178.323 214.725 179.157 215.662C180.087 216.703 180.126 218.223 180.587 219.517C180.837 220.219 180.113 220.916 179.465 220.923C178.133 220.937 177.161 221.731 176.034 222.177C172.301 223.651 168.67 225.337 165.284 227.508C164.829 227.8 164.32 227.795 163.855 227.969C163.44 228.124 162.982 228.422 163.059 228.894C163.137 229.367 163.682 229.307 164.054 229.275C165.564 229.142 167.068 228.925 168.581 228.824C172.538 228.559 176.49 228.301 180.468 228.421C181.998 228.467 183.535 227.824 185.127 228.001C185.442 228.036 185.982 227.941 185.818 227.524C185.153 225.833 186.875 224.253 185.7 222.334C184.953 221.116 186.93 219.824 187.973 219.599C191.133 218.917 193.711 217.196 196.385 215.621C198.48 214.387 200.811 213.576 202.776 212.154C202.554 211.43 201.945 211.475 201.635 211.644C200.131 212.463 198.384 212.383 196.825 213.218C194.588 214.418 192.074 215.107 189.679 216.015C186.453 217.577 185.222 217.234 183.607 214.742C182.249 212.649 182.891 211.123 186 210.136C190.651 208.658 195.187 206.938 199.59 204.842C200.293 204.508 200.761 204.107 201.12 202.986C198.434 204.165 196.022 205.144 193.682 206.271C191.017 207.555 188.278 206.713 186.915 204.113C186.182 202.713 186.549 201.748 187.847 200.953C189.64 199.856 191.641 199.411 193.649 198.966C197.693 198.067 201.13 195.827 204.723 193.941C206.826 192.837 208.846 191.573 210.928 190.428C211.274 190.237 211.704 190.232 211.645 189.691C211.57 189.019 211.025 189.058 210.619 189.138C208.753 189.508 206.877 189.863 205.044 190.366C202.466 191.073 199.866 191.689 197.297 192.44C195.587 192.941 194.659 191.214 193.632 190.22C192.053 188.694 192.696 186.822 194.822 186.259C195.523 186.071 196.208 185.812 196.884 185.546C200.711 184.036 204.234 181.957 207.699 179.764C208.584 179.204 209.556 178.782 210.279 177.773C208.854 177.204 207.746 178.111 206.625 178.458C204.205 179.206 202.259 178.631 200.568 176.856C199.273 175.498 199.189 174.418 200.531 173.166C204.179 169.764 207.96 166.521 212.29 163.987C213.01 163.566 213.628 162.97 214.355 162.565C215.845 161.733 217.206 162.108 218.088 163.572C218.517 164.283 218.984 165.018 219.189 165.807C219.487 166.938 219.835 168.252 217.95 168.44C216.857 169.054 216.1 169.447 216.281 170.034C216.496 170.736 217.386 170.585 217.906 170.357C219.323 169.736 220.902 169.985 222.319 169.412C225.132 169.836 226.969 172.911 226.558 174.711C226.434 175.252 226.11 175.36 225.691 175.569C221.946 177.422 218.686 180.059 215.109 182.186C214.859 182.336 214.461 182.453 214.472 183.12C216.147 183.422 217.844 183.172 219.533 182.991C221.428 182.786 223.319 182.557 225.175 182.095C226.48 181.769 227.378 182.381 227.854 183.546C228.144 184.257 228.45 184.97 228.716 185.684C229.233 187.076 228.573 187.925 227.163 188.232C226.842 188.301 226.403 188.276 226.349 188.683C226.294 189.103 226.576 189.418 226.987 189.559C229.065 190.277 228.809 192.447 229.619 193.934C229.927 194.505 229.061 195.031 228.457 195.346C225.263 197.008 221.863 198.256 218.772 200.132C218.491 200.302 218.193 200.447 217.912 200.617C217.517 200.852 217.103 201.095 217.333 201.663C217.561 202.229 218.116 202.191 218.479 202.017C219.325 201.614 220.284 201.779 221.095 201.438C222.888 200.681 224.19 201.38 224.766 202.955C225.665 205.41 227.456 207.44 227.924 210.103C228.127 211.267 227.232 212.339 227.486 213.047C227.731 213.732 229.082 214.176 229.323 215.198C229.565 216.22 229.644 217.244 230.162 218.223C230.616 219.076 229.914 219.523 229.113 219.735C227.456 220.174 225.721 220.298 224.187 221.219C222.57 222.189 220.873 223.029 219.201 223.912C218.932 224.054 218.702 224.195 218.789 224.536C218.941 225.133 219.416 225.07 219.875 225.052C221.449 224.991 223.025 224.866 224.597 224.899C227.131 224.954 229.661 225.114 232.192 225.237C232.701 225.263 233.349 225.432 233.661 225.068C234.756 223.801 235.818 222.55 237.319 221.699C237.753 221.453 237.574 220.774 237.197 220.221C235.624 217.93 235.978 216.939 238.445 215.467C240.428 214.284 242.707 213.912 244.747 212.887C250.079 210.206 254.897 206.727 259.888 203.506C263.527 201.157 266.91 198.474 270.496 196.068C270.906 195.793 271.065 195.546 270.941 195.134C270.81 194.693 270.393 194.781 270.088 194.841C269.599 194.937 269.124 195.112 268.648 195.267C261.747 197.519 255.017 200.2 248.501 203.394C246.058 204.592 243.698 205.972 241.514 207.605C240.403 208.437 239.487 208.381 238.551 207.43C235.249 204.108 235.656 202.617 239.885 200.477C245.584 197.594 251.436 194.972 256.558 191.049C257.388 190.413 258.446 190.086 259.37 189.563C259.82 189.307 260.659 189.062 260.412 188.491C260.144 187.869 259.468 188.288 258.974 188.556C258.434 188.846 257.884 189.122 257.319 189.355C253.156 191.073 249.138 193.14 244.812 194.46C244.505 194.552 244.236 194.783 243.96 194.969C242.626 195.875 241.403 195.864 240.152 194.724C238.332 193.065 237.948 192.059 238.629 190.317C238.81 189.859 239.042 189.625 239.561 189.5C245.372 188.107 250.45 185.16 255.524 182.123C259.054 180.011 262.243 177.403 265.838 175.408C266.13 175.246 266.379 175.008 266.652 174.81C266.941 174.598 267.19 174.315 267.049 173.964C261.26 174.174 256.7 176.07 251.959 177.184C251.052 177.397 250.194 177.865 249.349 178.287C247.542 179.193 245.567 178.531 244.726 176.696C243.648 174.335 243.984 173.708 246.567 172.639C250.436 171.036 254.04 168.937 257.441 166.492C258.115 166.007 258.72 165.41 259.564 165.187C260.004 165.07 260.215 164.727 260.106 164.283C260.005 163.863 259.601 163.889 259.277 163.875C258.885 163.856 258.491 163.886 258.098 163.915C255.621 164.11 253.197 161.726 253.386 159.273C253.418 158.83 253.462 158.457 253.904 158.123C257.777 155.196 261.607 152.211 265.477 149.28C266.454 148.539 267.371 148.619 268.286 149.598C269.988 151.421 270.299 153.255 269.147 154.937C268.605 155.729 267.452 155.562 266.985 156.523C267.835 157.191 268.647 156.747 269.5 156.577C271.496 156.177 273.437 155.419 275.533 155.592C277.238 155.733 279.589 159.099 279.077 160.714C278.862 161.394 278.204 161.646 277.679 161.793C275.001 162.541 272.928 164.415 270.467 165.565C269.414 166.056 268.335 166.495 267.285 166.989C266.876 167.179 266.575 167.386 266.651 167.84C266.72 168.247 267.124 168.3 267.451 168.312C268.013 168.333 268.607 168.406 269.13 168.257C272.808 167.204 276.598 166.478 279.92 164.407C281.881 163.183 283.712 163.908 284.27 166.104C284.372 166.513 284.688 166.78 284.771 167.133C285.058 168.362 285.196 169.46 283.762 170.301C281.479 171.643 279.338 173.225 277.128 174.697C276.796 174.918 276.348 175.111 276.617 175.586C280.092 174.769 282.744 174.131 285.203 172.911C287.374 171.835 288.817 172.501 289.349 174.897C289.567 175.877 290.752 176.558 290.373 177.604C289.993 178.652 288.681 178.514 287.843 179.04C284.047 181.413 280.179 183.671 276.348 185.987C276.012 186.188 275.278 186.187 275.553 186.835C275.836 187.5 276.356 187.164 276.827 186.936C279.37 185.704 282.096 184.827 284.405 183.141C285.268 182.51 285.915 182.737 286.818 183.172C288.328 183.901 287.987 185.446 288.643 186.529C289.536 188 288.873 188.843 287.525 189.725C285.536 191.027 283.667 192.549 281.909 194.155C280.773 195.191 279.499 196.046 278.26 196.874C277.449 197.418 277.179 198.181 276.556 198.777C277.548 198.591 278.414 198.22 279.311 197.795C282.26 196.394 285.281 195.124 288.597 194.857C289.711 194.767 290.369 195.343 290.632 196.437C290.79 197.091 290.898 197.85 291.301 198.33C292.504 199.763 291.655 200.426 290.534 201.256C289.028 202.37 287.507 203.453 285.749 204.438C286.659 205.175 287.438 204.873 288.253 204.53C290.255 203.684 291.723 203.911 292.62 205.159C293.802 206.797 293.369 209.398 291.617 210.236C290.228 210.901 289.191 212.002 287.909 212.769C287.035 213.291 287.074 213.87 287.635 214.531C288.412 215.446 289.183 216.379 290.045 217.211C291.577 218.689 291.542 220.695 289.801 221.908C288.047 223.13 286.561 224.728 284.53 225.573C284.036 225.778 283.23 226.16 283.464 226.845C283.658 227.414 284.447 227.18 284.998 227.207C295.231 227.694 305.487 227.677 315.698 228.558C318.077 228.763 319.872 227.588 321.705 226.663C324.037 225.484 326.422 224.471 328.842 223.53C329.524 223.265 329.872 222.495 330.748 222.557C330 221.82 329.048 221.981 328.239 221.748C326.845 221.348 326.488 220.499 326.702 219.214C326.776 218.771 326.862 218.328 326.918 217.882C327.121 216.273 326.688 215.853 325.067 216.148C320.309 217.015 315.512 217.403 310.679 217.397C309.36 217.396 308.702 216.956 308.783 215.504C308.978 212.099 310.115 211.082 313.564 210.573C315.394 210.301 317.128 209.361 318.896 208.698C319.18 208.591 319.261 208.278 319.203 207.982C319.134 207.63 318.827 207.596 318.549 207.589C317.876 207.574 317.155 207.431 316.535 207.616C314.807 208.13 313.198 207.424 311.56 207.216C310.513 207.081 309.764 206.211 309.993 204.994C310.189 203.959 310.439 202.911 310.84 201.942C311.291 200.857 312.035 200.105 313.435 200.439C315.446 200.918 317.129 199.987 319.017 198.861C317.589 198.643 316.35 198.843 315.274 199.205C313.383 199.842 311.494 199.756 309.617 199.542C308.791 199.446 308.103 200.05 307.23 199.628C305.444 198.763 304.93 197.171 305.879 194.778C306.809 192.438 308.978 191.475 310.978 190.414C311.757 190.001 311.763 189.86 311.419 189.125C310.795 187.793 311.408 186.573 311.971 185.306C312.619 183.846 313.504 183.416 315.095 183.447C316.528 183.474 317.813 182.498 319.104 181.827C319.282 181.734 319.544 181.429 319.51 181.369C319.379 181.145 319.161 180.845 318.947 180.821C318.396 180.758 317.82 180.757 317.275 180.855C314.883 181.288 312.233 179.213 311.211 177.307C310.556 176.08 311.532 175.159 311.563 174.067C311.62 172.019 312.737 170.41 314.085 168.992C314.502 168.554 314.987 167.988 315.788 168.105C316.534 168.213 316.946 167.768 317.449 167.223C318.504 166.08 319.417 164.779 320.845 164.032C320.364 163.176 319.758 163.59 319.263 163.601C317.451 163.644 317.021 163.117 317.645 161.555C317.777 161.225 317.772 160.894 317.546 160.597C317.31 160.287 316.956 159.977 317.325 159.575C317.648 159.225 318.052 159.123 318.552 159.284C321.123 160.107 323.83 159.459 325.85 158.351C328.46 156.919 331.01 157.396 333.592 157.095C333.981 157.048 334.382 157.133 334.772 157.096C335.881 156.995 337.12 156.589 337.287 158.357C337.488 160.491 336.943 161.173 334.961 161.387C332.407 161.663 330.02 162.379 328.056 164.142C330.035 164.26 331.82 163.515 333.643 163.027C335.565 162.511 336.35 162.92 336.565 164.828C336.61 165.214 336.757 165.587 336.85 165.968C337.256 167.647 336.809 168.53 335.134 168.934C331.887 169.716 328.594 170.313 325.366 171.158C322.999 171.78 320.59 172.306 318.32 173.273C317.806 173.492 317.17 173.636 317.379 174.415C317.556 175.081 318.123 175.291 318.707 175.173C322.358 174.435 326.115 174.446 329.698 173.104C333.919 171.525 338.247 170.201 342.641 169.13C343.618 168.893 344.614 168.661 345.535 168.268C346.728 167.758 347.354 167.889 347.995 169.2C349.244 171.756 348.372 174.062 345.68 174.708C341.557 175.697 337.705 177.4 333.552 179.286C335.451 180.22 336.837 179.155 338.235 178.848C343.075 177.787 347.738 175.976 352.742 175.588C354.177 175.477 355.625 175.156 357.001 174.724C357.889 174.443 358.247 174.711 358.535 175.435C359.096 176.836 359.141 178.31 358.895 179.748C358.754 180.558 358.132 181.141 357.153 181.231C350.439 181.848 344.058 183.695 337.853 186.308C333.964 187.945 329.965 189.321 325.995 190.761C325.442 190.962 324.966 191.165 325.151 191.747C325.326 192.289 325.957 192.116 326.332 191.969C330.406 190.363 334.774 189.893 338.984 188.856C342.203 188.063 345.545 187.549 348.826 186.893C352.022 186.253 355.19 185.664 358.463 185.878C361.392 184.675 362.031 185.098 362.051 187.538C362.088 191.694 361.275 192.797 357.306 193.213C352.373 193.728 347.747 195.386 343.079 196.853C341.594 197.319 339.971 197.218 338.585 198.07C338.182 198.316 337.657 198.518 337.771 198.953C337.915 199.494 338.513 199.328 338.94 199.221C343.207 198.147 347.437 196.895 351.746 196.03C355.751 195.223 359.799 194.537 363.908 194.395C366.629 193.74 366.886 193.909 366.99 195.858C367.009 196.195 367.026 196.534 367.018 196.871C366.949 199.794 366.247 200.705 363.295 200.976C359.603 201.314 355.955 201.863 352.305 202.504C348.05 203.252 343.953 204.534 339.874 205.885C336.754 206.919 333.688 208.103 330.577 209.167C329.994 209.365 329.624 209.589 329.818 210.201C330.007 210.789 330.596 210.647 330.98 210.534C335.122 209.319 339.469 208.95 343.546 207.509C344.778 207.074 346.064 206.982 347.299 206.726C352.98 205.552 358.458 203.639 364.082 202.26C366.766 201.604 369.535 201.142 372.152 200.166C373.095 199.814 373.713 199.938 373.737 201.25C373.761 202.498 373.72 203.739 373.505 204.945C373.235 206.444 371.868 206.726 370.645 207.102C369.759 207.375 368.687 206.979 367.972 207.85C365.15 207.975 362.55 209.079 359.866 209.788C356.99 210.547 354.204 211.66 351.382 212.632C351.022 212.756 350.311 212.633 350.489 213.273C350.656 213.871 351.197 214.012 351.854 213.763C353.559 213.118 355.267 212.468 357.011 211.944C359.971 211.057 362.798 209.756 365.871 209.208C366.645 209.068 367.856 209.15 367.921 207.799C369.143 208.044 370.542 207.937 370.599 209.847Z" fill="black"/>
<path fill-rule="evenodd" clip-rule="evenodd" d="M312.015 3.30848C315.542 7.09896 318.672 11.4331 322.541 14.7477C328.269 19.6535 332.473 26.3554 337.678 31.8676C339.26 33.5431 340.7 35.4086 342.249 37.1403C342.9 37.8657 343.184 37.8244 343.89 37.3237C349.396 33.4192 354.77 29.3032 359.809 24.5891C361.355 23.1399 363.218 22.2345 365.198 21.8809C367.505 21.4694 369.669 20.6631 371.766 19.4403C374.079 18.092 376.261 19.3511 378.294 20.5061C380.974 22.0279 383.289 24.2553 385.496 26.5801C386.3 27.4278 386.953 28.5349 387.503 29.6403C390.135 34.9228 394.16 38.5696 398.1 42.3485C400.312 44.4684 402.853 46.1191 404.895 48.4126C407.239 51.0448 409.275 54.0768 411.295 57.0758C414.289 61.5289 417.119 66.1357 420.091 70.6135C421.48 72.707 423.428 74.1479 425.023 76.0398C428.637 80.3293 431.938 84.8105 434.215 90.2682C435.858 94.2041 438.171 97.6591 440.191 101.326C442.522 105.556 444.731 109.883 446.46 114.506C447.584 117.509 449.352 119.996 450.996 122.567C454.408 127.9 457.86 133.201 461.423 138.394C463.188 140.969 465.676 142.659 467.867 144.701C471.593 148.175 475.652 151.132 479.219 154.868C483.305 159.145 487.169 163.685 490.969 168.294C493.72 171.628 496.363 175.072 499.462 177.981C502.634 180.959 514.184 185.828 517.629 188.378C521.479 191.226 555.179 197.865 560.169 200.194C565.16 202.524 573.004 200.204 574.349 202.626C574.961 203.723 567.93 202.234 566.218 202.626C561.351 203.739 526.188 195.169 516.448 191.923C505.813 188.378 500.659 185.582 494.64 179.026C491.267 175.351 488.089 171.423 484.912 167.496C479.892 161.284 474.308 155.805 468.366 150.8C461.318 144.862 455.115 137.932 450.557 129.102C448.977 126.046 446.912 123.322 444.936 120.576C442.813 117.621 441.403 114.183 439.951 110.8C437.797 105.78 435.206 101.081 432.752 96.2778C430.978 92.8078 429.253 89.3065 427.512 85.8135C425.94 82.6591 423.771 80.0682 421.491 77.6773C417.636 73.6323 414.436 68.9612 411.361 64.138C408.038 58.9248 404.525 53.8918 400.324 49.6155C398.086 47.3369 395.568 45.4384 393.267 43.2407C390.135 40.2483 387.161 37.018 384.631 33.3283C383.699 31.9651 383.146 30.2252 382.032 28.9331C380.422 27.0643 378.511 25.8944 376.357 25.1657C375.548 24.8914 374.902 25.3442 374.271 25.6829C372.307 26.7355 370.154 26.1885 368.152 26.8082C365.725 27.5567 363.897 29.4783 361.954 31.1885C358.617 34.1264 355.256 37.0296 351.899 39.9394C348.246 43.249 348.2 43.2903 350.511 47.0544C354.505 53.5596 358.316 60.2682 363.056 66.0613C367.281 71.2265 370.865 77.0593 375.408 81.904C377.454 84.0884 378.994 86.9238 380.781 89.447C381.965 91.1142 383.604 92.2741 384.521 94.2619C384.921 95.1327 385.304 95.9803 384.872 96.8412C384.362 97.8508 383.485 97.3667 382.773 97.1271C381.708 96.7652 380.634 96.4711 379.556 96.177C378.473 95.8829 377.206 95.3723 377.384 93.3151C377.498 91.9866 376.506 91.0167 375.839 89.9889C372.933 85.5243 369.321 81.7982 366.316 77.441C362.175 71.4298 357.44 66.02 353.531 59.7708C350.771 55.3591 348.488 50.5259 345.124 46.6314C344.451 45.8514 343.825 45.5755 342.939 45.5474C340.128 45.4632 338.799 43.8339 338.892 40.4995C338.922 39.4866 338.459 38.9579 337.957 38.401C333.182 33.1036 328.731 27.4294 324.084 21.985C322.32 19.9179 320.116 18.3977 318.272 16.3604C315.889 13.7265 313.246 11.4132 310.822 8.82567C309.501 7.41456 308.974 6.82467 307.141 8.58938C304.077 11.5388 301.993 15.5028 299.137 18.634C297.781 20.1244 296.206 21.3438 294.359 21.8809C293.441 22.1469 292.703 22.8111 292.089 23.482C287.48 28.5068 281.986 32.0296 276.759 35.9853C271.21 40.1839 265.265 43.6737 260.173 48.6836C257.585 51.2298 255.112 53.938 252.585 56.5719C248.102 61.2398 243.74 66.1125 238.806 70.1029C233.481 74.409 227.679 77.8277 221.908 81.2497C215.009 85.3425 208.666 90.3888 202.671 96.0927C198.182 100.366 193.501 104.326 188.369 107.509C184.322 110.017 180.378 112.773 176.25 115.08C169.416 118.902 163.72 124.63 157.686 129.801C154.404 132.611 151.079 135.326 147.652 137.909C142.697 141.646 137.614 145.123 132.534 148.596C128.168 151.58 64.8324 170.19 60.2023 172.613C59.5966 172.93 59.0557 174.272 58.2176 173.28C57.3287 172.229 56.3681 171.099 56.1821 169.572C56.0356 168.353 57.0569 167.837 57.7767 167.322C62.8702 163.677 105.419 156.698 122.952 147.065C140.486 137.432 138.916 136.555 142.288 134.29C144.666 132.692 146.852 130.69 149.086 128.809C153.782 124.853 158.455 120.863 163.134 116.881C168.099 112.654 173.307 108.933 178.867 105.837C183.428 103.295 187.883 100.44 191.97 96.9337C196.891 92.712 201.569 88.097 206.56 83.9975C210.422 80.8234 214.559 78.1185 218.782 75.5838C223.167 72.9499 227.585 70.3574 231.861 67.4939C235.149 65.2946 237.908 62.1865 240.741 59.2272C244.458 55.3442 248.419 51.7817 252.124 47.8838C254.572 45.3078 257.023 42.7847 259.694 40.5177C262.056 38.5084 264.506 36.7123 267.024 34.9972C269.65 33.2093 272.039 30.9308 274.702 29.2371C280.921 25.2814 286.015 19.4172 292.12 15.3161C295.803 12.8409 297.689 8.55799 300.345 5.04344C301.324 3.74635 302.355 2.49718 303.418 1.29592C304.27 0.332604 305.34 -0.0209978 306.442 0.210331C308.878 -0.0490877 310.506 1.68753 312.015 3.30848Z" fill="black"/>
<path fill-rule="evenodd" clip-rule="evenodd" d="M56.0028 124.243C56.069 123.879 55.9643 123.544 56.5612 123.26C59.9241 121.644 63.162 119.901 67.4304 119.952C73.7117 120.027 79.6036 118.8 84.4009 115.657C91.0771 111.288 99.0187 108.799 107.048 106.644C112.874 105.08 118.913 103.865 124.7 102.195C129.422 100.833 133.907 98.9626 138.172 96.8525C139.597 96.1482 141.215 95.7679 142.78 95.658C145.728 95.4481 147.675 94.2297 149.545 92.6661C153.368 89.4686 156.99 86.1485 160.432 82.7031C161.484 81.6508 162.26 80.4986 163.156 79.3886C166.08 75.7685 170.756 73.812 175.474 71.9273C177.891 70.961 180.062 69.7256 182.249 68.5058C184.283 67.3718 189.231 67.3296 190.74 68.8481C193.582 71.7061 197.879 72.7612 201.479 74.674C205.591 76.8574 210.313 78.3561 213.889 81.1635C214.705 81.8044 215.07 82.4199 214.534 83.0383C213.97 83.6919 213.221 83.175 212.486 82.8608C206.781 80.4085 201.04 78.0096 195.308 75.5981C194.553 75.2812 193.638 75.098 193.043 74.6585C189.681 72.1724 186.722 73.1795 183.509 74.967C181.307 76.1939 178.661 76.9433 176.277 77.9913C172.688 79.5675 169.694 81.5734 168.728 84.854C168.618 85.2217 168.339 85.4442 168.065 85.6865C163.389 89.832 158.634 93.9268 154.052 98.1315C152.094 99.9275 149.927 100.974 146.795 101.223C142.54 101.563 139.136 103.687 135.5 105.186C130.12 107.403 124.485 108.996 118.68 110.336C113.93 111.434 109.289 112.78 104.613 114.042C100.126 115.253 96.2178 117.096 92.3958 119.111C89.639 120.565 87.3818 122.593 84.2227 123.584C81.3429 124.488 78.4025 125.275 75.2085 125.378C72.9532 125.45 70.7033 125.719 68.4644 125.975C67.3018 126.109 66.3725 126.637 65.4542 127.219C64.5965 127.761 63.871 128.469 62.6276 128.652C59.2133 129.157 55.889 126.978 56.0028 124.243Z" fill="black"/>
</svg>
