<svg width="96" height="72" viewBox="0 0 96 72" fill="none" xmlns="http://www.w3.org/2000/svg">
<path fill-rule="evenodd" clip-rule="evenodd" d="M47.8005 34.9184C53.9761 37.2255 57.064 40.1629 57.064 43.7306C57.064 47.2983 53.9761 49.1798 47.8005 49.375C39.2799 50.3217 35.0195 51.4033 35.0195 52.6198C35.0195 53.8364 39.2799 60.2964 47.8005 72H71.1714C54.8501 62.8433 47.0598 57.3241 47.8005 55.4424C48.9116 52.6198 63.8682 52.8727 63.8682 48.3017C63.8682 43.7306 59.1218 37.4067 57.064 37.4067C55.6921 37.4067 53.5722 36.5773 50.7044 34.9184H47.8005Z" fill="white"/>
<mask id="mask0" mask-type="alpha" maskUnits="userSpaceOnUse" x="23" y="7" width="51" height="29">
<path d="M23.207 7.53717H73.3889V26.9206L51.8341 35.1074H37.8096L24.6904 29.3565L23.207 7.53717Z" fill="white"/>
</mask>
<g mask="url(#mask0)">
<path d="M47.8026 56.7273C59.8524 56.7273 69.6207 46.5593 69.6207 34.0165C69.6207 21.4737 59.8524 11.3058 47.8026 11.3058C35.7527 11.3058 25.9844 21.4737 25.9844 34.0165C25.9844 46.5593 35.7527 56.7273 47.8026 56.7273Z" fill="white"/>
</g>
<path fill-rule="evenodd" clip-rule="evenodd" d="M45.1264 34.2888C45.1833 34.2951 45.2401 34.3016 45.297 34.3082C45.2401 34.3017 45.1833 34.2953 45.1264 34.2888ZM53.782 32.6144C53.7558 32.6237 53.7294 32.6328 53.7031 32.6419C53.7293 32.6326 53.7558 32.6235 53.782 32.6144ZM92.6468 24.398C92.1833 24.4059 91.7198 24.4272 91.257 24.4501C90.2351 24.5013 89.2154 24.5747 88.1936 24.631C87.185 24.686 86.1736 24.6922 85.1634 24.721C84.161 24.7496 83.16 24.7846 82.1576 24.8116C81.1266 24.8397 80.0959 24.8553 79.0651 24.8902C77.997 24.9275 76.9301 25.0491 75.8751 25.1897C74.9225 25.316 73.9748 25.4697 73.02 25.5857C71.9595 25.7137 70.8983 25.8353 69.8438 25.9958C68.8926 26.1411 67.9545 26.3717 67.0482 26.6501C65.9849 26.9759 64.9223 27.319 63.9268 27.7711C63.5035 27.9634 63.0793 28.1636 62.6892 28.3995C62.2423 28.6692 61.7967 28.9399 61.3526 29.2113C60.5744 29.687 59.7267 30.0709 58.8628 30.4249C57.9399 30.803 57.037 31.2046 56.1418 31.6265C55.7454 31.8134 55.3462 32.0016 54.9346 32.1657C54.4616 32.3546 53.9866 32.535 53.5061 32.7102C52.5287 33.0499 51.5466 33.3934 50.5299 33.6403C49.9183 33.7883 49.3032 33.9175 48.6813 34.0357C48.126 34.1413 47.568 34.248 47.0046 34.3226C46.5298 34.3628 46.0606 34.3589 45.5833 34.3265C45.3876 34.3139 45.1919 34.2919 44.9968 34.2738C43.6901 34.1222 42.3786 33.9439 41.1107 33.6363C39.7134 33.2969 38.3398 32.9033 36.9877 32.4564C36.1031 32.1362 35.2367 31.7923 34.3786 31.4249C33.5388 31.0646 32.7177 30.6768 31.8632 30.3406C30.8318 29.9349 29.7829 29.5659 28.7217 29.2177C27.83 28.9251 26.9126 28.6858 26.0002 28.4441C25.062 28.1958 24.1275 27.9278 23.1748 27.7213C22.813 27.6426 22.4552 27.5681 22.0872 27.5101C21.2786 27.3822 20.4614 27.3334 19.6403 27.3713C19.1352 27.3942 18.6316 27.4574 18.1328 27.5279C17.8879 27.5624 17.6417 27.5922 17.3994 27.6392C17.1352 27.6903 16.871 27.7413 16.6067 27.793C16.3292 27.8463 16.0566 27.9306 15.7841 27.9989C15.2894 28.1223 14.8031 28.2848 14.3279 28.4516C13.3855 28.7827 12.4469 29.1253 11.5295 29.5023C11.061 29.6944 10.5942 29.8861 10.1341 30.0903C9.65749 30.3021 9.19453 30.5294 8.72963 30.7582C8.55465 30.8443 8.38995 30.9459 8.22258 31.0411C8.03503 31.1479 7.84553 31.2517 7.66435 31.3659C7.21521 31.65 6.76554 31.9327 6.31517 32.2156C5.42769 32.7728 4.48054 33.26 3.62619 33.8527C3.08991 34.225 2.63688 34.6795 2.18296 35.1178C1.84682 35.4432 1.5383 35.7885 1.191 36.1059C1.09784 36.1913 0.997599 36.2681 0.892576 36.3414C0.783303 36.4034 0.673321 36.4642 0.562099 36.5235C0.309548 36.6584 0.121463 36.8426 0.0405257 37.0864C-0.0404111 37.3292 0.00103136 37.5942 0.154581 37.8117C0.45619 38.2398 1.18746 38.4279 1.70779 38.1497C2.05916 37.9614 2.40168 37.7618 2.704 37.5213C2.86853 37.3906 3.01039 37.2402 3.15633 37.0962C3.33343 36.9223 3.50168 36.7422 3.68144 36.5707C3.88494 36.3761 4.08613 36.1804 4.29653 35.9911C4.64595 35.6763 5.00211 35.3783 5.399 35.1056C5.70805 34.9182 6.01745 34.7327 6.33323 34.5526C6.69789 34.3443 7.06857 34.1396 7.42349 33.9198C7.81028 33.6799 8.19761 33.4407 8.58299 33.2008C8.97386 32.9575 9.37589 32.7327 9.77986 32.5054C9.92367 32.4245 10.0781 32.3556 10.2281 32.2827C10.4357 32.1818 10.6404 32.0728 10.8535 31.9793C11.2548 31.8026 11.654 31.6229 12.0622 31.4571C12.9088 31.1134 13.7637 30.786 14.6219 30.4619C15.2832 30.2328 15.9459 30.0119 16.6336 29.8413C16.835 29.792 17.0364 29.742 17.2376 29.6922C17.4473 29.64 17.6679 29.6101 17.881 29.5694C18.2495 29.4988 18.6222 29.4502 18.9957 29.3992C19.705 29.3333 20.4072 29.3168 21.1188 29.3781C22.5564 29.5634 23.9388 29.9876 25.3194 30.3554C25.9157 30.5138 26.5093 30.6768 27.1016 30.8443C27.6637 31.0025 28.2143 31.1881 28.7658 31.37C29.6262 31.6757 30.4772 31.9956 31.3119 32.3483C32.1608 32.7068 32.9834 33.1074 33.837 33.4573C34.2998 33.6466 34.7621 33.8428 35.2365 34.0134C35.808 34.2187 36.3808 34.4183 36.9585 34.6118C37.8981 34.9261 38.8714 35.1792 39.8358 35.4357C40.7696 35.6836 41.7258 35.8586 42.6875 36.013C43.1641 36.0892 43.6476 36.1518 44.1284 36.2063C44.9158 36.2959 45.7045 36.3962 46.5014 36.3835C47.2742 36.3715 48.0449 36.2298 48.7976 36.0921C49.2901 36.0021 49.782 35.9085 50.2711 35.8064C51.1947 35.613 52.0995 35.3611 52.9837 35.0661C54.038 34.7145 55.0868 34.3553 56.112 33.949C56.9609 33.6122 57.7517 33.1882 58.5832 32.8261C59.5206 32.4182 60.4809 32.0458 61.4004 31.6109C62.2769 31.1955 63.0717 30.6721 63.8853 30.1793C64.2402 29.9641 64.6193 29.772 65.0039 29.5963C65.2046 29.5045 65.4024 29.4064 65.6093 29.3255C65.845 29.2337 66.0813 29.1419 66.3172 29.0501C66.6625 28.932 67.0075 28.8146 67.3575 28.7059C67.8445 28.5549 68.333 28.4184 68.8276 28.2848C69.2594 28.1683 69.7048 28.0874 70.1449 27.9938C70.3711 27.9456 70.6091 27.9209 70.8395 27.8848C71.0324 27.855 71.2254 27.821 71.4199 27.797C72.3988 27.6765 73.379 27.5612 74.3552 27.4258C75.245 27.3024 76.1334 27.173 77.0237 27.0539C77.436 27.0111 77.8475 26.9684 78.2613 26.9421C78.823 26.9065 79.3813 26.883 79.9438 26.8635C80.9517 26.8284 81.961 26.8205 82.9691 26.7934C83.9051 26.7688 84.8403 26.7303 85.7771 26.7097C86.7975 26.6874 87.818 26.6672 88.8364 26.6007C89.5634 26.5525 90.2906 26.506 91.0183 26.4698C91.3566 26.4526 91.6948 26.4365 92.0333 26.4234C92.4914 26.4055 92.9494 26.3839 93.4065 26.4155C93.7108 26.4609 94.0107 26.523 94.3052 26.6017C94.9187 26.7665 95.5947 26.4153 95.7599 25.9172C95.8437 25.6643 95.8001 25.3883 95.6404 25.1617C95.475 24.9263 95.2328 24.8035 94.9339 24.7112C94.2432 24.4973 93.5249 24.3967 92.7895 24.3967C92.7419 24.3967 92.6946 24.3971 92.6468 24.398Z" fill="black"/>
<path fill-rule="evenodd" clip-rule="evenodd" d="M48.931 34.779C48.8493 35.0091 48.8915 35.2603 49.0457 35.4667C49.2028 35.6763 49.4409 35.8 49.7294 35.8767C51.0069 36.2169 52.2836 36.5503 53.535 36.9449C54.2173 37.1865 54.8443 37.4848 55.4523 37.8275C55.6757 37.9531 55.8896 38.0896 56.1068 38.2216C56.0465 38.1853 55.9861 38.1492 55.9263 38.1126C56.5655 38.5244 57.193 38.9409 57.7867 39.393C58.2861 39.7736 58.7353 40.1925 59.173 40.6167C59.6588 41.1357 60.1322 41.6615 60.5645 42.2097C60.7886 42.4945 61.01 42.7807 61.2045 43.0785C61.4062 43.3865 61.5943 43.6956 61.7774 44.0098C61.9197 44.2837 62.0629 44.558 62.1751 44.8401C62.2512 45.0319 62.3238 45.2232 62.3895 45.4176C62.4386 45.5622 62.4719 45.7088 62.507 45.8552C62.5578 46.2052 62.5918 46.5528 62.5564 46.9054C62.4997 47.1369 62.4165 47.3611 62.3098 47.5813C62.2337 47.7071 62.1508 47.8284 62.0527 47.9443C61.9269 48.0557 61.7914 48.1572 61.6462 48.2527C61.3626 48.4065 61.0638 48.5354 60.7503 48.647C59.6225 48.9911 58.4224 49.1987 57.2484 49.4223C56.3705 49.5903 55.4828 49.7324 54.591 49.8485C53.6397 49.9716 52.6877 50.0911 51.7386 50.2261C51.2722 50.2926 50.8156 50.3828 50.3631 50.4908C49.8456 50.6146 49.3509 50.8014 48.8729 50.9965C48.3844 51.1958 47.9361 51.4838 47.5645 51.8003C47.3522 51.9814 47.1708 52.1894 47.0222 52.4054C46.9308 52.5383 46.8658 52.682 46.7932 52.8214C46.6997 53.0013 46.6742 53.1963 46.6423 53.3865C46.4832 54.3426 46.9972 55.2875 47.7245 56.0384C48.3394 56.6736 48.9738 57.301 49.6885 57.8703C51.0175 58.9297 52.4773 59.881 53.8763 60.8826C56.7752 62.9581 59.6797 65.0298 62.5357 67.1411C63.1334 67.5835 63.7186 68.0363 64.3054 68.4878C64.5794 68.6991 64.8546 68.9087 65.1355 69.115C65.3922 69.3042 65.6738 69.4884 65.9692 69.6364C66.3879 69.8455 66.9655 69.8886 67.4014 69.6899C67.7922 69.5111 68.0801 69.1534 68.0289 68.7936C68.0282 68.6261 67.9743 68.4705 67.867 68.3257C67.7393 68.1553 67.542 68.02 67.3105 67.9421C67.197 67.8554 67.0861 67.766 66.9724 67.6807C66.8009 67.5511 66.6265 67.4236 66.4548 67.2939C66.1146 67.0379 65.7754 66.7807 65.4359 66.5241C64.791 66.0369 64.1407 65.5529 63.4806 65.078C61.9994 64.011 60.521 62.942 59.0403 61.875C57.6296 60.8577 56.2024 59.8539 54.7757 58.8503C54.1018 58.3759 53.41 57.9168 52.7403 57.4393C52.0207 56.926 51.3344 56.3917 50.689 55.8212C50.4837 55.6393 50.2864 55.453 50.088 55.2667C49.7636 54.9325 49.4557 54.5957 49.2193 54.2164C49.1695 54.1074 49.1288 53.9981 49.0969 53.8847C49.0877 53.7754 49.0866 53.6668 49.0948 53.5573C49.1141 53.4941 49.1364 53.4325 49.1624 53.3712C49.214 53.2942 49.2696 53.2199 49.3307 53.1475C49.4442 53.0492 49.5656 52.9576 49.6945 52.8716C49.9998 52.7081 50.3243 52.5776 50.6589 52.4561C51.0606 52.3416 51.4637 52.249 51.8803 52.1676C52.3528 52.0758 52.8406 52.0191 53.32 51.9516C54.227 51.823 55.1369 51.7074 56.0425 51.5719C56.9454 51.4367 57.8386 51.2596 58.7263 51.0754C59.2236 50.9722 59.7197 50.8647 60.2151 50.756C61.4432 50.4871 62.6533 50.0868 63.5774 49.3834C64.0549 49.0199 64.3323 48.5665 64.5758 48.0912C64.8415 47.5715 64.9412 46.9982 64.9203 46.4419C64.9046 46.0065 64.8165 45.5667 64.7115 45.1405C64.623 44.7829 64.472 44.4323 64.3137 44.0897C64.124 43.6808 63.9083 43.28 63.6772 42.8845C62.8573 41.4782 61.7177 40.2012 60.4848 38.9993C59.982 38.5093 59.3988 38.0593 58.803 37.6399C58.1097 37.1527 57.3737 36.7075 56.634 36.2646C55.8467 35.793 54.9633 35.458 54.0458 35.1729C53.6535 35.0507 53.2572 34.9378 52.8601 34.8249C52.0257 34.5883 51.1775 34.3792 50.3367 34.155C50.2358 34.1282 50.1327 34.1157 50.0305 34.1157C49.536 34.1157 49.0617 34.4078 48.931 34.779Z" fill="black"/>
<path fill-rule="evenodd" clip-rule="evenodd" d="M54.657 46.2892C54.6051 46.3064 54.5531 46.3236 54.501 46.3408C54.5529 46.3236 54.605 46.3064 54.657 46.2892ZM44.9352 34.4486C44.6638 34.5726 44.4603 34.7787 44.377 35.0156C44.2902 35.2606 44.3347 35.5279 44.4992 35.7469C44.6679 35.9718 44.9185 36.0976 45.2254 36.1828C45.4716 36.2513 45.7154 36.3233 45.9596 36.3952C46.2361 36.4882 46.5089 36.5848 46.7721 36.7015C47.1047 36.8485 47.4157 37.0252 47.7308 37.1921C48.1328 37.4051 48.5257 37.628 48.9242 37.8448C49.7465 38.2926 50.5696 38.7385 51.3743 39.2044C51.9 39.5272 52.4134 39.8616 52.9098 40.2123C53.4777 40.6133 53.995 41.0406 54.4848 41.4989C55.1934 42.2372 55.8414 43.0063 56.3332 43.8468C56.5048 44.1908 56.6602 44.5383 56.7485 44.9007C56.751 44.9592 56.7499 45.0164 56.7458 45.074C56.7295 45.1316 56.7103 45.1879 56.6875 45.2441C56.6513 45.2974 56.6122 45.3489 56.5697 45.3996C56.4592 45.4963 56.3413 45.5853 56.2153 45.6695C55.7605 45.9136 55.264 46.0877 54.7592 46.2553C53.9037 46.5148 53.0465 46.771 52.1732 46.9914C51.2396 47.2272 50.2989 47.4408 49.3546 47.6495C47.5872 48.0403 45.7849 48.3167 44.0028 48.6622C43.067 48.8437 42.1305 49.0286 41.2161 49.2693C40.2324 49.5284 39.248 49.8043 38.315 50.1632C37.8874 50.3281 37.4868 50.5107 37.1029 50.7314C36.8731 50.8631 36.6586 51.003 36.4544 51.158C36.2066 51.3456 35.9976 51.5706 35.8011 51.7907C35.613 52.0009 35.4936 52.2514 35.3811 52.4895C35.2277 52.8136 35.1852 53.1698 35.1305 53.5096C35.0944 53.7314 35.109 53.9532 35.1408 54.1742C35.1797 54.4426 35.2354 54.7045 35.3338 54.9631C35.5366 55.4986 35.9052 55.9948 36.2886 56.462C36.5557 56.7878 36.8509 57.0996 37.1438 57.4119C38.2295 58.5708 39.4238 59.6679 40.5703 60.7906C41.6791 61.9404 42.7463 63.1138 43.8528 64.2646C44.3874 64.8213 44.9046 65.3867 45.3822 65.9739C45.6038 66.2466 45.8114 66.5274 46.0022 66.8137C46.0938 66.9524 46.1793 67.0944 46.2743 67.2315C46.366 67.3634 46.486 67.4891 46.6104 67.6012C46.7387 67.7178 46.8811 67.8327 47.0609 67.9021C47.3677 68.0204 47.6775 68.0724 48.0169 67.9997C48.3265 67.9331 48.5959 67.771 48.7584 67.5542C48.9923 67.2419 48.9699 66.8704 48.752 66.5782L48.7584 66.5762C48.7221 66.5111 48.6674 66.4509 48.6201 66.3903C48.5661 66.3198 48.5209 66.2449 48.4744 66.1718C48.3772 66.0205 48.2835 65.8682 48.1834 65.718C47.9842 65.4177 47.7537 65.1282 47.5205 64.8435C47.0165 64.2294 46.4492 63.6482 45.8821 63.0692C44.6825 61.8463 43.5633 60.574 42.3269 59.3737C41.3546 58.4301 40.3632 57.4989 39.403 56.5479C38.8096 55.928 38.1852 55.3021 37.7667 54.5979C37.6817 54.415 37.6169 54.2314 37.5707 54.0412C37.5516 53.8577 37.5531 53.6773 37.5733 53.4933C37.6133 53.312 37.6668 53.1352 37.7406 52.9598C37.8054 52.86 37.8783 52.7648 37.9597 52.6717C38.1156 52.5273 38.2833 52.3945 38.4667 52.2703C38.7403 52.1167 39.0223 51.9758 39.325 51.8568C39.6399 51.7335 39.9586 51.6197 40.2808 51.5105C41.1687 51.2379 42.0694 50.9985 42.9857 50.7909C43.8557 50.5943 44.7393 50.43 45.6217 50.2722C46.5832 50.0998 47.5442 49.9274 48.5021 49.7437C49.4282 49.5663 50.3433 49.355 51.2575 49.1451C52.1282 48.9451 52.9863 48.7196 53.8422 48.4837C54.3171 48.3531 54.7857 48.2067 55.2542 48.0625C55.9804 47.8398 56.7233 47.6045 57.3737 47.2651C57.9208 46.98 58.4054 46.6081 58.7262 46.157C58.8789 45.9424 58.983 45.7 59.0392 45.4588C59.0781 45.2923 59.1003 45.121 59.1094 44.9519C59.1065 44.8754 59.0982 44.7985 59.0829 44.7226C59.0649 44.6012 59.0427 44.4803 59.0163 44.36C58.9379 43.9826 58.7546 43.614 58.581 43.2583C58.2325 42.5471 57.7514 41.8847 57.2127 41.2514C56.6385 40.5766 56.0033 39.9407 55.289 39.3525C54.9849 39.1026 54.6474 38.8754 54.3163 38.6476C53.9845 38.4206 53.6499 38.1923 53.3006 37.9809C52.4982 37.4969 51.6789 37.0354 50.8459 36.5833C50.0593 36.1567 49.2796 35.7215 48.4882 35.3001C47.6906 34.8763 46.7769 34.6041 45.8716 34.3525C45.7758 34.3262 45.6717 34.3141 45.5659 34.3141C45.344 34.3141 45.1138 34.3667 44.9352 34.4486Z" fill="black"/>
<path fill-rule="evenodd" clip-rule="evenodd" d="M32.3115 23.96C32.3071 23.9705 32.3026 23.9809 32.2983 23.9915C32.3026 23.9809 32.3071 23.9705 32.3115 23.96ZM44.1034 13.3594C43.2587 13.5179 42.4249 13.6979 41.5959 13.9252C40.8501 14.1292 40.1085 14.3891 39.3874 14.6674C38.8713 14.8666 38.3641 15.079 37.8587 15.3034C37.0297 15.6704 36.2863 16.2309 35.6107 16.8289C35.0076 17.3636 34.4142 17.91 33.8261 18.4614C32.9377 19.2941 32.0354 20.1287 31.3832 21.1695C30.8838 21.9668 30.4942 22.8181 30.204 23.7134C29.9719 24.4291 29.9156 25.1898 29.8354 25.9342C29.8071 26.1941 29.963 26.4934 30.1398 26.6703C30.3341 26.8648 30.6002 26.9752 30.8754 26.9752C31.1499 26.9752 31.4167 26.8648 31.6103 26.6703C31.665 26.6002 31.7188 26.53 31.7735 26.4598C31.8676 26.2973 31.915 26.122 31.9154 25.9342C31.9415 25.6929 31.9688 25.452 31.9963 25.2107C32.0431 24.9081 32.1024 24.6069 32.2003 24.3162C32.2494 24.1694 32.2903 24.0153 32.3487 23.8719C32.3898 23.7742 32.4312 23.6764 32.4724 23.5785C32.469 23.5867 32.4656 23.5948 32.4622 23.6029C32.6 23.3191 32.7399 23.0414 32.8933 22.7661C33.0548 22.4781 33.2398 22.2013 33.4372 21.9356C34.0458 21.1869 34.7771 20.5389 35.4944 19.8965C36.1364 19.3218 36.7708 18.7332 37.4448 18.1951C37.9135 17.8487 38.4103 17.5566 38.939 17.3083C38.9316 17.3115 38.9241 17.3147 38.9167 17.3178C39.1067 17.2372 39.297 17.1568 39.4911 17.0863C39.8148 16.9693 40.1384 16.8541 40.4652 16.7444C41.0456 16.55 41.63 16.3556 42.2234 16.2026C43.3816 15.9048 44.5532 15.6907 45.7363 15.5215C46.1569 15.4792 46.5757 15.4374 46.9978 15.4119C47.1943 15.4 47.3946 15.3752 47.5924 15.3777C47.8849 15.3808 48.1781 15.3831 48.4706 15.3861C49.2859 15.3943 50.0961 15.4886 50.9042 15.5875C51.7712 15.734 52.6284 15.8956 53.4739 16.1438C54.2683 16.3777 55.0437 16.6506 55.8096 16.9618C56.3774 17.2342 56.9368 17.5208 57.4933 17.8171C58.004 18.0886 58.4778 18.413 58.9391 18.759C59.6478 19.3391 60.3407 19.9366 61.0164 20.554C61.6877 21.1674 62.3439 21.7942 62.92 22.4987C63.1606 22.8286 63.3907 23.1648 63.596 23.5183C63.7136 23.72 63.8196 23.9275 63.9341 24.1308C63.957 24.1711 63.9791 24.2113 64.0019 24.2514C64.0325 24.3096 64.069 24.3636 64.1121 24.414C64.2195 24.5959 64.3639 24.7404 64.5457 24.8477C64.7344 24.9894 65.0263 25.0734 65.2614 25.0734C65.5179 25.0734 65.7235 24.9924 65.9477 24.876C66.4135 24.6349 66.6245 24.0331 66.4896 23.5429C66.4189 23.285 66.2588 23.0565 66.0429 22.8997C65.997 22.8057 65.9523 22.7109 65.9046 22.6191C65.8134 22.442 65.7128 22.268 65.6078 22.0989C65.3464 21.6788 65.063 21.274 64.7548 20.8857C64.2548 20.2565 63.6913 19.6979 63.1057 19.1484C62.5337 18.6114 61.9444 18.0937 61.3468 17.5849C60.6645 17.0029 59.9619 16.4528 59.2049 15.9716C58.8848 15.7683 58.5388 15.5949 58.2024 15.4215C57.8093 15.2194 57.4149 15.0237 57.0155 14.8335C56.5642 14.6182 56.0869 14.4473 55.6193 14.2702C55.2418 14.128 54.8532 14.0122 54.4689 13.8905C52.7767 13.3541 50.998 13.1195 49.2337 12.9947C48.8548 12.9679 48.4753 12.9552 48.0955 12.9552C46.757 12.9552 45.4177 13.1128 44.1034 13.3594Z" fill="black"/>
<path fill-rule="evenodd" clip-rule="evenodd" d="M72.9865 16.5531C72.7974 16.727 72.607 16.8996 72.4079 17.0617C71.9271 17.411 71.4129 17.7118 70.8938 18C70.4295 18.2574 70.2799 18.8817 70.5438 19.3321C70.6714 19.55 70.8828 19.7129 71.1265 19.7799C71.3873 19.8513 71.6426 19.8056 71.8778 19.6817C72.1899 19.517 72.5064 19.3522 72.8045 19.163C72.9621 19.0629 73.1214 18.9642 73.2748 18.8573C73.6687 18.5839 74.0304 18.2715 74.3823 17.9475C74.778 17.5832 74.7505 16.921 74.3823 16.5531C74.1978 16.3688 73.9449 16.2644 73.6841 16.2644C73.4146 16.2644 73.182 16.3731 72.9865 16.5531Z" fill="black"/>
<path fill-rule="evenodd" clip-rule="evenodd" d="M49.2542 0.963968C49.2512 1.06422 49.2472 1.16329 49.2402 1.2628C49.1908 1.6518 49.123 2.03723 49.0568 2.42208C48.9708 2.918 48.8835 3.41393 48.7958 3.9097C48.6178 4.91772 48.4218 5.92054 48.2235 6.92218C48.1208 7.44183 48.3516 7.98521 48.7734 8.12996C49.1784 8.26906 49.6388 7.96371 49.7415 7.44406C49.9412 6.4356 50.139 5.4264 50.3179 4.41141C50.4104 3.88538 50.5023 3.35935 50.592 2.83229C50.696 2.21994 50.7977 1.59084 50.8005 0.963968C50.8028 0.438531 50.447 0 50.0276 0C49.5937 0 49.271 0.439124 49.2542 0.963968Z" fill="black"/>
<path fill-rule="evenodd" clip-rule="evenodd" d="M31.1455 2.86737C30.7222 2.98036 30.4471 3.42686 30.5742 3.84026C30.7708 4.4812 31.0153 5.10886 31.312 5.71318C31.3789 5.84911 31.4459 5.98556 31.5129 6.12202C31.5845 6.26707 31.6788 6.40548 31.761 6.54558C31.9033 6.78838 32.0499 7.0231 32.2058 7.25781C32.558 7.78824 32.9185 8.31255 33.2805 8.83646C33.6822 9.41733 34.068 10.0094 34.458 10.5978C34.5786 10.7796 34.7458 10.9161 34.9645 10.9741C35.1827 11.0321 35.4214 11.0021 35.617 10.8916C36.0033 10.6733 36.1698 10.1478 35.9212 9.77208C35.5453 9.20555 35.1669 8.64097 34.789 8.0764C34.536 7.6991 34.2667 7.33158 34.0143 6.95337C33.8345 6.68346 33.6548 6.41421 33.4745 6.14443C33.3364 5.93721 33.2168 5.71774 33.0903 5.50388C32.8582 5.11472 32.6653 4.70732 32.4801 4.29614C32.3641 4.00616 32.2524 3.71592 32.1527 3.41969C32.0858 3.22068 31.9666 3.05465 31.7764 2.94726C31.6503 2.8761 31.5061 2.83948 31.3613 2.83948C31.2887 2.83948 31.216 2.8486 31.1455 2.86737Z" fill="black"/>
<path fill-rule="evenodd" clip-rule="evenodd" d="M64.1559 4.36349C63.9379 4.66682 63.7315 4.97184 63.542 5.29665C63.4012 5.53815 63.271 5.78456 63.1384 6.03143C62.9155 6.44799 62.7069 6.87407 62.4977 7.29907C61.9255 8.46177 61.3599 9.62861 60.7931 10.7944C60.5668 11.2594 60.6825 11.8432 61.1101 12.1171C61.5127 12.3755 62.0919 12.2352 62.3182 11.77C62.875 10.6259 63.4303 9.4807 63.9927 8.33949C64.2067 7.9062 64.4193 7.47107 64.6459 7.04545C64.9231 6.52471 65.1995 6.00749 65.5342 5.52741C65.6135 5.37751 65.6536 5.21579 65.6542 5.04257C65.6542 4.78895 65.5609 4.54269 65.3972 4.36349C65.233 4.18428 65.0085 4.08179 64.7769 4.08179C64.5681 4.08179 64.2917 4.17523 64.1559 4.36349Z" fill="black"/>
<path fill-rule="evenodd" clip-rule="evenodd" d="M16.5851 17.4382C16.4659 17.6151 16.4335 17.8302 16.496 18.0278C16.5588 18.2252 16.7055 18.3759 16.9014 18.4844C17.5742 18.8583 18.2935 19.1783 19.0058 19.4915C19.4737 19.6968 19.9388 19.906 20.4137 20.0993C20.9954 20.3359 21.5879 20.5507 22.1987 20.7257C22.7615 20.8863 23.3367 20.9981 23.9173 21.0959C24.1596 21.1371 24.3863 21.1291 24.6049 21.0183C24.8045 20.9167 24.9534 20.7492 25.0149 20.5559C25.078 20.3561 25.0457 20.1385 24.9248 19.9598C24.8152 19.7974 24.6102 19.6412 24.3917 19.6042C23.9374 19.5274 23.4862 19.4441 23.041 19.3327C22.6198 19.2272 22.2058 19.1007 21.7998 18.9568C21.0425 18.6702 20.3057 18.3435 19.5724 18.0142C18.9708 17.7447 18.3648 17.478 17.7917 17.1635C17.6597 17.0913 17.5111 17.058 17.3626 17.0579C17.0537 17.0579 16.7447 17.2018 16.5851 17.4382Z" fill="black"/>
</svg>
