<svg width="409" height="335" viewBox="0 0 409 335" fill="none" xmlns="http://www.w3.org/2000/svg">
<path d="M238.587 170.367C251.605 170.367 262.158 157.036 262.158 140.592C262.158 124.149 251.605 110.818 238.587 110.818C225.569 110.818 215.016 124.149 215.016 140.592C215.016 157.036 225.569 170.367 238.587 170.367Z" fill="white"/>
<path d="M95.9197 211.72C111.907 211.72 124.867 197.278 124.867 179.464C124.867 161.65 111.907 147.209 95.9197 147.209C79.9327 147.209 66.9727 161.65 66.9727 179.464C66.9727 197.278 79.9327 211.72 95.9197 211.72Z" fill="white"/>
<path d="M327.908 295.253C342.296 295.253 353.96 282.478 353.96 266.719C353.96 250.96 342.296 238.186 327.908 238.186C313.52 238.186 301.855 250.96 301.855 266.719C301.855 282.478 313.52 295.253 327.908 295.253Z" fill="white"/>
<path fill-rule="evenodd" clip-rule="evenodd" d="M98.8733 149.816C100.12 150.036 101.351 150.312 102.589 150.571C104.807 151.032 107.068 151.253 109.206 152.016C110.552 152.655 111.811 153.409 113.021 154.28C115.003 155.906 116.769 157.751 118.371 159.75C120.49 162.611 122.29 165.668 123.732 168.923C124.651 171.242 125.347 173.598 125.758 176.059C125.964 177.941 126.001 179.819 125.828 181.706C125.533 183.368 125.04 184.955 124.424 186.531C123.26 189.124 121.788 191.56 120.095 193.841C118.576 195.712 116.912 197.428 115.046 198.949C112.696 200.659 110.19 202.046 107.538 203.222C103.82 204.724 99.9682 205.766 96.0076 206.385C92.8152 206.756 89.6242 206.796 86.4275 206.448C84.2626 206.105 82.1629 205.592 80.1114 204.816C78.8054 204.206 77.5901 203.485 76.4201 202.641C74.9461 201.426 73.6288 200.058 72.4241 198.575C71.0692 196.732 69.89 194.783 68.944 192.702C68.309 191.03 67.8498 189.327 67.5557 187.565C67.2985 185.153 67.2503 182.682 67.487 180.263C67.6727 179.212 67.9349 178.203 68.2948 177.197C69.2565 175.175 70.5483 173.373 71.8791 171.571C72.3653 170.953 72.8521 170.335 73.3418 169.719L74.2467 168.589C74.8774 167.802 75.5081 167.085 76.2578 166.424C77.4058 165.598 78.6105 164.843 79.8464 164.163C82.097 162.923 82.8142 159.881 81.5407 157.705C81.3366 157.358 81.0886 157.04 80.8066 156.757C81.2814 156.034 81.7668 155.318 82.2777 154.62C83.0246 153.699 83.8162 152.85 84.7218 152.086C85.4609 151.586 86.2241 151.155 87.0284 150.774C88.4025 150.256 89.7999 149.895 91.2484 149.647C93.7988 149.386 96.3357 149.526 98.8733 149.816ZM82.3876 145.398C78.4624 147.693 76.1126 151.682 73.7266 155.399C73.4275 155.864 73.2801 156.385 73.261 156.91C70.9827 158.097 68.7881 159.541 67.2127 161.558C65.8706 163.28 64.5277 165.01 63.3152 166.829C62.3274 168.31 61.3778 169.799 60.5636 171.385C59.8968 172.689 59.3653 174.078 58.9415 175.479C58.4851 176.988 58.3299 178.613 58.1946 180.174C58.0784 181.489 58.1471 182.817 58.1698 184.133C58.1889 185.242 58.3137 186.353 58.449 187.454C58.6651 189.231 58.9691 190.967 59.451 192.692C60.132 195.139 61.2368 197.51 62.4847 199.714C63.9275 202.263 65.7593 204.641 67.7641 206.77C69.5385 208.655 71.6417 210.288 73.8562 211.625C75.1049 212.378 76.4803 212.918 77.8317 213.463C79.1937 214.017 80.6188 214.393 82.0531 214.709C84.8239 215.323 87.6946 215.611 90.5291 215.672C93.7067 215.741 96.887 215.335 100.015 214.803C105.479 213.87 110.839 211.908 115.708 209.278C118.094 207.988 120.297 206.36 122.362 204.614C124.591 202.726 126.437 200.433 128.176 198.103C129.676 196.093 130.954 193.901 132.028 191.637C133.257 189.048 134.26 186.325 134.655 183.479C134.86 182.01 134.982 180.567 134.979 179.084C134.976 177.611 134.791 176.141 134.584 174.685C134.191 171.933 133.44 169.323 132.4 166.751C131.375 164.224 130.174 161.802 128.754 159.474C127.29 157.065 125.562 154.796 123.727 152.662C121.947 150.597 119.893 148.842 117.728 147.203C115.525 145.534 112.865 144.241 110.185 143.579C108.414 143.142 106.573 143.075 104.763 142.907C103.857 142.821 102.955 142.691 102.052 142.574C100.137 142.326 98.2129 142.242 96.284 142.193C95.997 142.185 95.71 142.182 95.423 142.182C90.8934 142.182 86.3262 143.1 82.3876 145.398Z" fill="#2C2C2C"/>
<path fill-rule="evenodd" clip-rule="evenodd" d="M262.251 136.203C262.261 136.275 262.269 136.346 262.279 136.418C262.269 136.346 262.26 136.275 262.251 136.203ZM241.566 109.962C242.75 110.193 243.883 110.538 245.008 110.972C246.702 111.746 248.262 112.699 249.758 113.807C251.807 115.466 253.612 117.336 255.259 119.389C257 121.742 258.459 124.257 259.659 126.929C260.954 130.152 261.814 133.484 262.342 136.921C262.791 140.654 262.818 144.399 262.392 148.138C261.942 151.161 261.205 154.108 260.091 156.956C259.247 158.832 258.237 160.605 257.022 162.266C255.757 163.796 254.354 165.182 252.817 166.439C250.864 167.882 248.79 169.095 246.576 170.096C244.498 170.92 242.367 171.536 240.163 171.904C238.785 172.027 237.425 172.009 236.049 171.878C234.537 171.625 233.074 171.233 231.639 170.687C230.049 169.93 228.561 169.003 227.143 167.962C224.906 166.141 222.863 164.112 221.038 161.879C219.918 160.34 218.979 158.701 218.192 156.964C217.584 155.417 217.059 153.851 216.546 152.267C215.967 150.492 215.465 148.715 215.15 146.877C215.012 145.326 215.022 143.793 215.173 142.248C215.845 138.305 217.291 134.605 218.753 130.902C219.446 129.334 220.138 127.768 220.87 126.216C221.637 124.581 222.403 122.913 223.288 121.322C223.622 122.159 224.324 122.839 225.249 123.093C226.805 123.522 228.48 122.581 228.903 121.017C229.286 119.606 229.649 118.207 230.152 116.835C230.59 115.897 231.115 115.022 231.719 114.18C232.397 113.384 233.125 112.654 233.926 111.987C234.731 111.431 235.563 110.952 236.443 110.539C237.197 110.277 237.951 110.088 238.731 109.952C239.685 109.873 240.619 109.872 241.566 109.962ZM235.129 104.334C232.72 105.139 230.539 106.654 228.731 108.411C228.475 108.662 228.23 108.925 227.993 109.196C227.778 109.105 227.559 109.039 227.339 109.006C226.611 108.896 225.881 108.802 225.15 108.707C224.339 108.605 223.489 108.699 222.692 108.857C221.861 109.023 221.011 109.286 220.269 109.699C219.588 110.078 219.035 110.524 218.409 111.013C216.344 112.632 214.885 114.963 213.786 117.319C212.954 119.113 212.173 120.924 211.397 122.742C210.592 124.635 209.8 126.542 209.114 128.481C207.94 131.788 206.814 135.071 206.196 138.54C205.712 141.255 205.565 143.959 205.9 146.7C206.188 149.078 206.73 151.362 207.542 153.615C208.782 157.061 209.994 160.529 211.854 163.702C213.169 165.947 214.894 167.96 216.69 169.83C218.595 171.815 220.754 173.578 222.979 175.187C225.108 176.726 227.475 177.891 229.941 178.771C232.502 179.685 235.334 180.031 238.038 180.059C240.748 180.089 243.491 179.477 246.068 178.683C248.806 177.839 251.463 176.571 253.908 175.09C258.392 172.377 262.223 168.582 264.917 164.09C267.754 159.356 269.052 153.925 269.713 148.502C270.384 143.005 269.88 137.38 268.695 131.99C267.521 126.656 265.21 121.541 262.074 117.081C259.029 112.752 255.145 108.998 250.547 106.352C249.443 105.713 248.247 105.234 247.065 104.757C245.952 104.312 244.792 103.999 243.616 103.767C242.585 103.563 241.534 103.464 240.483 103.464C238.666 103.464 236.848 103.76 235.129 104.334Z" fill="#2C2C2C"/>
<path fill-rule="evenodd" clip-rule="evenodd" d="M221.264 262.903C222.643 263.149 223.973 263.519 225.281 264.015C226.549 264.611 227.74 265.318 228.883 266.131C230.344 267.343 231.637 268.707 232.841 270.177C234.047 271.831 235.056 273.575 235.899 275.439C236.806 277.773 237.447 280.184 237.84 282.654C238.058 284.825 238.044 286.98 237.807 289.147C237.049 293.821 235.631 298.397 233.858 302.781C232.809 305.179 231.617 307.504 230.096 309.638C228.9 311.097 227.582 312.416 226.126 313.619C224.704 314.647 223.221 315.534 221.632 316.278C219.951 316.921 218.241 317.387 216.468 317.696C214.542 317.892 212.625 317.883 210.696 317.691C208.271 317.29 205.937 316.617 203.648 315.718C201.713 314.835 199.901 313.768 198.183 312.515C196.897 311.454 195.712 310.309 194.645 309.033C193.843 307.896 193.161 306.712 192.573 305.454C191.82 303.453 191.348 301.395 191.02 299.284C190.732 296.785 190.608 294.268 190.403 291.762C190.277 290.218 190.101 288.68 189.909 287.144C191.521 287.337 193.029 286.298 193.512 284.725C193.883 283.523 194.247 282.33 194.7 281.16C195.555 279.244 196.601 277.45 197.847 275.757C200.104 272.925 202.678 270.364 205.511 268.109C207.469 266.667 209.536 265.43 211.747 264.418C213.479 263.732 215.246 263.219 217.083 262.899C218.484 262.77 219.866 262.767 221.264 262.903ZM216.152 255.125C213.785 255.524 211.616 256.313 209.417 257.249C205.719 258.818 202.406 261.291 199.425 263.948C196.399 266.647 193.698 269.767 191.408 273.11C189.656 275.671 188.513 278.548 187.564 281.48C186.742 280.915 185.759 280.604 184.754 280.604C182.146 280.604 179.679 282.857 179.801 285.556C179.987 289.691 180.087 293.824 180.494 297.946C180.759 300.651 181.172 303.352 181.927 305.965C182.702 308.648 183.918 311.277 185.49 313.585C186.927 315.695 188.643 317.544 190.583 319.189C192.715 320.993 195.043 322.56 197.542 323.8C202.63 326.322 208.28 327.703 213.96 327.689C215.488 327.684 217.035 327.49 218.541 327.249C219.856 327.039 221.138 326.748 222.417 326.371C223.856 325.943 225.246 325.325 226.616 324.714C227.972 324.11 229.237 323.324 230.458 322.485C232.772 320.896 234.87 319.022 236.675 316.874C237.63 315.734 238.516 314.524 239.321 313.273C240.141 311.997 240.792 310.61 241.437 309.243C242.649 306.671 243.66 303.991 244.531 301.29C245.401 298.599 246.123 295.842 246.615 293.057C246.989 290.939 247.244 288.794 247.286 286.644C247.327 284.534 247.05 282.431 246.712 280.352C246.065 276.352 244.562 272.426 242.58 268.906C241.556 267.087 240.238 265.426 238.887 263.845C237.456 262.168 235.804 260.662 234.018 259.369C230.605 256.897 226.654 255.378 222.466 254.918C221.671 254.831 220.881 254.789 220.092 254.789C218.776 254.789 217.466 254.906 216.152 255.125Z" fill="#2C2C2C"/>
<path fill-rule="evenodd" clip-rule="evenodd" d="M195.826 9.02665C195.779 9.08759 195.731 9.14925 195.683 9.21019C195.726 9.14641 195.772 9.08547 195.819 9.02665C195.821 9.02665 195.823 9.02665 195.826 9.02665ZM197.049 9.02736C198.063 9.23357 199.035 9.51207 200.004 9.87844C201.229 10.4475 202.381 11.1186 203.476 11.9066C204.441 12.7328 205.316 13.6307 206.123 14.6093C207.174 16.0642 208.056 17.5927 208.802 19.2226C209.871 21.9345 210.567 24.7393 211.008 27.6206C211.421 31.0632 211.492 34.493 211.115 37.9455C210.664 40.897 209.893 43.7564 208.798 46.5392C207.381 49.7274 205.587 52.6944 203.498 55.4872C200.934 58.715 198.1 61.7289 194.889 64.3211C193.396 65.4237 191.83 66.3967 190.148 67.1854C188.986 67.6226 187.815 67.9663 186.593 68.2002C185.246 68.3306 183.911 68.3362 182.555 68.2179C181.162 67.9798 179.815 67.6241 178.493 67.1259C177.341 66.5661 176.26 65.9148 175.218 65.1743C173.166 63.4785 171.36 61.5368 169.699 59.4627C167.82 56.9342 166.187 54.2655 164.893 51.3962C163.812 48.6176 163.06 45.7675 162.559 42.8302C162.464 42.0457 162.37 41.2605 162.274 40.4761C161.997 38.1652 161.989 35.8231 162.21 33.5087C162.529 31.6301 163.032 29.8146 163.72 28.0366C165.061 25.1064 166.734 22.2853 168.64 19.686C169.558 18.5678 170.55 17.5367 171.652 16.6006C173.328 15.4228 175.125 14.4867 177.001 13.6619C178.09 13.2175 179.19 12.7952 180.292 12.3849C181.599 11.9016 182.924 11.3453 184.278 10.9627C185.146 11.4282 185.985 11.9675 186.786 12.5238C187.182 12.752 187.592 12.9242 188.017 13.039C187.878 13.5237 187.738 14.0077 187.598 14.4917C187.121 16.1301 188.157 17.8939 189.782 18.3424C191.448 18.8016 193.155 17.7911 193.634 16.1556C194.281 13.9524 194.867 11.7124 195.622 9.54325C195.712 9.36609 195.806 9.19318 195.904 9.02169C196.288 8.99972 196.665 9.00185 197.049 9.02736ZM196.322 8.55966C196.259 8.60926 196.196 8.65887 196.131 8.70847C196.192 8.65674 196.256 8.60643 196.322 8.55966ZM183.619 0.000708639C182.794 0.0113382 181.815 0.230308 180.985 0.39613C180.558 0.484709 180.134 0.600926 179.72 0.742654C177.857 1.37051 176.032 2.07915 174.208 2.81826C172.076 3.68493 169.984 4.60687 167.985 5.7414C166.703 6.46988 165.508 7.38048 164.37 8.30738C163.324 9.15775 162.388 10.0818 161.497 11.0923C160.561 12.1581 159.723 13.3182 158.898 14.4725C158.344 15.2471 157.815 16.0556 157.339 16.8805C156.868 17.7025 156.357 18.5111 155.93 19.3579C155.388 20.435 154.836 21.503 154.357 22.6106C153.785 23.9308 153.259 25.2488 152.821 26.6186C152.29 28.2882 152.032 30.0066 151.8 31.7371C151.454 34.3449 151.492 36.93 151.767 39.5407C151.93 41.1294 152.201 42.7097 152.442 44.2878C153.148 48.9075 154.742 53.3783 156.882 57.5245C158.023 59.7312 159.445 61.7849 160.954 63.7556C162.717 66.0587 164.594 68.2455 166.734 70.2113C168.672 71.9914 170.801 73.5745 173.151 74.765C174.413 75.4014 175.753 75.9109 177.101 76.3261C178.72 76.8272 180.43 77.0263 182.106 77.2176C183.426 77.3664 184.757 77.3197 186.075 77.2063C187.578 77.0787 189.064 76.813 190.515 76.4062C191.927 76.0129 193.289 75.39 194.617 74.7728C195.943 74.1556 197.183 73.3336 198.371 72.4867C202.941 69.2256 206.637 65.0212 210.025 60.5837C213.374 56.1987 215.901 51.1857 217.471 45.8986C219.085 40.4591 219.378 34.6461 218.722 29.0351C218.072 23.4879 216.66 18.0044 213.734 13.1963C212.466 11.1115 210.861 9.19885 209.034 7.59095C206.858 5.67549 204.3 4.36876 201.579 3.41068C200.314 2.96495 198.919 2.69637 197.582 2.58866C196.386 2.48874 195.21 2.60779 194.039 2.87637C193.266 3.05353 192.608 3.39793 192.046 3.85642C191.555 3.45887 191.053 3.07408 190.551 2.68858C189.889 2.1819 189.23 1.68089 188.508 1.25996C187.053 0.410302 185.406 0 183.736 0C183.697 0 183.658 -4.33271e-10 183.619 0.000708639Z" fill="#2C2C2C"/>
<path fill-rule="evenodd" clip-rule="evenodd" d="M339.066 236.78C339.78 236.929 340.461 237.135 341.139 237.391C342.078 237.847 342.955 238.366 343.808 238.972C345.485 240.339 346.967 241.88 348.319 243.57C350.168 246.079 351.71 248.754 352.975 251.603C354.489 255.377 355.514 259.286 356.108 263.307C356.417 266.062 356.499 268.827 356.211 271.584C355.813 274.028 355.139 276.398 354.236 278.703C352.97 281.527 351.385 284.147 349.533 286.625C347.286 289.438 344.8 292.009 341.999 294.275C340.322 295.521 338.583 296.591 336.686 297.468C334.519 298.31 332.284 298.898 329.988 299.268C327.988 299.471 325.999 299.477 324.001 299.267C322.307 298.978 320.678 298.533 319.07 297.923C317.544 297.218 316.115 296.381 314.745 295.401C313.339 294.248 312.077 292.973 310.913 291.571C309.814 290.055 308.882 288.45 308.103 286.749C307.156 284.264 306.569 281.697 306.148 279.077C305.987 277.71 305.814 276.343 305.742 274.969C305.684 273.901 305.628 272.835 305.573 271.769C305.472 269.844 305.585 267.891 305.804 265.97C306.099 264.237 306.542 262.55 307.168 260.911C308.149 258.828 309.351 256.89 310.715 255.04C312.216 253.182 313.838 251.418 315.56 249.765C316.23 249.126 316.878 248.451 317.584 247.852C318.406 247.159 319.228 246.464 320.048 245.768C321.193 244.902 322.342 244.045 323.505 243.202C323.971 242.864 324.435 242.522 324.895 242.177C324.683 242.835 324.491 243.497 324.311 244.165C323.929 245.583 323.527 246.991 323.098 248.395C322.605 250.006 323.666 251.758 325.255 252.196C326.916 252.652 328.563 251.647 329.058 250.039C329.83 247.523 330.457 244.954 331.398 242.498C331.876 241.478 332.42 240.507 333.066 239.585C333.529 239.039 334.014 238.531 334.548 238.05C335.047 237.702 335.563 237.396 336.107 237.121C336.54 236.973 336.971 236.86 337.417 236.772C337.973 236.739 338.515 236.74 339.066 236.78ZM334.48 230.665C333.041 231.169 331.743 231.98 330.575 232.943C330.392 233.095 330.216 233.252 330.046 233.411C329.963 233.218 329.869 233.029 329.761 232.846C329.086 231.689 327.964 230.826 326.672 230.472C326.215 230.411 325.756 230.347 325.299 230.286C324.366 230.289 323.497 230.524 322.692 230.992C320.967 231.803 319.3 232.702 317.744 233.807C316.706 234.546 315.694 235.288 314.689 236.068C313.911 236.675 313.097 237.25 312.355 237.895L309.83 240.096C309.133 240.705 308.496 241.392 307.838 242.042C306.301 243.562 304.856 245.181 303.508 246.87C301.733 249.09 300.095 251.393 298.794 253.92C297.435 256.567 296.449 259.349 295.913 262.269C295.383 265.131 295.267 268.049 295.37 270.95C295.411 272.196 295.556 273.438 295.663 274.678C295.846 276.815 296.206 278.935 296.513 281.056C296.881 283.572 297.601 286.097 298.506 288.467C299.591 291.301 300.994 293.944 302.833 296.364C304.455 298.498 306.238 300.416 308.358 302.066C309.443 302.91 310.536 303.705 311.71 304.422C313.114 305.274 314.636 305.897 316.15 306.523C318.639 307.55 321.276 307.976 323.939 308.27C326.945 308.599 330.002 308.258 332.961 307.713C335.638 307.22 338.167 306.288 340.653 305.205C343.27 304.067 345.537 302.387 347.748 300.613C351.9 297.283 355.419 293.062 358.292 288.602C361.378 283.81 363.394 278.338 364.099 272.685C364.797 267.116 363.934 261.378 362.502 255.988C361.791 253.314 360.775 250.745 359.662 248.218C358.549 245.685 357.124 243.296 355.507 241.051C352.457 236.816 348.546 232.808 343.569 230.939C341.942 230.328 340.23 229.99 338.519 229.99C337.158 229.99 335.798 230.204 334.48 230.665Z" fill="#2C2C2C"/>
<path fill-rule="evenodd" clip-rule="evenodd" d="M193.883 67.2467C193.086 68.0468 192.629 69.143 192.629 70.2747C192.629 71.2881 193.044 72.6473 193.883 73.3006C194.741 73.9703 195.583 74.657 196.385 75.3904C197.31 76.2301 198.133 77.1826 198.917 78.1541C200.841 80.7215 202.548 83.4554 204.236 86.178C205.85 88.783 207.458 91.3901 209.097 93.9759C212.205 98.8811 215.363 103.778 218.702 108.528C219.336 109.433 220.061 110.114 221.157 110.416C222.217 110.709 223.372 110.557 224.321 110.003C226.289 108.849 226.871 106.347 225.794 104.384C224.282 101.627 222.569 98.9668 220.892 96.3066C219.148 93.5387 217.382 90.7842 215.638 88.0134C213.952 85.3362 212.299 82.6405 210.6 79.9746C209.672 78.5155 208.704 77.0876 207.729 75.659C206.733 74.1921 205.631 72.7854 204.485 71.4348C203.142 69.8517 201.573 68.5145 199.94 67.2467C199.649 67.0256 199.361 66.801 199.073 66.5771C198.404 66.1923 197.684 65.9953 196.911 65.9924C195.78 65.9924 194.683 66.4495 193.883 67.2467Z" fill="#2C2C2C"/>
<path fill-rule="evenodd" clip-rule="evenodd" d="M251.198 171.397C250.512 172.084 250.121 173.025 250.121 173.997C250.121 174.868 250.478 176.025 251.198 176.593C252.643 177.731 254.021 178.91 255.245 180.291C255.935 181.069 256.638 181.841 257.305 182.641C258.78 184.413 260.25 186.19 261.714 187.973C264.207 191.007 266.661 194.066 269.086 197.151C271.164 199.909 273.197 202.696 275.24 205.478C277.467 208.517 279.806 211.469 282.128 214.435C284.115 217.07 286.06 219.731 288.001 222.4C290.137 225.342 292.327 228.254 294.361 231.269C296.407 234.297 298.389 237.364 300.543 240.317C301.536 241.679 302.55 243.025 303.552 244.382C304.053 245.06 304.551 245.741 305.046 246.422C305.596 247.178 306.166 247.917 306.622 248.728C306.633 248.767 306.644 248.807 306.655 248.846C307.131 250.613 308.8 251.866 310.624 251.866C312.844 251.866 314.768 249.995 314.738 247.753C314.726 247.008 314.61 246.288 314.466 245.564C314.347 244.979 314.01 244.428 313.769 243.885C313.539 243.368 313.168 242.892 312.856 242.424C312.385 241.724 311.873 241.046 311.366 240.373C310.312 238.97 309.237 237.577 308.188 236.168C305.858 233.04 303.687 229.801 301.448 226.607C299.344 223.603 297.068 220.716 294.849 217.796C292.302 214.449 289.75 211.106 287.084 207.853C285.754 206.228 284.422 204.603 283.11 202.962C279.304 197.931 275.563 192.842 271.514 188.001C269.321 185.379 267.123 182.763 264.92 180.153C263.99 179.048 263.065 177.93 262.094 176.862C261.449 176.15 260.801 175.436 260.156 174.724C259.027 173.479 257.711 172.433 256.394 171.397C256.145 171.206 255.899 171.015 255.649 170.824C255.077 170.492 254.459 170.323 253.795 170.323C252.826 170.323 251.885 170.713 251.198 171.397Z" fill="#2C2C2C"/>
<path fill-rule="evenodd" clip-rule="evenodd" d="M236.338 174.19C235.507 174.677 234.608 175.649 234.453 176.643C233.83 180.659 233.229 184.676 232.62 188.695C232.016 192.667 231.38 196.64 230.887 200.629C229.896 208.648 229.295 216.708 228.357 224.737C228.351 224.791 228.345 224.846 228.338 224.902C227.531 230.601 226.573 236.275 225.752 241.971C225.315 245.007 224.856 248.036 224.376 251.064C224.155 252.465 223.925 253.868 223.72 255.271C223.576 256.254 223.433 257.237 223.341 258.223C223.25 259.219 223.535 260.326 224.039 261.181C224.407 261.801 224.902 262.297 225.525 262.665C226.325 263.133 226.749 263.136 227.657 263.236C228.396 263.236 229.083 263.047 229.719 262.679C230.627 262.148 231.328 261.256 231.599 260.234C231.831 259.357 231.792 258.397 231.872 257.494C231.909 257.09 231.953 256.687 232.001 256.284C232.569 252.588 233.222 248.905 233.783 245.206C234.328 241.597 234.937 237.998 235.516 234.392C236.213 230.046 236.805 225.694 237.306 221.32C237.733 217.586 238.018 213.838 238.333 210.095C238.752 205.131 239.349 200.189 240 195.25C240.757 189.771 241.523 184.292 242.364 178.824C242.413 178.461 242.464 178.099 242.511 177.733C242.511 176.994 242.322 176.302 241.951 175.663C241.414 174.746 240.526 174.06 239.499 173.778C239.145 173.681 238.78 173.632 238.415 173.632C237.691 173.632 236.969 173.822 236.338 174.19Z" fill="#2C2C2C"/>
<path fill-rule="evenodd" clip-rule="evenodd" d="M196.526 144.682C195.905 144.737 195.283 144.864 194.666 144.958C193.498 145.14 192.33 145.319 191.16 145.499C188.969 145.836 186.794 146.302 184.616 146.727C181.204 147.389 177.804 148.136 174.4 148.84C171.479 149.443 168.548 149.973 165.613 150.481C162.26 150.992 158.902 151.468 155.563 152.051C152.161 152.647 148.8 153.337 145.44 154.134C142.47 154.838 139.519 155.67 136.601 156.564C135.115 157.017 133.636 157.49 132.157 157.963C131.579 158.149 130.995 158.322 130.417 158.519C130.089 158.633 129.769 158.752 129.447 158.883C128.829 159.128 128.18 159.423 127.64 159.818C127.347 160.061 127.056 160.304 126.765 160.546C126.493 160.916 126.227 161.288 125.963 161.663C125.591 162.366 125.415 163.111 125.44 163.905C125.48 165.07 125.987 166.18 126.838 166.973C128.189 168.233 130.405 168.571 132.015 167.593C132.721 167.379 133.457 167.242 134.176 167.093C135.133 166.894 136.087 166.691 137.041 166.47C138.917 166.033 140.791 165.588 142.664 165.146C146.541 164.228 150.417 163.401 154.331 162.688C160.817 161.742 167.326 161.022 173.772 159.83C180.045 158.671 186.27 157.254 192.522 155.977C193.562 155.807 194.602 155.637 195.643 155.466C196.907 155.258 198.171 155.142 199.446 155.017C200.841 154.88 202.189 154.805 203.587 154.776C205.054 154.746 206.516 154.792 207.982 154.841C209.325 154.886 210.747 154.132 211.639 153.176C212.583 152.16 213.095 150.796 213.047 149.409C212.998 148.023 212.393 146.699 211.38 145.753C210.309 144.755 209.047 144.4 207.616 144.348C205.716 144.279 203.829 144.247 201.927 144.27C201.735 144.272 201.543 144.276 201.351 144.283C199.739 144.339 198.132 144.54 196.526 144.682Z" fill="#2C2C2C"/>
<path fill-rule="evenodd" clip-rule="evenodd" d="M313.84 26.7843C314.649 26.9359 315.426 27.1499 316.204 27.4263C316.997 27.8147 317.732 28.2682 318.451 28.7819C320.263 30.2807 321.859 31.99 323.33 33.826C325.303 36.4686 327.032 39.2677 328.393 42.2759C329.071 43.9915 329.595 45.7425 329.911 47.5637C330.036 48.9158 330.033 50.2495 329.911 51.6037C329.671 52.9955 329.307 54.3447 328.814 55.6713C328.303 56.769 327.709 57.8029 327.009 58.7914C326.037 59.9479 324.964 60.984 323.797 61.9385C322.408 62.9377 320.959 63.798 319.409 64.5215C317.787 65.1415 316.128 65.5944 314.416 65.8835C313.02 66.0167 311.645 66.0188 310.253 65.8856C309.244 65.7007 308.27 65.4498 307.301 65.1075C306.295 64.6271 305.349 64.0651 304.434 63.421C303.36 62.5182 302.391 61.5339 301.498 60.4539C300.472 59.0203 299.599 57.513 298.865 55.9122C298.174 54.0953 297.67 52.2337 297.35 50.3175C297.138 48.098 297.211 45.8928 297.464 43.6797C297.899 40.9791 298.622 38.372 299.621 35.828C300.367 34.1612 301.218 32.5271 302.185 30.9681C302.394 31.18 302.627 31.3642 302.88 31.5123C303.714 31.997 304.727 32.1296 305.657 31.8752C306.612 31.6123 307.263 31.0142 307.81 30.2198C308.197 29.6578 308.589 29.103 308.992 28.5552C309.353 28.1477 309.715 27.7594 310.116 27.3944C310.301 27.2711 310.49 27.1556 310.688 27.0479C311.009 26.9402 311.331 26.8516 311.664 26.7793C312.39 26.7276 313.111 26.7326 313.84 26.7843ZM304.245 15.845C301.364 16.4566 298.914 18.1318 296.937 20.2655C295.681 21.6219 294.64 23.1525 293.66 24.7115C293.222 25.4088 292.791 26.1345 292.428 26.8729C290.604 30.5989 289.026 34.3802 288.19 38.4634C287.066 43.9582 287.049 49.633 288.522 55.0583C289.917 60.1818 292.685 64.9736 296.469 68.6996C298.579 70.7731 301.117 72.3732 303.846 73.4886C306.565 74.5983 309.544 75.0164 312.472 74.986C313.884 74.9697 315.309 74.7344 316.696 74.5098C317.898 74.3191 319.074 73.9839 320.231 73.6105C323.008 72.7133 325.618 71.3428 327.966 69.6244C329.122 68.774 330.23 67.8634 331.268 66.8699C332.19 65.9926 332.979 65.0069 333.751 63.9992C335.328 61.9456 336.416 59.6475 337.249 57.2005C337.75 55.7308 338.003 54.1945 338.202 52.6581C338.39 51.2132 338.443 49.7874 338.354 48.3319C338.155 45.0459 337.213 41.9343 335.899 38.9396C334.769 36.3623 333.349 33.9515 331.741 31.6427C330.031 29.193 328.107 26.8814 325.961 24.8029C324.857 23.7286 323.614 22.7904 322.36 21.8989C321.067 20.977 319.592 20.3626 318.097 19.8503C316.641 19.3521 315.038 19.1891 313.513 19.1168C313.48 19.1154 313.447 19.114 313.414 19.1133C313.318 18.9914 313.216 18.873 313.109 18.7568C311.298 16.8052 308.735 15.6509 306.099 15.6501C305.482 15.6501 304.861 15.7132 304.245 15.845Z" fill="#2C2C2C"/>
<path fill-rule="evenodd" clip-rule="evenodd" d="M88.3219 275.734C87.5218 275.839 86.8103 275.969 86.0408 276.205C84.7064 276.614 83.4415 277.285 82.1879 277.891C81.363 278.287 80.7345 279.228 80.4992 280.083C80.2391 281.033 80.3716 282.065 80.8698 282.912C81.3489 283.734 82.1461 284.346 83.0623 284.601C84.0757 284.877 84.9721 284.669 85.8912 284.229C86.3582 284.008 86.8273 283.784 87.2979 283.565C87.8322 283.367 88.3672 283.202 88.9228 283.072C89.2814 283.052 89.635 283.048 89.9943 283.066C90.362 283.149 90.7199 283.246 91.0813 283.363C91.6978 283.67 92.2747 284.022 92.8409 284.419C93.9577 285.361 94.9413 286.408 95.8653 287.537C97.3074 289.508 98.5015 291.611 99.4943 293.839C100.569 296.582 101.296 299.411 101.753 302.32C102.018 304.619 102.075 306.905 101.841 309.211C101.551 310.96 101.093 312.642 100.462 314.3C99.7182 315.92 98.826 317.443 97.785 318.895C96.7575 320.15 95.6329 321.29 94.3843 322.323C93.2937 323.088 92.1606 323.744 90.958 324.302C89.6534 324.788 88.3304 325.148 86.9613 325.391C86.0705 325.476 85.1925 325.501 84.2961 325.443C83.4748 325.283 82.6846 325.059 81.8931 324.776C80.9024 324.302 79.9741 323.743 79.0755 323.108C77.4825 321.769 76.0964 320.281 74.7776 318.684C73.9266 317.467 73.1499 316.234 72.5107 314.898C71.9721 313.426 71.6036 311.905 71.3478 310.361C71.1976 308.782 71.2011 307.212 71.3549 305.632C71.6986 303.573 72.2506 301.582 72.9883 299.635C73.2123 299.19 73.4553 298.77 73.7289 298.362C74.1916 297.838 74.6834 297.354 75.2113 296.898C76.0766 296.299 76.973 295.765 77.9027 295.264C78.9657 294.687 79.9897 294.134 80.9612 293.408C81.2993 293.148 81.6337 292.888 81.9717 292.628C82.589 292.005 83.0184 291.275 83.2537 290.427C83.608 289.143 83.4252 287.739 82.7527 286.588C82.0993 285.472 81.0165 284.639 79.7714 284.296C78.4286 283.925 77.1417 284.171 75.9292 284.797C75.0795 285.237 74.1909 285.591 73.3356 286.021C72.5242 286.428 71.7517 286.881 70.985 287.363C70.3012 287.792 69.6343 288.346 69.0086 288.833C68.0817 289.558 67.2512 290.341 66.4951 291.244C65.6872 292.204 64.9453 293.206 64.372 294.322C63.8851 295.266 63.5337 296.293 63.1489 297.284C62.8385 298.081 62.6308 298.923 62.4232 299.751C61.8506 302.012 61.4878 304.329 61.3631 306.663C61.2355 309.049 61.5736 311.477 62.0384 313.812C62.5005 316.149 63.326 318.446 64.4606 320.539C65.493 322.441 66.8054 324.143 68.1951 325.798C68.8066 326.529 69.4685 327.205 70.1297 327.891C70.7859 328.575 71.525 329.178 72.2584 329.774C73.568 330.837 74.9272 331.8 76.4274 332.572C77.6122 333.181 78.8743 333.657 80.142 334.062C81.5154 334.499 83.0014 334.637 84.43 334.74C85.9245 334.847 87.4552 334.563 88.9228 334.332C90.2267 334.128 91.4966 333.748 92.7346 333.3C94.0215 332.832 95.2779 332.251 96.4826 331.603C97.7694 330.911 98.9097 329.995 100.058 329.104C102.176 327.465 103.876 325.303 105.393 323.119C106.957 320.868 108.081 318.292 108.95 315.703C109.797 313.184 110.129 310.449 110.234 307.806C110.348 304.985 109.927 302.14 109.41 299.371C108.872 296.509 107.956 293.738 106.807 291.067C104.756 286.3 101.725 281.76 97.5788 278.577C96.4407 277.705 95.2835 277.016 93.952 276.482C92.6623 275.964 91.3697 275.734 89.9857 275.624C89.8802 275.616 89.7753 275.612 89.6697 275.612C89.2183 275.612 88.7641 275.676 88.3219 275.734Z" fill="#2C2C2C"/>
<path fill-rule="evenodd" clip-rule="evenodd" d="M86.6836 215.964C86.6836 217.871 88.2752 219.463 90.1821 219.463C92.0898 219.463 93.6814 217.871 93.6814 215.964C93.6814 214.057 92.0898 212.466 90.1821 212.466C88.2752 212.466 86.6836 214.057 86.6836 215.964Z" fill="#2C2C2C"/>
<path fill-rule="evenodd" clip-rule="evenodd" d="M81.6276 272.84C81.6177 272.964 81.6007 273.088 81.5788 273.209C81.5951 273.087 81.6121 272.964 81.6276 272.84ZM88.6092 266.769C88.5886 266.929 88.5666 267.088 88.5454 267.248C88.5666 267.088 88.5872 266.929 88.6092 266.769ZM87.0091 215.401C86.9368 216.846 86.9035 218.316 86.7462 219.753C86.6101 220.971 86.4726 222.187 86.3373 223.406C85.2771 230.364 84.0647 237.32 83.6487 244.353C83.4382 247.888 83.3716 251.428 83.2001 254.966C83.1087 256.834 83.006 258.697 82.8841 260.566C82.7735 262.216 82.5716 263.865 82.3802 265.509C82.0791 268.11 81.848 270.715 81.5575 273.316C81.5398 273.398 81.5199 273.479 81.4973 273.559C81.0933 275.228 82.0068 276.969 83.7011 277.437C85.3508 277.891 87.1281 276.892 87.5767 275.234C87.8197 274.343 87.875 273.385 87.9806 272.466C88.0522 271.829 88.1082 271.193 88.1684 270.556C88.2697 269.505 88.3902 268.457 88.5248 267.411C88.9231 264.629 89.2895 261.85 89.4999 259.049C89.7047 256.375 89.799 253.695 89.9074 251.016C90.0123 248.345 90.0817 245.654 90.3248 242.988C90.458 241.529 90.5381 240.056 90.7237 238.601C90.886 237.323 91.0483 236.047 91.2092 234.769C91.6769 231.641 92.1375 228.513 92.5924 225.383C93.0736 222.069 93.3315 218.742 93.4917 215.401C93.5774 213.635 91.9525 212.159 90.2504 212.159C88.4178 212.159 87.0976 213.638 87.0091 215.401Z" fill="#2C2C2C"/>
<path fill-rule="evenodd" clip-rule="evenodd" d="M10.6754 256.008C10.6542 256.035 10.6329 256.062 10.6124 256.09C10.6329 256.062 10.6542 256.035 10.6754 256.008ZM16.2985 246.991C16.2836 247.027 16.268 247.062 16.2531 247.097C16.268 247.062 16.2829 247.027 16.2985 246.991ZM21.8351 245.637C22.5281 245.773 23.2006 245.961 23.8689 246.196C24.1651 246.349 24.4493 246.514 24.7278 246.695C24.9425 246.9 25.1459 247.112 25.3422 247.333C25.6433 247.795 25.9077 248.269 26.1479 248.762C26.4377 249.596 26.6631 250.436 26.8317 251.3C26.9068 252.185 26.9118 253.056 26.8431 253.943C26.6531 254.948 26.3917 255.921 26.0437 256.88C25.773 257.431 25.474 257.955 25.1352 258.467C24.5853 259.095 23.9915 259.662 23.3544 260.204C22.2716 260.954 21.1314 261.571 19.9324 262.113C19.1536 262.412 18.3727 262.667 17.5599 262.854C16.9653 262.889 16.3764 262.883 15.7812 262.841C15.4155 262.765 15.0612 262.674 14.7083 262.562C14.5425 262.467 14.3802 262.37 14.2186 262.268C13.7878 261.877 13.3888 261.464 13.0062 261.019C12.2167 259.904 11.5464 258.739 10.9731 257.497C10.8129 257.07 10.6719 256.646 10.555 256.213C11.4847 255.128 12.5186 254.119 13.5901 253.179C14.3398 252.523 14.8174 251.51 15.0038 250.501C15.0945 250.427 15.1817 250.348 15.2653 250.264C15.9846 249.544 16.2397 248.7 16.3226 247.715C16.3382 247.517 16.3552 247.318 16.3722 247.121C16.4062 246.958 16.4459 246.798 16.492 246.635C16.5834 246.54 16.6769 246.447 16.774 246.356C16.9887 246.227 17.2027 246.11 17.4231 245.999C17.8533 245.864 18.2777 245.754 18.7164 245.661C19.7581 245.57 20.7891 245.56 21.8351 245.637ZM17.6648 238.087C16.5217 238.278 15.3284 238.693 14.2959 239.224C13.1777 239.8 12.148 240.537 11.2955 241.472C10.5677 242.272 9.9583 243.271 9.63445 244.307C9.61744 244.361 9.60185 244.414 9.58626 244.468C9.25533 244.512 8.92581 244.556 8.5963 244.6C7.7275 244.844 6.97138 245.284 6.32936 245.921C5.67599 246.453 5.04814 247.006 4.43871 247.59C4.01565 247.997 3.59755 248.409 3.18796 248.83C2.03075 250.021 1.10597 251.371 0.516387 252.916C-0.377917 255.269 -0.0150932 257.898 0.876375 260.19C1.73454 262.405 2.79183 264.492 4.22541 266.386C4.99782 267.404 5.77308 268.387 6.70068 269.267C7.52554 270.053 8.49425 270.751 9.48209 271.324C10.5784 271.958 11.849 272.381 13.0862 272.63C14.4482 272.902 15.8825 273.012 17.2693 272.966C18.4733 272.924 19.7049 272.708 20.865 272.389C22.2546 272.007 23.5805 271.363 24.89 270.773C27.2123 269.726 29.2857 268.177 31.1098 266.411C31.9205 265.621 32.5965 264.67 33.252 263.753C33.933 262.804 34.3901 261.693 34.8188 260.62C35.7351 258.314 36.1503 255.842 36.2056 253.367C36.2332 252.199 36.0065 251.011 35.8321 249.865C35.655 248.717 35.273 247.607 34.8464 246.53C33.9663 244.307 32.7432 242.256 30.9241 240.669C29.2411 239.202 27.2257 238.369 25.053 237.94C24.051 237.743 23.061 237.66 22.0746 237.66C20.6092 237.66 19.1501 237.84 17.6648 238.087Z" fill="#2C2C2C"/>
<path fill-rule="evenodd" clip-rule="evenodd" d="M65.752 200.614C64.2128 202.076 62.685 203.571 61.0409 204.916C59.5025 206.176 57.9484 207.407 56.3816 208.629C50.7869 212.868 45.1773 217.099 39.6903 221.475C36.9274 223.679 34.0071 225.821 31.665 228.487C29.2896 231.191 27.1666 234.089 24.9903 236.951C24.7175 237.296 24.444 237.639 24.1662 237.979C23.4852 238.809 22.7687 239.606 22.2954 240.575C21.8277 241.536 21.6144 242.494 21.9077 243.551C22.1706 244.517 22.8183 245.353 23.6793 245.86C25.5395 246.947 27.8454 246.252 28.9637 244.473C29.0267 244.372 29.0905 244.27 29.1536 244.168C29.4987 243.759 29.8537 243.355 30.1953 242.941C30.8706 242.122 31.502 241.27 32.1497 240.429C33.0561 239.249 33.9411 238.05 34.8355 236.861C35.8502 235.577 36.8749 234.3 38.0378 233.142C39.4714 231.717 40.9829 230.411 42.5469 229.134C45.4091 226.798 48.3017 224.501 51.2107 222.225C54.3918 219.736 57.575 217.256 60.7667 214.784C63.6842 212.526 66.552 210.197 69.2229 207.654C69.8352 207.075 70.4439 206.497 71.0526 205.915C72.5308 204.506 72.4699 202.032 71.0526 200.614C70.3248 199.887 69.3838 199.535 68.4384 199.535C67.4711 199.535 66.501 199.903 65.752 200.614Z" fill="#2C2C2C"/>
<path fill-rule="evenodd" clip-rule="evenodd" d="M297.536 67.0061C296.219 67.7785 295.103 68.833 293.977 69.857C293.141 70.6188 292.302 71.3798 291.463 72.1409C290.287 73.2096 289.094 74.2888 287.978 75.4241C285.393 78.0644 282.807 80.6999 280.371 83.482C275.627 88.9017 270.832 94.2944 266.317 99.9139C264.823 101.776 263.391 103.7 262.046 105.677C261.396 106.629 260.764 107.595 260.153 108.572C259.051 110.322 257.648 112.256 258.348 114.435C258.658 115.401 259.223 116.213 260.114 116.733C261 117.25 262.083 117.392 263.073 117.12C264.034 116.855 264.867 116.213 265.371 115.354C265.636 114.899 265.777 114.45 265.833 113.99C266.242 113.148 266.668 112.314 267.076 111.473C267.596 110.402 268.1 109.314 268.723 108.299C269.887 106.399 271.203 104.621 272.556 102.858C274.615 100.291 276.718 97.7604 278.824 95.2298C280.889 92.7524 282.909 90.2304 285.03 87.8033C286.237 86.4214 287.444 85.0375 288.651 83.6563C289.846 82.2886 291.142 80.9961 292.383 79.6702C293.437 78.5435 294.574 77.4834 295.668 76.3928C296.241 75.8251 296.824 75.2667 297.405 74.7055C298.385 74.736 299.357 74.2399 299.889 73.3534C300.382 72.5285 300.958 71.7172 301.392 70.8618C301.971 69.7245 301.885 68.3816 300.952 67.449C300.414 66.9097 299.684 66.6284 298.95 66.6284C298.463 66.6284 297.974 66.7524 297.536 67.0061Z" fill="#2C2C2C"/>
<path fill-rule="evenodd" clip-rule="evenodd" d="M62.0439 122.712C62.0779 122.793 62.112 122.873 62.146 122.953C62.1077 122.875 62.0737 122.795 62.0439 122.712ZM57.2181 119.438C56.5676 119.818 55.8618 120.581 55.7399 121.359C55.6322 122.06 55.4968 122.746 55.5655 123.451C55.6626 124.473 55.9588 125.356 56.5456 126.2C57.2075 127.15 58.0104 127.969 58.8076 128.8C59.8202 129.858 60.9058 130.848 61.966 131.856C63.9806 133.771 66.0541 135.623 68.1163 137.483C70.2755 139.432 72.4184 141.395 74.5635 143.357C75.513 144.224 76.4208 145.132 77.3456 146.023C78.8011 147.424 80.2517 148.83 81.6938 150.25C82.9842 151.521 85.1045 151.537 86.3914 150.25C87.6648 148.977 87.679 146.823 86.3914 145.552C82.2947 141.503 78.1343 137.536 73.891 133.641C71.7147 131.645 69.5449 129.644 67.3856 127.632C66.6026 126.901 65.8217 126.165 65.0549 125.417C64.0373 124.428 62.9999 123.452 62.0383 122.408C62.0425 122.343 62.0475 122.277 62.0546 122.211C62.1431 120.797 61.0107 119.474 59.6962 119.114C59.4177 119.037 59.1314 119 58.8458 119C58.2775 119 57.712 119.149 57.2181 119.438Z" fill="#2C2C2C"/>
<path fill-rule="evenodd" clip-rule="evenodd" d="M49.8147 107.041C50.2108 107.121 50.5927 107.228 50.9804 107.359C51.9512 107.818 52.8703 108.354 53.7497 108.974C54.2231 109.376 54.6653 109.801 55.0862 110.262C55.2846 110.56 55.4646 110.864 55.6297 111.181C55.7304 111.504 55.8133 111.826 55.8813 112.155C55.9061 112.68 55.8969 113.197 55.8601 113.72C55.6694 114.734 55.3817 115.714 55.0175 116.681C54.61 117.539 54.1529 118.354 53.6193 119.141C53.034 119.829 52.4047 120.451 51.7145 121.036C50.6955 121.746 49.6254 122.343 48.4987 122.865C47.046 123.436 45.516 123.965 43.9847 124.265C43.7168 124.277 43.4539 124.277 43.1875 124.268C42.7807 124.18 42.3839 124.072 41.9835 123.941C41.4485 123.671 40.9375 123.367 40.4393 123.031C40.2636 122.87 40.0964 122.704 39.9334 122.531C39.7456 122.23 39.5734 121.922 39.4139 121.606C39.3275 121.321 39.2566 121.036 39.1971 120.747C39.1525 119.919 39.1737 119.1 39.2453 118.276C39.3913 117.514 39.5826 116.775 39.8328 116.042C40.1793 115.356 40.5704 114.707 41.0091 114.08C41.6653 113.32 42.3704 112.625 43.1357 111.973C43.4355 111.753 43.7374 111.536 44.0428 111.324C45.319 111.849 47.041 111.423 47.6838 110.121C48.1132 109.249 48.5171 108.354 49.0571 107.546C49.2265 107.365 49.4022 107.198 49.5872 107.037C49.663 107.036 49.7388 107.037 49.8147 107.041ZM50.142 106.771C50.0251 106.821 49.9082 106.871 49.7906 106.919C49.9039 106.863 50.0209 106.814 50.142 106.771ZM48.7666 100.79C47.5924 101.023 46.669 101.539 45.7754 102.318C45.5394 102.112 45.2836 101.928 45.0129 101.77C44.6005 101.598 44.1902 101.423 43.7778 101.252C42.8643 101.005 41.9509 101.005 41.0346 101.252C39.7839 101.772 38.6075 102.254 37.4779 102.987C35.3102 104.394 33.6548 106.384 32.2021 108.488C30.7593 110.572 29.7963 113.06 29.4087 115.558C28.9629 118.42 28.9048 121.368 29.802 124.158C30.1839 125.348 30.7983 126.475 31.5013 127.508C32.3651 128.778 33.3615 129.731 34.5881 130.641C35.4491 131.277 36.3675 131.795 37.3476 132.23C38.1065 132.567 38.8506 132.861 39.6428 133.11C40.4117 133.351 41.3088 133.445 42.0976 133.528C43.4652 133.672 44.7578 133.509 46.1113 133.251C46.8313 133.113 47.5428 132.792 48.2323 132.542C49.3278 132.147 50.4212 131.707 51.487 131.231C52.4423 130.804 53.3642 130.339 54.2663 129.811C55.3598 129.169 56.3703 128.357 57.3503 127.557C59.2877 125.98 60.8269 123.845 61.8955 121.6C63.0995 119.065 63.8082 116.357 63.8996 113.545C63.9435 112.275 63.7224 110.949 63.3709 109.731C62.9748 108.354 62.2527 107.162 61.3697 106.054C59.9326 104.25 57.9066 102.979 55.8168 102.052C54.0821 101.282 52.212 100.641 50.3079 100.641C49.7955 100.641 49.2818 100.687 48.7666 100.79Z" fill="#2C2C2C"/>
<path fill-rule="evenodd" clip-rule="evenodd" d="M392.896 76.2363C393.104 76.2803 393.309 76.3313 393.516 76.3901C393.697 76.4886 393.871 76.5942 394.046 76.709C394.835 77.3978 395.553 78.1532 396.224 78.9568C397.138 80.2253 397.906 81.5554 398.555 82.9762C399.314 84.9632 399.825 87.014 400.156 89.1116C400.37 91.0313 400.44 92.9312 400.257 94.8537C400.035 96.0846 399.699 97.2638 399.253 98.4288C398.627 99.7447 397.883 100.973 397.035 102.158C395.798 103.664 394.426 105.014 392.916 106.246C391.619 107.184 390.264 107.996 388.814 108.671C387.715 109.082 386.601 109.399 385.446 109.614C384.629 109.679 383.82 109.684 383.001 109.627C382.084 109.451 381.195 109.196 380.314 108.877C379.703 108.574 379.126 108.236 378.561 107.852C377.765 107.166 377.05 106.419 376.37 105.612C375.531 104.444 374.811 103.211 374.198 101.91C373.945 101.233 373.727 100.556 373.573 99.8546C373.548 99.2196 373.566 98.596 373.622 97.9625C373.959 95.9535 374.493 93.9778 375.218 92.0744C376.265 89.8351 377.585 87.8077 379.042 85.8285C380.051 84.6833 381.075 83.5934 382.233 82.6042C383.094 82.0061 383.972 81.4576 384.916 80.9856C385.697 80.5229 386.314 79.9057 386.776 79.1254C387.12 78.5387 387.34 77.8889 387.431 77.2213C387.799 77.2426 388.174 77.2079 388.545 77.1101C389.678 76.8103 390.807 76.4723 391.962 76.264C392.274 76.2406 392.582 76.2299 392.896 76.2363ZM392.124 69.1492C390.255 69.2654 388.464 69.8323 386.671 70.3142C385.778 70.5545 385.057 71.1426 384.606 71.8931C383.496 71.3354 382.192 71.1646 380.927 71.5182C379.67 71.8668 378.463 72.3402 377.301 72.9383C376.066 73.5725 374.951 74.5327 373.929 75.4575C373.329 75.9975 372.772 76.6006 372.26 77.2291C371.637 77.9902 370.981 78.7463 370.413 79.5485C368.902 81.6886 367.518 83.8584 366.444 86.2614C365.838 87.6234 365.287 89.0074 364.872 90.4389C364.526 91.623 364.315 92.8383 364.119 94.0508C363.906 95.3689 363.739 96.6947 363.665 98.0284C363.632 98.5904 363.671 99.1445 363.712 99.7036C363.795 100.739 363.967 101.799 364.255 102.793C364.473 103.546 364.85 104.313 365.152 105.021C365.409 105.621 365.683 106.206 365.982 106.79C366.499 107.801 367.134 108.742 367.786 109.666C368.573 110.776 369.442 111.822 370.364 112.821C371.435 113.978 372.731 114.947 374.037 115.825C375.227 116.622 376.612 117.143 377.957 117.613C379.252 118.067 380.636 118.294 381.995 118.444C384.683 118.74 387.421 118.322 389.979 117.483C394.939 115.858 399.299 112.453 402.566 108.443C403.454 107.355 404.259 106.217 404.993 105.021C405.735 103.814 406.272 102.516 406.815 101.215C407.88 98.6541 408.235 95.8118 408.245 93.0573C408.254 91.6457 408.052 90.2312 407.861 88.8331C407.695 87.6121 407.476 86.411 407.194 85.2098C406.56 82.5106 405.48 79.8809 404.093 77.4835C403.199 75.9337 402.048 74.4966 400.844 73.1821C399.769 72.0086 398.474 70.9151 397.082 70.1427C395.8 69.4341 394.25 69.1287 392.777 69.1287C392.557 69.1287 392.339 69.135 392.124 69.1492Z" fill="#2C2C2C"/>
<path fill-rule="evenodd" clip-rule="evenodd" d="M366.966 101.244C363.527 102.749 360.079 104.233 356.65 105.763C355.173 106.37 353.692 106.946 352.182 107.466C350.554 108.023 348.918 108.552 347.29 109.1C343.863 110.248 340.48 111.533 337.042 112.643C336.046 112.967 335.049 113.288 334.056 113.609C333.15 113.899 332.215 114.118 331.301 114.37C329.455 114.879 327.592 115.314 325.729 115.762C322.338 116.577 318.944 117.368 315.562 118.212C308.279 120.031 300.962 121.714 293.699 123.602C290.186 124.515 286.696 125.506 283.205 126.495C279.737 127.475 276.269 128.446 272.82 129.487C271.144 129.99 269.476 130.506 267.795 130.987C266.054 131.486 264.988 133.315 265.472 135.076C265.943 136.783 267.829 137.927 269.561 137.398C276.318 135.331 283.136 133.484 289.962 131.666C297.342 129.697 304.78 127.97 312.207 126.196C315.606 125.384 318.986 124.485 322.388 123.691C325.981 122.854 329.597 122.071 333.153 121.088C334.058 120.836 334.967 120.585 335.874 120.335C336.891 120.053 337.89 119.68 338.895 119.356C340.483 118.838 342.053 118.26 343.63 117.703C347.082 116.479 350.559 115.339 354.022 114.143C356.862 113.16 359.617 111.973 362.343 110.713C365.014 109.479 367.714 108.311 370.406 107.126C371.171 106.791 371.761 105.861 371.973 105.092C372.214 104.211 372.089 103.253 371.627 102.465C371.182 101.703 370.442 101.133 369.593 100.901C369.291 100.859 368.989 100.817 368.688 100.779C368.073 100.779 367.497 100.934 366.966 101.244Z" fill="#2C2C2C"/>
</svg>
