<svg fill="#000000" xmlns="http://www.w3.org/2000/svg" viewBox="0 0 50 50" width="50px" height="50px"><path d="M25 17A8 8 0 1 0 25 33A8 8 0 1 0 25 17Z"/><path d="M25,2C12.317,2,2,12.317,2,25s10.317,23,23,23s23-10.317,23-23S37.683,2,25,2z M22.329,45.811l6.647-11.64C27.756,34.702,26.413,35,25,35c-3.559,0-6.682-1.875-8.454-4.683c-0.023-0.029-0.049-0.053-0.069-0.085L6.832,14.516c0.371-0.641,0.776-1.257,1.211-1.852l7.004,11.413C15.515,18.995,19.798,15,25,15h18.462c0.351,0.646,0.663,1.316,0.946,2H30.974C33.412,18.825,35,21.727,35,25c0,1.787-0.477,3.463-1.302,4.916c-0.007,0.014-0.006,0.029-0.014,0.043l-9.147,16.018C23.79,45.96,23.055,45.903,22.329,45.811z"/></svg>
