<svg fill="#000000" xmlns="http://www.w3.org/2000/svg" viewBox="0 0 50 50" width="50px" height="50px"><path d="M22.62,46.82c-4.21-0.5-7.23-2.02-8.18-2.55c-6.6-3.68-12.15-11.9-11.36-21.06C5.48,17.91,9.65,15,14.85,15h0.03 c3.75,0.01,7.73,1.61,10.54,4.01c-0.14-0.02-0.27-0.02-0.41-0.02c-1.2,0-2.37,0.36-3.33,0.99l-0.01-0.01 c-6.35,4.32-9.06,11.4-6.9,18.03C16.07,41.99,18.9,45.06,22.62,46.82z"/><path d="M43.37,37.58l-0.09,0.12c-3.66,4.73-8.03,7.66-13.05,8.78c-6.45-0.02-11.74-3.54-13.55-9.1 c-1.37-4.21-0.46-8.64,2.32-12.21c-0.01,1.14,0.24,2.19,0.61,3.01c2.99,6.6,8.72,8.33,10.6,8.89c1.33,0.4,3.02,0.62,4.75,0.62 c2.06,0,3.98-0.3,5.27-0.83c0.34-0.14,0.6-0.24,0.83-0.32c0.22-0.08,0.4-0.14,0.6-0.23l0.48-0.22c0.41-0.18,0.89-0.06,1.18,0.28 C43.6,36.72,43.62,37.21,43.37,37.58z"/><path d="M44.26,29.24C41.82,31.69,39.22,32,37.23,32c-2.6,0-5.47-0.82-6.74-1.62l-0.26-0.16c-0.15-0.1-0.26-0.18-0.33-0.24 c-0.39-0.36-0.44-0.96-0.11-1.37l0.09-0.12c0.17-0.22,0.62-0.77,0.92-1.94c0.26-1.03,0.45-2.66-0.36-4.24h0.01 c-2.26-5.21-9.1-9.3-15.57-9.31h-0.03c-4.17,0-7.76,1.59-10.47,4.57C7.7,8.68,15.79,3,25.3,3c1.43,0,2.87,0.14,4.27,0.41 C41.1,5.61,45.21,14.95,46.2,17.76C46.78,19.42,48.36,25.14,44.26,29.24z"/></svg>
