<svg fill="#000000" xmlns="http://www.w3.org/2000/svg" viewBox="0 0 50 50" width="50px" height="50px"><path d="M48.579,18.621c-0.103-0.433-0.492-0.748-0.937-0.748c-0.005,0-0.01,0-0.013,0c-0.38-2.756-1.289-6.538-3.471-8.691C43.973,9,43.729,8.906,43.483,8.906c-0.18,0-0.358,0.05-0.516,0.151c-0.121,0.077-0.219,0.177-0.292,0.291c-0.538-0.605-1.17-1.18-1.91-1.706C38.897,6.408,36.02,5,32.057,5c-0.651,0-1.335,0.018-2.054,0.056c0.367,0.002,0.702,0.024,1.049,0.039c-0.336-0.014-0.664-0.034-1.018-0.036c-0.011,0-0.02-0.003-0.031-0.003c2.908,0.025,5.061,2.851,5.31,3.635c-0.327-0.067-0.643-0.095-0.943-0.1c-0.249-0.004-0.486,0.007-0.707,0.032c-0.51,0.058-0.945,0.174-1.256,0.283c4.629,1.974,9.544,4.665,8.899,8.899c-0.456-0.771-1.389-1.336-1.856-1.336c0.008,0,0.019,0.006,0.025,0.006c-0.019,0-0.041-0.006-0.06-0.005c1.351,2.698,0.996,6.189,0.275,9.372c-0.21-1.568-1.435-2.979-1.435-2.979s1.292,7.463-2.539,11.248c0.602-1.488,0.52-3.669,0.52-3.669S32.078,37,27.003,37s-8.16-3.205-9-4c0.318,0.026,1.077,0.064,1.381,0.064c-0.004,0-0.009-0.001-0.013-0.001c0.291,0.001,0.574-0.011,0.851-0.031c3.974-0.296,6.264-2.625,6.503-2.797c0.357-0.256,0.6-0.351,0.868-0.351c0.173,0,0.355,0.039,0.585,0.101c0.061,0.017,0.133,0.01,0.205,0c0.294-0.039,0.621-0.28,0.621-0.649c0-0.675-1.38-2.335-3.405-2.335c-2.324,0-2.45,1.639-4.743,1.639c-2.328,0-5.147-3.502-5.229-3.791c0-0.368,0.066-1.587,1.371-1.782c1.711,0.271,2.91,0.6,3.255,0.615c0.316-1.769-0.63-3.33-0.779-3.629c0.673-0.856,2.91-2.269,3.125-2.42c0.399-0.279,0.826-0.978,0.826-1.376c0-0.344-0.367-0.428-0.367-0.428s-0.524-0.021-1.376-0.092c-1.585-0.133-1.712-0.397-2.507-1.101c-0.569-0.503-1.529-1.59-1.529-1.59s0.245-2.079,3.456-4.984c-2.63,0-6.177,3.088-6.177,3.088s-0.764-0.367-1.896-0.367c-2.049,0-3.425,0.704-3.425,0.704s-1.07-1.2-1.717-5.233C7.888,6.25,7.89,6.247,7.893,6.243c0-0.002-0.001-0.004-0.001-0.007C7.839,5.871,7.577,5.57,7.222,5.462c-0.091-0.027-0.184-0.04-0.276-0.04c-0.267,0-0.527,0.111-0.711,0.316c-2.515,2.777-2.651,7.735-2.64,9.069C1.433,17.96,1.002,19.284,1,20.476c0,0.838,0.098,1.232,0.375,1.507c0.123,0.122,0.271,0.204,0.428,0.247c-0.234,1.035-0.435,2.342-0.435,3.782c0,9.222,8.207,21.997,23.617,21.997c10.074,0,15.946-5.967,19.097-10.973C47.665,31.348,49,24.937,49,22.232C48.999,20.395,48.682,19.06,48.579,18.621z"/><path fill="none" stroke="#000000" stroke-linecap="round" stroke-linejoin="round" stroke-miterlimit="10" stroke-width="2" d="M8.727,10.602C12.769,5.945,18.733,3,25.384,3c5.139,0,9.869,1.759,13.618,4.707"/></svg>
