<?xml version="1.0" encoding="UTF-8" standalone="no"?><!-- Generator: Gravit.io --><svg xmlns="http://www.w3.org/2000/svg" xmlns:xlink="http://www.w3.org/1999/xlink" style="isolation:isolate" viewBox="0 0 132 132" width="132pt" height="132pt"><path d=" M 32.75 57 L 14.936 57 C 13.454 57 12.25 58.204 12.25 59.686 L 12.25 123.314 C 12.25 124.796 13.454 126 14.936 126 L 34.925 126 L 50.564 126 L 50.564 126 L 117.575 126 C 118.775 126 119.75 125.025 119.75 123.825 L 119.75 8.175 C 119.75 6.975 118.775 6 117.575 6 L 34.925 6 C 33.725 6 32.75 6.975 32.75 8.175 L 32.75 57 L 32.75 57 L 32.75 57 Z " fill-rule="evenodd" fill="rgb(255,255,255)" vector-effect="non-scaling-stroke" stroke-width="4" stroke="rgb(65,67,69)" stroke-linejoin="miter" stroke-linecap="square" stroke-miterlimit="3"/><g><path d="M 15.436 57 L 51.064 57 C 52.546 57 53.75 58.204 53.75 59.686 L 53.75 123.314 C 53.75 124.796 52.546 126 51.064 126 L 15.436 126 C 13.954 126 12.75 124.796 12.75 123.314 L 12.75 59.686 C 12.75 58.204 13.954 57 15.436 57 Z" style="fill:none;stroke:#414345;stroke-width:4;stroke-linecap:square;stroke-miterlimit:2;"/><path d="M 14.75 126 L 51.75 126 C 52.854 126 53.75 125.104 53.75 124 L 53.75 123 L 12.75 123 L 12.75 124 C 12.75 125.104 13.646 126 14.75 126 Z" style="stroke:none;fill:#414345;stroke-linecap:square;stroke-miterlimit:2;"/><path d="M 14.75 126 L 51.75 126 C 52.854 126 53.75 125.104 53.75 124 L 53.75 123 L 12.75 123 L 12.75 124 C 12.75 125.104 13.646 126 14.75 126 Z" style="fill:none;stroke:#414345;stroke-width:4;stroke-linecap:square;stroke-miterlimit:2;"/><path d="M 14.75 57 L 51.75 57 C 52.854 57 53.75 57.896 53.75 59 L 53.75 60 L 12.75 60 L 12.75 59 C 12.75 57.896 13.646 57 14.75 57 Z" style="stroke:none;fill:#414345;stroke-linecap:square;stroke-miterlimit:2;"/><path d="M 14.75 57 L 51.75 57 C 52.854 57 53.75 57.896 53.75 59 L 53.75 60 L 12.75 60 L 12.75 59 C 12.75 57.896 13.646 57 14.75 57 Z" style="fill:none;stroke:#414345;stroke-width:4;stroke-linecap:square;stroke-miterlimit:2;"/></g></svg>