<?xml version="1.0" encoding="iso-8859-1"?>
<!-- Generator: Adobe Illustrator 16.0.0, SVG Export Plug-In . SVG Version: 6.00 Build 0)  -->
<!DOCTYPE svg PUBLIC "-//W3C//DTD SVG 1.1//EN" "http://www.w3.org/Graphics/SVG/1.1/DTD/svg11.dtd">
<svg version="1.1" id="Capa_1" xmlns="http://www.w3.org/2000/svg" xmlns:xlink="http://www.w3.org/1999/xlink" x="0px" y="0px"
	 width="63.699px" height="63.699px" viewBox="0 0 63.699 63.699" style="enable-background:new 0 0 63.699 63.699;"
	 xml:space="preserve">
<g>
	<path d="M63.663,29.424c-0.143-1.093-0.701-2.065-1.575-2.737l-11.715-9.021V8.608c0-2.275-1.851-4.126-4.125-4.126
		c-2.273,0-4.125,1.851-4.125,4.126v2.705l-7.758-5.975c-0.718-0.551-1.612-0.856-2.517-0.856c-0.906,0-1.801,0.304-2.519,0.857
		L1.606,26.687c-1.802,1.389-2.139,3.983-0.751,5.785c0.788,1.022,1.979,1.608,3.271,1.608c0.664,0,1.302-0.153,1.88-0.451V55.09
		c0,2.275,1.851,4.127,4.126,4.127h18.534V39.732h6.351v19.482h18.271c2.274,0,4.125-1.85,4.125-4.127V33.472
		c0.649,0.399,1.387,0.608,2.157,0.608c1.289,0,2.482-0.586,3.27-1.606C63.514,31.601,63.807,30.518,63.663,29.424z M59.819,30.144
		c-0.08,0.105-0.189,0.122-0.247,0.122c-0.069,0-0.132-0.021-0.188-0.065L53.6,25.748V55.09c0,0.173-0.14,0.312-0.311,0.312H38.832
		l0.001-19.484H24.852v19.484H10.132c-0.171,0-0.31-0.141-0.31-0.312V25.96L4.315,30.2c-0.056,0.043-0.119,0.065-0.188,0.065
		c-0.059,0-0.167-0.017-0.248-0.121c-0.065-0.084-0.07-0.171-0.062-0.229c0.007-0.058,0.034-0.141,0.118-0.205L31.661,8.363
		c0.138-0.105,0.239-0.106,0.379,0l13.899,10.703V8.608c0-0.172,0.14-0.311,0.311-0.311s0.312,0.139,0.312,0.311v10.935
		l13.205,10.166c0.084,0.064,0.108,0.147,0.116,0.205C59.891,29.975,59.885,30.062,59.819,30.144z"/>
</g>
<g>
</g>
<g>
</g>
<g>
</g>
<g>
</g>
<g>
</g>
<g>
</g>
<g>
</g>
<g>
</g>
<g>
</g>
<g>
</g>
<g>
</g>
<g>
</g>
<g>
</g>
<g>
</g>
<g>
</g>
</svg>
