<?xml version="1.0" encoding="UTF-8" standalone="no"?><!-- Generator: Gravit.io --><svg xmlns="http://www.w3.org/2000/svg" xmlns:xlink="http://www.w3.org/1999/xlink" style="isolation:isolate" viewBox="0 0 150 150" width="150pt" height="150pt"><path d=" M 8.125 66 L 8.125 17.175 C 8.125 15.975 9.1 15 10.3 15 L 92.95 15 C 94.15 15 95.125 15.975 95.125 17.175 L 95.125 132.825 C 95.125 134.025 94.15 135 92.95 135 L 10.3 135 C 9.1 135 8.125 134.025 8.125 132.825 L 8.125 66 L 8.125 66 Z " fill-rule="evenodd" fill="rgb(255,255,255)" vector-effect="non-scaling-stroke" stroke-width="4" stroke="rgb(65,67,69)" stroke-linejoin="miter" stroke-linecap="square" stroke-miterlimit="3"/><path d=" M 20.021 114.899 L 20.021 114.899 L 20.021 114.899 Q 16.18 114.899 16.18 112.713 L 16.18 112.713 L 16.18 112.713 Q 16.18 111 18.307 111 L 18.307 111 L 21.202 111.295 L 21.202 111.295 Q 24.747 111.295 25.988 107.336 L 25.988 107.336 L 25.988 107.336 Q 26.992 103.969 26.992 95.284 L 26.992 95.284 L 26.992 53.572 L 26.992 53.572 Q 26.992 44.887 26.165 42.198 L 26.165 42.198 L 26.165 42.198 Q 25.338 39.51 24.186 38.535 L 24.186 38.535 L 24.186 38.535 Q 23.034 37.561 21.202 37.561 L 21.202 37.561 L 18.307 37.797 L 18.307 37.797 Q 16.18 37.797 16.18 36.083 L 16.18 36.083 L 16.18 36.083 Q 16.18 33.897 19.43 33.897 L 19.43 33.897 L 19.43 33.897 Q 22.679 33.897 25.604 34.37 L 25.604 34.37 L 25.604 34.37 Q 28.528 34.843 31.719 34.843 L 31.719 34.843 L 31.719 34.843 Q 34.909 34.843 37.834 34.37 L 37.834 34.37 L 37.834 34.37 Q 40.758 33.897 45.337 33.897 L 45.337 33.897 L 45.337 33.897 Q 49.916 33.897 55.174 35.375 L 55.174 35.375 L 55.174 35.375 Q 60.433 36.852 64.037 39.569 L 64.037 39.569 L 64.037 39.569 Q 71.54 45.182 71.54 54.458 L 71.54 54.458 L 71.54 54.458 Q 71.54 64.738 63.091 72.183 L 63.091 72.183 L 63.091 72.183 Q 60.374 74.546 57.065 76.2 L 57.065 76.2 L 76.267 104.087 L 76.267 104.087 Q 79.516 108.873 83.416 109.877 L 83.416 109.877 L 83.416 109.877 Q 84.538 110.172 86.251 110.35 L 86.251 110.35 L 86.251 110.35 Q 89.265 110.645 89.265 112.329 L 89.265 112.329 L 89.265 112.329 Q 89.265 114.013 86.015 114.013 L 86.015 114.013 L 74.671 114.013 L 74.671 114.013 Q 70.595 114.013 67.286 108.695 L 67.286 108.695 L 52.397 84.885 L 52.397 84.885 Q 50.389 81.754 48.557 80.425 L 48.557 80.425 L 48.557 80.425 Q 46.726 79.095 42.915 79.095 L 42.915 79.095 L 42.915 79.095 Q 39.104 79.095 36.268 79.272 L 36.268 79.272 L 36.268 95.284 L 36.268 95.284 Q 36.268 104.205 37.066 106.775 L 37.066 106.775 L 37.066 106.775 Q 37.863 109.345 39.015 110.32 L 39.015 110.32 L 39.015 110.32 Q 40.167 111.295 42.058 111.295 L 42.058 111.295 L 44.894 111 L 44.894 111 Q 47.021 111 47.021 112.713 L 47.021 112.713 L 47.021 112.713 Q 47.021 114.899 43.24 114.899 L 43.24 114.899 L 43.24 114.899 Q 41.29 114.899 39.104 114.544 L 39.104 114.544 L 39.104 114.544 Q 32.014 113.422 26.963 114.16 L 26.963 114.16 L 26.963 114.16 Q 21.911 114.899 20.021 114.899 Z  M 36.268 41.696 L 36.268 74.073 L 36.268 74.073 Q 40.108 74.487 43.653 74.487 L 43.653 74.487 L 47.375 74.487 L 47.375 74.487 Q 53.106 74.487 57.065 70.587 L 57.065 70.587 L 57.065 70.587 Q 61.673 66.038 61.673 58.18 L 61.673 58.18 L 61.673 58.18 Q 61.673 48.727 55.942 43.232 L 55.942 43.232 L 55.942 43.232 Q 50.566 38.033 42.117 38.033 L 42.117 38.033 L 42.117 38.033 Q 39.104 38.033 37.686 38.86 L 37.686 38.86 L 37.686 38.86 Q 36.268 39.687 36.268 41.696 L 36.268 41.696 L 36.268 41.696 Z " fill="rgb(65,67,69)"/><g><path d="M 103.561 66 L 139.189 66 C 140.671 66 141.875 67.204 141.875 68.686 L 141.875 132.314 C 141.875 133.796 140.671 135 139.189 135 L 103.561 135 C 102.079 135 100.875 133.796 100.875 132.314 L 100.875 68.686 C 100.875 67.204 102.079 66 103.561 66 Z" style="stroke:none;fill:#FFFFFF;stroke-miterlimit:10;"/><path d="M 103.561 66 L 139.189 66 C 140.671 66 141.875 67.204 141.875 68.686 L 141.875 132.314 C 141.875 133.796 140.671 135 139.189 135 L 103.561 135 C 102.079 135 100.875 133.796 100.875 132.314 L 100.875 68.686 C 100.875 67.204 102.079 66 103.561 66 Z" style="fill:none;stroke:#414345;stroke-width:4;stroke-linecap:square;stroke-miterlimit:2;"/><path d="M 102.875 135 L 139.875 135 C 140.979 135 141.875 134.104 141.875 133 L 141.875 132 L 100.875 132 L 100.875 133 C 100.875 134.104 101.771 135 102.875 135 Z" style="stroke:none;fill:#414345;stroke-linecap:square;stroke-miterlimit:2;"/><path d="M 102.875 135 L 139.875 135 C 140.979 135 141.875 134.104 141.875 133 L 141.875 132 L 100.875 132 L 100.875 133 C 100.875 134.104 101.771 135 102.875 135 Z" style="fill:none;stroke:#414345;stroke-width:4;stroke-linecap:square;stroke-miterlimit:2;"/><path d="M 102.875 66 L 139.875 66 C 140.979 66 141.875 66.896 141.875 68 L 141.875 69 L 100.875 69 L 100.875 68 C 100.875 66.896 101.771 66 102.875 66 Z" style="stroke:none;fill:#414345;stroke-linecap:square;stroke-miterlimit:2;"/><path d="M 102.875 66 L 139.875 66 C 140.979 66 141.875 66.896 141.875 68 L 141.875 69 L 100.875 69 L 100.875 68 C 100.875 66.896 101.771 66 102.875 66 Z" style="fill:none;stroke:#414345;stroke-width:4;stroke-linecap:square;stroke-miterlimit:2;"/><path d=" M 125.923 91.808 L 125.923 91.808 L 125.923 91.808 Q 127.669 91.808 129.057 92.095 L 129.057 92.095 L 128.507 95.78 L 128.507 95.78 Q 126.88 95.421 125.636 95.421 L 125.636 95.421 L 125.636 95.421 Q 122.454 95.421 120.193 98.005 L 120.193 98.005 L 120.193 98.005 Q 117.932 100.589 117.932 104.441 L 117.932 104.441 L 117.932 118.509 L 113.96 118.509 L 113.96 92.286 L 117.238 92.286 L 117.692 97.143 L 117.884 97.143 L 117.884 97.143 Q 119.343 94.583 121.401 93.196 L 121.401 93.196 L 121.401 93.196 Q 123.458 91.808 125.923 91.808 Z " fill="rgb(65,67,69)"/></g></svg>