<?xml version="1.0" encoding="iso-8859-1"?>
<!-- Generator: Adobe Illustrator 18.0.0, SVG Export Plug-In . SVG Version: 6.00 Build 0)  -->
<!DOCTYPE svg PUBLIC "-//W3C//DTD SVG 1.1//EN" "http://www.w3.org/Graphics/SVG/1.1/DTD/svg11.dtd">
<svg version="1.1" id="Capa_1" xmlns="http://www.w3.org/2000/svg" xmlns:xlink="http://www.w3.org/1999/xlink" x="0px" y="0px"
	 viewBox="0 0 460.813 460.813" style="enable-background:new 0 0 460.813 460.813;" xml:space="preserve">
<g>
	<path  d="M161.694,31.221h242.259v163.605H270.44v30.685H405.2c16.248,0,29.444-13.212,29.444-29.452V29.982
		c0-16.233-13.196-29.445-29.444-29.445H160.463c-16.232,0-29.444,13.212-29.444,29.445v51.471h30.676V31.221z"/>
	<path  d="M270.44,269.451h164.355c13.813,0,25.024-11.206,25.024-25.033c0-5.276-4.283-9.552-9.558-9.552
		H270.44V269.451z"/>
	<path opacity="0.6" d="M109.15,183.433l0.3-48.292l107.286,0.999V283.7h-85.943v32.961v10.026h84.966
		c17.467,0,31.669-14.219,31.669-31.685V136.139c0-17.464-14.202-31.676-31.669-31.676H109.449
		c-17.465,0-31.668,14.212-31.668,31.676v43.333h14.744C98.508,179.473,104.099,180.975,109.15,183.433z M162.611,292.867
		c5.441,0,9.875,4.427,9.875,9.883c0,5.472-4.434,9.897-9.875,9.897c-5.455,0-9.905-4.426-9.905-9.897
		C152.706,297.294,157.156,292.867,162.611,292.867z"/>
	<path  d="M19.088,375.941h73.438c10.521,0,19.088-8.574,19.088-19.119V217.763
		c0-10.544-8.566-19.103-19.088-19.103H19.088C8.566,198.659,0,207.219,0,217.763v139.059C0,367.367,8.566,375.941,19.088,375.941z
		 M46.353,361c0-4.494,3.637-8.131,8.147-8.131c4.478,0,8.116,3.637,8.116,8.131c0,4.494-3.638,8.139-8.116,8.139
		C49.989,369.139,46.353,365.494,46.353,361z M22.995,221.663h65.623v124.465H22.995V221.663z"/>
	<path  d="M452.455,402.56h-28.407v13.467c0,4.254-3.441,7.695-7.695,7.695c-4.253,0-7.695-3.441-7.695-7.695
		V402.56h-15.392v13.467c0,4.254-3.441,7.695-7.695,7.695c-4.252,0-7.695-3.441-7.695-7.695V402.56h-15.392v13.467
		c0,4.254-3.44,7.695-7.695,7.695c-4.252,0-7.695-3.441-7.695-7.695V402.56h-15.391v13.467c0,4.254-3.441,7.695-7.696,7.695
		c-4.252,0-7.695-3.441-7.695-7.695V402.56H300.92v13.467c0,4.254-3.441,7.695-7.695,7.695c-4.253,0-7.695-3.441-7.695-7.695V402.56
		h-15.392v13.467c0,4.254-3.441,7.695-7.695,7.695c-4.253,0-7.695-3.441-7.695-7.695V402.56h-15.392v13.467
		c0,4.254-3.441,7.695-7.695,7.695c-4.252,0-7.695-3.441-7.695-7.695V402.56h-15.391v13.467c0,4.254-3.441,7.695-7.696,7.695
		c-4.252,0-7.695-3.441-7.695-7.695V402.56h-15.391v13.467c0,4.254-3.441,7.695-7.695,7.695c-4.253,0-7.696-3.441-7.696-7.695
		V402.56H147.01v13.467c0,4.254-3.441,7.695-7.695,7.695c-4.253,0-7.695-3.441-7.695-7.695V402.56h-15.392v13.467
		c0,4.254-3.441,7.695-7.695,7.695c-4.252,0-7.695-3.441-7.695-7.695V402.56H85.445v13.467c0,4.254-3.441,7.695-7.695,7.695
		c-4.252,0-7.695-3.441-7.695-7.695V402.56H54.664v13.467c0,4.254-3.441,7.695-7.695,7.695c-4.253,0-7.696-3.441-7.696-7.695V402.56
		H8.401c-4.614,0-8.357,3.742-8.357,8.364v40.986c0,4.622,3.743,8.365,8.357,8.365h444.054c4.614,0,8.357-3.743,8.357-8.365v-40.986
		C460.813,406.302,457.069,402.56,452.455,402.56z"/>
</g>
<g>
</g>
<g>
</g>
<g>
</g>
<g>
</g>
<g>
</g>
<g>
</g>
<g>
</g>
<g>
</g>
<g>
</g>
<g>
</g>
<g>
</g>
<g>
</g>
<g>
</g>
<g>
</g>
<g>
</g>
</svg>
