<svg width="1024" height="1024" viewBox="0 0 1024 1024" fill="none" xmlns="http://www.w3.org/2000/svg">
<path fill-rule="evenodd" clip-rule="evenodd" d="M144.633 462.56V194.348C144.633 187.756 149.989 182.4 156.581 182.4H610.605C617.197 182.4 622.553 187.756 622.553 194.348V829.652C622.553 836.244 617.197 841.6 610.605 841.6H156.581C149.989 841.6 144.633 836.244 144.633 829.652V462.56Z" fill="white" stroke="#414345" stroke-width="5.33333" stroke-miterlimit="3" stroke-linecap="square"/>
<path d="M209.982 731.179C195.915 731.179 188.882 727.176 188.882 719.17C188.882 712.897 192.777 709.76 200.566 709.76L216.47 711.381C229.452 711.381 238.216 704.131 242.761 689.632C246.438 677.302 248.276 655.233 248.276 623.427V394.289C248.276 362.482 246.762 341.655 243.733 331.808C240.704 321.964 237.081 315.256 232.862 311.686C228.643 308.119 223.179 306.335 216.47 306.335L200.566 307.632C192.777 307.632 188.882 304.493 188.882 298.216C188.882 290.21 194.833 286.208 206.735 286.208C218.634 286.208 229.939 287.074 240.651 288.806C251.36 290.538 262.557 291.404 274.243 291.404C285.926 291.404 297.123 290.538 307.835 288.806C318.543 287.074 332.282 286.208 349.051 286.208C365.821 286.208 383.833 288.914 403.089 294.327C422.349 299.736 438.578 307.415 451.777 317.366C479.254 337.922 492.993 365.185 492.993 399.156C492.993 436.804 477.522 469.26 446.58 496.525C436.63 505.179 425.595 512.535 413.477 518.592L518.96 671.785C530.859 689.312 543.949 699.914 558.232 703.591C562.341 704.671 567.532 705.538 573.805 706.189C584.843 707.27 590.362 710.894 590.362 717.061C590.362 723.228 584.411 726.311 572.509 726.311H510.193C495.265 726.311 481.743 716.574 469.624 697.098L387.834 566.302C380.48 554.835 373.449 546.668 366.74 541.801C360.034 536.931 349.703 534.495 335.746 534.495C321.79 534.495 309.618 534.819 299.232 535.468V623.427C299.232 656.097 300.693 677.139 303.616 686.551C306.535 695.963 310.104 702.454 314.322 706.025C318.541 709.595 324.113 711.381 331.039 711.381L346.618 709.76C354.407 709.76 358.302 712.897 358.302 719.17C358.302 727.176 351.379 731.179 337.532 731.179C330.39 731.179 322.817 730.529 314.811 729.228C288.846 725.119 266.615 724.416 248.117 727.119C229.615 729.825 216.904 731.179 209.982 731.179ZM299.232 329.05V506.908C313.295 508.424 326.818 509.182 339.8 509.182H360.247C381.235 509.182 398.978 502.041 413.477 487.758C430.353 471.098 438.79 448.38 438.79 419.602C438.79 384.983 428.296 357.612 407.308 337.488C387.62 318.448 362.305 308.928 331.363 308.928C320.328 308.928 312.215 310.442 307.022 313.471C301.829 316.5 299.232 321.693 299.232 329.05Z" fill="#414345"/>
<path d="M668.895 462.56H864.612C872.753 462.56 879.367 469.174 879.367 477.315V826.845C879.367 834.986 872.753 841.6 864.612 841.6H668.895C660.754 841.6 654.14 834.986 654.14 826.845V477.315C654.14 469.174 660.754 462.56 668.895 462.56Z" fill="white"/>
<path d="M668.895 462.56H864.612C872.753 462.56 879.367 469.174 879.367 477.315V826.845C879.367 834.986 872.753 841.6 864.612 841.6H668.895C660.754 841.6 654.14 834.986 654.14 826.845V477.315C654.14 469.174 660.754 462.56 668.895 462.56Z" stroke="#414345" stroke-width="5.33333" stroke-miterlimit="2" stroke-linecap="square"/>
<path d="M665.127 841.6H868.38C874.445 841.6 879.367 836.678 879.367 830.613V825.12H654.14V830.613C654.14 836.678 659.062 841.6 665.127 841.6Z" fill="#414345"/>
<path d="M665.127 841.6H868.38C874.445 841.6 879.367 836.678 879.367 830.613V825.12H654.14V830.613C654.14 836.678 659.062 841.6 665.127 841.6Z" stroke="#414345" stroke-width="5.33333" stroke-miterlimit="2" stroke-linecap="square"/>
<path d="M665.127 462.56H868.38C874.445 462.56 879.367 467.482 879.367 473.547V479.04H654.14V473.547C654.14 467.482 659.062 462.56 665.127 462.56Z" fill="#414345"/>
<path d="M665.127 462.56H868.38C874.445 462.56 879.367 467.482 879.367 473.547V479.04H654.14V473.547C654.14 467.482 659.062 462.56 665.127 462.56Z" stroke="#414345" stroke-width="5.33333" stroke-miterlimit="2" stroke-linecap="square"/>
<path d="M791.737 604.332C798.131 604.332 803.87 604.858 808.953 605.909L805.932 626.151C799.973 624.837 794.716 624.179 790.16 624.179C778.507 624.179 768.541 628.911 760.26 638.374C751.98 647.837 747.84 659.622 747.84 673.729V751.009H726.02V606.958H744.027L746.521 633.639H747.576C752.919 624.264 759.359 617.036 766.896 611.957C774.429 606.874 782.71 604.332 791.737 604.332Z" fill="#414345"/>
<path d="M818.3 275.9V331.2H794.8V167.2C794.8 152.7 799.1 141.3 807.6 132.8C816 124.3 827.7 120 842.1 120C856 120 866.7 123.4 874.7 130C882.6 136.8 886.5 146.2 886.5 158.1C886.5 166.3 883.9 174 878.7 181.1C873.5 188.2 866.8 193.1 858.5 195.8V196.2C871 198.2 880.7 202.7 887.3 210C893.9 217.1 897.2 226.2 897.2 237.4C897.2 250.6 892.6 261.4 883.5 269.7C874.3 278 862.3 282.1 847.3 282.1C836.7 282.1 827 280 818.3 275.9M833.2 207.5V188.3C841.9 187.2 849 184 854.7 178.6C860.3 173.1 863.1 167 863.1 160C863.1 146.2 856 139.2 842 139.2C834.4 139.2 828.5 141.6 824.4 146.5C820.3 151.4 818.3 158.2 818.3 167.1V255C827.4 260.3 836.3 262.9 844.9 262.9C853.3 262.9 859.9 260.7 864.6 256.4C869.3 252 871.6 245.8 871.6 237.9C871.6 220 858.8 210 833.2 207.5V207.5Z" fill="#CE342C"/>
</svg>
