<svg width="24" height="24" viewBox="0 0 24 24" fill="none" xmlns="http://www.w3.org/2000/svg">
<path fill-rule="evenodd" clip-rule="evenodd" d="M12.3616 17.7407L8.27722 19.888C7.78838 20.145 7.18375 19.957 6.92675 19.4682C6.82441 19.2735 6.7891 19.0505 6.82627 18.8338L7.60632 14.2858L4.30199 11.0648C3.90651 10.6793 3.89841 10.0462 4.28391 9.65073C4.43742 9.49325 4.63856 9.39076 4.8562 9.35913L9.42268 8.69559L11.4649 4.55766C11.7093 4.0624 12.3089 3.85906 12.8042 4.10349C13.0014 4.20082 13.161 4.36044 13.2583 4.55766L15.3005 8.69559L19.867 9.35913C20.4136 9.43855 20.7922 9.94599 20.7128 10.4925C20.6812 10.7102 20.5787 10.9113 20.4212 11.0648L17.1169 14.2858L17.8969 18.8338C17.9903 19.3781 17.6247 19.8951 17.0804 19.9884C16.8636 20.0256 16.6406 19.9903 16.446 19.888L12.3616 17.7407Z" fill="#212529"/>
</svg>
