<svg width="32" height="48" viewBox="0 0 32 48" fill="none" xmlns="http://www.w3.org/2000/svg">
<path d="M18.1653 14.2683V47.3835C18.1653 47.7354 18.517 47.9553 18.8249 47.7793L31.5345 40.8749C31.6664 40.7868 31.7544 40.655 31.7544 40.4791V21.7005C31.7544 21.5246 31.6663 21.3926 31.5345 21.3047L18.8689 13.8724C18.5611 13.6965 18.1653 13.9164 18.1653 14.2681V14.2683ZM16.3621 47.5155V0.459397C16.3621 0.151428 16.0543 -0.0684788 15.7464 0.0195832L0.310286 5.73667C0.13441 5.82448 0.00244141 5.95658 0.00244141 6.17636V41.9743C0.00244141 42.1502 0.13441 42.3262 0.310286 42.4141L15.7464 47.9553C16.0543 48.0433 16.3621 47.8234 16.3621 47.5155Z" fill="#6C757D"/>
</svg>
